M48
; DRILL file {KiCad (6.0.10)} date Wed Feb  8 12:55:26 2023
; FORMAT={-:-/ absolute / inch / decimal}
; #@! TF.CreationDate,2023-02-08T12:55:26+07:00
; #@! TF.GenerationSoftware,Kicad,Pcbnew,(6.0.10)
; #@! TF.FileFunction,Plated,1,2,PTH
FMAT,2
INCH
; #@! TA.AperFunction,Plated,PTH,ViaDrill
T1C0.0157
; #@! TA.AperFunction,Plated,PTH,ComponentDrill
T2C0.0362
; #@! TA.AperFunction,Plated,PTH,ComponentDrill
T3C0.0374
; #@! TA.AperFunction,Plated,PTH,ComponentDrill
T4C0.0394
; #@! TA.AperFunction,Plated,PTH,ComponentDrill
T5C0.0512
; #@! TA.AperFunction,Plated,PTH,ComponentDrill
T6C0.0917
%
G90
G05
T1
X3.43Y-1.805
X3.43Y-1.9231
X3.43Y-2.0412
X3.43Y-2.1593
X3.43Y-2.2774
X3.545Y-3.362
X3.5481Y-1.805
X3.5481Y-1.9231
X3.5481Y-2.0412
X3.5481Y-2.1593
X3.654Y-3.361
X3.6662Y-1.805
X3.6662Y-1.9231
X3.6662Y-2.0412
X3.724Y-3.246
X3.725Y-3.52
X3.78Y-4.1
X3.7843Y-1.805
X3.7843Y-1.9231
X3.7843Y-2.0412
X3.88Y-3.767
X3.9024Y-1.805
X3.9024Y-1.9231
X3.9024Y-2.0412
X4.0206Y-1.805
X4.0206Y-1.9231
X4.0206Y-2.0412
X4.055Y-3.15
X4.134Y-3.66
X4.1387Y-1.805
X4.1387Y-1.9231
X4.1387Y-2.0412
X4.224Y-3.2
X4.2568Y-1.805
X4.2568Y-1.9231
X4.2568Y-2.0412
X4.285Y-3.605
X4.32Y-2.64
X4.36Y-2.8
X4.3749Y-1.805
X4.3749Y-1.9231
X4.415Y-2.8
X4.46Y-3.27
X4.47Y-2.8
X4.493Y-1.805
X4.9969Y-3.8307
X5.1069Y-2.7607
X5.1169Y-3.2507
X5.1719Y-3.6957
X5.3432Y-4.2907
X5.3905Y-4.2907
X5.5469Y-4.492
X5.5469Y-4.5393
X5.6168Y-2.4406
X5.6921Y-4.2435
X5.7436Y-2.4607
X5.7869Y-2.3907
X5.8569Y-2.3757
X5.8573Y-3.3207
X5.9519Y-2.1057
X6.2551Y-2.9522
X6.2869Y-2.2157
X6.2984Y-3.3065
X6.3112Y-3.9039
X6.3142Y-3.9797
X6.3191Y-2.5535
X6.3201Y-3.2258
X6.4598Y-3.7711
X6.5319Y-2.1507
X6.6069Y-2.5207
X6.6069Y-3.1957
X6.6069Y-3.8707
X6.6969Y-2.7257
X6.6969Y-3.4007
X6.6969Y-4.0757
X7.4008Y-3.2002
X7.4008Y-3.8734
X7.4019Y-2.5257
X7.4726Y-2.5258
X7.4756Y-3.2002
X7.4756Y-3.8734
X7.5425Y-3.2002
X7.5465Y-3.8734
X7.5469Y-2.5257
T2
X6.4266Y-4.391
X6.4266Y-4.4698
X6.525Y-4.391
X6.525Y-4.4698
T3
X5.0425Y-1.9957
X5.1409Y-1.9957
X5.2394Y-1.9957
X5.6199Y-1.9957
X5.7184Y-1.9957
X5.8168Y-1.9957
T4
X5.5Y-2.3
X5.5Y-2.4
X5.5Y-2.5
X5.5Y-2.6
X5.5Y-2.7
X5.5Y-2.8
X5.5Y-2.9
X5.5Y-3.0
X5.5Y-3.1
X5.5Y-3.2
X5.5Y-3.3
X5.5Y-3.4
X5.5Y-3.5
X5.5Y-3.6
X5.5Y-3.7
X5.5Y-3.8
X5.5Y-3.9
X5.5Y-4.0
X5.5Y-4.1
X5.5Y-4.2
X6.1Y-2.3
X6.1Y-2.4
X6.1Y-2.5
X6.1Y-2.6
X6.1Y-2.7
X6.1Y-2.8
X6.1Y-2.9
X6.1Y-3.0
X6.1Y-3.1
X6.1Y-3.2
X6.1Y-3.3
X6.1Y-3.4
X6.1Y-3.5
X6.1Y-3.6
X6.1Y-3.7
X6.1Y-3.8
X6.1Y-3.9
X6.1Y-4.0
X6.1Y-4.1
X6.1Y-4.2
X6.1974Y-1.9957
X6.2958Y-1.9957
X6.6764Y-1.9957
X6.7748Y-1.9957
T5
X3.0512Y-2.6575
X3.0512Y-2.8575
X3.0512Y-3.6417
X3.0512Y-3.8417
X7.8969Y-2.1007
X7.8969Y-2.3007
X7.8969Y-2.5007
X7.8969Y-2.7007
X7.8969Y-2.9007
X7.8969Y-3.1007
X7.8969Y-3.3007
X7.8969Y-3.5007
X7.8969Y-3.7007
X7.8969Y-3.9007
X7.8969Y-4.1007
X7.8969Y-4.3007
T6
X6.2388Y-4.5765
X6.7128Y-4.5765
T0
M30
