%TF.GenerationSoftware,KiCad,Pcbnew,(6.0.10)*%
%TF.CreationDate,2023-02-08T12:55:31+07:00*%
%TF.ProjectId,3_phase_firing,335f7068-6173-4655-9f66-6972696e672e,rev?*%
%TF.SameCoordinates,Original*%
%TF.FileFunction,Soldermask,Bot*%
%TF.FilePolarity,Negative*%
%FSLAX46Y46*%
G04 Gerber Fmt 4.6, Leading zero omitted, Abs format (unit mm)*
G04 Created by KiCad (PCBNEW (6.0.10)) date 2023-02-08 12:55:31*
%MOMM*%
%LPD*%
G01*
G04 APERTURE LIST*
G04 Aperture macros list*
%AMRoundRect*
0 Rectangle with rounded corners*
0 $1 Rounding radius*
0 $2 $3 $4 $5 $6 $7 $8 $9 X,Y pos of 4 corners*
0 Add a 4 corners polygon primitive as box body*
4,1,4,$2,$3,$4,$5,$6,$7,$8,$9,$2,$3,0*
0 Add four circle primitives for the rounded corners*
1,1,$1+$1,$2,$3*
1,1,$1+$1,$4,$5*
1,1,$1+$1,$6,$7*
1,1,$1+$1,$8,$9*
0 Add four rect primitives between the rounded corners*
20,1,$1+$1,$2,$3,$4,$5,0*
20,1,$1+$1,$4,$5,$6,$7,0*
20,1,$1+$1,$6,$7,$8,$9,0*
20,1,$1+$1,$8,$9,$2,$3,0*%
G04 Aperture macros list end*
%ADD10R,1.700000X1.700000*%
%ADD11C,1.700000*%
%ADD12C,3.500000*%
%ADD13C,3.200000*%
%ADD14R,2.600000X2.600000*%
%ADD15C,2.600000*%
%ADD16RoundRect,0.250000X0.600000X0.725000X-0.600000X0.725000X-0.600000X-0.725000X0.600000X-0.725000X0*%
%ADD17O,1.700000X1.950000*%
%ADD18RoundRect,0.425000X-0.425000X-0.425000X0.425000X-0.425000X0.425000X0.425000X-0.425000X0.425000X0*%
%ADD19RoundRect,0.250000X0.600000X0.750000X-0.600000X0.750000X-0.600000X-0.750000X0.600000X-0.750000X0*%
%ADD20O,1.700000X2.000000*%
%ADD21R,3.100000X1.600000*%
%ADD22RoundRect,0.250000X0.400000X0.625000X-0.400000X0.625000X-0.400000X-0.625000X0.400000X-0.625000X0*%
%ADD23R,3.500000X1.800000*%
G04 APERTURE END LIST*
D10*
%TO.C,J4*%
X165735000Y-111532500D03*
D11*
X163235000Y-111532500D03*
X163235000Y-113532500D03*
X165735000Y-113532500D03*
D12*
X170505000Y-116242500D03*
X158465000Y-116242500D03*
%TD*%
D13*
%TO.C,REF\u002A\u002A*%
X177466000Y-116242500D03*
X177466000Y-116242500D03*
%TD*%
%TO.C,REF\u002A\u002A*%
X80080000Y-54785000D03*
X80080000Y-54785000D03*
%TD*%
D14*
%TO.C,J3*%
X200580000Y-109237000D03*
D15*
X200580000Y-104157000D03*
X200580000Y-99077000D03*
X200580000Y-93997000D03*
X200580000Y-88917000D03*
X200580000Y-83837000D03*
X200580000Y-78757000D03*
X200580000Y-73677000D03*
X200580000Y-68597000D03*
X200580000Y-63517000D03*
X200580000Y-58437000D03*
X200580000Y-53357000D03*
%TD*%
D13*
%TO.C,REF\u002A\u002A*%
X152574000Y-116242500D03*
X152574000Y-116242500D03*
%TD*%
%TO.C,REF\u002A\u002A*%
X200080000Y-46535000D03*
X200080000Y-46535000D03*
%TD*%
D16*
%TO.C,J5*%
X147746666Y-50690000D03*
D17*
X145246666Y-50690000D03*
X142746666Y-50690000D03*
%TD*%
D10*
%TO.C,U6*%
X139700000Y-58420000D03*
D11*
X139700000Y-60960000D03*
X139700000Y-63500000D03*
X139700000Y-66040000D03*
X139700000Y-68580000D03*
X139700000Y-71120000D03*
X139700000Y-73660000D03*
X139700000Y-76200000D03*
X139700000Y-78740000D03*
X139700000Y-81280000D03*
X139700000Y-83820000D03*
X139700000Y-86360000D03*
X139700000Y-88900000D03*
X139700000Y-91440000D03*
X139700000Y-93980000D03*
X139700000Y-96520000D03*
X139700000Y-99060000D03*
X139700000Y-101600000D03*
X139700000Y-104140000D03*
X139700000Y-106680000D03*
X154940000Y-106680000D03*
X154940000Y-104140000D03*
X154940000Y-101600000D03*
X154940000Y-99060000D03*
X154940000Y-96520000D03*
X154940000Y-93980000D03*
X154940000Y-91440000D03*
X154940000Y-88900000D03*
X154940000Y-86360000D03*
X154940000Y-83820000D03*
X154940000Y-81280000D03*
X154940000Y-78740000D03*
X154940000Y-76200000D03*
X154940000Y-73660000D03*
X154940000Y-71120000D03*
X154940000Y-68580000D03*
X154940000Y-66040000D03*
X154940000Y-63500000D03*
X154940000Y-60960000D03*
D18*
X154940000Y-58420000D03*
%TD*%
D19*
%TO.C,J8*%
X159913332Y-50690000D03*
D20*
X157413332Y-50690000D03*
%TD*%
D14*
%TO.C,J1*%
X77500000Y-67500000D03*
D15*
X77500000Y-72580000D03*
%TD*%
D19*
%TO.C,J6*%
X172080000Y-50690000D03*
D20*
X169580000Y-50690000D03*
%TD*%
D16*
%TO.C,J7*%
X133080000Y-50690000D03*
D17*
X130580000Y-50690000D03*
X128080000Y-50690000D03*
%TD*%
D13*
%TO.C,REF\u002A\u002A*%
X110080000Y-101785000D03*
X110080000Y-101785000D03*
%TD*%
%TO.C,REF\u002A\u002A*%
X200080000Y-115785000D03*
X200080000Y-115785000D03*
%TD*%
D14*
%TO.C,J2*%
X77500000Y-92500000D03*
D15*
X77500000Y-97580000D03*
%TD*%
D21*
%TO.C,U10*%
X170735000Y-83710000D03*
X170735000Y-81170000D03*
X170735000Y-78630000D03*
X179625000Y-78630000D03*
X179625000Y-81170000D03*
X179625000Y-83710000D03*
%TD*%
D22*
%TO.C,R31*%
X188160000Y-66565000D03*
X185060000Y-66565000D03*
%TD*%
D23*
%TO.C,D9*%
X185801000Y-78503000D03*
X190801000Y-78503000D03*
%TD*%
D22*
%TO.C,R35*%
X188160000Y-86250000D03*
X185060000Y-86250000D03*
%TD*%
D23*
%TO.C,D10*%
X185801000Y-95648000D03*
X190801000Y-95648000D03*
%TD*%
D21*
%TO.C,U12*%
X170735000Y-100855000D03*
X170735000Y-98315000D03*
X170735000Y-95775000D03*
X179625000Y-95775000D03*
X179625000Y-98315000D03*
X179625000Y-100855000D03*
%TD*%
D22*
%TO.C,R30*%
X188160000Y-69105000D03*
X185060000Y-69105000D03*
%TD*%
%TO.C,R34*%
X188160000Y-83710000D03*
X185060000Y-83710000D03*
%TD*%
%TO.C,R38*%
X188160000Y-100855000D03*
X185060000Y-100855000D03*
%TD*%
D23*
%TO.C,D8*%
X185801000Y-61358000D03*
X190801000Y-61358000D03*
%TD*%
D22*
%TO.C,R39*%
X188160000Y-103395000D03*
X185060000Y-103395000D03*
%TD*%
D21*
%TO.C,U8*%
X170735000Y-66565000D03*
X170735000Y-64025000D03*
X170735000Y-61485000D03*
X179625000Y-61485000D03*
X179625000Y-64025000D03*
X179625000Y-66565000D03*
%TD*%
M02*
