%TF.GenerationSoftware,KiCad,Pcbnew,(6.0.10)*%
%TF.CreationDate,2023-02-08T12:55:31+07:00*%
%TF.ProjectId,3_phase_firing,335f7068-6173-4655-9f66-6972696e672e,rev?*%
%TF.SameCoordinates,Original*%
%TF.FileFunction,Legend,Bot*%
%TF.FilePolarity,Positive*%
%FSLAX46Y46*%
G04 Gerber Fmt 4.6, Leading zero omitted, Abs format (unit mm)*
G04 Created by KiCad (PCBNEW (6.0.10)) date 2023-02-08 12:55:31*
%MOMM*%
%LPD*%
G01*
G04 APERTURE LIST*
%ADD10C,0.150000*%
%ADD11C,0.120000*%
G04 APERTURE END LIST*
D10*
%TO.C,U10*%
X176418095Y-85492380D02*
X176418095Y-86301904D01*
X176370476Y-86397142D01*
X176322857Y-86444761D01*
X176227619Y-86492380D01*
X176037142Y-86492380D01*
X175941904Y-86444761D01*
X175894285Y-86397142D01*
X175846666Y-86301904D01*
X175846666Y-85492380D01*
X174846666Y-86492380D02*
X175418095Y-86492380D01*
X175132380Y-86492380D02*
X175132380Y-85492380D01*
X175227619Y-85635238D01*
X175322857Y-85730476D01*
X175418095Y-85778095D01*
X174227619Y-85492380D02*
X174132380Y-85492380D01*
X174037142Y-85540000D01*
X173989523Y-85587619D01*
X173941904Y-85682857D01*
X173894285Y-85873333D01*
X173894285Y-86111428D01*
X173941904Y-86301904D01*
X173989523Y-86397142D01*
X174037142Y-86444761D01*
X174132380Y-86492380D01*
X174227619Y-86492380D01*
X174322857Y-86444761D01*
X174370476Y-86397142D01*
X174418095Y-86301904D01*
X174465714Y-86111428D01*
X174465714Y-85873333D01*
X174418095Y-85682857D01*
X174370476Y-85587619D01*
X174322857Y-85540000D01*
X174227619Y-85492380D01*
%TO.C,R31*%
X187252857Y-64985380D02*
X187586190Y-64509190D01*
X187824285Y-64985380D02*
X187824285Y-63985380D01*
X187443333Y-63985380D01*
X187348095Y-64033000D01*
X187300476Y-64080619D01*
X187252857Y-64175857D01*
X187252857Y-64318714D01*
X187300476Y-64413952D01*
X187348095Y-64461571D01*
X187443333Y-64509190D01*
X187824285Y-64509190D01*
X186919523Y-63985380D02*
X186300476Y-63985380D01*
X186633809Y-64366333D01*
X186490952Y-64366333D01*
X186395714Y-64413952D01*
X186348095Y-64461571D01*
X186300476Y-64556809D01*
X186300476Y-64794904D01*
X186348095Y-64890142D01*
X186395714Y-64937761D01*
X186490952Y-64985380D01*
X186776666Y-64985380D01*
X186871904Y-64937761D01*
X186919523Y-64890142D01*
X185348095Y-64985380D02*
X185919523Y-64985380D01*
X185633809Y-64985380D02*
X185633809Y-63985380D01*
X185729047Y-64128238D01*
X185824285Y-64223476D01*
X185919523Y-64271095D01*
%TO.C,D9*%
X189039095Y-76437380D02*
X189039095Y-75437380D01*
X188801000Y-75437380D01*
X188658142Y-75485000D01*
X188562904Y-75580238D01*
X188515285Y-75675476D01*
X188467666Y-75865952D01*
X188467666Y-76008809D01*
X188515285Y-76199285D01*
X188562904Y-76294523D01*
X188658142Y-76389761D01*
X188801000Y-76437380D01*
X189039095Y-76437380D01*
X187991476Y-76437380D02*
X187801000Y-76437380D01*
X187705761Y-76389761D01*
X187658142Y-76342142D01*
X187562904Y-76199285D01*
X187515285Y-76008809D01*
X187515285Y-75627857D01*
X187562904Y-75532619D01*
X187610523Y-75485000D01*
X187705761Y-75437380D01*
X187896238Y-75437380D01*
X187991476Y-75485000D01*
X188039095Y-75532619D01*
X188086714Y-75627857D01*
X188086714Y-75865952D01*
X188039095Y-75961190D01*
X187991476Y-76008809D01*
X187896238Y-76056428D01*
X187705761Y-76056428D01*
X187610523Y-76008809D01*
X187562904Y-75961190D01*
X187515285Y-75865952D01*
%TO.C,R35*%
X187252857Y-88480380D02*
X187586190Y-88004190D01*
X187824285Y-88480380D02*
X187824285Y-87480380D01*
X187443333Y-87480380D01*
X187348095Y-87528000D01*
X187300476Y-87575619D01*
X187252857Y-87670857D01*
X187252857Y-87813714D01*
X187300476Y-87908952D01*
X187348095Y-87956571D01*
X187443333Y-88004190D01*
X187824285Y-88004190D01*
X186919523Y-87480380D02*
X186300476Y-87480380D01*
X186633809Y-87861333D01*
X186490952Y-87861333D01*
X186395714Y-87908952D01*
X186348095Y-87956571D01*
X186300476Y-88051809D01*
X186300476Y-88289904D01*
X186348095Y-88385142D01*
X186395714Y-88432761D01*
X186490952Y-88480380D01*
X186776666Y-88480380D01*
X186871904Y-88432761D01*
X186919523Y-88385142D01*
X185395714Y-87480380D02*
X185871904Y-87480380D01*
X185919523Y-87956571D01*
X185871904Y-87908952D01*
X185776666Y-87861333D01*
X185538571Y-87861333D01*
X185443333Y-87908952D01*
X185395714Y-87956571D01*
X185348095Y-88051809D01*
X185348095Y-88289904D01*
X185395714Y-88385142D01*
X185443333Y-88432761D01*
X185538571Y-88480380D01*
X185776666Y-88480380D01*
X185871904Y-88432761D01*
X185919523Y-88385142D01*
%TO.C,D10*%
X189515285Y-93437380D02*
X189515285Y-92437380D01*
X189277190Y-92437380D01*
X189134333Y-92485000D01*
X189039095Y-92580238D01*
X188991476Y-92675476D01*
X188943857Y-92865952D01*
X188943857Y-93008809D01*
X188991476Y-93199285D01*
X189039095Y-93294523D01*
X189134333Y-93389761D01*
X189277190Y-93437380D01*
X189515285Y-93437380D01*
X187991476Y-93437380D02*
X188562904Y-93437380D01*
X188277190Y-93437380D02*
X188277190Y-92437380D01*
X188372428Y-92580238D01*
X188467666Y-92675476D01*
X188562904Y-92723095D01*
X187372428Y-92437380D02*
X187277190Y-92437380D01*
X187181952Y-92485000D01*
X187134333Y-92532619D01*
X187086714Y-92627857D01*
X187039095Y-92818333D01*
X187039095Y-93056428D01*
X187086714Y-93246904D01*
X187134333Y-93342142D01*
X187181952Y-93389761D01*
X187277190Y-93437380D01*
X187372428Y-93437380D01*
X187467666Y-93389761D01*
X187515285Y-93342142D01*
X187562904Y-93246904D01*
X187610523Y-93056428D01*
X187610523Y-92818333D01*
X187562904Y-92627857D01*
X187515285Y-92532619D01*
X187467666Y-92485000D01*
X187372428Y-92437380D01*
%TO.C,U12*%
X176418095Y-102637380D02*
X176418095Y-103446904D01*
X176370476Y-103542142D01*
X176322857Y-103589761D01*
X176227619Y-103637380D01*
X176037142Y-103637380D01*
X175941904Y-103589761D01*
X175894285Y-103542142D01*
X175846666Y-103446904D01*
X175846666Y-102637380D01*
X174846666Y-103637380D02*
X175418095Y-103637380D01*
X175132380Y-103637380D02*
X175132380Y-102637380D01*
X175227619Y-102780238D01*
X175322857Y-102875476D01*
X175418095Y-102923095D01*
X174465714Y-102732619D02*
X174418095Y-102685000D01*
X174322857Y-102637380D01*
X174084761Y-102637380D01*
X173989523Y-102685000D01*
X173941904Y-102732619D01*
X173894285Y-102827857D01*
X173894285Y-102923095D01*
X173941904Y-103065952D01*
X174513333Y-103637380D01*
X173894285Y-103637380D01*
%TO.C,R30*%
X187252857Y-71335380D02*
X187586190Y-70859190D01*
X187824285Y-71335380D02*
X187824285Y-70335380D01*
X187443333Y-70335380D01*
X187348095Y-70383000D01*
X187300476Y-70430619D01*
X187252857Y-70525857D01*
X187252857Y-70668714D01*
X187300476Y-70763952D01*
X187348095Y-70811571D01*
X187443333Y-70859190D01*
X187824285Y-70859190D01*
X186919523Y-70335380D02*
X186300476Y-70335380D01*
X186633809Y-70716333D01*
X186490952Y-70716333D01*
X186395714Y-70763952D01*
X186348095Y-70811571D01*
X186300476Y-70906809D01*
X186300476Y-71144904D01*
X186348095Y-71240142D01*
X186395714Y-71287761D01*
X186490952Y-71335380D01*
X186776666Y-71335380D01*
X186871904Y-71287761D01*
X186919523Y-71240142D01*
X185681428Y-70335380D02*
X185586190Y-70335380D01*
X185490952Y-70383000D01*
X185443333Y-70430619D01*
X185395714Y-70525857D01*
X185348095Y-70716333D01*
X185348095Y-70954428D01*
X185395714Y-71144904D01*
X185443333Y-71240142D01*
X185490952Y-71287761D01*
X185586190Y-71335380D01*
X185681428Y-71335380D01*
X185776666Y-71287761D01*
X185824285Y-71240142D01*
X185871904Y-71144904D01*
X185919523Y-70954428D01*
X185919523Y-70716333D01*
X185871904Y-70525857D01*
X185824285Y-70430619D01*
X185776666Y-70383000D01*
X185681428Y-70335380D01*
%TO.C,R34*%
X187252857Y-82130380D02*
X187586190Y-81654190D01*
X187824285Y-82130380D02*
X187824285Y-81130380D01*
X187443333Y-81130380D01*
X187348095Y-81178000D01*
X187300476Y-81225619D01*
X187252857Y-81320857D01*
X187252857Y-81463714D01*
X187300476Y-81558952D01*
X187348095Y-81606571D01*
X187443333Y-81654190D01*
X187824285Y-81654190D01*
X186919523Y-81130380D02*
X186300476Y-81130380D01*
X186633809Y-81511333D01*
X186490952Y-81511333D01*
X186395714Y-81558952D01*
X186348095Y-81606571D01*
X186300476Y-81701809D01*
X186300476Y-81939904D01*
X186348095Y-82035142D01*
X186395714Y-82082761D01*
X186490952Y-82130380D01*
X186776666Y-82130380D01*
X186871904Y-82082761D01*
X186919523Y-82035142D01*
X185443333Y-81463714D02*
X185443333Y-82130380D01*
X185681428Y-81082761D02*
X185919523Y-81797047D01*
X185300476Y-81797047D01*
%TO.C,R38*%
X187252857Y-99275380D02*
X187586190Y-98799190D01*
X187824285Y-99275380D02*
X187824285Y-98275380D01*
X187443333Y-98275380D01*
X187348095Y-98323000D01*
X187300476Y-98370619D01*
X187252857Y-98465857D01*
X187252857Y-98608714D01*
X187300476Y-98703952D01*
X187348095Y-98751571D01*
X187443333Y-98799190D01*
X187824285Y-98799190D01*
X186919523Y-98275380D02*
X186300476Y-98275380D01*
X186633809Y-98656333D01*
X186490952Y-98656333D01*
X186395714Y-98703952D01*
X186348095Y-98751571D01*
X186300476Y-98846809D01*
X186300476Y-99084904D01*
X186348095Y-99180142D01*
X186395714Y-99227761D01*
X186490952Y-99275380D01*
X186776666Y-99275380D01*
X186871904Y-99227761D01*
X186919523Y-99180142D01*
X185729047Y-98703952D02*
X185824285Y-98656333D01*
X185871904Y-98608714D01*
X185919523Y-98513476D01*
X185919523Y-98465857D01*
X185871904Y-98370619D01*
X185824285Y-98323000D01*
X185729047Y-98275380D01*
X185538571Y-98275380D01*
X185443333Y-98323000D01*
X185395714Y-98370619D01*
X185348095Y-98465857D01*
X185348095Y-98513476D01*
X185395714Y-98608714D01*
X185443333Y-98656333D01*
X185538571Y-98703952D01*
X185729047Y-98703952D01*
X185824285Y-98751571D01*
X185871904Y-98799190D01*
X185919523Y-98894428D01*
X185919523Y-99084904D01*
X185871904Y-99180142D01*
X185824285Y-99227761D01*
X185729047Y-99275380D01*
X185538571Y-99275380D01*
X185443333Y-99227761D01*
X185395714Y-99180142D01*
X185348095Y-99084904D01*
X185348095Y-98894428D01*
X185395714Y-98799190D01*
X185443333Y-98751571D01*
X185538571Y-98703952D01*
%TO.C,D8*%
X189039095Y-59337380D02*
X189039095Y-58337380D01*
X188801000Y-58337380D01*
X188658142Y-58385000D01*
X188562904Y-58480238D01*
X188515285Y-58575476D01*
X188467666Y-58765952D01*
X188467666Y-58908809D01*
X188515285Y-59099285D01*
X188562904Y-59194523D01*
X188658142Y-59289761D01*
X188801000Y-59337380D01*
X189039095Y-59337380D01*
X187896238Y-58765952D02*
X187991476Y-58718333D01*
X188039095Y-58670714D01*
X188086714Y-58575476D01*
X188086714Y-58527857D01*
X188039095Y-58432619D01*
X187991476Y-58385000D01*
X187896238Y-58337380D01*
X187705761Y-58337380D01*
X187610523Y-58385000D01*
X187562904Y-58432619D01*
X187515285Y-58527857D01*
X187515285Y-58575476D01*
X187562904Y-58670714D01*
X187610523Y-58718333D01*
X187705761Y-58765952D01*
X187896238Y-58765952D01*
X187991476Y-58813571D01*
X188039095Y-58861190D01*
X188086714Y-58956428D01*
X188086714Y-59146904D01*
X188039095Y-59242142D01*
X187991476Y-59289761D01*
X187896238Y-59337380D01*
X187705761Y-59337380D01*
X187610523Y-59289761D01*
X187562904Y-59242142D01*
X187515285Y-59146904D01*
X187515285Y-58956428D01*
X187562904Y-58861190D01*
X187610523Y-58813571D01*
X187705761Y-58765952D01*
%TO.C,R39*%
X187252857Y-105625380D02*
X187586190Y-105149190D01*
X187824285Y-105625380D02*
X187824285Y-104625380D01*
X187443333Y-104625380D01*
X187348095Y-104673000D01*
X187300476Y-104720619D01*
X187252857Y-104815857D01*
X187252857Y-104958714D01*
X187300476Y-105053952D01*
X187348095Y-105101571D01*
X187443333Y-105149190D01*
X187824285Y-105149190D01*
X186919523Y-104625380D02*
X186300476Y-104625380D01*
X186633809Y-105006333D01*
X186490952Y-105006333D01*
X186395714Y-105053952D01*
X186348095Y-105101571D01*
X186300476Y-105196809D01*
X186300476Y-105434904D01*
X186348095Y-105530142D01*
X186395714Y-105577761D01*
X186490952Y-105625380D01*
X186776666Y-105625380D01*
X186871904Y-105577761D01*
X186919523Y-105530142D01*
X185824285Y-105625380D02*
X185633809Y-105625380D01*
X185538571Y-105577761D01*
X185490952Y-105530142D01*
X185395714Y-105387285D01*
X185348095Y-105196809D01*
X185348095Y-104815857D01*
X185395714Y-104720619D01*
X185443333Y-104673000D01*
X185538571Y-104625380D01*
X185729047Y-104625380D01*
X185824285Y-104673000D01*
X185871904Y-104720619D01*
X185919523Y-104815857D01*
X185919523Y-105053952D01*
X185871904Y-105149190D01*
X185824285Y-105196809D01*
X185729047Y-105244428D01*
X185538571Y-105244428D01*
X185443333Y-105196809D01*
X185395714Y-105149190D01*
X185348095Y-105053952D01*
%TO.C,U8*%
X175941904Y-68347380D02*
X175941904Y-69156904D01*
X175894285Y-69252142D01*
X175846666Y-69299761D01*
X175751428Y-69347380D01*
X175560952Y-69347380D01*
X175465714Y-69299761D01*
X175418095Y-69252142D01*
X175370476Y-69156904D01*
X175370476Y-68347380D01*
X174751428Y-68775952D02*
X174846666Y-68728333D01*
X174894285Y-68680714D01*
X174941904Y-68585476D01*
X174941904Y-68537857D01*
X174894285Y-68442619D01*
X174846666Y-68395000D01*
X174751428Y-68347380D01*
X174560952Y-68347380D01*
X174465714Y-68395000D01*
X174418095Y-68442619D01*
X174370476Y-68537857D01*
X174370476Y-68585476D01*
X174418095Y-68680714D01*
X174465714Y-68728333D01*
X174560952Y-68775952D01*
X174751428Y-68775952D01*
X174846666Y-68823571D01*
X174894285Y-68871190D01*
X174941904Y-68966428D01*
X174941904Y-69156904D01*
X174894285Y-69252142D01*
X174846666Y-69299761D01*
X174751428Y-69347380D01*
X174560952Y-69347380D01*
X174465714Y-69299761D01*
X174418095Y-69252142D01*
X174370476Y-69156904D01*
X174370476Y-68966428D01*
X174418095Y-68871190D01*
X174465714Y-68823571D01*
X174560952Y-68775952D01*
D11*
%TO.C,U10*%
X172645000Y-85040000D02*
X172645000Y-77300000D01*
X168945000Y-85100000D02*
X168945000Y-77240000D01*
X181415000Y-77240000D02*
X181415000Y-85100000D01*
X177715000Y-85040000D02*
X176180000Y-85040000D01*
X168945000Y-77240000D02*
X181415000Y-77240000D01*
X172645000Y-77300000D02*
X177715000Y-77300000D01*
X177715000Y-77300000D02*
X177715000Y-85040000D01*
X181415000Y-85100000D02*
X168945000Y-85100000D01*
X174180000Y-85040000D02*
X172645000Y-85040000D01*
X176180000Y-85040000D02*
G75*
G03*
X174180000Y-85040000I-1000000J0D01*
G01*
%TO.C,R31*%
X187337064Y-67475000D02*
X185882936Y-67475000D01*
X187337064Y-65655000D02*
X185882936Y-65655000D01*
%TO.C,D9*%
X183901000Y-76853000D02*
X190801000Y-76853000D01*
X183901000Y-80153000D02*
X183901000Y-76853000D01*
X183901000Y-80153000D02*
X190801000Y-80153000D01*
%TO.C,R35*%
X187337064Y-85340000D02*
X185882936Y-85340000D01*
X187337064Y-87160000D02*
X185882936Y-87160000D01*
%TO.C,D10*%
X183901000Y-97298000D02*
X183901000Y-93998000D01*
X183901000Y-93998000D02*
X190801000Y-93998000D01*
X183901000Y-97298000D02*
X190801000Y-97298000D01*
%TO.C,U12*%
X168945000Y-102245000D02*
X168945000Y-94385000D01*
X172645000Y-102185000D02*
X172645000Y-94445000D01*
X177715000Y-94445000D02*
X177715000Y-102185000D01*
X181415000Y-102245000D02*
X168945000Y-102245000D01*
X177715000Y-102185000D02*
X176180000Y-102185000D01*
X181415000Y-94385000D02*
X181415000Y-102245000D01*
X174180000Y-102185000D02*
X172645000Y-102185000D01*
X172645000Y-94445000D02*
X177715000Y-94445000D01*
X168945000Y-94385000D02*
X181415000Y-94385000D01*
X176180000Y-102185000D02*
G75*
G03*
X174180000Y-102185000I-1000000J0D01*
G01*
%TO.C,R30*%
X187337064Y-68195000D02*
X185882936Y-68195000D01*
X187337064Y-70015000D02*
X185882936Y-70015000D01*
%TO.C,R34*%
X187337064Y-84620000D02*
X185882936Y-84620000D01*
X187337064Y-82800000D02*
X185882936Y-82800000D01*
%TO.C,R38*%
X187337064Y-99945000D02*
X185882936Y-99945000D01*
X187337064Y-101765000D02*
X185882936Y-101765000D01*
%TO.C,D8*%
X183901000Y-63008000D02*
X183901000Y-59708000D01*
X183901000Y-63008000D02*
X190801000Y-63008000D01*
X183901000Y-59708000D02*
X190801000Y-59708000D01*
%TO.C,R39*%
X187337064Y-102485000D02*
X185882936Y-102485000D01*
X187337064Y-104305000D02*
X185882936Y-104305000D01*
%TO.C,U8*%
X174180000Y-67895000D02*
X172645000Y-67895000D01*
X172645000Y-67895000D02*
X172645000Y-60155000D01*
X181415000Y-67955000D02*
X168945000Y-67955000D01*
X172645000Y-60155000D02*
X177715000Y-60155000D01*
X168945000Y-67955000D02*
X168945000Y-60095000D01*
X177715000Y-60155000D02*
X177715000Y-67895000D01*
X181415000Y-60095000D02*
X181415000Y-67955000D01*
X177715000Y-67895000D02*
X176180000Y-67895000D01*
X168945000Y-60095000D02*
X181415000Y-60095000D01*
X176180000Y-67895000D02*
G75*
G03*
X174180000Y-67895000I-1000000J0D01*
G01*
%TD*%
M02*
