%TF.GenerationSoftware,KiCad,Pcbnew,(6.0.10)*%
%TF.CreationDate,2023-02-08T12:55:31+07:00*%
%TF.ProjectId,3_phase_firing,335f7068-6173-4655-9f66-6972696e672e,rev?*%
%TF.SameCoordinates,Original*%
%TF.FileFunction,Legend,Top*%
%TF.FilePolarity,Positive*%
%FSLAX46Y46*%
G04 Gerber Fmt 4.6, Leading zero omitted, Abs format (unit mm)*
G04 Created by KiCad (PCBNEW (6.0.10)) date 2023-02-08 12:55:31*
%MOMM*%
%LPD*%
G01*
G04 APERTURE LIST*
%ADD10C,0.150000*%
%ADD11C,0.300000*%
%ADD12C,0.120000*%
%ADD13C,0.100000*%
G04 APERTURE END LIST*
D10*
X195319000Y-50795000D02*
X208830000Y-50785000D01*
X195330000Y-71137000D02*
X209080000Y-71137000D01*
X122428000Y-72136000D02*
X122428000Y-73660000D01*
X122500000Y-97028000D02*
X122555000Y-102870000D01*
X122500000Y-84328000D02*
X122500000Y-86360000D01*
X122500000Y-60960000D02*
X122500000Y-45720000D01*
X195319000Y-111837000D02*
X208830000Y-111827000D01*
G36*
X125680000Y-112760000D02*
G01*
X75680000Y-112760000D01*
X75680000Y-111760000D01*
X125680000Y-111760000D01*
X125680000Y-112760000D01*
G37*
X125680000Y-112760000D02*
X75680000Y-112760000D01*
X75680000Y-111760000D01*
X125680000Y-111760000D01*
X125680000Y-112760000D01*
X195330000Y-91457000D02*
X209080000Y-91457000D01*
X189830000Y-50785000D02*
X189830000Y-59135000D01*
X195280000Y-50795000D02*
X189830000Y-50785000D01*
D11*
X207618933Y-90345571D02*
X207618933Y-89393190D01*
X208190361Y-90536047D02*
X206190361Y-89869380D01*
X208190361Y-89202714D01*
X206380838Y-88631285D02*
X206285600Y-88536047D01*
X206190361Y-88345571D01*
X206190361Y-87869380D01*
X206285600Y-87678904D01*
X206380838Y-87583666D01*
X206571314Y-87488428D01*
X206761790Y-87488428D01*
X207047504Y-87583666D01*
X208190361Y-88726523D01*
X208190361Y-87488428D01*
X207618933Y-75105571D02*
X207618933Y-74153190D01*
X208190361Y-75296047D02*
X206190361Y-74629380D01*
X208190361Y-73962714D01*
X208190361Y-72248428D02*
X208190361Y-73391285D01*
X208190361Y-72819857D02*
X206190361Y-72819857D01*
X206476076Y-73010333D01*
X206666552Y-73200809D01*
X206761790Y-73391285D01*
X206285600Y-79185571D02*
X206190361Y-79376047D01*
X206190361Y-79661761D01*
X206285600Y-79947476D01*
X206476076Y-80137952D01*
X206666552Y-80233190D01*
X207047504Y-80328428D01*
X207333219Y-80328428D01*
X207714171Y-80233190D01*
X207904647Y-80137952D01*
X208095123Y-79947476D01*
X208190361Y-79661761D01*
X208190361Y-79471285D01*
X208095123Y-79185571D01*
X207999885Y-79090333D01*
X207333219Y-79090333D01*
X207333219Y-79471285D01*
X208190361Y-77185571D02*
X208190361Y-78328428D01*
X208190361Y-77757000D02*
X206190361Y-77757000D01*
X206476076Y-77947476D01*
X206666552Y-78137952D01*
X206761790Y-78328428D01*
X76236190Y-107639761D02*
X76236190Y-105639761D01*
X76902857Y-107068333D01*
X77569523Y-105639761D01*
X77569523Y-107639761D01*
X78902857Y-105639761D02*
X79283809Y-105639761D01*
X79474285Y-105735000D01*
X79664761Y-105925476D01*
X79760000Y-106306428D01*
X79760000Y-106973095D01*
X79664761Y-107354047D01*
X79474285Y-107544523D01*
X79283809Y-107639761D01*
X78902857Y-107639761D01*
X78712380Y-107544523D01*
X78521904Y-107354047D01*
X78426666Y-106973095D01*
X78426666Y-106306428D01*
X78521904Y-105925476D01*
X78712380Y-105735000D01*
X78902857Y-105639761D01*
X80617142Y-107639761D02*
X80617142Y-105639761D01*
X81093333Y-105639761D01*
X81379047Y-105735000D01*
X81569523Y-105925476D01*
X81664761Y-106115952D01*
X81760000Y-106496904D01*
X81760000Y-106782619D01*
X81664761Y-107163571D01*
X81569523Y-107354047D01*
X81379047Y-107544523D01*
X81093333Y-107639761D01*
X80617142Y-107639761D01*
X82617142Y-105639761D02*
X82617142Y-107258809D01*
X82712380Y-107449285D01*
X82807619Y-107544523D01*
X82998095Y-107639761D01*
X83379047Y-107639761D01*
X83569523Y-107544523D01*
X83664761Y-107449285D01*
X83760000Y-107258809D01*
X83760000Y-105639761D01*
X85664761Y-107639761D02*
X84712380Y-107639761D01*
X84712380Y-105639761D01*
X87855238Y-107639761D02*
X87855238Y-105639761D01*
X88617142Y-105639761D01*
X88807619Y-105735000D01*
X88902857Y-105830238D01*
X88998095Y-106020714D01*
X88998095Y-106306428D01*
X88902857Y-106496904D01*
X88807619Y-106592142D01*
X88617142Y-106687380D01*
X87855238Y-106687380D01*
X89855238Y-106592142D02*
X90521904Y-106592142D01*
X90807619Y-107639761D02*
X89855238Y-107639761D01*
X89855238Y-105639761D01*
X90807619Y-105639761D01*
X91664761Y-107639761D02*
X91664761Y-105639761D01*
X92331428Y-107068333D01*
X92998095Y-105639761D01*
X92998095Y-107639761D01*
X93950476Y-107639761D02*
X93950476Y-105639761D01*
X96045714Y-107449285D02*
X95950476Y-107544523D01*
X95664761Y-107639761D01*
X95474285Y-107639761D01*
X95188571Y-107544523D01*
X94998095Y-107354047D01*
X94902857Y-107163571D01*
X94807619Y-106782619D01*
X94807619Y-106496904D01*
X94902857Y-106115952D01*
X94998095Y-105925476D01*
X95188571Y-105735000D01*
X95474285Y-105639761D01*
X95664761Y-105639761D01*
X95950476Y-105735000D01*
X96045714Y-105830238D01*
X96902857Y-105639761D02*
X96902857Y-107258809D01*
X96998095Y-107449285D01*
X97093333Y-107544523D01*
X97283809Y-107639761D01*
X97664761Y-107639761D01*
X97855238Y-107544523D01*
X97950476Y-107449285D01*
X98045714Y-107258809D01*
X98045714Y-105639761D01*
X76140952Y-110288333D02*
X77093333Y-110288333D01*
X75950476Y-110859761D02*
X76617142Y-108859761D01*
X77283809Y-110859761D01*
X79093333Y-110669285D02*
X78998095Y-110764523D01*
X78712380Y-110859761D01*
X78521904Y-110859761D01*
X78236190Y-110764523D01*
X78045714Y-110574047D01*
X77950476Y-110383571D01*
X77855238Y-110002619D01*
X77855238Y-109716904D01*
X77950476Y-109335952D01*
X78045714Y-109145476D01*
X78236190Y-108955000D01*
X78521904Y-108859761D01*
X78712380Y-108859761D01*
X78998095Y-108955000D01*
X79093333Y-109050238D01*
X82617142Y-110859761D02*
X81950476Y-109907380D01*
X81474285Y-110859761D02*
X81474285Y-108859761D01*
X82236190Y-108859761D01*
X82426666Y-108955000D01*
X82521904Y-109050238D01*
X82617142Y-109240714D01*
X82617142Y-109526428D01*
X82521904Y-109716904D01*
X82426666Y-109812142D01*
X82236190Y-109907380D01*
X81474285Y-109907380D01*
X83474285Y-109812142D02*
X84140952Y-109812142D01*
X84426666Y-110859761D02*
X83474285Y-110859761D01*
X83474285Y-108859761D01*
X84426666Y-108859761D01*
X86331428Y-108955000D02*
X86140952Y-108859761D01*
X85855238Y-108859761D01*
X85569523Y-108955000D01*
X85379047Y-109145476D01*
X85283809Y-109335952D01*
X85188571Y-109716904D01*
X85188571Y-110002619D01*
X85283809Y-110383571D01*
X85379047Y-110574047D01*
X85569523Y-110764523D01*
X85855238Y-110859761D01*
X86045714Y-110859761D01*
X86331428Y-110764523D01*
X86426666Y-110669285D01*
X86426666Y-110002619D01*
X86045714Y-110002619D01*
X87283809Y-108859761D02*
X87283809Y-110478809D01*
X87379047Y-110669285D01*
X87474285Y-110764523D01*
X87664761Y-110859761D01*
X88045714Y-110859761D01*
X88236190Y-110764523D01*
X88331428Y-110669285D01*
X88426666Y-110478809D01*
X88426666Y-108859761D01*
X90331428Y-110859761D02*
X89379047Y-110859761D01*
X89379047Y-108859761D01*
X90902857Y-110288333D02*
X91855238Y-110288333D01*
X90712380Y-110859761D02*
X91379047Y-108859761D01*
X92045714Y-110859761D01*
X92426666Y-108859761D02*
X93569523Y-108859761D01*
X92998095Y-110859761D02*
X92998095Y-108859761D01*
X94617142Y-108859761D02*
X94998095Y-108859761D01*
X95188571Y-108955000D01*
X95379047Y-109145476D01*
X95474285Y-109526428D01*
X95474285Y-110193095D01*
X95379047Y-110574047D01*
X95188571Y-110764523D01*
X94998095Y-110859761D01*
X94617142Y-110859761D01*
X94426666Y-110764523D01*
X94236190Y-110574047D01*
X94140952Y-110193095D01*
X94140952Y-109526428D01*
X94236190Y-109145476D01*
X94426666Y-108955000D01*
X94617142Y-108859761D01*
X97474285Y-110859761D02*
X96807619Y-109907380D01*
X96331428Y-110859761D02*
X96331428Y-108859761D01*
X97093333Y-108859761D01*
X97283809Y-108955000D01*
X97379047Y-109050238D01*
X97474285Y-109240714D01*
X97474285Y-109526428D01*
X97379047Y-109716904D01*
X97283809Y-109812142D01*
X97093333Y-109907380D01*
X96331428Y-109907380D01*
X101474285Y-110859761D02*
X101379047Y-110859761D01*
X101188571Y-110764523D01*
X100902857Y-110478809D01*
X100426666Y-109907380D01*
X100236190Y-109621666D01*
X100140952Y-109335952D01*
X100140952Y-109145476D01*
X100236190Y-108955000D01*
X100426666Y-108859761D01*
X100521904Y-108859761D01*
X100712380Y-108955000D01*
X100807619Y-109145476D01*
X100807619Y-109240714D01*
X100712380Y-109431190D01*
X100617142Y-109526428D01*
X100045714Y-109907380D01*
X99950476Y-110002619D01*
X99855238Y-110193095D01*
X99855238Y-110478809D01*
X99950476Y-110669285D01*
X100045714Y-110764523D01*
X100236190Y-110859761D01*
X100521904Y-110859761D01*
X100712380Y-110764523D01*
X100807619Y-110669285D01*
X101093333Y-110288333D01*
X101188571Y-110002619D01*
X101188571Y-109812142D01*
X103855238Y-110859761D02*
X103855238Y-108859761D01*
X104331428Y-108859761D01*
X104617142Y-108955000D01*
X104807619Y-109145476D01*
X104902857Y-109335952D01*
X104998095Y-109716904D01*
X104998095Y-110002619D01*
X104902857Y-110383571D01*
X104807619Y-110574047D01*
X104617142Y-110764523D01*
X104331428Y-110859761D01*
X103855238Y-110859761D01*
X106998095Y-110669285D02*
X106902857Y-110764523D01*
X106617142Y-110859761D01*
X106426666Y-110859761D01*
X106140952Y-110764523D01*
X105950476Y-110574047D01*
X105855238Y-110383571D01*
X105760000Y-110002619D01*
X105760000Y-109716904D01*
X105855238Y-109335952D01*
X105950476Y-109145476D01*
X106140952Y-108955000D01*
X106426666Y-108859761D01*
X106617142Y-108859761D01*
X106902857Y-108955000D01*
X106998095Y-109050238D01*
X109379047Y-110859761D02*
X109379047Y-108859761D01*
X110521904Y-110859761D02*
X109664761Y-109716904D01*
X110521904Y-108859761D02*
X109379047Y-110002619D01*
X111760000Y-108859761D02*
X112140952Y-108859761D01*
X112331428Y-108955000D01*
X112521904Y-109145476D01*
X112617142Y-109526428D01*
X112617142Y-110193095D01*
X112521904Y-110574047D01*
X112331428Y-110764523D01*
X112140952Y-110859761D01*
X111760000Y-110859761D01*
X111569523Y-110764523D01*
X111379047Y-110574047D01*
X111283809Y-110193095D01*
X111283809Y-109526428D01*
X111379047Y-109145476D01*
X111569523Y-108955000D01*
X111760000Y-108859761D01*
X113474285Y-110859761D02*
X113474285Y-108859761D01*
X114617142Y-110859761D01*
X114617142Y-108859761D01*
X115283809Y-108859761D02*
X115950476Y-110859761D01*
X116617142Y-108859761D01*
X117283809Y-109812142D02*
X117950476Y-109812142D01*
X118236190Y-110859761D02*
X117283809Y-110859761D01*
X117283809Y-108859761D01*
X118236190Y-108859761D01*
X120236190Y-110859761D02*
X119569523Y-109907380D01*
X119093333Y-110859761D02*
X119093333Y-108859761D01*
X119855238Y-108859761D01*
X120045714Y-108955000D01*
X120140952Y-109050238D01*
X120236190Y-109240714D01*
X120236190Y-109526428D01*
X120140952Y-109716904D01*
X120045714Y-109812142D01*
X119855238Y-109907380D01*
X119093333Y-109907380D01*
X120807619Y-108859761D02*
X121950476Y-108859761D01*
X121379047Y-110859761D02*
X121379047Y-108859761D01*
X122617142Y-109812142D02*
X123283809Y-109812142D01*
X123569523Y-110859761D02*
X122617142Y-110859761D01*
X122617142Y-108859761D01*
X123569523Y-108859761D01*
X125569523Y-110859761D02*
X124902857Y-109907380D01*
X124426666Y-110859761D02*
X124426666Y-108859761D01*
X125188571Y-108859761D01*
X125379047Y-108955000D01*
X125474285Y-109050238D01*
X125569523Y-109240714D01*
X125569523Y-109526428D01*
X125474285Y-109716904D01*
X125379047Y-109812142D01*
X125188571Y-109907380D01*
X124426666Y-109907380D01*
X77247809Y-77041333D02*
X78200190Y-77041333D01*
X77057333Y-77612761D02*
X77724000Y-75612761D01*
X78390666Y-77612761D01*
D10*
X121737380Y-103496666D02*
X120737380Y-103496666D01*
X121689761Y-103068095D02*
X121737380Y-102925238D01*
X121737380Y-102687142D01*
X121689761Y-102591904D01*
X121642142Y-102544285D01*
X121546904Y-102496666D01*
X121451666Y-102496666D01*
X121356428Y-102544285D01*
X121308809Y-102591904D01*
X121261190Y-102687142D01*
X121213571Y-102877619D01*
X121165952Y-102972857D01*
X121118333Y-103020476D01*
X121023095Y-103068095D01*
X120927857Y-103068095D01*
X120832619Y-103020476D01*
X120785000Y-102972857D01*
X120737380Y-102877619D01*
X120737380Y-102639523D01*
X120785000Y-102496666D01*
X120737380Y-101877619D02*
X120737380Y-101687142D01*
X120785000Y-101591904D01*
X120880238Y-101496666D01*
X121070714Y-101449047D01*
X121404047Y-101449047D01*
X121594523Y-101496666D01*
X121689761Y-101591904D01*
X121737380Y-101687142D01*
X121737380Y-101877619D01*
X121689761Y-101972857D01*
X121594523Y-102068095D01*
X121404047Y-102115714D01*
X121070714Y-102115714D01*
X120880238Y-102068095D01*
X120785000Y-101972857D01*
X120737380Y-101877619D01*
X121737380Y-100544285D02*
X121737380Y-101020476D01*
X120737380Y-101020476D01*
X121451666Y-100258571D02*
X121451666Y-99782380D01*
X121737380Y-100353809D02*
X120737380Y-100020476D01*
X121737380Y-99687142D01*
X120737380Y-99496666D02*
X120737380Y-98925238D01*
X121737380Y-99210952D02*
X120737380Y-99210952D01*
X121213571Y-98591904D02*
X121213571Y-98258571D01*
X121737380Y-98115714D02*
X121737380Y-98591904D01*
X120737380Y-98591904D01*
X120737380Y-98115714D01*
X121737380Y-97687142D02*
X120737380Y-97687142D01*
X120737380Y-97449047D01*
X120785000Y-97306190D01*
X120880238Y-97210952D01*
X120975476Y-97163333D01*
X121165952Y-97115714D01*
X121308809Y-97115714D01*
X121499285Y-97163333D01*
X121594523Y-97210952D01*
X121689761Y-97306190D01*
X121737380Y-97449047D01*
X121737380Y-97687142D01*
D11*
X77866857Y-88249142D02*
X78152571Y-88344380D01*
X78247809Y-88439619D01*
X78343047Y-88630095D01*
X78343047Y-88915809D01*
X78247809Y-89106285D01*
X78152571Y-89201523D01*
X77962095Y-89296761D01*
X77200190Y-89296761D01*
X77200190Y-87296761D01*
X77866857Y-87296761D01*
X78057333Y-87392000D01*
X78152571Y-87487238D01*
X78247809Y-87677714D01*
X78247809Y-87868190D01*
X78152571Y-88058666D01*
X78057333Y-88153904D01*
X77866857Y-88249142D01*
X77200190Y-88249142D01*
D10*
X76015595Y-114492380D02*
X76015595Y-113492380D01*
X76015595Y-113968571D02*
X76587023Y-113968571D01*
X76587023Y-114492380D02*
X76587023Y-113492380D01*
X76967976Y-113492380D02*
X77206071Y-114492380D01*
X77396547Y-113778095D01*
X77587023Y-114492380D01*
X77825119Y-113492380D01*
X78206071Y-114111428D02*
X78967976Y-114111428D01*
X79444166Y-114492380D02*
X79444166Y-113492380D01*
X79920357Y-114492380D02*
X79920357Y-113492380D01*
X80158452Y-113492380D01*
X80301309Y-113540000D01*
X80396547Y-113635238D01*
X80444166Y-113730476D01*
X80491785Y-113920952D01*
X80491785Y-114063809D01*
X80444166Y-114254285D01*
X80396547Y-114349523D01*
X80301309Y-114444761D01*
X80158452Y-114492380D01*
X79920357Y-114492380D01*
X83777500Y-114397142D02*
X83825119Y-114444761D01*
X83777500Y-114492380D01*
X83729880Y-114444761D01*
X83777500Y-114397142D01*
X83777500Y-114492380D01*
X83777500Y-113873333D02*
X83825119Y-113920952D01*
X83777500Y-113968571D01*
X83729880Y-113920952D01*
X83777500Y-113873333D01*
X83777500Y-113968571D01*
X84967976Y-114206666D02*
X85444166Y-114206666D01*
X84872738Y-114492380D02*
X85206071Y-113492380D01*
X85539404Y-114492380D01*
X86444166Y-114397142D02*
X86396547Y-114444761D01*
X86253690Y-114492380D01*
X86158452Y-114492380D01*
X86015595Y-114444761D01*
X85920357Y-114349523D01*
X85872738Y-114254285D01*
X85825119Y-114063809D01*
X85825119Y-113920952D01*
X85872738Y-113730476D01*
X85920357Y-113635238D01*
X86015595Y-113540000D01*
X86158452Y-113492380D01*
X86253690Y-113492380D01*
X86396547Y-113540000D01*
X86444166Y-113587619D01*
X87444166Y-114492380D02*
X87110833Y-114016190D01*
X86872738Y-114492380D02*
X86872738Y-113492380D01*
X87253690Y-113492380D01*
X87348928Y-113540000D01*
X87396547Y-113587619D01*
X87444166Y-113682857D01*
X87444166Y-113825714D01*
X87396547Y-113920952D01*
X87348928Y-113968571D01*
X87253690Y-114016190D01*
X86872738Y-114016190D01*
X88444166Y-114397142D02*
X88396547Y-114444761D01*
X88253690Y-114492380D01*
X88158452Y-114492380D01*
X88015595Y-114444761D01*
X87920357Y-114349523D01*
X87872738Y-114254285D01*
X87825119Y-114063809D01*
X87825119Y-113920952D01*
X87872738Y-113730476D01*
X87920357Y-113635238D01*
X88015595Y-113540000D01*
X88158452Y-113492380D01*
X88253690Y-113492380D01*
X88396547Y-113540000D01*
X88444166Y-113587619D01*
X88872738Y-114111428D02*
X89634642Y-114111428D01*
X90301309Y-113492380D02*
X90396547Y-113492380D01*
X90491785Y-113540000D01*
X90539404Y-113587619D01*
X90587023Y-113682857D01*
X90634642Y-113873333D01*
X90634642Y-114111428D01*
X90587023Y-114301904D01*
X90539404Y-114397142D01*
X90491785Y-114444761D01*
X90396547Y-114492380D01*
X90301309Y-114492380D01*
X90206071Y-114444761D01*
X90158452Y-114397142D01*
X90110833Y-114301904D01*
X90063214Y-114111428D01*
X90063214Y-113873333D01*
X90110833Y-113682857D01*
X90158452Y-113587619D01*
X90206071Y-113540000D01*
X90301309Y-113492380D01*
X91587023Y-114492380D02*
X91015595Y-114492380D01*
X91301309Y-114492380D02*
X91301309Y-113492380D01*
X91206071Y-113635238D01*
X91110833Y-113730476D01*
X91015595Y-113778095D01*
X76587023Y-116102380D02*
X76253690Y-115626190D01*
X76015595Y-116102380D02*
X76015595Y-115102380D01*
X76396547Y-115102380D01*
X76491785Y-115150000D01*
X76539404Y-115197619D01*
X76587023Y-115292857D01*
X76587023Y-115435714D01*
X76539404Y-115530952D01*
X76491785Y-115578571D01*
X76396547Y-115626190D01*
X76015595Y-115626190D01*
X77015595Y-115578571D02*
X77348928Y-115578571D01*
X77491785Y-116102380D02*
X77015595Y-116102380D01*
X77015595Y-115102380D01*
X77491785Y-115102380D01*
X77777500Y-115102380D02*
X78110833Y-116102380D01*
X78444166Y-115102380D01*
X79539404Y-116102380D02*
X79539404Y-115102380D01*
X80110833Y-116102380D01*
X80110833Y-115102380D01*
X80587023Y-115102380D02*
X80587023Y-115911904D01*
X80634642Y-116007142D01*
X80682261Y-116054761D01*
X80777500Y-116102380D01*
X80967976Y-116102380D01*
X81063214Y-116054761D01*
X81110833Y-116007142D01*
X81158452Y-115911904D01*
X81158452Y-115102380D01*
X81634642Y-116102380D02*
X81634642Y-115102380D01*
X81967976Y-115816666D01*
X82301309Y-115102380D01*
X82301309Y-116102380D01*
X83777500Y-116007142D02*
X83825119Y-116054761D01*
X83777500Y-116102380D01*
X83729880Y-116054761D01*
X83777500Y-116007142D01*
X83777500Y-116102380D01*
X83777500Y-115483333D02*
X83825119Y-115530952D01*
X83777500Y-115578571D01*
X83729880Y-115530952D01*
X83777500Y-115483333D01*
X83777500Y-115578571D01*
X84920357Y-115435714D02*
X85158452Y-116102380D01*
X85396547Y-115435714D01*
X85967976Y-115102380D02*
X86063214Y-115102380D01*
X86158452Y-115150000D01*
X86206071Y-115197619D01*
X86253690Y-115292857D01*
X86301309Y-115483333D01*
X86301309Y-115721428D01*
X86253690Y-115911904D01*
X86206071Y-116007142D01*
X86158452Y-116054761D01*
X86063214Y-116102380D01*
X85967976Y-116102380D01*
X85872738Y-116054761D01*
X85825119Y-116007142D01*
X85777500Y-115911904D01*
X85729880Y-115721428D01*
X85729880Y-115483333D01*
X85777500Y-115292857D01*
X85825119Y-115197619D01*
X85872738Y-115150000D01*
X85967976Y-115102380D01*
X86729880Y-116007142D02*
X86777500Y-116054761D01*
X86729880Y-116102380D01*
X86682261Y-116054761D01*
X86729880Y-116007142D01*
X86729880Y-116102380D01*
X87110833Y-115102380D02*
X87729880Y-115102380D01*
X87396547Y-115483333D01*
X87539404Y-115483333D01*
X87634642Y-115530952D01*
X87682261Y-115578571D01*
X87729880Y-115673809D01*
X87729880Y-115911904D01*
X87682261Y-116007142D01*
X87634642Y-116054761D01*
X87539404Y-116102380D01*
X87253690Y-116102380D01*
X87158452Y-116054761D01*
X87110833Y-116007142D01*
D11*
X78119047Y-102822285D02*
X78023809Y-102917523D01*
X77738095Y-103012761D01*
X77547619Y-103012761D01*
X77261904Y-102917523D01*
X77071428Y-102727047D01*
X76976190Y-102536571D01*
X76880952Y-102155619D01*
X76880952Y-101869904D01*
X76976190Y-101488952D01*
X77071428Y-101298476D01*
X77261904Y-101108000D01*
X77547619Y-101012761D01*
X77738095Y-101012761D01*
X78023809Y-101108000D01*
X78119047Y-101203238D01*
X206285600Y-84265571D02*
X206190361Y-84456047D01*
X206190361Y-84741761D01*
X206285600Y-85027476D01*
X206476076Y-85217952D01*
X206666552Y-85313190D01*
X207047504Y-85408428D01*
X207333219Y-85408428D01*
X207714171Y-85313190D01*
X207904647Y-85217952D01*
X208095123Y-85027476D01*
X208190361Y-84741761D01*
X208190361Y-84551285D01*
X208095123Y-84265571D01*
X207999885Y-84170333D01*
X207333219Y-84170333D01*
X207333219Y-84551285D01*
X206380838Y-83408428D02*
X206285600Y-83313190D01*
X206190361Y-83122714D01*
X206190361Y-82646523D01*
X206285600Y-82456047D01*
X206380838Y-82360809D01*
X206571314Y-82265571D01*
X206761790Y-82265571D01*
X207047504Y-82360809D01*
X208190361Y-83503666D01*
X208190361Y-82265571D01*
D10*
%TO.C,J4*%
X172957380Y-118625833D02*
X173671666Y-118625833D01*
X173814523Y-118673452D01*
X173909761Y-118768690D01*
X173957380Y-118911547D01*
X173957380Y-119006785D01*
X173290714Y-117721071D02*
X173957380Y-117721071D01*
X172909761Y-117959166D02*
X173624047Y-118197261D01*
X173624047Y-117578214D01*
%TO.C,D6*%
X187562904Y-76455380D02*
X187562904Y-75455380D01*
X187801000Y-75455380D01*
X187943857Y-75503000D01*
X188039095Y-75598238D01*
X188086714Y-75693476D01*
X188134333Y-75883952D01*
X188134333Y-76026809D01*
X188086714Y-76217285D01*
X188039095Y-76312523D01*
X187943857Y-76407761D01*
X187801000Y-76455380D01*
X187562904Y-76455380D01*
X188991476Y-75455380D02*
X188801000Y-75455380D01*
X188705761Y-75503000D01*
X188658142Y-75550619D01*
X188562904Y-75693476D01*
X188515285Y-75883952D01*
X188515285Y-76264904D01*
X188562904Y-76360142D01*
X188610523Y-76407761D01*
X188705761Y-76455380D01*
X188896238Y-76455380D01*
X188991476Y-76407761D01*
X189039095Y-76360142D01*
X189086714Y-76264904D01*
X189086714Y-76026809D01*
X189039095Y-75931571D01*
X188991476Y-75883952D01*
X188896238Y-75836333D01*
X188705761Y-75836333D01*
X188610523Y-75883952D01*
X188562904Y-75931571D01*
X188515285Y-76026809D01*
%TO.C,U3*%
X121738095Y-62082380D02*
X121738095Y-62891904D01*
X121785714Y-62987142D01*
X121833333Y-63034761D01*
X121928571Y-63082380D01*
X122119047Y-63082380D01*
X122214285Y-63034761D01*
X122261904Y-62987142D01*
X122309523Y-62891904D01*
X122309523Y-62082380D01*
X122690476Y-62082380D02*
X123309523Y-62082380D01*
X122976190Y-62463333D01*
X123119047Y-62463333D01*
X123214285Y-62510952D01*
X123261904Y-62558571D01*
X123309523Y-62653809D01*
X123309523Y-62891904D01*
X123261904Y-62987142D01*
X123214285Y-63034761D01*
X123119047Y-63082380D01*
X122833333Y-63082380D01*
X122738095Y-63034761D01*
X122690476Y-62987142D01*
%TO.C,R17*%
X113149142Y-79572380D02*
X112815809Y-79096190D01*
X112577714Y-79572380D02*
X112577714Y-78572380D01*
X112958666Y-78572380D01*
X113053904Y-78620000D01*
X113101523Y-78667619D01*
X113149142Y-78762857D01*
X113149142Y-78905714D01*
X113101523Y-79000952D01*
X113053904Y-79048571D01*
X112958666Y-79096190D01*
X112577714Y-79096190D01*
X114101523Y-79572380D02*
X113530095Y-79572380D01*
X113815809Y-79572380D02*
X113815809Y-78572380D01*
X113720571Y-78715238D01*
X113625333Y-78810476D01*
X113530095Y-78858095D01*
X114434857Y-78572380D02*
X115101523Y-78572380D01*
X114672952Y-79572380D01*
%TO.C,R41*%
X170932380Y-56182357D02*
X170456190Y-56515690D01*
X170932380Y-56753785D02*
X169932380Y-56753785D01*
X169932380Y-56372833D01*
X169980000Y-56277595D01*
X170027619Y-56229976D01*
X170122857Y-56182357D01*
X170265714Y-56182357D01*
X170360952Y-56229976D01*
X170408571Y-56277595D01*
X170456190Y-56372833D01*
X170456190Y-56753785D01*
X170265714Y-55325214D02*
X170932380Y-55325214D01*
X169884761Y-55563309D02*
X170599047Y-55801404D01*
X170599047Y-55182357D01*
X170932380Y-54277595D02*
X170932380Y-54849023D01*
X170932380Y-54563309D02*
X169932380Y-54563309D01*
X170075238Y-54658547D01*
X170170476Y-54753785D01*
X170218095Y-54849023D01*
%TO.C,R1*%
X87333333Y-82102380D02*
X87000000Y-81626190D01*
X86761904Y-82102380D02*
X86761904Y-81102380D01*
X87142857Y-81102380D01*
X87238095Y-81150000D01*
X87285714Y-81197619D01*
X87333333Y-81292857D01*
X87333333Y-81435714D01*
X87285714Y-81530952D01*
X87238095Y-81578571D01*
X87142857Y-81626190D01*
X86761904Y-81626190D01*
X88285714Y-82102380D02*
X87714285Y-82102380D01*
X88000000Y-82102380D02*
X88000000Y-81102380D01*
X87904761Y-81245238D01*
X87809523Y-81340476D01*
X87714285Y-81388095D01*
%TO.C,R36*%
X185967142Y-99275380D02*
X185633809Y-98799190D01*
X185395714Y-99275380D02*
X185395714Y-98275380D01*
X185776666Y-98275380D01*
X185871904Y-98323000D01*
X185919523Y-98370619D01*
X185967142Y-98465857D01*
X185967142Y-98608714D01*
X185919523Y-98703952D01*
X185871904Y-98751571D01*
X185776666Y-98799190D01*
X185395714Y-98799190D01*
X186300476Y-98275380D02*
X186919523Y-98275380D01*
X186586190Y-98656333D01*
X186729047Y-98656333D01*
X186824285Y-98703952D01*
X186871904Y-98751571D01*
X186919523Y-98846809D01*
X186919523Y-99084904D01*
X186871904Y-99180142D01*
X186824285Y-99227761D01*
X186729047Y-99275380D01*
X186443333Y-99275380D01*
X186348095Y-99227761D01*
X186300476Y-99180142D01*
X187776666Y-98275380D02*
X187586190Y-98275380D01*
X187490952Y-98323000D01*
X187443333Y-98370619D01*
X187348095Y-98513476D01*
X187300476Y-98703952D01*
X187300476Y-99084904D01*
X187348095Y-99180142D01*
X187395714Y-99227761D01*
X187490952Y-99275380D01*
X187681428Y-99275380D01*
X187776666Y-99227761D01*
X187824285Y-99180142D01*
X187871904Y-99084904D01*
X187871904Y-98846809D01*
X187824285Y-98751571D01*
X187776666Y-98703952D01*
X187681428Y-98656333D01*
X187490952Y-98656333D01*
X187395714Y-98703952D01*
X187348095Y-98751571D01*
X187300476Y-98846809D01*
%TO.C,R33*%
X185967142Y-88522380D02*
X185633809Y-88046190D01*
X185395714Y-88522380D02*
X185395714Y-87522380D01*
X185776666Y-87522380D01*
X185871904Y-87570000D01*
X185919523Y-87617619D01*
X185967142Y-87712857D01*
X185967142Y-87855714D01*
X185919523Y-87950952D01*
X185871904Y-87998571D01*
X185776666Y-88046190D01*
X185395714Y-88046190D01*
X186300476Y-87522380D02*
X186919523Y-87522380D01*
X186586190Y-87903333D01*
X186729047Y-87903333D01*
X186824285Y-87950952D01*
X186871904Y-87998571D01*
X186919523Y-88093809D01*
X186919523Y-88331904D01*
X186871904Y-88427142D01*
X186824285Y-88474761D01*
X186729047Y-88522380D01*
X186443333Y-88522380D01*
X186348095Y-88474761D01*
X186300476Y-88427142D01*
X187252857Y-87522380D02*
X187871904Y-87522380D01*
X187538571Y-87903333D01*
X187681428Y-87903333D01*
X187776666Y-87950952D01*
X187824285Y-87998571D01*
X187871904Y-88093809D01*
X187871904Y-88331904D01*
X187824285Y-88427142D01*
X187776666Y-88474761D01*
X187681428Y-88522380D01*
X187395714Y-88522380D01*
X187300476Y-88474761D01*
X187252857Y-88427142D01*
%TO.C,R22*%
X165774142Y-80732380D02*
X165440809Y-80256190D01*
X165202714Y-80732380D02*
X165202714Y-79732380D01*
X165583666Y-79732380D01*
X165678904Y-79780000D01*
X165726523Y-79827619D01*
X165774142Y-79922857D01*
X165774142Y-80065714D01*
X165726523Y-80160952D01*
X165678904Y-80208571D01*
X165583666Y-80256190D01*
X165202714Y-80256190D01*
X166155095Y-79827619D02*
X166202714Y-79780000D01*
X166297952Y-79732380D01*
X166536047Y-79732380D01*
X166631285Y-79780000D01*
X166678904Y-79827619D01*
X166726523Y-79922857D01*
X166726523Y-80018095D01*
X166678904Y-80160952D01*
X166107476Y-80732380D01*
X166726523Y-80732380D01*
X167107476Y-79827619D02*
X167155095Y-79780000D01*
X167250333Y-79732380D01*
X167488428Y-79732380D01*
X167583666Y-79780000D01*
X167631285Y-79827619D01*
X167678904Y-79922857D01*
X167678904Y-80018095D01*
X167631285Y-80160952D01*
X167059857Y-80732380D01*
X167678904Y-80732380D01*
%TO.C,R14*%
X113482380Y-74961357D02*
X113006190Y-75294690D01*
X113482380Y-75532785D02*
X112482380Y-75532785D01*
X112482380Y-75151833D01*
X112530000Y-75056595D01*
X112577619Y-75008976D01*
X112672857Y-74961357D01*
X112815714Y-74961357D01*
X112910952Y-75008976D01*
X112958571Y-75056595D01*
X113006190Y-75151833D01*
X113006190Y-75532785D01*
X113482380Y-74008976D02*
X113482380Y-74580404D01*
X113482380Y-74294690D02*
X112482380Y-74294690D01*
X112625238Y-74389928D01*
X112720476Y-74485166D01*
X112768095Y-74580404D01*
X112815714Y-73151833D02*
X113482380Y-73151833D01*
X112434761Y-73389928D02*
X113149047Y-73628023D01*
X113149047Y-73008976D01*
%TO.C,R42*%
X153534380Y-50443857D02*
X153058190Y-50777190D01*
X153534380Y-51015285D02*
X152534380Y-51015285D01*
X152534380Y-50634333D01*
X152582000Y-50539095D01*
X152629619Y-50491476D01*
X152724857Y-50443857D01*
X152867714Y-50443857D01*
X152962952Y-50491476D01*
X153010571Y-50539095D01*
X153058190Y-50634333D01*
X153058190Y-51015285D01*
X152867714Y-49586714D02*
X153534380Y-49586714D01*
X152486761Y-49824809D02*
X153201047Y-50062904D01*
X153201047Y-49443857D01*
X152629619Y-49110523D02*
X152582000Y-49062904D01*
X152534380Y-48967666D01*
X152534380Y-48729571D01*
X152582000Y-48634333D01*
X152629619Y-48586714D01*
X152724857Y-48539095D01*
X152820095Y-48539095D01*
X152962952Y-48586714D01*
X153534380Y-49158142D01*
X153534380Y-48539095D01*
%TO.C,U11*%
X173941904Y-92897380D02*
X173941904Y-93706904D01*
X173989523Y-93802142D01*
X174037142Y-93849761D01*
X174132380Y-93897380D01*
X174322857Y-93897380D01*
X174418095Y-93849761D01*
X174465714Y-93802142D01*
X174513333Y-93706904D01*
X174513333Y-92897380D01*
X175513333Y-93897380D02*
X174941904Y-93897380D01*
X175227619Y-93897380D02*
X175227619Y-92897380D01*
X175132380Y-93040238D01*
X175037142Y-93135476D01*
X174941904Y-93183095D01*
X176465714Y-93897380D02*
X175894285Y-93897380D01*
X176180000Y-93897380D02*
X176180000Y-92897380D01*
X176084761Y-93040238D01*
X175989523Y-93135476D01*
X175894285Y-93183095D01*
%TO.C,J3*%
X193772380Y-81630333D02*
X194486666Y-81630333D01*
X194629523Y-81677952D01*
X194724761Y-81773190D01*
X194772380Y-81916047D01*
X194772380Y-82011285D01*
X193772380Y-81249380D02*
X193772380Y-80630333D01*
X194153333Y-80963666D01*
X194153333Y-80820809D01*
X194200952Y-80725571D01*
X194248571Y-80677952D01*
X194343809Y-80630333D01*
X194581904Y-80630333D01*
X194677142Y-80677952D01*
X194724761Y-80725571D01*
X194772380Y-80820809D01*
X194772380Y-81106523D01*
X194724761Y-81201761D01*
X194677142Y-81249380D01*
%TO.C,Q1*%
X162765761Y-63950619D02*
X162670523Y-63903000D01*
X162575285Y-63807761D01*
X162432428Y-63664904D01*
X162337190Y-63617285D01*
X162241952Y-63617285D01*
X162289571Y-63855380D02*
X162194333Y-63807761D01*
X162099095Y-63712523D01*
X162051476Y-63522047D01*
X162051476Y-63188714D01*
X162099095Y-62998238D01*
X162194333Y-62903000D01*
X162289571Y-62855380D01*
X162480047Y-62855380D01*
X162575285Y-62903000D01*
X162670523Y-62998238D01*
X162718142Y-63188714D01*
X162718142Y-63522047D01*
X162670523Y-63712523D01*
X162575285Y-63807761D01*
X162480047Y-63855380D01*
X162289571Y-63855380D01*
X163670523Y-63855380D02*
X163099095Y-63855380D01*
X163384809Y-63855380D02*
X163384809Y-62855380D01*
X163289571Y-62998238D01*
X163194333Y-63093476D01*
X163099095Y-63141095D01*
%TO.C,R27*%
X165774142Y-102237380D02*
X165440809Y-101761190D01*
X165202714Y-102237380D02*
X165202714Y-101237380D01*
X165583666Y-101237380D01*
X165678904Y-101285000D01*
X165726523Y-101332619D01*
X165774142Y-101427857D01*
X165774142Y-101570714D01*
X165726523Y-101665952D01*
X165678904Y-101713571D01*
X165583666Y-101761190D01*
X165202714Y-101761190D01*
X166155095Y-101332619D02*
X166202714Y-101285000D01*
X166297952Y-101237380D01*
X166536047Y-101237380D01*
X166631285Y-101285000D01*
X166678904Y-101332619D01*
X166726523Y-101427857D01*
X166726523Y-101523095D01*
X166678904Y-101665952D01*
X166107476Y-102237380D01*
X166726523Y-102237380D01*
X167059857Y-101237380D02*
X167726523Y-101237380D01*
X167297952Y-102237380D01*
%TO.C,U1*%
X102362095Y-76672380D02*
X102362095Y-77481904D01*
X102409714Y-77577142D01*
X102457333Y-77624761D01*
X102552571Y-77672380D01*
X102743047Y-77672380D01*
X102838285Y-77624761D01*
X102885904Y-77577142D01*
X102933523Y-77481904D01*
X102933523Y-76672380D01*
X103933523Y-77672380D02*
X103362095Y-77672380D01*
X103647809Y-77672380D02*
X103647809Y-76672380D01*
X103552571Y-76815238D01*
X103457333Y-76910476D01*
X103362095Y-76958095D01*
%TO.C,R26*%
X165774142Y-97877380D02*
X165440809Y-97401190D01*
X165202714Y-97877380D02*
X165202714Y-96877380D01*
X165583666Y-96877380D01*
X165678904Y-96925000D01*
X165726523Y-96972619D01*
X165774142Y-97067857D01*
X165774142Y-97210714D01*
X165726523Y-97305952D01*
X165678904Y-97353571D01*
X165583666Y-97401190D01*
X165202714Y-97401190D01*
X166155095Y-96972619D02*
X166202714Y-96925000D01*
X166297952Y-96877380D01*
X166536047Y-96877380D01*
X166631285Y-96925000D01*
X166678904Y-96972619D01*
X166726523Y-97067857D01*
X166726523Y-97163095D01*
X166678904Y-97305952D01*
X166107476Y-97877380D01*
X166726523Y-97877380D01*
X167583666Y-96877380D02*
X167393190Y-96877380D01*
X167297952Y-96925000D01*
X167250333Y-96972619D01*
X167155095Y-97115476D01*
X167107476Y-97305952D01*
X167107476Y-97686904D01*
X167155095Y-97782142D01*
X167202714Y-97829761D01*
X167297952Y-97877380D01*
X167488428Y-97877380D01*
X167583666Y-97829761D01*
X167631285Y-97782142D01*
X167678904Y-97686904D01*
X167678904Y-97448809D01*
X167631285Y-97353571D01*
X167583666Y-97305952D01*
X167488428Y-97258333D01*
X167297952Y-97258333D01*
X167202714Y-97305952D01*
X167155095Y-97353571D01*
X167107476Y-97448809D01*
%TO.C,R16*%
X113403142Y-66872380D02*
X113069809Y-66396190D01*
X112831714Y-66872380D02*
X112831714Y-65872380D01*
X113212666Y-65872380D01*
X113307904Y-65920000D01*
X113355523Y-65967619D01*
X113403142Y-66062857D01*
X113403142Y-66205714D01*
X113355523Y-66300952D01*
X113307904Y-66348571D01*
X113212666Y-66396190D01*
X112831714Y-66396190D01*
X114355523Y-66872380D02*
X113784095Y-66872380D01*
X114069809Y-66872380D02*
X114069809Y-65872380D01*
X113974571Y-66015238D01*
X113879333Y-66110476D01*
X113784095Y-66158095D01*
X115212666Y-65872380D02*
X115022190Y-65872380D01*
X114926952Y-65920000D01*
X114879333Y-65967619D01*
X114784095Y-66110476D01*
X114736476Y-66300952D01*
X114736476Y-66681904D01*
X114784095Y-66777142D01*
X114831714Y-66824761D01*
X114926952Y-66872380D01*
X115117428Y-66872380D01*
X115212666Y-66824761D01*
X115260285Y-66777142D01*
X115307904Y-66681904D01*
X115307904Y-66443809D01*
X115260285Y-66348571D01*
X115212666Y-66300952D01*
X115117428Y-66253333D01*
X114926952Y-66253333D01*
X114831714Y-66300952D01*
X114784095Y-66348571D01*
X114736476Y-66443809D01*
%TO.C,R24*%
X165774142Y-63587380D02*
X165440809Y-63111190D01*
X165202714Y-63587380D02*
X165202714Y-62587380D01*
X165583666Y-62587380D01*
X165678904Y-62635000D01*
X165726523Y-62682619D01*
X165774142Y-62777857D01*
X165774142Y-62920714D01*
X165726523Y-63015952D01*
X165678904Y-63063571D01*
X165583666Y-63111190D01*
X165202714Y-63111190D01*
X166155095Y-62682619D02*
X166202714Y-62635000D01*
X166297952Y-62587380D01*
X166536047Y-62587380D01*
X166631285Y-62635000D01*
X166678904Y-62682619D01*
X166726523Y-62777857D01*
X166726523Y-62873095D01*
X166678904Y-63015952D01*
X166107476Y-63587380D01*
X166726523Y-63587380D01*
X167583666Y-62920714D02*
X167583666Y-63587380D01*
X167345571Y-62539761D02*
X167107476Y-63254047D01*
X167726523Y-63254047D01*
%TO.C,R18*%
X113482380Y-88780857D02*
X113006190Y-89114190D01*
X113482380Y-89352285D02*
X112482380Y-89352285D01*
X112482380Y-88971333D01*
X112530000Y-88876095D01*
X112577619Y-88828476D01*
X112672857Y-88780857D01*
X112815714Y-88780857D01*
X112910952Y-88828476D01*
X112958571Y-88876095D01*
X113006190Y-88971333D01*
X113006190Y-89352285D01*
X113482380Y-87828476D02*
X113482380Y-88399904D01*
X113482380Y-88114190D02*
X112482380Y-88114190D01*
X112625238Y-88209428D01*
X112720476Y-88304666D01*
X112768095Y-88399904D01*
X112910952Y-87257047D02*
X112863333Y-87352285D01*
X112815714Y-87399904D01*
X112720476Y-87447523D01*
X112672857Y-87447523D01*
X112577619Y-87399904D01*
X112530000Y-87352285D01*
X112482380Y-87257047D01*
X112482380Y-87066571D01*
X112530000Y-86971333D01*
X112577619Y-86923714D01*
X112672857Y-86876095D01*
X112720476Y-86876095D01*
X112815714Y-86923714D01*
X112863333Y-86971333D01*
X112910952Y-87066571D01*
X112910952Y-87257047D01*
X112958571Y-87352285D01*
X113006190Y-87399904D01*
X113101428Y-87447523D01*
X113291904Y-87447523D01*
X113387142Y-87399904D01*
X113434761Y-87352285D01*
X113482380Y-87257047D01*
X113482380Y-87066571D01*
X113434761Y-86971333D01*
X113387142Y-86923714D01*
X113291904Y-86876095D01*
X113101428Y-86876095D01*
X113006190Y-86923714D01*
X112958571Y-86971333D01*
X112910952Y-87066571D01*
%TO.C,U5*%
X121738095Y-87082380D02*
X121738095Y-87891904D01*
X121785714Y-87987142D01*
X121833333Y-88034761D01*
X121928571Y-88082380D01*
X122119047Y-88082380D01*
X122214285Y-88034761D01*
X122261904Y-87987142D01*
X122309523Y-87891904D01*
X122309523Y-87082380D01*
X123261904Y-87082380D02*
X122785714Y-87082380D01*
X122738095Y-87558571D01*
X122785714Y-87510952D01*
X122880952Y-87463333D01*
X123119047Y-87463333D01*
X123214285Y-87510952D01*
X123261904Y-87558571D01*
X123309523Y-87653809D01*
X123309523Y-87891904D01*
X123261904Y-87987142D01*
X123214285Y-88034761D01*
X123119047Y-88082380D01*
X122880952Y-88082380D01*
X122785714Y-88034761D01*
X122738095Y-87987142D01*
%TO.C,C1*%
X90638333Y-64270142D02*
X90590714Y-64317761D01*
X90447857Y-64365380D01*
X90352619Y-64365380D01*
X90209761Y-64317761D01*
X90114523Y-64222523D01*
X90066904Y-64127285D01*
X90019285Y-63936809D01*
X90019285Y-63793952D01*
X90066904Y-63603476D01*
X90114523Y-63508238D01*
X90209761Y-63413000D01*
X90352619Y-63365380D01*
X90447857Y-63365380D01*
X90590714Y-63413000D01*
X90638333Y-63460619D01*
X91590714Y-64365380D02*
X91019285Y-64365380D01*
X91305000Y-64365380D02*
X91305000Y-63365380D01*
X91209761Y-63508238D01*
X91114523Y-63603476D01*
X91019285Y-63651095D01*
%TO.C,R7*%
X92543333Y-79446380D02*
X92210000Y-78970190D01*
X91971904Y-79446380D02*
X91971904Y-78446380D01*
X92352857Y-78446380D01*
X92448095Y-78494000D01*
X92495714Y-78541619D01*
X92543333Y-78636857D01*
X92543333Y-78779714D01*
X92495714Y-78874952D01*
X92448095Y-78922571D01*
X92352857Y-78970190D01*
X91971904Y-78970190D01*
X92876666Y-78446380D02*
X93543333Y-78446380D01*
X93114761Y-79446380D01*
%TO.C,R25*%
X165774142Y-88479380D02*
X165440809Y-88003190D01*
X165202714Y-88479380D02*
X165202714Y-87479380D01*
X165583666Y-87479380D01*
X165678904Y-87527000D01*
X165726523Y-87574619D01*
X165774142Y-87669857D01*
X165774142Y-87812714D01*
X165726523Y-87907952D01*
X165678904Y-87955571D01*
X165583666Y-88003190D01*
X165202714Y-88003190D01*
X166155095Y-87574619D02*
X166202714Y-87527000D01*
X166297952Y-87479380D01*
X166536047Y-87479380D01*
X166631285Y-87527000D01*
X166678904Y-87574619D01*
X166726523Y-87669857D01*
X166726523Y-87765095D01*
X166678904Y-87907952D01*
X166107476Y-88479380D01*
X166726523Y-88479380D01*
X167631285Y-87479380D02*
X167155095Y-87479380D01*
X167107476Y-87955571D01*
X167155095Y-87907952D01*
X167250333Y-87860333D01*
X167488428Y-87860333D01*
X167583666Y-87907952D01*
X167631285Y-87955571D01*
X167678904Y-88050809D01*
X167678904Y-88288904D01*
X167631285Y-88384142D01*
X167583666Y-88431761D01*
X167488428Y-88479380D01*
X167250333Y-88479380D01*
X167155095Y-88431761D01*
X167107476Y-88384142D01*
%TO.C,R5*%
X94833333Y-99602380D02*
X94500000Y-99126190D01*
X94261904Y-99602380D02*
X94261904Y-98602380D01*
X94642857Y-98602380D01*
X94738095Y-98650000D01*
X94785714Y-98697619D01*
X94833333Y-98792857D01*
X94833333Y-98935714D01*
X94785714Y-99030952D01*
X94738095Y-99078571D01*
X94642857Y-99126190D01*
X94261904Y-99126190D01*
X95738095Y-98602380D02*
X95261904Y-98602380D01*
X95214285Y-99078571D01*
X95261904Y-99030952D01*
X95357142Y-98983333D01*
X95595238Y-98983333D01*
X95690476Y-99030952D01*
X95738095Y-99078571D01*
X95785714Y-99173809D01*
X95785714Y-99411904D01*
X95738095Y-99507142D01*
X95690476Y-99554761D01*
X95595238Y-99602380D01*
X95357142Y-99602380D01*
X95261904Y-99554761D01*
X95214285Y-99507142D01*
%TO.C,R23*%
X165774142Y-71334380D02*
X165440809Y-70858190D01*
X165202714Y-71334380D02*
X165202714Y-70334380D01*
X165583666Y-70334380D01*
X165678904Y-70382000D01*
X165726523Y-70429619D01*
X165774142Y-70524857D01*
X165774142Y-70667714D01*
X165726523Y-70762952D01*
X165678904Y-70810571D01*
X165583666Y-70858190D01*
X165202714Y-70858190D01*
X166155095Y-70429619D02*
X166202714Y-70382000D01*
X166297952Y-70334380D01*
X166536047Y-70334380D01*
X166631285Y-70382000D01*
X166678904Y-70429619D01*
X166726523Y-70524857D01*
X166726523Y-70620095D01*
X166678904Y-70762952D01*
X166107476Y-71334380D01*
X166726523Y-71334380D01*
X167059857Y-70334380D02*
X167678904Y-70334380D01*
X167345571Y-70715333D01*
X167488428Y-70715333D01*
X167583666Y-70762952D01*
X167631285Y-70810571D01*
X167678904Y-70905809D01*
X167678904Y-71143904D01*
X167631285Y-71239142D01*
X167583666Y-71286761D01*
X167488428Y-71334380D01*
X167202714Y-71334380D01*
X167107476Y-71286761D01*
X167059857Y-71239142D01*
%TO.C,R40*%
X131487142Y-57873380D02*
X131153809Y-57397190D01*
X130915714Y-57873380D02*
X130915714Y-56873380D01*
X131296666Y-56873380D01*
X131391904Y-56921000D01*
X131439523Y-56968619D01*
X131487142Y-57063857D01*
X131487142Y-57206714D01*
X131439523Y-57301952D01*
X131391904Y-57349571D01*
X131296666Y-57397190D01*
X130915714Y-57397190D01*
X132344285Y-57206714D02*
X132344285Y-57873380D01*
X132106190Y-56825761D02*
X131868095Y-57540047D01*
X132487142Y-57540047D01*
X133058571Y-56873380D02*
X133153809Y-56873380D01*
X133249047Y-56921000D01*
X133296666Y-56968619D01*
X133344285Y-57063857D01*
X133391904Y-57254333D01*
X133391904Y-57492428D01*
X133344285Y-57682904D01*
X133296666Y-57778142D01*
X133249047Y-57825761D01*
X133153809Y-57873380D01*
X133058571Y-57873380D01*
X132963333Y-57825761D01*
X132915714Y-57778142D01*
X132868095Y-57682904D01*
X132820476Y-57492428D01*
X132820476Y-57254333D01*
X132868095Y-57063857D01*
X132915714Y-56968619D01*
X132963333Y-56921000D01*
X133058571Y-56873380D01*
%TO.C,J5*%
X144913332Y-53692380D02*
X144913332Y-54406666D01*
X144865713Y-54549523D01*
X144770475Y-54644761D01*
X144627618Y-54692380D01*
X144532380Y-54692380D01*
X145865713Y-53692380D02*
X145389523Y-53692380D01*
X145341904Y-54168571D01*
X145389523Y-54120952D01*
X145484761Y-54073333D01*
X145722856Y-54073333D01*
X145818094Y-54120952D01*
X145865713Y-54168571D01*
X145913332Y-54263809D01*
X145913332Y-54501904D01*
X145865713Y-54597142D01*
X145818094Y-54644761D01*
X145722856Y-54692380D01*
X145484761Y-54692380D01*
X145389523Y-54644761D01*
X145341904Y-54597142D01*
%TO.C,R15*%
X113482380Y-84208857D02*
X113006190Y-84542190D01*
X113482380Y-84780285D02*
X112482380Y-84780285D01*
X112482380Y-84399333D01*
X112530000Y-84304095D01*
X112577619Y-84256476D01*
X112672857Y-84208857D01*
X112815714Y-84208857D01*
X112910952Y-84256476D01*
X112958571Y-84304095D01*
X113006190Y-84399333D01*
X113006190Y-84780285D01*
X113482380Y-83256476D02*
X113482380Y-83827904D01*
X113482380Y-83542190D02*
X112482380Y-83542190D01*
X112625238Y-83637428D01*
X112720476Y-83732666D01*
X112768095Y-83827904D01*
X112482380Y-82351714D02*
X112482380Y-82827904D01*
X112958571Y-82875523D01*
X112910952Y-82827904D01*
X112863333Y-82732666D01*
X112863333Y-82494571D01*
X112910952Y-82399333D01*
X112958571Y-82351714D01*
X113053809Y-82304095D01*
X113291904Y-82304095D01*
X113387142Y-82351714D01*
X113434761Y-82399333D01*
X113482380Y-82494571D01*
X113482380Y-82732666D01*
X113434761Y-82827904D01*
X113387142Y-82875523D01*
%TO.C,R6*%
X98242380Y-101766666D02*
X97766190Y-102100000D01*
X98242380Y-102338095D02*
X97242380Y-102338095D01*
X97242380Y-101957142D01*
X97290000Y-101861904D01*
X97337619Y-101814285D01*
X97432857Y-101766666D01*
X97575714Y-101766666D01*
X97670952Y-101814285D01*
X97718571Y-101861904D01*
X97766190Y-101957142D01*
X97766190Y-102338095D01*
X97242380Y-100909523D02*
X97242380Y-101100000D01*
X97290000Y-101195238D01*
X97337619Y-101242857D01*
X97480476Y-101338095D01*
X97670952Y-101385714D01*
X98051904Y-101385714D01*
X98147142Y-101338095D01*
X98194761Y-101290476D01*
X98242380Y-101195238D01*
X98242380Y-101004761D01*
X98194761Y-100909523D01*
X98147142Y-100861904D01*
X98051904Y-100814285D01*
X97813809Y-100814285D01*
X97718571Y-100861904D01*
X97670952Y-100909523D01*
X97623333Y-101004761D01*
X97623333Y-101195238D01*
X97670952Y-101290476D01*
X97718571Y-101338095D01*
X97813809Y-101385714D01*
%TO.C,U6*%
X145938095Y-54872380D02*
X145938095Y-55681904D01*
X145985714Y-55777142D01*
X146033333Y-55824761D01*
X146128571Y-55872380D01*
X146319047Y-55872380D01*
X146414285Y-55824761D01*
X146461904Y-55777142D01*
X146509523Y-55681904D01*
X146509523Y-54872380D01*
X147414285Y-54872380D02*
X147223809Y-54872380D01*
X147128571Y-54920000D01*
X147080952Y-54967619D01*
X146985714Y-55110476D01*
X146938095Y-55300952D01*
X146938095Y-55681904D01*
X146985714Y-55777142D01*
X147033333Y-55824761D01*
X147128571Y-55872380D01*
X147319047Y-55872380D01*
X147414285Y-55824761D01*
X147461904Y-55777142D01*
X147509523Y-55681904D01*
X147509523Y-55443809D01*
X147461904Y-55348571D01*
X147414285Y-55300952D01*
X147319047Y-55253333D01*
X147128571Y-55253333D01*
X147033333Y-55300952D01*
X146985714Y-55348571D01*
X146938095Y-55443809D01*
%TO.C,R37*%
X185967142Y-105667380D02*
X185633809Y-105191190D01*
X185395714Y-105667380D02*
X185395714Y-104667380D01*
X185776666Y-104667380D01*
X185871904Y-104715000D01*
X185919523Y-104762619D01*
X185967142Y-104857857D01*
X185967142Y-105000714D01*
X185919523Y-105095952D01*
X185871904Y-105143571D01*
X185776666Y-105191190D01*
X185395714Y-105191190D01*
X186300476Y-104667380D02*
X186919523Y-104667380D01*
X186586190Y-105048333D01*
X186729047Y-105048333D01*
X186824285Y-105095952D01*
X186871904Y-105143571D01*
X186919523Y-105238809D01*
X186919523Y-105476904D01*
X186871904Y-105572142D01*
X186824285Y-105619761D01*
X186729047Y-105667380D01*
X186443333Y-105667380D01*
X186348095Y-105619761D01*
X186300476Y-105572142D01*
X187252857Y-104667380D02*
X187919523Y-104667380D01*
X187490952Y-105667380D01*
%TO.C,D2*%
X79261904Y-82952380D02*
X79261904Y-81952380D01*
X79500000Y-81952380D01*
X79642857Y-82000000D01*
X79738095Y-82095238D01*
X79785714Y-82190476D01*
X79833333Y-82380952D01*
X79833333Y-82523809D01*
X79785714Y-82714285D01*
X79738095Y-82809523D01*
X79642857Y-82904761D01*
X79500000Y-82952380D01*
X79261904Y-82952380D01*
X80214285Y-82047619D02*
X80261904Y-82000000D01*
X80357142Y-81952380D01*
X80595238Y-81952380D01*
X80690476Y-82000000D01*
X80738095Y-82047619D01*
X80785714Y-82142857D01*
X80785714Y-82238095D01*
X80738095Y-82380952D01*
X80166666Y-82952380D01*
X80785714Y-82952380D01*
%TO.C,R13*%
X109926380Y-68714857D02*
X109450190Y-69048190D01*
X109926380Y-69286285D02*
X108926380Y-69286285D01*
X108926380Y-68905333D01*
X108974000Y-68810095D01*
X109021619Y-68762476D01*
X109116857Y-68714857D01*
X109259714Y-68714857D01*
X109354952Y-68762476D01*
X109402571Y-68810095D01*
X109450190Y-68905333D01*
X109450190Y-69286285D01*
X109926380Y-67762476D02*
X109926380Y-68333904D01*
X109926380Y-68048190D02*
X108926380Y-68048190D01*
X109069238Y-68143428D01*
X109164476Y-68238666D01*
X109212095Y-68333904D01*
X108926380Y-67429142D02*
X108926380Y-66810095D01*
X109307333Y-67143428D01*
X109307333Y-67000571D01*
X109354952Y-66905333D01*
X109402571Y-66857714D01*
X109497809Y-66810095D01*
X109735904Y-66810095D01*
X109831142Y-66857714D01*
X109878761Y-66905333D01*
X109926380Y-67000571D01*
X109926380Y-67286285D01*
X109878761Y-67381523D01*
X109831142Y-67429142D01*
%TO.C,Q2*%
X162765761Y-81095619D02*
X162670523Y-81048000D01*
X162575285Y-80952761D01*
X162432428Y-80809904D01*
X162337190Y-80762285D01*
X162241952Y-80762285D01*
X162289571Y-81000380D02*
X162194333Y-80952761D01*
X162099095Y-80857523D01*
X162051476Y-80667047D01*
X162051476Y-80333714D01*
X162099095Y-80143238D01*
X162194333Y-80048000D01*
X162289571Y-80000380D01*
X162480047Y-80000380D01*
X162575285Y-80048000D01*
X162670523Y-80143238D01*
X162718142Y-80333714D01*
X162718142Y-80667047D01*
X162670523Y-80857523D01*
X162575285Y-80952761D01*
X162480047Y-81000380D01*
X162289571Y-81000380D01*
X163099095Y-80095619D02*
X163146714Y-80048000D01*
X163241952Y-80000380D01*
X163480047Y-80000380D01*
X163575285Y-80048000D01*
X163622904Y-80095619D01*
X163670523Y-80190857D01*
X163670523Y-80286095D01*
X163622904Y-80428952D01*
X163051476Y-81000380D01*
X163670523Y-81000380D01*
%TO.C,R28*%
X181687142Y-69737380D02*
X181353809Y-69261190D01*
X181115714Y-69737380D02*
X181115714Y-68737380D01*
X181496666Y-68737380D01*
X181591904Y-68785000D01*
X181639523Y-68832619D01*
X181687142Y-68927857D01*
X181687142Y-69070714D01*
X181639523Y-69165952D01*
X181591904Y-69213571D01*
X181496666Y-69261190D01*
X181115714Y-69261190D01*
X182068095Y-68832619D02*
X182115714Y-68785000D01*
X182210952Y-68737380D01*
X182449047Y-68737380D01*
X182544285Y-68785000D01*
X182591904Y-68832619D01*
X182639523Y-68927857D01*
X182639523Y-69023095D01*
X182591904Y-69165952D01*
X182020476Y-69737380D01*
X182639523Y-69737380D01*
X183210952Y-69165952D02*
X183115714Y-69118333D01*
X183068095Y-69070714D01*
X183020476Y-68975476D01*
X183020476Y-68927857D01*
X183068095Y-68832619D01*
X183115714Y-68785000D01*
X183210952Y-68737380D01*
X183401428Y-68737380D01*
X183496666Y-68785000D01*
X183544285Y-68832619D01*
X183591904Y-68927857D01*
X183591904Y-68975476D01*
X183544285Y-69070714D01*
X183496666Y-69118333D01*
X183401428Y-69165952D01*
X183210952Y-69165952D01*
X183115714Y-69213571D01*
X183068095Y-69261190D01*
X183020476Y-69356428D01*
X183020476Y-69546904D01*
X183068095Y-69642142D01*
X183115714Y-69689761D01*
X183210952Y-69737380D01*
X183401428Y-69737380D01*
X183496666Y-69689761D01*
X183544285Y-69642142D01*
X183591904Y-69546904D01*
X183591904Y-69356428D01*
X183544285Y-69261190D01*
X183496666Y-69213571D01*
X183401428Y-69165952D01*
%TO.C,D1*%
X89685904Y-74894380D02*
X89685904Y-73894380D01*
X89924000Y-73894380D01*
X90066857Y-73942000D01*
X90162095Y-74037238D01*
X90209714Y-74132476D01*
X90257333Y-74322952D01*
X90257333Y-74465809D01*
X90209714Y-74656285D01*
X90162095Y-74751523D01*
X90066857Y-74846761D01*
X89924000Y-74894380D01*
X89685904Y-74894380D01*
X91209714Y-74894380D02*
X90638285Y-74894380D01*
X90924000Y-74894380D02*
X90924000Y-73894380D01*
X90828761Y-74037238D01*
X90733523Y-74132476D01*
X90638285Y-74180095D01*
%TO.C,R29*%
X185967142Y-64985380D02*
X185633809Y-64509190D01*
X185395714Y-64985380D02*
X185395714Y-63985380D01*
X185776666Y-63985380D01*
X185871904Y-64033000D01*
X185919523Y-64080619D01*
X185967142Y-64175857D01*
X185967142Y-64318714D01*
X185919523Y-64413952D01*
X185871904Y-64461571D01*
X185776666Y-64509190D01*
X185395714Y-64509190D01*
X186348095Y-64080619D02*
X186395714Y-64033000D01*
X186490952Y-63985380D01*
X186729047Y-63985380D01*
X186824285Y-64033000D01*
X186871904Y-64080619D01*
X186919523Y-64175857D01*
X186919523Y-64271095D01*
X186871904Y-64413952D01*
X186300476Y-64985380D01*
X186919523Y-64985380D01*
X187395714Y-64985380D02*
X187586190Y-64985380D01*
X187681428Y-64937761D01*
X187729047Y-64890142D01*
X187824285Y-64747285D01*
X187871904Y-64556809D01*
X187871904Y-64175857D01*
X187824285Y-64080619D01*
X187776666Y-64033000D01*
X187681428Y-63985380D01*
X187490952Y-63985380D01*
X187395714Y-64033000D01*
X187348095Y-64080619D01*
X187300476Y-64175857D01*
X187300476Y-64413952D01*
X187348095Y-64509190D01*
X187395714Y-64556809D01*
X187490952Y-64604428D01*
X187681428Y-64604428D01*
X187776666Y-64556809D01*
X187824285Y-64509190D01*
X187871904Y-64413952D01*
%TO.C,J8*%
X158329998Y-53692380D02*
X158329998Y-54406666D01*
X158282379Y-54549523D01*
X158187141Y-54644761D01*
X158044284Y-54692380D01*
X157949046Y-54692380D01*
X158949046Y-54120952D02*
X158853808Y-54073333D01*
X158806189Y-54025714D01*
X158758570Y-53930476D01*
X158758570Y-53882857D01*
X158806189Y-53787619D01*
X158853808Y-53740000D01*
X158949046Y-53692380D01*
X159139522Y-53692380D01*
X159234760Y-53740000D01*
X159282379Y-53787619D01*
X159329998Y-53882857D01*
X159329998Y-53930476D01*
X159282379Y-54025714D01*
X159234760Y-54073333D01*
X159139522Y-54120952D01*
X158949046Y-54120952D01*
X158853808Y-54168571D01*
X158806189Y-54216190D01*
X158758570Y-54311428D01*
X158758570Y-54501904D01*
X158806189Y-54597142D01*
X158853808Y-54644761D01*
X158949046Y-54692380D01*
X159139522Y-54692380D01*
X159234760Y-54644761D01*
X159282379Y-54597142D01*
X159329998Y-54501904D01*
X159329998Y-54311428D01*
X159282379Y-54216190D01*
X159234760Y-54168571D01*
X159139522Y-54120952D01*
%TO.C,R4*%
X100528380Y-93613266D02*
X100052190Y-93946600D01*
X100528380Y-94184695D02*
X99528380Y-94184695D01*
X99528380Y-93803742D01*
X99576000Y-93708504D01*
X99623619Y-93660885D01*
X99718857Y-93613266D01*
X99861714Y-93613266D01*
X99956952Y-93660885D01*
X100004571Y-93708504D01*
X100052190Y-93803742D01*
X100052190Y-94184695D01*
X99861714Y-92756123D02*
X100528380Y-92756123D01*
X99480761Y-92994219D02*
X100195047Y-93232314D01*
X100195047Y-92613266D01*
%TO.C,R8*%
X92543333Y-81478380D02*
X92210000Y-81002190D01*
X91971904Y-81478380D02*
X91971904Y-80478380D01*
X92352857Y-80478380D01*
X92448095Y-80526000D01*
X92495714Y-80573619D01*
X92543333Y-80668857D01*
X92543333Y-80811714D01*
X92495714Y-80906952D01*
X92448095Y-80954571D01*
X92352857Y-81002190D01*
X91971904Y-81002190D01*
X93114761Y-80906952D02*
X93019523Y-80859333D01*
X92971904Y-80811714D01*
X92924285Y-80716476D01*
X92924285Y-80668857D01*
X92971904Y-80573619D01*
X93019523Y-80526000D01*
X93114761Y-80478380D01*
X93305238Y-80478380D01*
X93400476Y-80526000D01*
X93448095Y-80573619D01*
X93495714Y-80668857D01*
X93495714Y-80716476D01*
X93448095Y-80811714D01*
X93400476Y-80859333D01*
X93305238Y-80906952D01*
X93114761Y-80906952D01*
X93019523Y-80954571D01*
X92971904Y-81002190D01*
X92924285Y-81097428D01*
X92924285Y-81287904D01*
X92971904Y-81383142D01*
X93019523Y-81430761D01*
X93114761Y-81478380D01*
X93305238Y-81478380D01*
X93400476Y-81430761D01*
X93448095Y-81383142D01*
X93495714Y-81287904D01*
X93495714Y-81097428D01*
X93448095Y-81002190D01*
X93400476Y-80954571D01*
X93305238Y-80906952D01*
%TO.C,R3*%
X94833333Y-94602380D02*
X94500000Y-94126190D01*
X94261904Y-94602380D02*
X94261904Y-93602380D01*
X94642857Y-93602380D01*
X94738095Y-93650000D01*
X94785714Y-93697619D01*
X94833333Y-93792857D01*
X94833333Y-93935714D01*
X94785714Y-94030952D01*
X94738095Y-94078571D01*
X94642857Y-94126190D01*
X94261904Y-94126190D01*
X95166666Y-93602380D02*
X95785714Y-93602380D01*
X95452380Y-93983333D01*
X95595238Y-93983333D01*
X95690476Y-94030952D01*
X95738095Y-94078571D01*
X95785714Y-94173809D01*
X95785714Y-94411904D01*
X95738095Y-94507142D01*
X95690476Y-94554761D01*
X95595238Y-94602380D01*
X95309523Y-94602380D01*
X95214285Y-94554761D01*
X95166666Y-94507142D01*
%TO.C,R9*%
X92543333Y-88336380D02*
X92210000Y-87860190D01*
X91971904Y-88336380D02*
X91971904Y-87336380D01*
X92352857Y-87336380D01*
X92448095Y-87384000D01*
X92495714Y-87431619D01*
X92543333Y-87526857D01*
X92543333Y-87669714D01*
X92495714Y-87764952D01*
X92448095Y-87812571D01*
X92352857Y-87860190D01*
X91971904Y-87860190D01*
X93019523Y-88336380D02*
X93210000Y-88336380D01*
X93305238Y-88288761D01*
X93352857Y-88241142D01*
X93448095Y-88098285D01*
X93495714Y-87907809D01*
X93495714Y-87526857D01*
X93448095Y-87431619D01*
X93400476Y-87384000D01*
X93305238Y-87336380D01*
X93114761Y-87336380D01*
X93019523Y-87384000D01*
X92971904Y-87431619D01*
X92924285Y-87526857D01*
X92924285Y-87764952D01*
X92971904Y-87860190D01*
X93019523Y-87907809D01*
X93114761Y-87955428D01*
X93305238Y-87955428D01*
X93400476Y-87907809D01*
X93448095Y-87860190D01*
X93495714Y-87764952D01*
%TO.C,D5*%
X187562904Y-59310380D02*
X187562904Y-58310380D01*
X187801000Y-58310380D01*
X187943857Y-58358000D01*
X188039095Y-58453238D01*
X188086714Y-58548476D01*
X188134333Y-58738952D01*
X188134333Y-58881809D01*
X188086714Y-59072285D01*
X188039095Y-59167523D01*
X187943857Y-59262761D01*
X187801000Y-59310380D01*
X187562904Y-59310380D01*
X189039095Y-58310380D02*
X188562904Y-58310380D01*
X188515285Y-58786571D01*
X188562904Y-58738952D01*
X188658142Y-58691333D01*
X188896238Y-58691333D01*
X188991476Y-58738952D01*
X189039095Y-58786571D01*
X189086714Y-58881809D01*
X189086714Y-59119904D01*
X189039095Y-59215142D01*
X188991476Y-59262761D01*
X188896238Y-59310380D01*
X188658142Y-59310380D01*
X188562904Y-59262761D01*
X188515285Y-59215142D01*
%TO.C,U4*%
X121738095Y-74582380D02*
X121738095Y-75391904D01*
X121785714Y-75487142D01*
X121833333Y-75534761D01*
X121928571Y-75582380D01*
X122119047Y-75582380D01*
X122214285Y-75534761D01*
X122261904Y-75487142D01*
X122309523Y-75391904D01*
X122309523Y-74582380D01*
X123214285Y-74915714D02*
X123214285Y-75582380D01*
X122976190Y-74534761D02*
X122738095Y-75249047D01*
X123357142Y-75249047D01*
%TO.C,R20*%
X130167380Y-79730357D02*
X129691190Y-80063690D01*
X130167380Y-80301785D02*
X129167380Y-80301785D01*
X129167380Y-79920833D01*
X129215000Y-79825595D01*
X129262619Y-79777976D01*
X129357857Y-79730357D01*
X129500714Y-79730357D01*
X129595952Y-79777976D01*
X129643571Y-79825595D01*
X129691190Y-79920833D01*
X129691190Y-80301785D01*
X129262619Y-79349404D02*
X129215000Y-79301785D01*
X129167380Y-79206547D01*
X129167380Y-78968452D01*
X129215000Y-78873214D01*
X129262619Y-78825595D01*
X129357857Y-78777976D01*
X129453095Y-78777976D01*
X129595952Y-78825595D01*
X130167380Y-79397023D01*
X130167380Y-78777976D01*
X129167380Y-78158928D02*
X129167380Y-78063690D01*
X129215000Y-77968452D01*
X129262619Y-77920833D01*
X129357857Y-77873214D01*
X129548333Y-77825595D01*
X129786428Y-77825595D01*
X129976904Y-77873214D01*
X130072142Y-77920833D01*
X130119761Y-77968452D01*
X130167380Y-78063690D01*
X130167380Y-78158928D01*
X130119761Y-78254166D01*
X130072142Y-78301785D01*
X129976904Y-78349404D01*
X129786428Y-78397023D01*
X129548333Y-78397023D01*
X129357857Y-78349404D01*
X129262619Y-78301785D01*
X129215000Y-78254166D01*
X129167380Y-78158928D01*
%TO.C,J1*%
X83212380Y-70373333D02*
X83926666Y-70373333D01*
X84069523Y-70420952D01*
X84164761Y-70516190D01*
X84212380Y-70659047D01*
X84212380Y-70754285D01*
X84212380Y-69373333D02*
X84212380Y-69944761D01*
X84212380Y-69659047D02*
X83212380Y-69659047D01*
X83355238Y-69754285D01*
X83450476Y-69849523D01*
X83498095Y-69944761D01*
%TO.C,D7*%
X187562904Y-93600380D02*
X187562904Y-92600380D01*
X187801000Y-92600380D01*
X187943857Y-92648000D01*
X188039095Y-92743238D01*
X188086714Y-92838476D01*
X188134333Y-93028952D01*
X188134333Y-93171809D01*
X188086714Y-93362285D01*
X188039095Y-93457523D01*
X187943857Y-93552761D01*
X187801000Y-93600380D01*
X187562904Y-93600380D01*
X188467666Y-92600380D02*
X189134333Y-92600380D01*
X188705761Y-93600380D01*
%TO.C,U2*%
X101854095Y-55840380D02*
X101854095Y-56649904D01*
X101901714Y-56745142D01*
X101949333Y-56792761D01*
X102044571Y-56840380D01*
X102235047Y-56840380D01*
X102330285Y-56792761D01*
X102377904Y-56745142D01*
X102425523Y-56649904D01*
X102425523Y-55840380D01*
X102854095Y-55935619D02*
X102901714Y-55888000D01*
X102996952Y-55840380D01*
X103235047Y-55840380D01*
X103330285Y-55888000D01*
X103377904Y-55935619D01*
X103425523Y-56030857D01*
X103425523Y-56126095D01*
X103377904Y-56268952D01*
X102806476Y-56840380D01*
X103425523Y-56840380D01*
%TO.C,U7*%
X174418095Y-58607380D02*
X174418095Y-59416904D01*
X174465714Y-59512142D01*
X174513333Y-59559761D01*
X174608571Y-59607380D01*
X174799047Y-59607380D01*
X174894285Y-59559761D01*
X174941904Y-59512142D01*
X174989523Y-59416904D01*
X174989523Y-58607380D01*
X175370476Y-58607380D02*
X176037142Y-58607380D01*
X175608571Y-59607380D01*
%TO.C,J6*%
X170496666Y-53692380D02*
X170496666Y-54406666D01*
X170449047Y-54549523D01*
X170353809Y-54644761D01*
X170210952Y-54692380D01*
X170115714Y-54692380D01*
X171401428Y-53692380D02*
X171210952Y-53692380D01*
X171115714Y-53740000D01*
X171068095Y-53787619D01*
X170972857Y-53930476D01*
X170925238Y-54120952D01*
X170925238Y-54501904D01*
X170972857Y-54597142D01*
X171020476Y-54644761D01*
X171115714Y-54692380D01*
X171306190Y-54692380D01*
X171401428Y-54644761D01*
X171449047Y-54597142D01*
X171496666Y-54501904D01*
X171496666Y-54263809D01*
X171449047Y-54168571D01*
X171401428Y-54120952D01*
X171306190Y-54073333D01*
X171115714Y-54073333D01*
X171020476Y-54120952D01*
X170972857Y-54168571D01*
X170925238Y-54263809D01*
%TO.C,R32*%
X185967142Y-82130380D02*
X185633809Y-81654190D01*
X185395714Y-82130380D02*
X185395714Y-81130380D01*
X185776666Y-81130380D01*
X185871904Y-81178000D01*
X185919523Y-81225619D01*
X185967142Y-81320857D01*
X185967142Y-81463714D01*
X185919523Y-81558952D01*
X185871904Y-81606571D01*
X185776666Y-81654190D01*
X185395714Y-81654190D01*
X186300476Y-81130380D02*
X186919523Y-81130380D01*
X186586190Y-81511333D01*
X186729047Y-81511333D01*
X186824285Y-81558952D01*
X186871904Y-81606571D01*
X186919523Y-81701809D01*
X186919523Y-81939904D01*
X186871904Y-82035142D01*
X186824285Y-82082761D01*
X186729047Y-82130380D01*
X186443333Y-82130380D01*
X186348095Y-82082761D01*
X186300476Y-82035142D01*
X187300476Y-81225619D02*
X187348095Y-81178000D01*
X187443333Y-81130380D01*
X187681428Y-81130380D01*
X187776666Y-81178000D01*
X187824285Y-81225619D01*
X187871904Y-81320857D01*
X187871904Y-81416095D01*
X187824285Y-81558952D01*
X187252857Y-82130380D01*
X187871904Y-82130380D01*
%TO.C,U9*%
X174418095Y-75752380D02*
X174418095Y-76561904D01*
X174465714Y-76657142D01*
X174513333Y-76704761D01*
X174608571Y-76752380D01*
X174799047Y-76752380D01*
X174894285Y-76704761D01*
X174941904Y-76657142D01*
X174989523Y-76561904D01*
X174989523Y-75752380D01*
X175513333Y-76752380D02*
X175703809Y-76752380D01*
X175799047Y-76704761D01*
X175846666Y-76657142D01*
X175941904Y-76514285D01*
X175989523Y-76323809D01*
X175989523Y-75942857D01*
X175941904Y-75847619D01*
X175894285Y-75800000D01*
X175799047Y-75752380D01*
X175608571Y-75752380D01*
X175513333Y-75800000D01*
X175465714Y-75847619D01*
X175418095Y-75942857D01*
X175418095Y-76180952D01*
X175465714Y-76276190D01*
X175513333Y-76323809D01*
X175608571Y-76371428D01*
X175799047Y-76371428D01*
X175894285Y-76323809D01*
X175941904Y-76276190D01*
X175989523Y-76180952D01*
%TO.C,R11*%
X105455980Y-94622857D02*
X104979790Y-94956190D01*
X105455980Y-95194285D02*
X104455980Y-95194285D01*
X104455980Y-94813333D01*
X104503600Y-94718095D01*
X104551219Y-94670476D01*
X104646457Y-94622857D01*
X104789314Y-94622857D01*
X104884552Y-94670476D01*
X104932171Y-94718095D01*
X104979790Y-94813333D01*
X104979790Y-95194285D01*
X105455980Y-93670476D02*
X105455980Y-94241904D01*
X105455980Y-93956190D02*
X104455980Y-93956190D01*
X104598838Y-94051428D01*
X104694076Y-94146666D01*
X104741695Y-94241904D01*
X105455980Y-92718095D02*
X105455980Y-93289523D01*
X105455980Y-93003809D02*
X104455980Y-93003809D01*
X104598838Y-93099047D01*
X104694076Y-93194285D01*
X104741695Y-93289523D01*
%TO.C,J7*%
X125951666Y-53952380D02*
X125951666Y-54666666D01*
X125904047Y-54809523D01*
X125808809Y-54904761D01*
X125665952Y-54952380D01*
X125570714Y-54952380D01*
X126332619Y-53952380D02*
X126999285Y-53952380D01*
X126570714Y-54952380D01*
%TO.C,R12*%
X107741980Y-94622857D02*
X107265790Y-94956190D01*
X107741980Y-95194285D02*
X106741980Y-95194285D01*
X106741980Y-94813333D01*
X106789600Y-94718095D01*
X106837219Y-94670476D01*
X106932457Y-94622857D01*
X107075314Y-94622857D01*
X107170552Y-94670476D01*
X107218171Y-94718095D01*
X107265790Y-94813333D01*
X107265790Y-95194285D01*
X107741980Y-93670476D02*
X107741980Y-94241904D01*
X107741980Y-93956190D02*
X106741980Y-93956190D01*
X106884838Y-94051428D01*
X106980076Y-94146666D01*
X107027695Y-94241904D01*
X106837219Y-93289523D02*
X106789600Y-93241904D01*
X106741980Y-93146666D01*
X106741980Y-92908571D01*
X106789600Y-92813333D01*
X106837219Y-92765714D01*
X106932457Y-92718095D01*
X107027695Y-92718095D01*
X107170552Y-92765714D01*
X107741980Y-93337142D01*
X107741980Y-92718095D01*
%TO.C,C2*%
X109799142Y-51474666D02*
X109846761Y-51522285D01*
X109894380Y-51665142D01*
X109894380Y-51760380D01*
X109846761Y-51903238D01*
X109751523Y-51998476D01*
X109656285Y-52046095D01*
X109465809Y-52093714D01*
X109322952Y-52093714D01*
X109132476Y-52046095D01*
X109037238Y-51998476D01*
X108942000Y-51903238D01*
X108894380Y-51760380D01*
X108894380Y-51665142D01*
X108942000Y-51522285D01*
X108989619Y-51474666D01*
X108989619Y-51093714D02*
X108942000Y-51046095D01*
X108894380Y-50950857D01*
X108894380Y-50712761D01*
X108942000Y-50617523D01*
X108989619Y-50569904D01*
X109084857Y-50522285D01*
X109180095Y-50522285D01*
X109322952Y-50569904D01*
X109894380Y-51141333D01*
X109894380Y-50522285D01*
%TO.C,D3*%
X87091904Y-95452380D02*
X87091904Y-94452380D01*
X87330000Y-94452380D01*
X87472857Y-94500000D01*
X87568095Y-94595238D01*
X87615714Y-94690476D01*
X87663333Y-94880952D01*
X87663333Y-95023809D01*
X87615714Y-95214285D01*
X87568095Y-95309523D01*
X87472857Y-95404761D01*
X87330000Y-95452380D01*
X87091904Y-95452380D01*
X87996666Y-94452380D02*
X88615714Y-94452380D01*
X88282380Y-94833333D01*
X88425238Y-94833333D01*
X88520476Y-94880952D01*
X88568095Y-94928571D01*
X88615714Y-95023809D01*
X88615714Y-95261904D01*
X88568095Y-95357142D01*
X88520476Y-95404761D01*
X88425238Y-95452380D01*
X88139523Y-95452380D01*
X88044285Y-95404761D01*
X87996666Y-95357142D01*
%TO.C,R10*%
X91813142Y-86050380D02*
X91479809Y-85574190D01*
X91241714Y-86050380D02*
X91241714Y-85050380D01*
X91622666Y-85050380D01*
X91717904Y-85098000D01*
X91765523Y-85145619D01*
X91813142Y-85240857D01*
X91813142Y-85383714D01*
X91765523Y-85478952D01*
X91717904Y-85526571D01*
X91622666Y-85574190D01*
X91241714Y-85574190D01*
X92765523Y-86050380D02*
X92194095Y-86050380D01*
X92479809Y-86050380D02*
X92479809Y-85050380D01*
X92384571Y-85193238D01*
X92289333Y-85288476D01*
X92194095Y-85336095D01*
X93384571Y-85050380D02*
X93479809Y-85050380D01*
X93575047Y-85098000D01*
X93622666Y-85145619D01*
X93670285Y-85240857D01*
X93717904Y-85431333D01*
X93717904Y-85669428D01*
X93670285Y-85859904D01*
X93622666Y-85955142D01*
X93575047Y-86002761D01*
X93479809Y-86050380D01*
X93384571Y-86050380D01*
X93289333Y-86002761D01*
X93241714Y-85955142D01*
X93194095Y-85859904D01*
X93146476Y-85669428D01*
X93146476Y-85431333D01*
X93194095Y-85240857D01*
X93241714Y-85145619D01*
X93289333Y-85098000D01*
X93384571Y-85050380D01*
%TO.C,R2*%
X87066380Y-84494666D02*
X86590190Y-84828000D01*
X87066380Y-85066095D02*
X86066380Y-85066095D01*
X86066380Y-84685142D01*
X86114000Y-84589904D01*
X86161619Y-84542285D01*
X86256857Y-84494666D01*
X86399714Y-84494666D01*
X86494952Y-84542285D01*
X86542571Y-84589904D01*
X86590190Y-84685142D01*
X86590190Y-85066095D01*
X86161619Y-84113714D02*
X86114000Y-84066095D01*
X86066380Y-83970857D01*
X86066380Y-83732761D01*
X86114000Y-83637523D01*
X86161619Y-83589904D01*
X86256857Y-83542285D01*
X86352095Y-83542285D01*
X86494952Y-83589904D01*
X87066380Y-84161333D01*
X87066380Y-83542285D01*
%TO.C,Q3*%
X162765761Y-98240619D02*
X162670523Y-98193000D01*
X162575285Y-98097761D01*
X162432428Y-97954904D01*
X162337190Y-97907285D01*
X162241952Y-97907285D01*
X162289571Y-98145380D02*
X162194333Y-98097761D01*
X162099095Y-98002523D01*
X162051476Y-97812047D01*
X162051476Y-97478714D01*
X162099095Y-97288238D01*
X162194333Y-97193000D01*
X162289571Y-97145380D01*
X162480047Y-97145380D01*
X162575285Y-97193000D01*
X162670523Y-97288238D01*
X162718142Y-97478714D01*
X162718142Y-97812047D01*
X162670523Y-98002523D01*
X162575285Y-98097761D01*
X162480047Y-98145380D01*
X162289571Y-98145380D01*
X163051476Y-97145380D02*
X163670523Y-97145380D01*
X163337190Y-97526333D01*
X163480047Y-97526333D01*
X163575285Y-97573952D01*
X163622904Y-97621571D01*
X163670523Y-97716809D01*
X163670523Y-97954904D01*
X163622904Y-98050142D01*
X163575285Y-98097761D01*
X163480047Y-98145380D01*
X163194333Y-98145380D01*
X163099095Y-98097761D01*
X163051476Y-98050142D01*
%TO.C,D4*%
X87091904Y-100452380D02*
X87091904Y-99452380D01*
X87330000Y-99452380D01*
X87472857Y-99500000D01*
X87568095Y-99595238D01*
X87615714Y-99690476D01*
X87663333Y-99880952D01*
X87663333Y-100023809D01*
X87615714Y-100214285D01*
X87568095Y-100309523D01*
X87472857Y-100404761D01*
X87330000Y-100452380D01*
X87091904Y-100452380D01*
X88520476Y-99785714D02*
X88520476Y-100452380D01*
X88282380Y-99404761D02*
X88044285Y-100119047D01*
X88663333Y-100119047D01*
%TO.C,R21*%
X130167380Y-92230357D02*
X129691190Y-92563690D01*
X130167380Y-92801785D02*
X129167380Y-92801785D01*
X129167380Y-92420833D01*
X129215000Y-92325595D01*
X129262619Y-92277976D01*
X129357857Y-92230357D01*
X129500714Y-92230357D01*
X129595952Y-92277976D01*
X129643571Y-92325595D01*
X129691190Y-92420833D01*
X129691190Y-92801785D01*
X129262619Y-91849404D02*
X129215000Y-91801785D01*
X129167380Y-91706547D01*
X129167380Y-91468452D01*
X129215000Y-91373214D01*
X129262619Y-91325595D01*
X129357857Y-91277976D01*
X129453095Y-91277976D01*
X129595952Y-91325595D01*
X130167380Y-91897023D01*
X130167380Y-91277976D01*
X130167380Y-90325595D02*
X130167380Y-90897023D01*
X130167380Y-90611309D02*
X129167380Y-90611309D01*
X129310238Y-90706547D01*
X129405476Y-90801785D01*
X129453095Y-90897023D01*
%TO.C,R19*%
X130167380Y-67230357D02*
X129691190Y-67563690D01*
X130167380Y-67801785D02*
X129167380Y-67801785D01*
X129167380Y-67420833D01*
X129215000Y-67325595D01*
X129262619Y-67277976D01*
X129357857Y-67230357D01*
X129500714Y-67230357D01*
X129595952Y-67277976D01*
X129643571Y-67325595D01*
X129691190Y-67420833D01*
X129691190Y-67801785D01*
X130167380Y-66277976D02*
X130167380Y-66849404D01*
X130167380Y-66563690D02*
X129167380Y-66563690D01*
X129310238Y-66658928D01*
X129405476Y-66754166D01*
X129453095Y-66849404D01*
X130167380Y-65801785D02*
X130167380Y-65611309D01*
X130119761Y-65516071D01*
X130072142Y-65468452D01*
X129929285Y-65373214D01*
X129738809Y-65325595D01*
X129357857Y-65325595D01*
X129262619Y-65373214D01*
X129215000Y-65420833D01*
X129167380Y-65516071D01*
X129167380Y-65706547D01*
X129215000Y-65801785D01*
X129262619Y-65849404D01*
X129357857Y-65897023D01*
X129595952Y-65897023D01*
X129691190Y-65849404D01*
X129738809Y-65801785D01*
X129786428Y-65706547D01*
X129786428Y-65516071D01*
X129738809Y-65420833D01*
X129691190Y-65373214D01*
X129595952Y-65325595D01*
%TO.C,J2*%
X83212380Y-95373333D02*
X83926666Y-95373333D01*
X84069523Y-95420952D01*
X84164761Y-95516190D01*
X84212380Y-95659047D01*
X84212380Y-95754285D01*
X83307619Y-94944761D02*
X83260000Y-94897142D01*
X83212380Y-94801904D01*
X83212380Y-94563809D01*
X83260000Y-94468571D01*
X83307619Y-94420952D01*
X83402857Y-94373333D01*
X83498095Y-94373333D01*
X83640952Y-94420952D01*
X84212380Y-94992380D01*
X84212380Y-94373333D01*
%TO.C,kibuzzard-63DA9566*%
G36*
X205358923Y-60727816D02*
G01*
X205358923Y-59120679D01*
X206020381Y-59120679D01*
X206034936Y-59304733D01*
X206078603Y-59472423D01*
X206151381Y-59623749D01*
X206311448Y-59813273D01*
X206529652Y-59952411D01*
X206704577Y-60015715D01*
X206899655Y-60053697D01*
X207114888Y-60066358D01*
X207268367Y-60066358D01*
X207478001Y-60051286D01*
X207668687Y-60010203D01*
X207840425Y-59943110D01*
X208054947Y-59797770D01*
X208211720Y-59602045D01*
X208282775Y-59446757D01*
X208325408Y-59275450D01*
X208339619Y-59088123D01*
X208318884Y-58821473D01*
X208256678Y-58579627D01*
X208156878Y-58376151D01*
X208023359Y-58224610D01*
X207122639Y-58224610D01*
X207122639Y-59112928D01*
X207465254Y-59112928D01*
X207465254Y-58689698D01*
X207854377Y-58689698D01*
X207938093Y-58838913D01*
X207965999Y-59063318D01*
X207920652Y-59292374D01*
X207784614Y-59458643D01*
X207644399Y-59533574D01*
X207465598Y-59578532D01*
X207248213Y-59593519D01*
X207104036Y-59593519D01*
X206888717Y-59578877D01*
X206711984Y-59537019D01*
X206573835Y-59467945D01*
X206440123Y-59315629D01*
X206395552Y-59106727D01*
X206418031Y-58940651D01*
X206485469Y-58814496D01*
X206601353Y-58727099D01*
X206769172Y-58677295D01*
X206769172Y-58224610D01*
X206544638Y-58273013D01*
X206358861Y-58362414D01*
X206211842Y-58492811D01*
X206105475Y-58663171D01*
X206041654Y-58872460D01*
X206020381Y-59120679D01*
X205358923Y-59120679D01*
X205358923Y-56807642D01*
X206048286Y-56807642D01*
X206048286Y-56855701D01*
X206383149Y-57790528D01*
X206747468Y-57790528D01*
X206581587Y-57255677D01*
X208308613Y-57255677D01*
X208308613Y-56807642D01*
X206048286Y-56807642D01*
X205358923Y-56807642D01*
X205358923Y-56146184D01*
X209001077Y-56146184D01*
X209001077Y-60727816D01*
X205358923Y-60727816D01*
G37*
D12*
%TO.C,J4*%
X165735000Y-109712500D02*
X166235000Y-109212500D01*
X170645000Y-126652500D02*
X158325000Y-126652500D01*
X170645000Y-114192500D02*
X170645000Y-109932500D01*
X158325000Y-109932500D02*
X158325000Y-114192500D01*
X165235000Y-109212500D02*
X165735000Y-109712500D01*
X166235000Y-109212500D02*
X165235000Y-109212500D01*
X170645000Y-109932500D02*
X158325000Y-109932500D01*
X170645000Y-118292500D02*
X170645000Y-126652500D01*
X158325000Y-126652500D02*
X158325000Y-118292500D01*
%TO.C,D6*%
X183901000Y-80153000D02*
X190801000Y-80153000D01*
X183901000Y-76853000D02*
X183901000Y-80153000D01*
X183901000Y-76853000D02*
X190801000Y-76853000D01*
%TO.C,kibuzzard-63DA95C1*%
G36*
X189894893Y-71064300D02*
G01*
X189894893Y-68811724D01*
X190887080Y-68811724D01*
X194272920Y-70072112D01*
X194272920Y-69330297D01*
X193575288Y-69097753D01*
X193575288Y-67874572D01*
X194272920Y-67639703D01*
X194272920Y-66897888D01*
X190887080Y-68165252D01*
X190887080Y-68811724D01*
X189894893Y-68811724D01*
X189894893Y-65905700D01*
X195265107Y-65905700D01*
X195265107Y-71064300D01*
X189894893Y-71064300D01*
G37*
G36*
X193010206Y-68909393D02*
G01*
X191742842Y-68488488D01*
X193010206Y-68062933D01*
X193010206Y-68909393D01*
G37*
%TO.C,U3*%
X128735000Y-71430000D02*
X128735000Y-63570000D01*
X119965000Y-63630000D02*
X119965000Y-71370000D01*
X121500000Y-63630000D02*
X119965000Y-63630000D01*
X128735000Y-63570000D02*
X116265000Y-63570000D01*
X119965000Y-71370000D02*
X125035000Y-71370000D01*
X125035000Y-71370000D02*
X125035000Y-63630000D01*
X116265000Y-71430000D02*
X128735000Y-71430000D01*
X125035000Y-63630000D02*
X123500000Y-63630000D01*
X116265000Y-63570000D02*
X116265000Y-71430000D01*
X121500000Y-63630000D02*
G75*
G03*
X123500000Y-63630000I1000000J0D01*
G01*
%TO.C,kibuzzard-63DA9751*%
G36*
X205388378Y-56144660D02*
G01*
X205388378Y-54378359D01*
X206052937Y-54378359D01*
X208310164Y-55218618D01*
X208310164Y-54724075D01*
X207845076Y-54569045D01*
X207845076Y-53753591D01*
X208310164Y-53597012D01*
X208310164Y-53102468D01*
X206052937Y-53947378D01*
X206052937Y-54378359D01*
X205388378Y-54378359D01*
X205388378Y-51851382D01*
X206049836Y-51851382D01*
X206049836Y-51899441D01*
X206384700Y-52834268D01*
X206749019Y-52834268D01*
X206583137Y-52299417D01*
X208310164Y-52299417D01*
X208310164Y-51851382D01*
X206049836Y-51851382D01*
X205388378Y-51851382D01*
X205388378Y-50925340D01*
X208971622Y-50925340D01*
X208971622Y-56144660D01*
X205388378Y-56144660D01*
G37*
G36*
X207468354Y-54443472D02*
G01*
X206623445Y-54162869D01*
X207468354Y-53879165D01*
X207468354Y-54443472D01*
G37*
%TO.C,R17*%
X114019064Y-78205000D02*
X113564936Y-78205000D01*
X114019064Y-76735000D02*
X113564936Y-76735000D01*
%TO.C,kibuzzard-63DA9AAF*%
G36*
X132301858Y-44267485D02*
G01*
X132477428Y-44400616D01*
X132556665Y-44537473D01*
X132604208Y-44711364D01*
X132620055Y-44922290D01*
X132620055Y-45041663D01*
X132602313Y-45245785D01*
X132553220Y-45415800D01*
X132472777Y-45551709D01*
X132296432Y-45685422D01*
X132055749Y-45729993D01*
X131830956Y-45729993D01*
X131830956Y-44223108D01*
X132060399Y-44223108D01*
X132301858Y-44267485D01*
G37*
G36*
X127199197Y-43184928D02*
G01*
X133752803Y-43184928D01*
X133752803Y-46765072D01*
X127199197Y-46765072D01*
X127199197Y-46103613D01*
X127860656Y-46103613D01*
X129313280Y-46103613D01*
X129579931Y-46103613D01*
X131093017Y-46103613D01*
X131365868Y-46103613D01*
X132065050Y-46103613D01*
X132255736Y-46087766D01*
X132432986Y-46042291D01*
X132596801Y-45967188D01*
X132742098Y-45865040D01*
X132863796Y-45738433D01*
X132961895Y-45587366D01*
X133033811Y-45416317D01*
X133076961Y-45229765D01*
X133091344Y-45027710D01*
X133091344Y-44923840D01*
X133076703Y-44721527D01*
X133032778Y-44534200D01*
X132959569Y-44361859D01*
X132860264Y-44209586D01*
X132738050Y-44082462D01*
X132592925Y-43980487D01*
X132429369Y-43905987D01*
X132251861Y-43861287D01*
X132060399Y-43846387D01*
X131365868Y-43846387D01*
X131365868Y-46103613D01*
X131093017Y-46103613D01*
X131093017Y-45729993D01*
X130045019Y-45729993D01*
X130045019Y-45125378D01*
X130937987Y-45125378D01*
X130937987Y-44761060D01*
X130045019Y-44761060D01*
X130045019Y-44223108D01*
X131089916Y-44223108D01*
X131089916Y-43846387D01*
X129579931Y-43846387D01*
X129579931Y-46103613D01*
X129313280Y-46103613D01*
X129313280Y-45729993D01*
X128325744Y-45729993D01*
X128325744Y-43846387D01*
X127860656Y-43846387D01*
X127860656Y-46103613D01*
X127199197Y-46103613D01*
X127199197Y-43184928D01*
G37*
%TO.C,R41*%
X168095000Y-55312436D02*
X168095000Y-55766564D01*
X169565000Y-55312436D02*
X169565000Y-55766564D01*
%TO.C,R1*%
X87727064Y-80735000D02*
X87272936Y-80735000D01*
X87727064Y-79265000D02*
X87272936Y-79265000D01*
%TO.C,kibuzzard-63DA9566*%
G36*
X205258923Y-101365816D02*
G01*
X205258923Y-99758679D01*
X205920381Y-99758679D01*
X205934936Y-99942733D01*
X205978603Y-100110423D01*
X206051381Y-100261749D01*
X206211448Y-100451273D01*
X206429652Y-100590411D01*
X206604577Y-100653715D01*
X206799655Y-100691697D01*
X207014888Y-100704358D01*
X207168367Y-100704358D01*
X207378001Y-100689286D01*
X207568687Y-100648203D01*
X207740425Y-100581110D01*
X207954947Y-100435770D01*
X208111720Y-100240045D01*
X208182775Y-100084757D01*
X208225408Y-99913450D01*
X208239619Y-99726123D01*
X208218884Y-99459473D01*
X208156678Y-99217627D01*
X208056878Y-99014151D01*
X207923359Y-98862610D01*
X207022639Y-98862610D01*
X207022639Y-99750928D01*
X207365254Y-99750928D01*
X207365254Y-99327698D01*
X207754377Y-99327698D01*
X207838093Y-99476913D01*
X207865999Y-99701318D01*
X207820652Y-99930374D01*
X207684614Y-100096643D01*
X207544399Y-100171574D01*
X207365598Y-100216532D01*
X207148213Y-100231519D01*
X207004036Y-100231519D01*
X206788717Y-100216877D01*
X206611984Y-100175019D01*
X206473835Y-100105945D01*
X206340123Y-99953629D01*
X206295552Y-99744727D01*
X206318031Y-99578651D01*
X206385469Y-99452496D01*
X206501353Y-99365099D01*
X206669172Y-99315295D01*
X206669172Y-98862610D01*
X206444638Y-98911013D01*
X206258861Y-99000414D01*
X206111842Y-99130811D01*
X206005475Y-99301171D01*
X205941654Y-99510460D01*
X205920381Y-99758679D01*
X205258923Y-99758679D01*
X205258923Y-97445642D01*
X205948286Y-97445642D01*
X205948286Y-97493701D01*
X206283149Y-98428528D01*
X206647468Y-98428528D01*
X206481587Y-97893677D01*
X208208613Y-97893677D01*
X208208613Y-97445642D01*
X205948286Y-97445642D01*
X205258923Y-97445642D01*
X205258923Y-96784184D01*
X208901077Y-96784184D01*
X208901077Y-101365816D01*
X205258923Y-101365816D01*
G37*
%TO.C,R36*%
X187337064Y-99945000D02*
X185882936Y-99945000D01*
X187337064Y-101765000D02*
X185882936Y-101765000D01*
%TO.C,kibuzzard-63DA974B*%
G36*
X205358923Y-66301843D02*
G01*
X205358923Y-64430123D01*
X206020381Y-64430123D01*
X206034936Y-64614177D01*
X206078603Y-64781867D01*
X206151381Y-64933193D01*
X206311448Y-65122716D01*
X206529652Y-65261855D01*
X206704577Y-65325158D01*
X206899655Y-65363141D01*
X207114888Y-65375801D01*
X207268367Y-65375801D01*
X207478001Y-65360729D01*
X207668687Y-65319646D01*
X207840425Y-65252553D01*
X208054947Y-65107213D01*
X208211720Y-64911489D01*
X208282775Y-64756201D01*
X208325408Y-64584893D01*
X208339619Y-64397566D01*
X208318884Y-64130916D01*
X208256678Y-63889070D01*
X208156878Y-63685594D01*
X208023359Y-63534053D01*
X207122639Y-63534053D01*
X207122639Y-64422371D01*
X207465254Y-64422371D01*
X207465254Y-63999141D01*
X207854377Y-63999141D01*
X207938093Y-64148357D01*
X207965999Y-64372762D01*
X207920652Y-64601818D01*
X207784614Y-64768086D01*
X207644399Y-64843017D01*
X207465598Y-64887976D01*
X207248213Y-64902962D01*
X207104036Y-64902962D01*
X206888717Y-64888320D01*
X206711984Y-64846462D01*
X206573835Y-64777388D01*
X206440123Y-64625072D01*
X206395552Y-64416170D01*
X206418031Y-64250095D01*
X206485469Y-64123940D01*
X206601353Y-64036542D01*
X206769172Y-63986739D01*
X206769172Y-63534053D01*
X206544638Y-63582457D01*
X206358861Y-63671857D01*
X206211842Y-63802254D01*
X206105475Y-63972614D01*
X206041654Y-64181903D01*
X206020381Y-64430123D01*
X205358923Y-64430123D01*
X205358923Y-62465901D01*
X206020381Y-62465901D01*
X206044604Y-62681780D01*
X206117274Y-62873628D01*
X206232577Y-63033115D01*
X206384700Y-63151906D01*
X206564146Y-63225739D01*
X206761421Y-63250350D01*
X206761421Y-62800765D01*
X206607361Y-62778867D01*
X206486244Y-62713173D01*
X206407760Y-62609497D01*
X206381599Y-62473653D01*
X206467640Y-62256612D01*
X206569766Y-62199639D01*
X206704060Y-62180647D01*
X206936604Y-62252736D01*
X207069542Y-62344397D01*
X207223408Y-62475203D01*
X208001655Y-63205391D01*
X208308613Y-63205391D01*
X208308613Y-61658199D01*
X207947395Y-61658199D01*
X207947395Y-62628682D01*
X207406343Y-62115535D01*
X207189689Y-61935701D01*
X207001716Y-61817879D01*
X206829634Y-61752767D01*
X206660652Y-61731062D01*
X206472377Y-61752508D01*
X206314764Y-61816845D01*
X206187812Y-61924074D01*
X206094795Y-62070060D01*
X206038984Y-62250669D01*
X206020381Y-62465901D01*
X205358923Y-62465901D01*
X205358923Y-60732157D01*
X209001077Y-60732157D01*
X209001077Y-66301843D01*
X205358923Y-66301843D01*
G37*
%TO.C,R33*%
X187337064Y-85340000D02*
X185882936Y-85340000D01*
X187337064Y-87160000D02*
X185882936Y-87160000D01*
%TO.C,kibuzzard-63DA961C*%
G36*
X192114395Y-88809961D02*
G01*
X192254697Y-88985920D01*
X192305598Y-89279183D01*
X192305598Y-89795431D01*
X191452162Y-89795431D01*
X191452162Y-89307089D01*
X191477451Y-89057395D01*
X191553318Y-88885021D01*
X191686741Y-88784737D01*
X191884694Y-88751309D01*
X192114395Y-88809961D01*
G37*
G36*
X193595054Y-88812933D02*
G01*
X193683130Y-88978330D01*
X193712489Y-89197793D01*
X193712489Y-89795431D01*
X192798591Y-89795431D01*
X192798591Y-89155935D01*
X192854143Y-88888510D01*
X193011498Y-88728054D01*
X193270656Y-88674569D01*
X193595054Y-88812933D01*
G37*
G36*
X189894893Y-91485250D02*
G01*
X189894893Y-90493063D01*
X190887080Y-90493063D01*
X194272920Y-90493063D01*
X194272920Y-89176864D01*
X194242431Y-88821847D01*
X194157165Y-88525741D01*
X194017122Y-88288546D01*
X193823335Y-88115430D01*
X193576838Y-88011560D01*
X193277632Y-87976937D01*
X193013694Y-88014435D01*
X192793940Y-88126928D01*
X192629416Y-88304534D01*
X192531166Y-88537368D01*
X192417510Y-88334474D01*
X192253276Y-88181576D01*
X192048928Y-88085652D01*
X191814930Y-88053677D01*
X191535490Y-88089075D01*
X191304884Y-88195270D01*
X191123112Y-88372262D01*
X190991983Y-88617725D01*
X190913306Y-88929334D01*
X190887080Y-89307089D01*
X190887080Y-90493063D01*
X189894893Y-90493063D01*
X189894893Y-86984750D01*
X195265107Y-86984750D01*
X195265107Y-91485250D01*
X189894893Y-91485250D01*
G37*
%TO.C,R22*%
X166644064Y-77895000D02*
X166189936Y-77895000D01*
X166644064Y-79365000D02*
X166189936Y-79365000D01*
%TO.C,R14*%
X110517000Y-74395064D02*
X110517000Y-73940936D01*
X111987000Y-74395064D02*
X111987000Y-73940936D01*
%TO.C,R42*%
X153690000Y-53076064D02*
X153690000Y-52621936D01*
X152220000Y-53076064D02*
X152220000Y-52621936D01*
%TO.C,U11*%
X168945000Y-94385000D02*
X168945000Y-102245000D01*
X174180000Y-94445000D02*
X172645000Y-94445000D01*
X168945000Y-102245000D02*
X181415000Y-102245000D01*
X172645000Y-94445000D02*
X172645000Y-102185000D01*
X177715000Y-102185000D02*
X177715000Y-94445000D01*
X181415000Y-102245000D02*
X181415000Y-94385000D01*
X172645000Y-102185000D02*
X177715000Y-102185000D01*
X177715000Y-94445000D02*
X176180000Y-94445000D01*
X181415000Y-94385000D02*
X168945000Y-94385000D01*
X174180000Y-94445000D02*
G75*
G03*
X176180000Y-94445000I1000000J0D01*
G01*
%TO.C,J3*%
X199305000Y-57367000D02*
X199341000Y-57402000D01*
X201819000Y-74711000D02*
X201854000Y-74746000D01*
X201819000Y-105191000D02*
X201854000Y-105226000D01*
X201819000Y-79791000D02*
X201854000Y-79826000D01*
X201603000Y-105384000D02*
X201649000Y-105431000D01*
X204680000Y-111837000D02*
X204680000Y-50757000D01*
X201603000Y-100304000D02*
X201649000Y-100351000D01*
X195319000Y-50757000D02*
X205240000Y-50757000D01*
X198279000Y-111837000D02*
X198279000Y-50757000D01*
X201603000Y-74904000D02*
X201649000Y-74951000D01*
X201819000Y-54391000D02*
X201854000Y-54426000D01*
X199511000Y-97802000D02*
X199557000Y-97849000D01*
X201819000Y-89951000D02*
X201854000Y-89986000D01*
X199511000Y-57162000D02*
X199557000Y-57209000D01*
X201603000Y-90144000D02*
X201649000Y-90191000D01*
X203180000Y-111837000D02*
X203180000Y-50757000D01*
X201819000Y-84871000D02*
X201854000Y-84906000D01*
X199511000Y-77482000D02*
X199557000Y-77529000D01*
X199511000Y-52082000D02*
X199557000Y-52129000D01*
X201603000Y-59664000D02*
X201649000Y-59711000D01*
X201603000Y-85064000D02*
X201649000Y-85111000D01*
X195319000Y-111837000D02*
X195319000Y-50757000D01*
X199305000Y-77687000D02*
X199341000Y-77722000D01*
X199511000Y-62242000D02*
X199557000Y-62289000D01*
X201819000Y-100111000D02*
X201854000Y-100146000D01*
X199511000Y-72402000D02*
X199557000Y-72449000D01*
X199305000Y-87847000D02*
X199341000Y-87882000D01*
X201603000Y-79984000D02*
X201649000Y-80031000D01*
X199305000Y-62447000D02*
X199341000Y-62482000D01*
X199511000Y-92722000D02*
X199557000Y-92769000D01*
X199511000Y-82562000D02*
X199557000Y-82609000D01*
X205480000Y-112077000D02*
X205480000Y-111577000D01*
X199305000Y-103087000D02*
X199341000Y-103122000D01*
X199305000Y-82767000D02*
X199341000Y-82802000D01*
X201819000Y-95031000D02*
X201854000Y-95066000D01*
X199305000Y-92927000D02*
X199341000Y-92962000D01*
X199305000Y-67527000D02*
X199341000Y-67562000D01*
X199305000Y-98007000D02*
X199341000Y-98042000D01*
X201603000Y-54584000D02*
X201649000Y-54631000D01*
X205240000Y-111837000D02*
X205240000Y-50757000D01*
X195319000Y-111837000D02*
X205240000Y-111837000D01*
X199305000Y-72607000D02*
X199341000Y-72642000D01*
X199511000Y-67322000D02*
X199557000Y-67369000D01*
X199305000Y-52287000D02*
X199341000Y-52322000D01*
X201603000Y-95224000D02*
X201649000Y-95271000D01*
X201603000Y-64744000D02*
X201649000Y-64791000D01*
X199511000Y-102882000D02*
X199557000Y-102929000D01*
X204740000Y-112077000D02*
X205480000Y-112077000D01*
X201819000Y-69631000D02*
X201854000Y-69666000D01*
X201819000Y-59471000D02*
X201854000Y-59506000D01*
X201603000Y-69824000D02*
X201649000Y-69871000D01*
X199511000Y-87642000D02*
X199557000Y-87689000D01*
X201819000Y-64551000D02*
X201854000Y-64586000D01*
X202260000Y-109237000D02*
G75*
G03*
X202114756Y-108553682I-1680000J0D01*
G01*
X199896000Y-110772000D02*
G75*
G03*
X201263042Y-110772427I684001J1534993D01*
G01*
X201264000Y-107701999D02*
G75*
G03*
X199896958Y-107701573I-684000J-1535001D01*
G01*
X202115000Y-109921000D02*
G75*
G03*
X202260253Y-109208195I-1535001J683999D01*
G01*
X199045000Y-108553000D02*
G75*
G03*
X199044573Y-109920042I1534993J-684001D01*
G01*
X202260000Y-99077000D02*
G75*
G03*
X202260000Y-99077000I-1680000J0D01*
G01*
X202260000Y-83837000D02*
G75*
G03*
X202260000Y-83837000I-1680000J0D01*
G01*
X202260000Y-104157000D02*
G75*
G03*
X202260000Y-104157000I-1680000J0D01*
G01*
X202260000Y-58437000D02*
G75*
G03*
X202260000Y-58437000I-1680000J0D01*
G01*
X202260000Y-68597000D02*
G75*
G03*
X202260000Y-68597000I-1680000J0D01*
G01*
X202260000Y-78757000D02*
G75*
G03*
X202260000Y-78757000I-1680000J0D01*
G01*
X202260000Y-88917000D02*
G75*
G03*
X202260000Y-88917000I-1680000J0D01*
G01*
X202260000Y-63517000D02*
G75*
G03*
X202260000Y-63517000I-1680000J0D01*
G01*
X202260000Y-53357000D02*
G75*
G03*
X202260000Y-53357000I-1680000J0D01*
G01*
X202260000Y-93997000D02*
G75*
G03*
X202260000Y-93997000I-1680000J0D01*
G01*
X202260000Y-73677000D02*
G75*
G03*
X202260000Y-73677000I-1680000J0D01*
G01*
%TO.C,Q1*%
X162861000Y-67363000D02*
X163511000Y-67363000D01*
X162861000Y-64243000D02*
X161186000Y-64243000D01*
X162861000Y-64243000D02*
X163511000Y-64243000D01*
X162861000Y-67363000D02*
X162211000Y-67363000D01*
%TO.C,R27*%
X166644064Y-102787000D02*
X166189936Y-102787000D01*
X166644064Y-104257000D02*
X166189936Y-104257000D01*
%TO.C,U1*%
X103124000Y-86935000D02*
X101174000Y-86935000D01*
X103124000Y-78065000D02*
X99674000Y-78065000D01*
X103124000Y-86935000D02*
X105074000Y-86935000D01*
X103124000Y-78065000D02*
X105074000Y-78065000D01*
%TO.C,kibuzzard-63DA96B7*%
G36*
X207482307Y-69734915D02*
G01*
X206637397Y-69454312D01*
X207482307Y-69170608D01*
X207482307Y-69734915D01*
G37*
G36*
X205374425Y-71171520D02*
G01*
X205374425Y-69669803D01*
X206066890Y-69669803D01*
X208324116Y-70510062D01*
X208324116Y-70015518D01*
X207859028Y-69860489D01*
X207859028Y-69045035D01*
X208324116Y-68888455D01*
X208324116Y-68393912D01*
X206066890Y-69238821D01*
X206066890Y-69669803D01*
X205374425Y-69669803D01*
X205374425Y-67491641D01*
X206035884Y-67491641D01*
X206060107Y-67707519D01*
X206132777Y-67899368D01*
X206248080Y-68058855D01*
X206400203Y-68177646D01*
X206579649Y-68251478D01*
X206776924Y-68276089D01*
X206776924Y-67826504D01*
X206622863Y-67804607D01*
X206501747Y-67738913D01*
X206423263Y-67635237D01*
X206397102Y-67499393D01*
X206483143Y-67282352D01*
X206585269Y-67225378D01*
X206719563Y-67206387D01*
X206952107Y-67278476D01*
X207085045Y-67370137D01*
X207238911Y-67500943D01*
X208017158Y-68231131D01*
X208324116Y-68231131D01*
X208324116Y-66683938D01*
X207962898Y-66683938D01*
X207962898Y-67654422D01*
X207421846Y-67141275D01*
X207205192Y-66961441D01*
X207017219Y-66843619D01*
X206845137Y-66778506D01*
X206676155Y-66756802D01*
X206487880Y-66778248D01*
X206330267Y-66842585D01*
X206203315Y-66949814D01*
X206110298Y-67095800D01*
X206054487Y-67276409D01*
X206035884Y-67491641D01*
X205374425Y-67491641D01*
X205374425Y-66022480D01*
X208985575Y-66022480D01*
X208985575Y-71171520D01*
X205374425Y-71171520D01*
G37*
%TO.C,kibuzzard-63DA9A91*%
G36*
X160854944Y-44245975D02*
G01*
X160969860Y-44314575D01*
X161037879Y-44423096D01*
X161060552Y-44565723D01*
X161036522Y-44705443D01*
X160964434Y-44811444D01*
X160848549Y-44878300D01*
X160693132Y-44900586D01*
X160317961Y-44900586D01*
X160317961Y-44223108D01*
X160691582Y-44223108D01*
X160854944Y-44245975D01*
G37*
G36*
X155067636Y-43153923D02*
G01*
X162272364Y-43153923D01*
X162272364Y-46796077D01*
X155067636Y-46796077D01*
X155067636Y-45393579D01*
X155729094Y-45393579D01*
X155757193Y-45598993D01*
X155841490Y-45778052D01*
X155979273Y-45926299D01*
X156167827Y-46039276D01*
X156393395Y-46110783D01*
X156642217Y-46134619D01*
X156875278Y-46116102D01*
X157074232Y-46060550D01*
X157239080Y-45967963D01*
X157362242Y-45842820D01*
X157436139Y-45689599D01*
X157460771Y-45508301D01*
X157415425Y-45266455D01*
X157279387Y-45068018D01*
X157243114Y-45040112D01*
X157707268Y-45040112D01*
X157722819Y-45281522D01*
X157769474Y-45495705D01*
X157847230Y-45682660D01*
X157956090Y-45842389D01*
X158092080Y-45970240D01*
X158251227Y-46061562D01*
X158433532Y-46116355D01*
X158638994Y-46134619D01*
X158886438Y-46111365D01*
X158910125Y-46103613D01*
X159852874Y-46103613D01*
X160317961Y-46103613D01*
X160317961Y-45277307D01*
X160688481Y-45277307D01*
X161111711Y-46103613D01*
X161610906Y-46103613D01*
X161610906Y-46081909D01*
X161122563Y-45159485D01*
X161299878Y-45052321D01*
X161425646Y-44913763D01*
X161500641Y-44740324D01*
X161525640Y-44528516D01*
X161501524Y-44327839D01*
X161429177Y-44159890D01*
X161308599Y-44024670D01*
X161143579Y-43925624D01*
X160937906Y-43866196D01*
X160691582Y-43846387D01*
X159852874Y-43846387D01*
X159852874Y-46103613D01*
X158910125Y-46103613D01*
X159099603Y-46041602D01*
X159278490Y-45925330D01*
X159416208Y-45768578D01*
X159505866Y-45577375D01*
X159547466Y-45351721D01*
X159082378Y-45351721D01*
X159044202Y-45530974D01*
X158960680Y-45656354D01*
X158827161Y-45730186D01*
X158638994Y-45754797D01*
X158432224Y-45712552D01*
X158289403Y-45585815D01*
X158227822Y-45451284D01*
X158190873Y-45273001D01*
X158178557Y-45050964D01*
X158178557Y-44880432D01*
X158193113Y-44667267D01*
X158232645Y-44494926D01*
X158297155Y-44363409D01*
X158441913Y-44238417D01*
X158645195Y-44196753D01*
X158831812Y-44221364D01*
X158963781Y-44295197D01*
X159046527Y-44423677D01*
X159085479Y-44612231D01*
X159550566Y-44612231D01*
X159503369Y-44378826D01*
X159411385Y-44182973D01*
X159274614Y-44024670D01*
X159098570Y-43908398D01*
X158888764Y-43838635D01*
X158645195Y-43815381D01*
X158464758Y-43830109D01*
X158299652Y-43874292D01*
X158149877Y-43947931D01*
X157961322Y-44109355D01*
X157821990Y-44328528D01*
X157758255Y-44502505D01*
X157720015Y-44693708D01*
X157707268Y-44902136D01*
X157707268Y-45040112D01*
X157243114Y-45040112D01*
X157134521Y-44956569D01*
X156941768Y-44857867D01*
X156701128Y-44771912D01*
X156511798Y-44704474D01*
X156374791Y-44632385D01*
X156263945Y-44447900D01*
X156358513Y-44257990D01*
X156472072Y-44203923D01*
X156623613Y-44185901D01*
X156780580Y-44207411D01*
X156898015Y-44271942D01*
X156971266Y-44375230D01*
X156995684Y-44513013D01*
X157460771Y-44513013D01*
X157434610Y-44320776D01*
X157356127Y-44150244D01*
X157230359Y-44008586D01*
X157062346Y-43902972D01*
X156860033Y-43837279D01*
X156631365Y-43815381D01*
X156402890Y-43835535D01*
X156198058Y-43895996D01*
X156027526Y-43992308D01*
X155901952Y-44120013D01*
X155824631Y-44273299D01*
X155798857Y-44446350D01*
X155841577Y-44664941D01*
X155969734Y-44851493D01*
X156183330Y-45006006D01*
X156349599Y-45082552D01*
X156566252Y-45160260D01*
X156770891Y-45236612D01*
X156901116Y-45309088D01*
X156994133Y-45511401D01*
X156901116Y-45699762D01*
X156789882Y-45750340D01*
X156642217Y-45767200D01*
X156446880Y-45743848D01*
X156307354Y-45673795D01*
X156223638Y-45557038D01*
X156195732Y-45393579D01*
X155729094Y-45393579D01*
X155067636Y-45393579D01*
X155067636Y-43153923D01*
G37*
%TO.C,R26*%
X166644064Y-96510000D02*
X166189936Y-96510000D01*
X166644064Y-95040000D02*
X166189936Y-95040000D01*
%TO.C,kibuzzard-63DA9A23*%
G36*
X172582825Y-45261804D02*
G01*
X172018519Y-45261804D01*
X172299122Y-44416895D01*
X172582825Y-45261804D01*
G37*
G36*
X169484371Y-44245975D02*
G01*
X169599286Y-44314575D01*
X169667305Y-44423096D01*
X169689979Y-44565723D01*
X169665949Y-44705443D01*
X169593860Y-44811444D01*
X169477976Y-44878300D01*
X169322559Y-44900586D01*
X168947388Y-44900586D01*
X168947388Y-44223108D01*
X169321009Y-44223108D01*
X169484371Y-44245975D01*
G37*
G36*
X165717094Y-43153923D02*
G01*
X176006906Y-43153923D01*
X176006906Y-46796077D01*
X165717094Y-46796077D01*
X165717094Y-44223108D01*
X166378553Y-44223108D01*
X167060682Y-44223108D01*
X167060682Y-46103613D01*
X167525770Y-46103613D01*
X168482300Y-46103613D01*
X168947388Y-46103613D01*
X168947388Y-45277307D01*
X169317908Y-45277307D01*
X169741138Y-46103613D01*
X170240333Y-46103613D01*
X170537989Y-46103613D01*
X171003077Y-46103613D01*
X171243372Y-46103613D01*
X171737916Y-46103613D01*
X171892945Y-45638525D01*
X172708399Y-45638525D01*
X172864979Y-46103613D01*
X173359522Y-46103613D01*
X172961439Y-45040112D01*
X173502149Y-45040112D01*
X173517700Y-45281522D01*
X173564354Y-45495705D01*
X173642111Y-45682660D01*
X173750971Y-45842389D01*
X173886961Y-45970240D01*
X174046108Y-46061562D01*
X174228413Y-46116355D01*
X174433875Y-46134619D01*
X174681319Y-46111365D01*
X174894484Y-46041602D01*
X175073371Y-45925330D01*
X175211089Y-45768578D01*
X175300747Y-45577375D01*
X175342347Y-45351721D01*
X174877259Y-45351721D01*
X174839083Y-45530974D01*
X174755561Y-45656354D01*
X174622042Y-45730186D01*
X174433875Y-45754797D01*
X174227105Y-45712552D01*
X174084284Y-45585815D01*
X174022703Y-45451284D01*
X173985754Y-45273001D01*
X173973438Y-45050964D01*
X173973438Y-44880432D01*
X173987994Y-44667267D01*
X174027526Y-44494926D01*
X174092035Y-44363409D01*
X174236794Y-44238417D01*
X174440076Y-44196753D01*
X174626693Y-44221364D01*
X174758661Y-44295197D01*
X174841408Y-44423677D01*
X174880359Y-44612231D01*
X175345447Y-44612231D01*
X175298249Y-44378826D01*
X175206265Y-44182973D01*
X175069495Y-44024670D01*
X174893451Y-43908398D01*
X174683644Y-43838635D01*
X174440076Y-43815381D01*
X174259639Y-43830109D01*
X174094533Y-43874292D01*
X173944758Y-43947931D01*
X173756203Y-44109355D01*
X173616871Y-44328528D01*
X173553136Y-44502505D01*
X173514896Y-44693708D01*
X173502149Y-44902136D01*
X173502149Y-45040112D01*
X172961439Y-45040112D01*
X172514612Y-43846387D01*
X172083631Y-43846387D01*
X171243372Y-46103613D01*
X171003077Y-46103613D01*
X171003077Y-43846387D01*
X170537989Y-43846387D01*
X170537989Y-46103613D01*
X170240333Y-46103613D01*
X170240333Y-46081909D01*
X169751990Y-45159485D01*
X169929305Y-45052321D01*
X170055073Y-44913763D01*
X170130068Y-44740324D01*
X170155066Y-44528516D01*
X170130951Y-44327839D01*
X170058604Y-44159890D01*
X169938025Y-44024670D01*
X169773005Y-43925624D01*
X169567333Y-43866196D01*
X169321009Y-43846387D01*
X168482300Y-43846387D01*
X168482300Y-46103613D01*
X167525770Y-46103613D01*
X167525770Y-44223108D01*
X168217200Y-44223108D01*
X168217200Y-43846387D01*
X166378553Y-43846387D01*
X166378553Y-44223108D01*
X165717094Y-44223108D01*
X165717094Y-43153923D01*
G37*
%TO.C,kibuzzard-63DA9AA3*%
G36*
X140072675Y-43153923D02*
G01*
X151359325Y-43153923D01*
X151359325Y-46796077D01*
X140072675Y-46796077D01*
X140072675Y-46103613D01*
X140734134Y-46103613D01*
X141228677Y-46103613D01*
X141383706Y-45638525D01*
X142199160Y-45638525D01*
X142355740Y-46103613D01*
X142850283Y-46103613D01*
X143061123Y-46103613D01*
X143526211Y-46103613D01*
X143526211Y-44618433D01*
X144431582Y-46103613D01*
X144896670Y-46103613D01*
X144896670Y-45063367D01*
X145247036Y-45063367D01*
X145262109Y-45273001D01*
X145303191Y-45463687D01*
X145370285Y-45635425D01*
X145515625Y-45849947D01*
X145711349Y-46006720D01*
X145866637Y-46077775D01*
X146037944Y-46120408D01*
X146225271Y-46134619D01*
X146491922Y-46113884D01*
X146531854Y-46103613D01*
X147465506Y-46103613D01*
X148918130Y-46103613D01*
X149184781Y-46103613D01*
X150697866Y-46103613D01*
X150697866Y-45729993D01*
X149649868Y-45729993D01*
X149649868Y-45125378D01*
X150542837Y-45125378D01*
X150542837Y-44761060D01*
X149649868Y-44761060D01*
X149649868Y-44223108D01*
X150694766Y-44223108D01*
X150694766Y-43846387D01*
X149184781Y-43846387D01*
X149184781Y-46103613D01*
X148918130Y-46103613D01*
X148918130Y-45729993D01*
X147930594Y-45729993D01*
X147930594Y-43846387D01*
X147465506Y-43846387D01*
X147465506Y-46103613D01*
X146531854Y-46103613D01*
X146733767Y-46051678D01*
X146937243Y-45951878D01*
X147088784Y-45818359D01*
X147088784Y-44917639D01*
X146200467Y-44917639D01*
X146200467Y-45260254D01*
X146623697Y-45260254D01*
X146623697Y-45649377D01*
X146474481Y-45733093D01*
X146250076Y-45760999D01*
X146021020Y-45715652D01*
X145854751Y-45579614D01*
X145779820Y-45439399D01*
X145734862Y-45260598D01*
X145719876Y-45043213D01*
X145719876Y-44899036D01*
X145734517Y-44683717D01*
X145776375Y-44506984D01*
X145845449Y-44368835D01*
X145997766Y-44235123D01*
X146206668Y-44190552D01*
X146372743Y-44213031D01*
X146498898Y-44280469D01*
X146586296Y-44396353D01*
X146636099Y-44564172D01*
X147088784Y-44564172D01*
X147040381Y-44339638D01*
X146950981Y-44153861D01*
X146820584Y-44006842D01*
X146650224Y-43900475D01*
X146440934Y-43836654D01*
X146192715Y-43815381D01*
X146008661Y-43829936D01*
X145840971Y-43873603D01*
X145689645Y-43946381D01*
X145500122Y-44106448D01*
X145360983Y-44324652D01*
X145297679Y-44499577D01*
X145259697Y-44694655D01*
X145247036Y-44909888D01*
X145247036Y-45063367D01*
X144896670Y-45063367D01*
X144896670Y-43846387D01*
X144433133Y-43846387D01*
X144433133Y-45334668D01*
X143526211Y-43846387D01*
X143061123Y-43846387D01*
X143061123Y-46103613D01*
X142850283Y-46103613D01*
X142005374Y-43846387D01*
X141574392Y-43846387D01*
X140734134Y-46103613D01*
X140072675Y-46103613D01*
X140072675Y-43153923D01*
G37*
G36*
X142073587Y-45261804D02*
G01*
X141509280Y-45261804D01*
X141789883Y-44416895D01*
X142073587Y-45261804D01*
G37*
%TO.C,R16*%
X114273064Y-64035000D02*
X113818936Y-64035000D01*
X114273064Y-65505000D02*
X113818936Y-65505000D01*
%TO.C,R24*%
X166644064Y-62220000D02*
X166189936Y-62220000D01*
X166644064Y-60750000D02*
X166189936Y-60750000D01*
%TO.C,R18*%
X110517000Y-88365064D02*
X110517000Y-87910936D01*
X111987000Y-88365064D02*
X111987000Y-87910936D01*
%TO.C,U5*%
X128735000Y-88570000D02*
X116265000Y-88570000D01*
X116265000Y-96430000D02*
X128735000Y-96430000D01*
X125035000Y-96370000D02*
X125035000Y-88630000D01*
X116265000Y-88570000D02*
X116265000Y-96430000D01*
X121500000Y-88630000D02*
X119965000Y-88630000D01*
X119965000Y-96370000D02*
X125035000Y-96370000D01*
X119965000Y-88630000D02*
X119965000Y-96370000D01*
X125035000Y-88630000D02*
X123500000Y-88630000D01*
X128735000Y-96430000D02*
X128735000Y-88570000D01*
X121500000Y-88630000D02*
G75*
G03*
X123500000Y-88630000I1000000J0D01*
G01*
%TO.C,C1*%
X94215000Y-61908563D02*
X94215000Y-60623000D01*
X93150563Y-62973000D02*
X87395000Y-62973000D01*
X94215000Y-57217437D02*
X94215000Y-58503000D01*
X94215000Y-61908563D02*
X93150563Y-62973000D01*
X87395000Y-56153000D02*
X87395000Y-58503000D01*
X94848750Y-61804250D02*
X94848750Y-61016750D01*
X87395000Y-62973000D02*
X87395000Y-60623000D01*
X93150563Y-56153000D02*
X87395000Y-56153000D01*
X94215000Y-57217437D02*
X93150563Y-56153000D01*
X95242500Y-61410500D02*
X94455000Y-61410500D01*
%TO.C,R7*%
X95731064Y-79475000D02*
X95276936Y-79475000D01*
X95731064Y-78005000D02*
X95276936Y-78005000D01*
%TO.C,R25*%
X166644064Y-87112000D02*
X166189936Y-87112000D01*
X166644064Y-85642000D02*
X166189936Y-85642000D01*
%TO.C,kibuzzard-63D8BD9F*%
G36*
X156780063Y-110999967D02*
G01*
X156894978Y-111050546D01*
X156961834Y-111139494D01*
X156984120Y-111271462D01*
X156945018Y-111424597D01*
X156827713Y-111518131D01*
X156632203Y-111552065D01*
X156288038Y-111552065D01*
X156288038Y-110983108D01*
X156613600Y-110983108D01*
X156780063Y-110999967D01*
G37*
G36*
X156892653Y-111917762D02*
G01*
X156999623Y-112022665D01*
X157035280Y-112195437D01*
X156943037Y-112411703D01*
X156832773Y-112470420D01*
X156686464Y-112489993D01*
X156288038Y-112489993D01*
X156288038Y-111880728D01*
X156714369Y-111880728D01*
X156892653Y-111917762D01*
G37*
G36*
X151098174Y-109913923D02*
G01*
X158161826Y-109913923D01*
X158161826Y-113556077D01*
X151098174Y-113556077D01*
X151098174Y-112110171D01*
X151759633Y-112110171D01*
X151788055Y-112336686D01*
X151867120Y-112528405D01*
X151996827Y-112685330D01*
X152169943Y-112801602D01*
X152379233Y-112871365D01*
X152624696Y-112894619D01*
X152873518Y-112870676D01*
X153084616Y-112798845D01*
X153257991Y-112679128D01*
X153386751Y-112518242D01*
X153464007Y-112322906D01*
X153482984Y-112153579D01*
X153776564Y-112153579D01*
X153804663Y-112358993D01*
X153888960Y-112538052D01*
X154026742Y-112686299D01*
X154215297Y-112799276D01*
X154440864Y-112870783D01*
X154689686Y-112894619D01*
X154922747Y-112876102D01*
X154967475Y-112863613D01*
X155822950Y-112863613D01*
X156700416Y-112863613D01*
X156937094Y-112843287D01*
X157134498Y-112786443D01*
X157292628Y-112693081D01*
X157408039Y-112563890D01*
X157477285Y-112399559D01*
X157500367Y-112200088D01*
X157475369Y-112024130D01*
X157400374Y-111877627D01*
X157281970Y-111767944D01*
X157126747Y-111702444D01*
X157262010Y-111626673D01*
X157363942Y-111517184D01*
X157427891Y-111380952D01*
X157449208Y-111224954D01*
X157425609Y-111038660D01*
X157354812Y-110884923D01*
X157236818Y-110763741D01*
X157073176Y-110676322D01*
X156865436Y-110623871D01*
X156613600Y-110606387D01*
X155822950Y-110606387D01*
X155822950Y-112863613D01*
X154967475Y-112863613D01*
X155121701Y-112820550D01*
X155286549Y-112727963D01*
X155409711Y-112602820D01*
X155483609Y-112449599D01*
X155508241Y-112268301D01*
X155462895Y-112026455D01*
X155326857Y-111828018D01*
X155181990Y-111716569D01*
X154989237Y-111617867D01*
X154748597Y-111531912D01*
X154559268Y-111464474D01*
X154422261Y-111392385D01*
X154311415Y-111207900D01*
X154405983Y-111017990D01*
X154519542Y-110963923D01*
X154671083Y-110945901D01*
X154828050Y-110967411D01*
X154945485Y-111031942D01*
X155018736Y-111135230D01*
X155043153Y-111273013D01*
X155508241Y-111273013D01*
X155482080Y-111080776D01*
X155403596Y-110910244D01*
X155277829Y-110768586D01*
X155109816Y-110662972D01*
X154907502Y-110597279D01*
X154678834Y-110575381D01*
X154450360Y-110595535D01*
X154245527Y-110655996D01*
X154074995Y-110752308D01*
X153949421Y-110880013D01*
X153872101Y-111033299D01*
X153846327Y-111206350D01*
X153889046Y-111424941D01*
X154017204Y-111611493D01*
X154230800Y-111766006D01*
X154397068Y-111842552D01*
X154613722Y-111920260D01*
X154818361Y-111996612D01*
X154948585Y-112069088D01*
X155041603Y-112271401D01*
X154948585Y-112459762D01*
X154837352Y-112510340D01*
X154689686Y-112527200D01*
X154494349Y-112503848D01*
X154354823Y-112433795D01*
X154271107Y-112317038D01*
X154243202Y-112153579D01*
X153776564Y-112153579D01*
X153482984Y-112153579D01*
X153489760Y-112093118D01*
X153489760Y-110606387D01*
X153023121Y-110606387D01*
X153023121Y-112108621D01*
X152995894Y-112289036D01*
X152920414Y-112417904D01*
X152796682Y-112495225D01*
X152624696Y-112520999D01*
X152457458Y-112495612D01*
X152330916Y-112419454D01*
X152251269Y-112287873D01*
X152224720Y-112096218D01*
X152224720Y-110606387D01*
X151759633Y-110606387D01*
X151759633Y-112110171D01*
X151098174Y-112110171D01*
X151098174Y-109913923D01*
G37*
%TO.C,R5*%
X95227064Y-96765000D02*
X94772936Y-96765000D01*
X95227064Y-98235000D02*
X94772936Y-98235000D01*
%TO.C,R23*%
X166644064Y-69967000D02*
X166189936Y-69967000D01*
X166644064Y-68497000D02*
X166189936Y-68497000D01*
%TO.C,R40*%
X131402936Y-56299000D02*
X132857064Y-56299000D01*
X131402936Y-54479000D02*
X132857064Y-54479000D01*
%TO.C,J5*%
X150296666Y-52390000D02*
X148496666Y-52390000D01*
X140186666Y-53150000D02*
X150306666Y-53150000D01*
X150296666Y-53140000D02*
X150296666Y-52390000D01*
X140946666Y-47940000D02*
X145246666Y-47940000D01*
X148496666Y-53140000D02*
X150296666Y-53140000D01*
X150306666Y-53150000D02*
X150306666Y-47180000D01*
X143496666Y-53140000D02*
X146996666Y-53140000D01*
X149546666Y-47940000D02*
X145246666Y-47940000D01*
X143496666Y-52390000D02*
X143496666Y-53140000D01*
X140196666Y-50890000D02*
X140946666Y-50890000D01*
X141996666Y-52390000D02*
X140196666Y-52390000D01*
X140196666Y-52390000D02*
X140196666Y-53140000D01*
X150306666Y-47180000D02*
X140186666Y-47180000D01*
X149546666Y-50890000D02*
X149546666Y-47940000D01*
X149346666Y-53440000D02*
X150596666Y-53440000D01*
X146996666Y-53140000D02*
X146996666Y-52390000D01*
X148496666Y-52390000D02*
X148496666Y-53140000D01*
X140196666Y-53140000D02*
X141996666Y-53140000D01*
X146996666Y-52390000D02*
X143496666Y-52390000D01*
X150296666Y-50890000D02*
X149546666Y-50890000D01*
X141996666Y-53140000D02*
X141996666Y-52390000D01*
X140946666Y-50890000D02*
X140946666Y-47940000D01*
X140186666Y-47180000D02*
X140186666Y-53150000D01*
X150596666Y-53440000D02*
X150596666Y-52190000D01*
%TO.C,R15*%
X110517000Y-83793064D02*
X110517000Y-83338936D01*
X111987000Y-83793064D02*
X111987000Y-83338936D01*
%TO.C,R6*%
X95277000Y-101977564D02*
X95277000Y-101523436D01*
X96747000Y-101977564D02*
X96747000Y-101523436D01*
%TO.C,U6*%
X138700000Y-108010000D02*
X138370000Y-59690000D01*
D13*
X140700000Y-59420000D02*
X140700000Y-107420000D01*
D12*
X152700000Y-107420000D02*
X152700000Y-57150000D01*
D13*
X153670000Y-57150000D02*
X156210000Y-57420000D01*
X157700000Y-108420000D02*
X136700000Y-108420000D01*
X136700000Y-56420000D02*
X157700000Y-56420000D01*
X157700000Y-56420000D02*
X157700000Y-108420000D01*
X140700000Y-107420000D02*
X138700000Y-107420000D01*
X138700000Y-59420000D02*
X140700000Y-59420000D01*
X155700000Y-57420000D02*
X155700000Y-107420000D01*
X138700000Y-58420000D02*
X138700000Y-57420000D01*
X136700000Y-108420000D02*
X136700000Y-56420000D01*
X155700000Y-107420000D02*
X152700000Y-107420000D01*
X138700000Y-57420000D02*
X139700000Y-57420000D01*
D12*
%TO.C,R37*%
X187337064Y-102485000D02*
X185882936Y-102485000D01*
X187337064Y-104305000D02*
X185882936Y-104305000D01*
%TO.C,kibuzzard-63DA96B7*%
G36*
X205274425Y-111809520D02*
G01*
X205274425Y-110307803D01*
X205966890Y-110307803D01*
X208224116Y-111148062D01*
X208224116Y-110653518D01*
X207759028Y-110498489D01*
X207759028Y-109683035D01*
X208224116Y-109526455D01*
X208224116Y-109031912D01*
X205966890Y-109876821D01*
X205966890Y-110307803D01*
X205274425Y-110307803D01*
X205274425Y-108129641D01*
X205935884Y-108129641D01*
X205960107Y-108345519D01*
X206032777Y-108537368D01*
X206148080Y-108696855D01*
X206300203Y-108815646D01*
X206479649Y-108889478D01*
X206676924Y-108914089D01*
X206676924Y-108464504D01*
X206522863Y-108442607D01*
X206401747Y-108376913D01*
X206323263Y-108273237D01*
X206297102Y-108137393D01*
X206383143Y-107920352D01*
X206485269Y-107863378D01*
X206619563Y-107844387D01*
X206852107Y-107916476D01*
X206985045Y-108008137D01*
X207138911Y-108138943D01*
X207917158Y-108869131D01*
X208224116Y-108869131D01*
X208224116Y-107321938D01*
X207862898Y-107321938D01*
X207862898Y-108292422D01*
X207321846Y-107779275D01*
X207105192Y-107599441D01*
X206917219Y-107481619D01*
X206745137Y-107416506D01*
X206576155Y-107394802D01*
X206387880Y-107416248D01*
X206230267Y-107480585D01*
X206103315Y-107587814D01*
X206010298Y-107733800D01*
X205954487Y-107914409D01*
X205935884Y-108129641D01*
X205274425Y-108129641D01*
X205274425Y-106660480D01*
X208885575Y-106660480D01*
X208885575Y-111809520D01*
X205274425Y-111809520D01*
G37*
G36*
X207382307Y-110372915D02*
G01*
X206537397Y-110092312D01*
X207382307Y-109808608D01*
X207382307Y-110372915D01*
G37*
%TO.C,kibuzzard-63DA974B*%
G36*
X205258923Y-106939843D02*
G01*
X205258923Y-105068123D01*
X205920381Y-105068123D01*
X205934936Y-105252177D01*
X205978603Y-105419867D01*
X206051381Y-105571193D01*
X206211448Y-105760716D01*
X206429652Y-105899855D01*
X206604577Y-105963158D01*
X206799655Y-106001141D01*
X207014888Y-106013801D01*
X207168367Y-106013801D01*
X207378001Y-105998729D01*
X207568687Y-105957646D01*
X207740425Y-105890553D01*
X207954947Y-105745213D01*
X208111720Y-105549489D01*
X208182775Y-105394201D01*
X208225408Y-105222893D01*
X208239619Y-105035566D01*
X208218884Y-104768916D01*
X208156678Y-104527070D01*
X208056878Y-104323594D01*
X207923359Y-104172053D01*
X207022639Y-104172053D01*
X207022639Y-105060371D01*
X207365254Y-105060371D01*
X207365254Y-104637141D01*
X207754377Y-104637141D01*
X207838093Y-104786357D01*
X207865999Y-105010762D01*
X207820652Y-105239818D01*
X207684614Y-105406086D01*
X207544399Y-105481017D01*
X207365598Y-105525976D01*
X207148213Y-105540962D01*
X207004036Y-105540962D01*
X206788717Y-105526320D01*
X206611984Y-105484462D01*
X206473835Y-105415388D01*
X206340123Y-105263072D01*
X206295552Y-105054170D01*
X206318031Y-104888095D01*
X206385469Y-104761940D01*
X206501353Y-104674542D01*
X206669172Y-104624739D01*
X206669172Y-104172053D01*
X206444638Y-104220457D01*
X206258861Y-104309857D01*
X206111842Y-104440254D01*
X206005475Y-104610614D01*
X205941654Y-104819903D01*
X205920381Y-105068123D01*
X205258923Y-105068123D01*
X205258923Y-103103901D01*
X205920381Y-103103901D01*
X205944604Y-103319780D01*
X206017274Y-103511628D01*
X206132577Y-103671115D01*
X206284700Y-103789906D01*
X206464146Y-103863739D01*
X206661421Y-103888350D01*
X206661421Y-103438765D01*
X206507361Y-103416867D01*
X206386244Y-103351173D01*
X206307760Y-103247497D01*
X206281599Y-103111653D01*
X206367640Y-102894612D01*
X206469766Y-102837639D01*
X206604060Y-102818647D01*
X206836604Y-102890736D01*
X206969542Y-102982397D01*
X207123408Y-103113203D01*
X207901655Y-103843391D01*
X208208613Y-103843391D01*
X208208613Y-102296199D01*
X207847395Y-102296199D01*
X207847395Y-103266682D01*
X207306343Y-102753535D01*
X207089689Y-102573701D01*
X206901716Y-102455879D01*
X206729634Y-102390767D01*
X206560652Y-102369062D01*
X206372377Y-102390508D01*
X206214764Y-102454845D01*
X206087812Y-102562074D01*
X205994795Y-102708060D01*
X205938984Y-102888669D01*
X205920381Y-103103901D01*
X205258923Y-103103901D01*
X205258923Y-101370157D01*
X208901077Y-101370157D01*
X208901077Y-106939843D01*
X205258923Y-106939843D01*
G37*
%TO.C,D2*%
X84400000Y-81650000D02*
X84400000Y-78350000D01*
X84400000Y-81650000D02*
X77500000Y-81650000D01*
X84400000Y-78350000D02*
X77500000Y-78350000D01*
%TO.C,R13*%
X110517000Y-67694436D02*
X110517000Y-68148564D01*
X111987000Y-67694436D02*
X111987000Y-68148564D01*
%TO.C,Q2*%
X162861000Y-81388000D02*
X161186000Y-81388000D01*
X162861000Y-84508000D02*
X163511000Y-84508000D01*
X162861000Y-81388000D02*
X163511000Y-81388000D01*
X162861000Y-84508000D02*
X162211000Y-84508000D01*
%TO.C,R28*%
X187337064Y-68195000D02*
X185882936Y-68195000D01*
X187337064Y-70015000D02*
X185882936Y-70015000D01*
%TO.C,D1*%
X93709000Y-73592000D02*
X93709000Y-72802000D01*
X87139000Y-72802000D02*
X87139000Y-73592000D01*
X93709000Y-72802000D02*
X95564000Y-72802000D01*
X93709000Y-70982000D02*
X93709000Y-67702000D01*
X93709000Y-65882000D02*
X93709000Y-65092000D01*
X87139000Y-70982000D02*
X87139000Y-67702000D01*
X93709000Y-65092000D02*
X87139000Y-65092000D01*
X87139000Y-65092000D02*
X87139000Y-65882000D01*
X93699000Y-73592000D02*
X87149000Y-73592000D01*
%TO.C,R29*%
X187337064Y-65655000D02*
X185882936Y-65655000D01*
X187337064Y-67475000D02*
X185882936Y-67475000D01*
%TO.C,J8*%
X160663332Y-53140000D02*
X162463332Y-53140000D01*
X154853332Y-53150000D02*
X162473332Y-53150000D01*
X156663332Y-52390000D02*
X154863332Y-52390000D01*
X162473332Y-53150000D02*
X162473332Y-47180000D01*
X154863332Y-50890000D02*
X155613332Y-50890000D01*
X162763332Y-53440000D02*
X162763332Y-52190000D01*
X162463332Y-50890000D02*
X161713332Y-50890000D01*
X159163332Y-53140000D02*
X159163332Y-52390000D01*
X154863332Y-53140000D02*
X156663332Y-53140000D01*
X154863332Y-52390000D02*
X154863332Y-53140000D01*
X158163332Y-53140000D02*
X159163332Y-53140000D01*
X155613332Y-47940000D02*
X158663332Y-47940000D01*
X154853332Y-47180000D02*
X154853332Y-53150000D01*
X162463332Y-52390000D02*
X160663332Y-52390000D01*
X158163332Y-52390000D02*
X158163332Y-53140000D01*
X160663332Y-52390000D02*
X160663332Y-53140000D01*
X162463332Y-53140000D02*
X162463332Y-52390000D01*
X161713332Y-47940000D02*
X158663332Y-47940000D01*
X161713332Y-50890000D02*
X161713332Y-47940000D01*
X161513332Y-53440000D02*
X162763332Y-53440000D01*
X162473332Y-47180000D02*
X154853332Y-47180000D01*
X156663332Y-53140000D02*
X156663332Y-52390000D01*
X155613332Y-50890000D02*
X155613332Y-47940000D01*
X159163332Y-52390000D02*
X158163332Y-52390000D01*
%TO.C,R4*%
X99287000Y-93673664D02*
X99287000Y-93219536D01*
X97817000Y-93673664D02*
X97817000Y-93219536D01*
%TO.C,R8*%
X95276936Y-80291000D02*
X95731064Y-80291000D01*
X95276936Y-81761000D02*
X95731064Y-81761000D01*
%TO.C,R3*%
X95227064Y-93235000D02*
X94772936Y-93235000D01*
X95227064Y-91765000D02*
X94772936Y-91765000D01*
%TO.C,R9*%
X95731064Y-87149000D02*
X95276936Y-87149000D01*
X95731064Y-88619000D02*
X95276936Y-88619000D01*
%TO.C,D5*%
X183901000Y-59708000D02*
X183901000Y-63008000D01*
X183901000Y-59708000D02*
X190801000Y-59708000D01*
X183901000Y-63008000D02*
X190801000Y-63008000D01*
%TO.C,U4*%
X128735000Y-76070000D02*
X116265000Y-76070000D01*
X121500000Y-76130000D02*
X119965000Y-76130000D01*
X125035000Y-76130000D02*
X123500000Y-76130000D01*
X119965000Y-76130000D02*
X119965000Y-83870000D01*
X128735000Y-83930000D02*
X128735000Y-76070000D01*
X125035000Y-83870000D02*
X125035000Y-76130000D01*
X116265000Y-83930000D02*
X128735000Y-83930000D01*
X116265000Y-76070000D02*
X116265000Y-83930000D01*
X119965000Y-83870000D02*
X125035000Y-83870000D01*
X121500000Y-76130000D02*
G75*
G03*
X123500000Y-76130000I1000000J0D01*
G01*
%TO.C,R20*%
X130630000Y-79314564D02*
X130630000Y-78860436D01*
X132100000Y-79314564D02*
X132100000Y-78860436D01*
%TO.C,J1*%
X76261000Y-71546000D02*
X76226000Y-71511000D01*
X72600000Y-64660000D02*
X72600000Y-65160000D01*
X74900000Y-64900000D02*
X74900000Y-75180000D01*
X82761000Y-64900000D02*
X82761000Y-75180000D01*
X82761000Y-75180000D02*
X72840000Y-75180000D01*
X72840000Y-64900000D02*
X72840000Y-75180000D01*
X78569000Y-73855000D02*
X78523000Y-73808000D01*
X73400000Y-64900000D02*
X73400000Y-75180000D01*
X73340000Y-64660000D02*
X72600000Y-64660000D01*
X76477000Y-71353000D02*
X76431000Y-71306000D01*
X82761000Y-64900000D02*
X72840000Y-64900000D01*
X78775000Y-73650000D02*
X78739000Y-73615000D01*
X79801000Y-64900000D02*
X79801000Y-75180000D01*
X75965000Y-66816000D02*
G75*
G03*
X75819747Y-67528805I1535001J-683999D01*
G01*
X75820000Y-67500000D02*
G75*
G03*
X75965244Y-68183318I1680000J0D01*
G01*
X79035000Y-68184000D02*
G75*
G03*
X79035427Y-66816958I-1534993J684001D01*
G01*
X78184000Y-65965000D02*
G75*
G03*
X76816958Y-65964573I-684001J-1534993D01*
G01*
X76816000Y-69035001D02*
G75*
G03*
X78183042Y-69035427I684000J1535001D01*
G01*
X79180000Y-72580000D02*
G75*
G03*
X79180000Y-72580000I-1680000J0D01*
G01*
%TO.C,D7*%
X183901000Y-93998000D02*
X183901000Y-97298000D01*
X183901000Y-97298000D02*
X190801000Y-97298000D01*
X183901000Y-93998000D02*
X190801000Y-93998000D01*
%TO.C,U2*%
X105890000Y-56325000D02*
X105890000Y-57425000D01*
X97300000Y-54825000D02*
X97300000Y-56325000D01*
X107700000Y-54825000D02*
X107700000Y-56325000D01*
X107700000Y-56325000D02*
X105890000Y-56325000D01*
X97300000Y-56325000D02*
X99110000Y-56325000D01*
X99110000Y-56325000D02*
X99110000Y-61450000D01*
%TO.C,U7*%
X177715000Y-67895000D02*
X177715000Y-60155000D01*
X168945000Y-67955000D02*
X181415000Y-67955000D01*
X172645000Y-67895000D02*
X177715000Y-67895000D01*
X181415000Y-67955000D02*
X181415000Y-60095000D01*
X172645000Y-60155000D02*
X172645000Y-67895000D01*
X168945000Y-60095000D02*
X168945000Y-67955000D01*
X177715000Y-60155000D02*
X176180000Y-60155000D01*
X181415000Y-60095000D02*
X168945000Y-60095000D01*
X174180000Y-60155000D02*
X172645000Y-60155000D01*
X174180000Y-60155000D02*
G75*
G03*
X176180000Y-60155000I1000000J0D01*
G01*
%TO.C,J6*%
X173880000Y-47940000D02*
X170830000Y-47940000D01*
X167780000Y-50890000D02*
X167780000Y-47940000D01*
X167030000Y-52390000D02*
X167030000Y-53140000D01*
X171330000Y-53140000D02*
X171330000Y-52390000D01*
X174640000Y-53150000D02*
X174640000Y-47180000D01*
X167030000Y-50890000D02*
X167780000Y-50890000D01*
X172830000Y-53140000D02*
X174630000Y-53140000D01*
X167030000Y-53140000D02*
X168830000Y-53140000D01*
X174640000Y-47180000D02*
X167020000Y-47180000D01*
X167780000Y-47940000D02*
X170830000Y-47940000D01*
X170330000Y-52390000D02*
X170330000Y-53140000D01*
X174630000Y-52390000D02*
X172830000Y-52390000D01*
X167020000Y-47180000D02*
X167020000Y-53150000D01*
X168830000Y-53140000D02*
X168830000Y-52390000D01*
X168830000Y-52390000D02*
X167030000Y-52390000D01*
X170330000Y-53140000D02*
X171330000Y-53140000D01*
X174630000Y-53140000D02*
X174630000Y-52390000D01*
X167020000Y-53150000D02*
X174640000Y-53150000D01*
X174630000Y-50890000D02*
X173880000Y-50890000D01*
X171330000Y-52390000D02*
X170330000Y-52390000D01*
X173680000Y-53440000D02*
X174930000Y-53440000D01*
X172830000Y-52390000D02*
X172830000Y-53140000D01*
X174930000Y-53440000D02*
X174930000Y-52190000D01*
X173880000Y-50890000D02*
X173880000Y-47940000D01*
%TO.C,R32*%
X187337064Y-82800000D02*
X185882936Y-82800000D01*
X187337064Y-84620000D02*
X185882936Y-84620000D01*
%TO.C,kibuzzard-63DA9751*%
G36*
X205288378Y-96782660D02*
G01*
X205288378Y-95016359D01*
X205952937Y-95016359D01*
X208210164Y-95856618D01*
X208210164Y-95362075D01*
X207745076Y-95207045D01*
X207745076Y-94391591D01*
X208210164Y-94235012D01*
X208210164Y-93740468D01*
X205952937Y-94585378D01*
X205952937Y-95016359D01*
X205288378Y-95016359D01*
X205288378Y-92489382D01*
X205949836Y-92489382D01*
X205949836Y-92537441D01*
X206284700Y-93472268D01*
X206649019Y-93472268D01*
X206483137Y-92937417D01*
X208210164Y-92937417D01*
X208210164Y-92489382D01*
X205949836Y-92489382D01*
X205288378Y-92489382D01*
X205288378Y-91563340D01*
X208871622Y-91563340D01*
X208871622Y-96782660D01*
X205288378Y-96782660D01*
G37*
G36*
X207368354Y-95081472D02*
G01*
X206523445Y-94800869D01*
X207368354Y-94517165D01*
X207368354Y-95081472D01*
G37*
%TO.C,U9*%
X181415000Y-85100000D02*
X181415000Y-77240000D01*
X172645000Y-85040000D02*
X177715000Y-85040000D01*
X168945000Y-85100000D02*
X181415000Y-85100000D01*
X172645000Y-77300000D02*
X172645000Y-85040000D01*
X174180000Y-77300000D02*
X172645000Y-77300000D01*
X181415000Y-77240000D02*
X168945000Y-77240000D01*
X168945000Y-77240000D02*
X168945000Y-85100000D01*
X177715000Y-85040000D02*
X177715000Y-77300000D01*
X177715000Y-77300000D02*
X176180000Y-77300000D01*
X174180000Y-77300000D02*
G75*
G03*
X176180000Y-77300000I1000000J0D01*
G01*
%TO.C,R11*%
X104268600Y-90450936D02*
X104268600Y-90905064D01*
X105738600Y-90450936D02*
X105738600Y-90905064D01*
%TO.C,J7*%
X132330000Y-53140000D02*
X132330000Y-52390000D01*
X133830000Y-52390000D02*
X133830000Y-53140000D01*
X125530000Y-52390000D02*
X125530000Y-53140000D01*
X125520000Y-47180000D02*
X125520000Y-53150000D01*
X126280000Y-47940000D02*
X130580000Y-47940000D01*
X128830000Y-52390000D02*
X128830000Y-53140000D01*
X125530000Y-50890000D02*
X126280000Y-50890000D01*
X125520000Y-53150000D02*
X135640000Y-53150000D01*
X135640000Y-47180000D02*
X125520000Y-47180000D01*
X135630000Y-52390000D02*
X133830000Y-52390000D01*
X135630000Y-53140000D02*
X135630000Y-52390000D01*
X134880000Y-50890000D02*
X134880000Y-47940000D01*
X127330000Y-53140000D02*
X127330000Y-52390000D01*
X135630000Y-50890000D02*
X134880000Y-50890000D01*
X134880000Y-47940000D02*
X130580000Y-47940000D01*
X127330000Y-52390000D02*
X125530000Y-52390000D01*
X135930000Y-53440000D02*
X135930000Y-52190000D01*
X133830000Y-53140000D02*
X135630000Y-53140000D01*
X135640000Y-53150000D02*
X135640000Y-47180000D01*
X132330000Y-52390000D02*
X128830000Y-52390000D01*
X128830000Y-53140000D02*
X132330000Y-53140000D01*
X126280000Y-50890000D02*
X126280000Y-47940000D01*
X125530000Y-53140000D02*
X127330000Y-53140000D01*
X134680000Y-53440000D02*
X135930000Y-53440000D01*
%TO.C,R12*%
X106554600Y-90905064D02*
X106554600Y-90450936D01*
X108024600Y-90905064D02*
X108024600Y-90450936D01*
%TO.C,C2*%
X116137563Y-54718000D02*
X114852000Y-54718000D01*
X111550750Y-55351750D02*
X112338250Y-55351750D01*
X111446437Y-54718000D02*
X110382000Y-53653563D01*
X116137563Y-54718000D02*
X117202000Y-53653563D01*
X111944500Y-55745500D02*
X111944500Y-54958000D01*
X111446437Y-54718000D02*
X112732000Y-54718000D01*
X117202000Y-47898000D02*
X114852000Y-47898000D01*
X117202000Y-53653563D02*
X117202000Y-47898000D01*
X110382000Y-47898000D02*
X112732000Y-47898000D01*
X110382000Y-53653563D02*
X110382000Y-47898000D01*
%TO.C,D3*%
X92230000Y-94150000D02*
X92230000Y-90850000D01*
X92230000Y-90850000D02*
X85330000Y-90850000D01*
X92230000Y-94150000D02*
X85330000Y-94150000D01*
%TO.C,R10*%
X95276936Y-84609000D02*
X95731064Y-84609000D01*
X95276936Y-86079000D02*
X95731064Y-86079000D01*
%TO.C,R2*%
X89127000Y-84555064D02*
X89127000Y-84100936D01*
X87657000Y-84555064D02*
X87657000Y-84100936D01*
%TO.C,Q3*%
X162861000Y-98533000D02*
X163511000Y-98533000D01*
X162861000Y-98533000D02*
X161186000Y-98533000D01*
X162861000Y-101653000D02*
X163511000Y-101653000D01*
X162861000Y-101653000D02*
X162211000Y-101653000D01*
%TO.C,D4*%
X92230000Y-95850000D02*
X85330000Y-95850000D01*
X92230000Y-99150000D02*
X92230000Y-95850000D01*
X92230000Y-99150000D02*
X85330000Y-99150000D01*
%TO.C,R21*%
X130630000Y-91814564D02*
X130630000Y-91360436D01*
X132100000Y-91814564D02*
X132100000Y-91360436D01*
%TO.C,R19*%
X130630000Y-66814564D02*
X130630000Y-66360436D01*
X132100000Y-66814564D02*
X132100000Y-66360436D01*
%TO.C,kibuzzard-63D55C26*%
G36*
X76271768Y-61328928D02*
G01*
X79430232Y-61328928D01*
X79430232Y-64909072D01*
X76271768Y-64909072D01*
X76271768Y-64247613D01*
X76933227Y-64247613D01*
X77398314Y-64247613D01*
X77398314Y-62762433D01*
X78303686Y-64247613D01*
X78768773Y-64247613D01*
X78768773Y-61990387D01*
X78305236Y-61990387D01*
X78305236Y-63478668D01*
X77398314Y-61990387D01*
X76933227Y-61990387D01*
X76933227Y-64247613D01*
X76271768Y-64247613D01*
X76271768Y-61328928D01*
G37*
%TO.C,J2*%
X78775000Y-98650000D02*
X78739000Y-98615000D01*
X76261000Y-96546000D02*
X76226000Y-96511000D01*
X74900000Y-89900000D02*
X74900000Y-100180000D01*
X78569000Y-98855000D02*
X78523000Y-98808000D01*
X72600000Y-89660000D02*
X72600000Y-90160000D01*
X79801000Y-89900000D02*
X79801000Y-100180000D01*
X82761000Y-89900000D02*
X72840000Y-89900000D01*
X73340000Y-89660000D02*
X72600000Y-89660000D01*
X73400000Y-89900000D02*
X73400000Y-100180000D01*
X82761000Y-89900000D02*
X82761000Y-100180000D01*
X76477000Y-96353000D02*
X76431000Y-96306000D01*
X72840000Y-89900000D02*
X72840000Y-100180000D01*
X82761000Y-100180000D02*
X72840000Y-100180000D01*
X76816000Y-94035001D02*
G75*
G03*
X78183042Y-94035427I684000J1535001D01*
G01*
X79035000Y-93184000D02*
G75*
G03*
X79035427Y-91816958I-1534993J684001D01*
G01*
X75965000Y-91816000D02*
G75*
G03*
X75819747Y-92528805I1535001J-683999D01*
G01*
X75820000Y-92500000D02*
G75*
G03*
X75965244Y-93183318I1680000J0D01*
G01*
X78184000Y-90965000D02*
G75*
G03*
X76816958Y-90964573I-684001J-1534993D01*
G01*
X79180000Y-97580000D02*
G75*
G03*
X79180000Y-97580000I-1680000J0D01*
G01*
%TO.C,kibuzzard-63DA9616*%
G36*
X189848384Y-111859661D02*
G01*
X189848384Y-109460583D01*
X190840571Y-109460583D01*
X190862663Y-109731238D01*
X190928938Y-109978898D01*
X191039396Y-110203561D01*
X191281533Y-110486392D01*
X191610292Y-110695391D01*
X191871258Y-110790993D01*
X192158062Y-110848353D01*
X192470704Y-110867474D01*
X192677668Y-110867474D01*
X193039783Y-110844147D01*
X193361057Y-110774165D01*
X193641490Y-110657530D01*
X193881083Y-110494241D01*
X194072859Y-110290256D01*
X194209842Y-110051535D01*
X194292032Y-109778078D01*
X194319429Y-109469885D01*
X194284547Y-109098719D01*
X194179902Y-108778971D01*
X194005494Y-108510641D01*
X193770367Y-108304064D01*
X193483562Y-108169576D01*
X193145082Y-108107177D01*
X193145082Y-108804809D01*
X193413961Y-108862073D01*
X193602031Y-108987356D01*
X193712780Y-109187634D01*
X193749696Y-109469885D01*
X193686328Y-109780040D01*
X193496223Y-109994271D01*
X193294427Y-110086643D01*
X193027001Y-110142066D01*
X192693947Y-110160540D01*
X192438148Y-110160540D01*
X192118400Y-110138707D01*
X191859889Y-110079408D01*
X191662614Y-109982644D01*
X191475126Y-109765506D01*
X191412629Y-109460583D01*
X191449546Y-109180658D01*
X191560295Y-108982705D01*
X191753016Y-108858585D01*
X192035847Y-108800158D01*
X192035847Y-108102526D01*
X191685739Y-108173323D01*
X191391959Y-108311299D01*
X191154506Y-108516454D01*
X190980098Y-108780521D01*
X190875453Y-109095231D01*
X190840571Y-109460583D01*
X189848384Y-109460583D01*
X189848384Y-107110339D01*
X195311616Y-107110339D01*
X195311616Y-111859661D01*
X189848384Y-111859661D01*
G37*
%TD*%
M02*
