%TF.GenerationSoftware,KiCad,Pcbnew,(6.0.10)*%
%TF.CreationDate,2023-02-08T12:55:30+07:00*%
%TF.ProjectId,3_phase_firing,335f7068-6173-4655-9f66-6972696e672e,rev?*%
%TF.SameCoordinates,Original*%
%TF.FileFunction,Paste,Top*%
%TF.FilePolarity,Positive*%
%FSLAX46Y46*%
G04 Gerber Fmt 4.6, Leading zero omitted, Abs format (unit mm)*
G04 Created by KiCad (PCBNEW (6.0.10)) date 2023-02-08 12:55:30*
%MOMM*%
%LPD*%
G01*
G04 APERTURE LIST*
G04 Aperture macros list*
%AMRoundRect*
0 Rectangle with rounded corners*
0 $1 Rounding radius*
0 $2 $3 $4 $5 $6 $7 $8 $9 X,Y pos of 4 corners*
0 Add a 4 corners polygon primitive as box body*
4,1,4,$2,$3,$4,$5,$6,$7,$8,$9,$2,$3,0*
0 Add four circle primitives for the rounded corners*
1,1,$1+$1,$2,$3*
1,1,$1+$1,$4,$5*
1,1,$1+$1,$6,$7*
1,1,$1+$1,$8,$9*
0 Add four rect primitives between the rounded corners*
20,1,$1+$1,$2,$3,$4,$5,0*
20,1,$1+$1,$4,$5,$6,$7,0*
20,1,$1+$1,$6,$7,$8,$9,0*
20,1,$1+$1,$8,$9,$2,$3,0*%
G04 Aperture macros list end*
%ADD10R,3.500000X1.800000*%
%ADD11R,3.100000X1.600000*%
%ADD12RoundRect,0.250000X0.262500X0.450000X-0.262500X0.450000X-0.262500X-0.450000X0.262500X-0.450000X0*%
%ADD13RoundRect,0.250000X-0.450000X0.262500X-0.450000X-0.262500X0.450000X-0.262500X0.450000X0.262500X0*%
%ADD14RoundRect,0.250000X0.400000X0.625000X-0.400000X0.625000X-0.400000X-0.625000X0.400000X-0.625000X0*%
%ADD15RoundRect,0.250000X0.450000X-0.262500X0.450000X0.262500X-0.450000X0.262500X-0.450000X-0.262500X0*%
%ADD16RoundRect,0.150000X-0.587500X-0.150000X0.587500X-0.150000X0.587500X0.150000X-0.587500X0.150000X0*%
%ADD17RoundRect,0.150000X-0.825000X-0.150000X0.825000X-0.150000X0.825000X0.150000X-0.825000X0.150000X0*%
%ADD18RoundRect,0.250000X1.500000X0.550000X-1.500000X0.550000X-1.500000X-0.550000X1.500000X-0.550000X0*%
%ADD19RoundRect,0.250000X-0.400000X-0.625000X0.400000X-0.625000X0.400000X0.625000X-0.400000X0.625000X0*%
%ADD20R,1.500000X1.300000*%
%ADD21RoundRect,0.250000X-0.262500X-0.450000X0.262500X-0.450000X0.262500X0.450000X-0.262500X0.450000X0*%
%ADD22R,5.250000X4.550000*%
%ADD23R,1.100000X4.600000*%
%ADD24RoundRect,0.250000X0.550000X-1.500000X0.550000X1.500000X-0.550000X1.500000X-0.550000X-1.500000X0*%
G04 APERTURE END LIST*
D10*
%TO.C,D6*%
X185801000Y-78503000D03*
X190801000Y-78503000D03*
%TD*%
D11*
%TO.C,U3*%
X118055000Y-64960000D03*
X118055000Y-67500000D03*
X118055000Y-70040000D03*
X126945000Y-70040000D03*
X126945000Y-67500000D03*
X126945000Y-64960000D03*
%TD*%
D12*
%TO.C,R17*%
X114704500Y-77470000D03*
X112879500Y-77470000D03*
%TD*%
D13*
%TO.C,R41*%
X168830000Y-54627000D03*
X168830000Y-56452000D03*
%TD*%
D12*
%TO.C,R1*%
X88412500Y-80000000D03*
X86587500Y-80000000D03*
%TD*%
D14*
%TO.C,R36*%
X188160000Y-100855000D03*
X185060000Y-100855000D03*
%TD*%
%TO.C,R33*%
X188160000Y-86250000D03*
X185060000Y-86250000D03*
%TD*%
D12*
%TO.C,R22*%
X167329500Y-78630000D03*
X165504500Y-78630000D03*
%TD*%
D15*
%TO.C,R14*%
X111252000Y-75080500D03*
X111252000Y-73255500D03*
%TD*%
%TO.C,R42*%
X152955000Y-53761500D03*
X152955000Y-51936500D03*
%TD*%
D11*
%TO.C,U11*%
X170735000Y-95775000D03*
X170735000Y-98315000D03*
X170735000Y-100855000D03*
X179625000Y-100855000D03*
X179625000Y-98315000D03*
X179625000Y-95775000D03*
%TD*%
D16*
%TO.C,Q1*%
X161923500Y-64853000D03*
X161923500Y-66753000D03*
X163798500Y-65803000D03*
%TD*%
D12*
%TO.C,R27*%
X167329500Y-103522000D03*
X165504500Y-103522000D03*
%TD*%
D17*
%TO.C,U1*%
X100649000Y-78690000D03*
X100649000Y-79960000D03*
X100649000Y-81230000D03*
X100649000Y-82500000D03*
X100649000Y-83770000D03*
X100649000Y-85040000D03*
X100649000Y-86310000D03*
X105599000Y-86310000D03*
X105599000Y-85040000D03*
X105599000Y-83770000D03*
X105599000Y-82500000D03*
X105599000Y-81230000D03*
X105599000Y-79960000D03*
X105599000Y-78690000D03*
%TD*%
D12*
%TO.C,R26*%
X167329500Y-95775000D03*
X165504500Y-95775000D03*
%TD*%
%TO.C,R16*%
X114958500Y-64770000D03*
X113133500Y-64770000D03*
%TD*%
%TO.C,R24*%
X167329500Y-61485000D03*
X165504500Y-61485000D03*
%TD*%
D15*
%TO.C,R18*%
X111252000Y-89050500D03*
X111252000Y-87225500D03*
%TD*%
D11*
%TO.C,U5*%
X118055000Y-89960000D03*
X118055000Y-92500000D03*
X118055000Y-95040000D03*
X126945000Y-95040000D03*
X126945000Y-92500000D03*
X126945000Y-89960000D03*
%TD*%
D18*
%TO.C,C1*%
X93505000Y-59563000D03*
X88105000Y-59563000D03*
%TD*%
D12*
%TO.C,R7*%
X96416500Y-78740000D03*
X94591500Y-78740000D03*
%TD*%
%TO.C,R25*%
X167329500Y-86377000D03*
X165504500Y-86377000D03*
%TD*%
%TO.C,R5*%
X95912500Y-97500000D03*
X94087500Y-97500000D03*
%TD*%
%TO.C,R23*%
X167329500Y-69232000D03*
X165504500Y-69232000D03*
%TD*%
D19*
%TO.C,R40*%
X130580000Y-55389000D03*
X133680000Y-55389000D03*
%TD*%
D15*
%TO.C,R15*%
X111252000Y-84478500D03*
X111252000Y-82653500D03*
%TD*%
%TO.C,R6*%
X96012000Y-102663000D03*
X96012000Y-100838000D03*
%TD*%
D14*
%TO.C,R37*%
X188160000Y-103395000D03*
X185060000Y-103395000D03*
%TD*%
D10*
%TO.C,D2*%
X82500000Y-80000000D03*
X77500000Y-80000000D03*
%TD*%
D13*
%TO.C,R13*%
X111252000Y-67009000D03*
X111252000Y-68834000D03*
%TD*%
D16*
%TO.C,Q2*%
X161923500Y-81998000D03*
X161923500Y-83898000D03*
X163798500Y-82948000D03*
%TD*%
D14*
%TO.C,R28*%
X188160000Y-69105000D03*
X185060000Y-69105000D03*
%TD*%
D20*
%TO.C,D1*%
X94874000Y-71892000D03*
X94874000Y-66792000D03*
X85974000Y-66792000D03*
X85974000Y-71892000D03*
%TD*%
D14*
%TO.C,R29*%
X188160000Y-66565000D03*
X185060000Y-66565000D03*
%TD*%
D15*
%TO.C,R4*%
X98552000Y-94359100D03*
X98552000Y-92534100D03*
%TD*%
D21*
%TO.C,R8*%
X94591500Y-81026000D03*
X96416500Y-81026000D03*
%TD*%
D12*
%TO.C,R3*%
X95912500Y-92500000D03*
X94087500Y-92500000D03*
%TD*%
%TO.C,R9*%
X96416500Y-87884000D03*
X94591500Y-87884000D03*
%TD*%
D10*
%TO.C,D5*%
X185801000Y-61358000D03*
X190801000Y-61358000D03*
%TD*%
D11*
%TO.C,U4*%
X118055000Y-77460000D03*
X118055000Y-80000000D03*
X118055000Y-82540000D03*
X126945000Y-82540000D03*
X126945000Y-80000000D03*
X126945000Y-77460000D03*
%TD*%
D15*
%TO.C,R20*%
X131365000Y-80000000D03*
X131365000Y-78175000D03*
%TD*%
D10*
%TO.C,D7*%
X185801000Y-95648000D03*
X190801000Y-95648000D03*
%TD*%
D22*
%TO.C,U2*%
X99725000Y-47575000D03*
X105275000Y-52425000D03*
X105275000Y-47575000D03*
X99725000Y-52425000D03*
D23*
X99960000Y-59150000D03*
X105040000Y-59150000D03*
%TD*%
D11*
%TO.C,U7*%
X170735000Y-61485000D03*
X170735000Y-64025000D03*
X170735000Y-66565000D03*
X179625000Y-66565000D03*
X179625000Y-64025000D03*
X179625000Y-61485000D03*
%TD*%
D14*
%TO.C,R32*%
X188160000Y-83710000D03*
X185060000Y-83710000D03*
%TD*%
D11*
%TO.C,U9*%
X170735000Y-78630000D03*
X170735000Y-81170000D03*
X170735000Y-83710000D03*
X179625000Y-83710000D03*
X179625000Y-81170000D03*
X179625000Y-78630000D03*
%TD*%
D13*
%TO.C,R11*%
X105003600Y-89765500D03*
X105003600Y-91590500D03*
%TD*%
D15*
%TO.C,R12*%
X107289600Y-91590500D03*
X107289600Y-89765500D03*
%TD*%
D24*
%TO.C,C2*%
X113792000Y-54008000D03*
X113792000Y-48608000D03*
%TD*%
D10*
%TO.C,D3*%
X90330000Y-92500000D03*
X85330000Y-92500000D03*
%TD*%
D21*
%TO.C,R10*%
X94591500Y-85344000D03*
X96416500Y-85344000D03*
%TD*%
D15*
%TO.C,R2*%
X88392000Y-85240500D03*
X88392000Y-83415500D03*
%TD*%
D16*
%TO.C,Q3*%
X161923500Y-99143000D03*
X161923500Y-101043000D03*
X163798500Y-100093000D03*
%TD*%
D10*
%TO.C,D4*%
X90330000Y-97500000D03*
X85330000Y-97500000D03*
%TD*%
D15*
%TO.C,R21*%
X131365000Y-92500000D03*
X131365000Y-90675000D03*
%TD*%
%TO.C,R19*%
X131365000Y-67500000D03*
X131365000Y-65675000D03*
%TD*%
M02*
