M48
; DRILL file {KiCad (7.0.0)} date Mon Apr  3 14:28:20 2023
; FORMAT={-:-/ absolute / inch / decimal}
; #@! TF.CreationDate,2023-04-03T14:28:20+07:00
; #@! TF.GenerationSoftware,Kicad,Pcbnew,(7.0.0)
; #@! TF.FileFunction,Plated,1,2,PTH
FMAT,2
INCH
; #@! TA.AperFunction,Plated,PTH,ViaDrill
T1C0.0157
; #@! TA.AperFunction,Plated,PTH,ComponentDrill
T2C0.0362
; #@! TA.AperFunction,Plated,PTH,ComponentDrill
T3C0.0374
; #@! TA.AperFunction,Plated,PTH,ComponentDrill
T4C0.0394
; #@! TA.AperFunction,Plated,PTH,ComponentDrill
T5C0.0598
; #@! TA.AperFunction,Plated,PTH,ComponentDrill
T6C0.0917
%
G90
G05
T1
X3.4169Y-2.4007
X3.43Y-1.805
X3.43Y-1.9231
X3.43Y-2.0412
X3.43Y-2.1593
X3.43Y-2.2774
X3.4369Y-2.4707
X3.4669Y-2.4007
X3.4869Y-2.5307
X3.5169Y-2.4007
X3.5369Y-2.4707
X3.545Y-3.362
X3.5481Y-1.805
X3.5481Y-1.9231
X3.5481Y-2.0412
X3.5481Y-2.1593
X3.5869Y-2.5307
X3.6469Y-2.5907
X3.654Y-3.361
X3.6662Y-1.805
X3.6662Y-1.9231
X3.6662Y-2.0412
X3.6869Y-2.6307
X3.7019Y-4.0407
X3.7019Y-4.2157
X3.7069Y-4.1107
X3.724Y-3.246
X3.725Y-3.52
X3.7319Y-4.2857
X3.7349Y-2.5867
X3.7349Y-2.6727
X3.7619Y-4.2257
X3.7819Y-4.1107
X3.7843Y-1.805
X3.7843Y-1.9231
X3.7843Y-2.0412
X3.7869Y-2.6307
X3.8519Y-4.1107
X3.8719Y-4.0407
X3.8719Y-4.2257
X3.8719Y-4.3657
X3.88Y-3.767
X3.9024Y-1.805
X3.9024Y-1.9231
X3.9024Y-2.0412
X3.9169Y-4.4307
X3.9519Y-4.1157
X3.9519Y-4.2057
X3.9519Y-4.3007
X4.0069Y-4.3607
X4.0206Y-1.805
X4.0206Y-1.9231
X4.0206Y-2.0412
X4.055Y-3.15
X4.0619Y-4.2957
X4.0819Y-4.1157
X4.134Y-3.66
X4.1387Y-1.805
X4.1387Y-1.9231
X4.1387Y-2.0412
X4.224Y-3.2
X4.2568Y-1.805
X4.2568Y-1.9231
X4.2568Y-2.0412
X4.285Y-3.605
X4.32Y-2.64
X4.3419Y-4.1257
X4.3419Y-4.2007
X4.36Y-2.8
X4.3749Y-1.805
X4.3749Y-1.9231
X4.415Y-2.8
X4.4319Y-4.1257
X4.4319Y-4.2057
X4.4369Y-4.2807
X4.46Y-3.27
X4.47Y-2.8
X4.493Y-1.805
X4.6519Y-4.1207
X4.6519Y-4.2007
X4.6519Y-4.2757
X4.9369Y-4.3507
X4.9969Y-3.8307
X5.1069Y-2.7607
X5.1169Y-3.2507
X5.3369Y-2.1807
X5.3601Y-3.094
X5.3936Y-3.1274
X5.4469Y-4.4068
X5.4469Y-4.454
X5.6319Y-2.1557
X5.6869Y-4.5907
X5.7469Y-4.5907
X5.7569Y-4.2307
X5.7969Y-2.1707
X5.7969Y-2.6907
X5.8469Y-3.2107
X5.8669Y-4.5407
X6.2869Y-2.5207
X6.2869Y-3.2107
X6.3069Y-3.9007
X6.3769Y-3.0907
X6.4219Y-3.4007
X6.4769Y-2.1607
T2
X6.4266Y-4.391
X6.4266Y-4.4698
X6.525Y-4.391
X6.525Y-4.4698
T3
X5.0425Y-1.9957
X5.1409Y-1.9957
X5.2394Y-1.9957
X5.5269Y-1.9957
X5.6253Y-1.9957
X5.7237Y-1.9957
X5.8221Y-1.9957
X7.1769Y-2.854
X7.1769Y-2.9525
X7.1769Y-3.0509
X7.1769Y-3.1493
X7.1769Y-3.2477
X7.1769Y-3.3462
X7.1769Y-3.4446
X7.1769Y-3.543
T4
X4.6567Y-4.6107
X4.7567Y-4.6107
X4.7919Y-3.9607
X4.8919Y-3.9607
X5.0169Y-4.1507
X5.0169Y-4.2507
X5.0169Y-4.3507
X5.0169Y-4.4507
X5.1169Y-4.1507
X5.1169Y-4.2507
X5.1169Y-4.3507
X5.1169Y-4.4507
X5.5Y-2.3
X5.5Y-2.4
X5.5Y-2.5
X5.5Y-2.6
X5.5Y-2.7
X5.5Y-2.8
X5.5Y-2.9
X5.5Y-3.0
X5.5Y-3.1
X5.5Y-3.2
X5.5Y-3.3
X5.5Y-3.4
X5.5Y-3.5
X5.5Y-3.6
X5.5Y-3.7
X5.5Y-3.8
X5.5Y-3.9
X5.5Y-4.0
X5.5Y-4.1
X5.5Y-4.2
X6.1Y-2.3
X6.1Y-2.4
X6.1Y-2.5
X6.1Y-2.6
X6.1Y-2.7
X6.1Y-2.8
X6.1Y-2.9
X6.1Y-3.0
X6.1Y-3.1
X6.1Y-3.2
X6.1Y-3.3
X6.1Y-3.4
X6.1Y-3.5
X6.1Y-3.6
X6.1Y-3.7
X6.1Y-3.8
X6.1Y-3.9
X6.1Y-4.0
X6.1Y-4.1
X6.1Y-4.2
X6.1974Y-1.9957
X6.2958Y-1.9957
X6.6576Y-1.9957
X6.7561Y-1.9957
T5
X3.0512Y-2.6575
X3.0512Y-2.8575
X3.0512Y-3.6417
X3.0512Y-3.8417
T6
X6.2388Y-4.5765
X6.7128Y-4.5765
T0
M30
