%TF.GenerationSoftware,KiCad,Pcbnew,(6.0.9)*%
%TF.CreationDate,2022-12-21T20:26:07+07:00*%
%TF.ProjectId,3_phase_firing,335f7068-6173-4655-9f66-6972696e672e,rev?*%
%TF.SameCoordinates,Original*%
%TF.FileFunction,Paste,Top*%
%TF.FilePolarity,Positive*%
%FSLAX46Y46*%
G04 Gerber Fmt 4.6, Leading zero omitted, Abs format (unit mm)*
G04 Created by KiCad (PCBNEW (6.0.9)) date 2022-12-21 20:26:07*
%MOMM*%
%LPD*%
G01*
G04 APERTURE LIST*
G04 Aperture macros list*
%AMRoundRect*
0 Rectangle with rounded corners*
0 $1 Rounding radius*
0 $2 $3 $4 $5 $6 $7 $8 $9 X,Y pos of 4 corners*
0 Add a 4 corners polygon primitive as box body*
4,1,4,$2,$3,$4,$5,$6,$7,$8,$9,$2,$3,0*
0 Add four circle primitives for the rounded corners*
1,1,$1+$1,$2,$3*
1,1,$1+$1,$4,$5*
1,1,$1+$1,$6,$7*
1,1,$1+$1,$8,$9*
0 Add four rect primitives between the rounded corners*
20,1,$1+$1,$2,$3,$4,$5,0*
20,1,$1+$1,$4,$5,$6,$7,0*
20,1,$1+$1,$6,$7,$8,$9,0*
20,1,$1+$1,$8,$9,$2,$3,0*%
G04 Aperture macros list end*
%ADD10R,3.500000X1.800000*%
%ADD11R,3.100000X1.600000*%
%ADD12RoundRect,0.250000X0.262500X0.450000X-0.262500X0.450000X-0.262500X-0.450000X0.262500X-0.450000X0*%
%ADD13RoundRect,0.250000X0.450000X-0.262500X0.450000X0.262500X-0.450000X0.262500X-0.450000X-0.262500X0*%
%ADD14RoundRect,0.150000X-0.825000X-0.150000X0.825000X-0.150000X0.825000X0.150000X-0.825000X0.150000X0*%
%ADD15RoundRect,0.250000X0.550000X-1.500000X0.550000X1.500000X-0.550000X1.500000X-0.550000X-1.500000X0*%
%ADD16R,1.800000X3.500000*%
%ADD17RoundRect,0.150000X-0.587500X-0.150000X0.587500X-0.150000X0.587500X0.150000X-0.587500X0.150000X0*%
%ADD18RoundRect,0.250000X-0.450000X0.262500X-0.450000X-0.262500X0.450000X-0.262500X0.450000X0.262500X0*%
%ADD19R,1.500000X1.300000*%
%ADD20RoundRect,0.250000X-0.262500X-0.450000X0.262500X-0.450000X0.262500X0.450000X-0.262500X0.450000X0*%
%ADD21R,5.250000X4.550000*%
%ADD22R,1.100000X4.600000*%
G04 APERTURE END LIST*
D10*
%TO.C,D10*%
X169124000Y-91821000D03*
X164124000Y-91821000D03*
%TD*%
D11*
%TO.C,U3*%
X118055000Y-64960000D03*
X118055000Y-67500000D03*
X118055000Y-70040000D03*
X126945000Y-70040000D03*
X126945000Y-67500000D03*
X126945000Y-64960000D03*
%TD*%
D10*
%TO.C,D6*%
X169060500Y-76120904D03*
X164060500Y-76120904D03*
%TD*%
D12*
%TO.C,R17*%
X114704500Y-77470000D03*
X112879500Y-77470000D03*
%TD*%
%TO.C,R1*%
X88412500Y-80000000D03*
X86587500Y-80000000D03*
%TD*%
D10*
%TO.C,D8*%
X169060500Y-60071000D03*
X164060500Y-60071000D03*
%TD*%
D13*
%TO.C,R14*%
X111252000Y-75080500D03*
X111252000Y-73255500D03*
%TD*%
D11*
%TO.C,U9*%
X182753000Y-59690000D03*
X182753000Y-62230000D03*
X182753000Y-64770000D03*
X191643000Y-64770000D03*
X191643000Y-62230000D03*
X191643000Y-59690000D03*
%TD*%
D14*
%TO.C,U1*%
X100649000Y-78690000D03*
X100649000Y-79960000D03*
X100649000Y-81230000D03*
X100649000Y-82500000D03*
X100649000Y-83770000D03*
X100649000Y-85040000D03*
X100649000Y-86310000D03*
X105599000Y-86310000D03*
X105599000Y-85040000D03*
X105599000Y-83770000D03*
X105599000Y-82500000D03*
X105599000Y-81230000D03*
X105599000Y-79960000D03*
X105599000Y-78690000D03*
%TD*%
D11*
%TO.C,U7*%
X182753000Y-75692000D03*
X182753000Y-78232000D03*
X182753000Y-80772000D03*
X191643000Y-80772000D03*
X191643000Y-78232000D03*
X191643000Y-75692000D03*
%TD*%
D12*
%TO.C,R16*%
X114958500Y-64770000D03*
X113133500Y-64770000D03*
%TD*%
D13*
%TO.C,R29*%
X180340000Y-108862500D03*
X180340000Y-107037500D03*
%TD*%
%TO.C,R18*%
X111252000Y-89050500D03*
X111252000Y-87225500D03*
%TD*%
D11*
%TO.C,U5*%
X118055000Y-89960000D03*
X118055000Y-92500000D03*
X118055000Y-95040000D03*
X126945000Y-95040000D03*
X126945000Y-92500000D03*
X126945000Y-89960000D03*
%TD*%
D15*
%TO.C,C1*%
X91186000Y-54008000D03*
X91186000Y-48608000D03*
%TD*%
D11*
%TO.C,U11*%
X183007000Y-91694000D03*
X183007000Y-94234000D03*
X183007000Y-96774000D03*
X191897000Y-96774000D03*
X191897000Y-94234000D03*
X191897000Y-91694000D03*
%TD*%
D12*
%TO.C,R7*%
X96416500Y-78740000D03*
X94591500Y-78740000D03*
%TD*%
%TO.C,R5*%
X95912500Y-97500000D03*
X94087500Y-97500000D03*
%TD*%
D16*
%TO.C,D5*%
X83566000Y-57444000D03*
X83566000Y-62444000D03*
%TD*%
D13*
%TO.C,R15*%
X111252000Y-84478500D03*
X111252000Y-82653500D03*
%TD*%
%TO.C,R6*%
X96012000Y-102663000D03*
X96012000Y-100838000D03*
%TD*%
D17*
%TO.C,Q3*%
X170004500Y-97983000D03*
X170004500Y-99883000D03*
X171879500Y-98933000D03*
%TD*%
%TO.C,Q1*%
X170004500Y-80457000D03*
X170004500Y-82357000D03*
X171879500Y-81407000D03*
%TD*%
D10*
%TO.C,D2*%
X82500000Y-80000000D03*
X77500000Y-80000000D03*
%TD*%
D18*
%TO.C,R13*%
X111252000Y-67009000D03*
X111252000Y-68834000D03*
%TD*%
D19*
%TO.C,D1*%
X94874000Y-71892000D03*
X94874000Y-66792000D03*
X85974000Y-66792000D03*
X85974000Y-71892000D03*
%TD*%
D12*
%TO.C,R4*%
X100377000Y-92506800D03*
X98552000Y-92506800D03*
%TD*%
D20*
%TO.C,R8*%
X94591500Y-81026000D03*
X96416500Y-81026000D03*
%TD*%
D12*
%TO.C,R3*%
X95912500Y-92500000D03*
X94087500Y-92500000D03*
%TD*%
%TO.C,R9*%
X96416500Y-87884000D03*
X94591500Y-87884000D03*
%TD*%
D11*
%TO.C,U4*%
X118055000Y-77460000D03*
X118055000Y-80000000D03*
X118055000Y-82540000D03*
X126945000Y-82540000D03*
X126945000Y-80000000D03*
X126945000Y-77460000D03*
%TD*%
D13*
%TO.C,R20*%
X132715000Y-79930000D03*
X132715000Y-78105000D03*
%TD*%
D17*
%TO.C,Q2*%
X170512500Y-64455000D03*
X170512500Y-66355000D03*
X172387500Y-65405000D03*
%TD*%
D13*
%TO.C,R28*%
X170180000Y-108862500D03*
X170180000Y-107037500D03*
%TD*%
D21*
%TO.C,U2*%
X99725000Y-47575000D03*
X105275000Y-52425000D03*
X105275000Y-47575000D03*
X99725000Y-52425000D03*
D22*
X99960000Y-59150000D03*
X105040000Y-59150000D03*
%TD*%
D12*
%TO.C,R24*%
X177085000Y-59690000D03*
X175260000Y-59690000D03*
%TD*%
%TO.C,R22*%
X178101000Y-75692000D03*
X176276000Y-75692000D03*
%TD*%
%TO.C,R26*%
X178077500Y-91440000D03*
X176252500Y-91440000D03*
%TD*%
D18*
%TO.C,R11*%
X105003600Y-89765500D03*
X105003600Y-91590500D03*
%TD*%
D13*
%TO.C,R12*%
X107289600Y-91590500D03*
X107289600Y-89765500D03*
%TD*%
D15*
%TO.C,C2*%
X113792000Y-54008000D03*
X113792000Y-48608000D03*
%TD*%
D10*
%TO.C,D3*%
X90000000Y-92500000D03*
X85000000Y-92500000D03*
%TD*%
D20*
%TO.C,R10*%
X94591500Y-85344000D03*
X96416500Y-85344000D03*
%TD*%
D13*
%TO.C,R2*%
X88392000Y-85240500D03*
X88392000Y-83415500D03*
%TD*%
D10*
%TO.C,D4*%
X90000000Y-97500000D03*
X85000000Y-97500000D03*
%TD*%
D18*
%TO.C,R21*%
X132080000Y-92432500D03*
X132080000Y-94257500D03*
%TD*%
D13*
%TO.C,R19*%
X132715000Y-67587500D03*
X132715000Y-65762500D03*
%TD*%
M02*
