%TF.GenerationSoftware,KiCad,Pcbnew,(6.0.9)*%
%TF.CreationDate,2022-12-21T20:26:07+07:00*%
%TF.ProjectId,3_phase_firing,335f7068-6173-4655-9f66-6972696e672e,rev?*%
%TF.SameCoordinates,Original*%
%TF.FileFunction,Copper,L2,Bot*%
%TF.FilePolarity,Positive*%
%FSLAX46Y46*%
G04 Gerber Fmt 4.6, Leading zero omitted, Abs format (unit mm)*
G04 Created by KiCad (PCBNEW (6.0.9)) date 2022-12-21 20:26:07*
%MOMM*%
%LPD*%
G01*
G04 APERTURE LIST*
G04 Aperture macros list*
%AMRoundRect*
0 Rectangle with rounded corners*
0 $1 Rounding radius*
0 $2 $3 $4 $5 $6 $7 $8 $9 X,Y pos of 4 corners*
0 Add a 4 corners polygon primitive as box body*
4,1,4,$2,$3,$4,$5,$6,$7,$8,$9,$2,$3,0*
0 Add four circle primitives for the rounded corners*
1,1,$1+$1,$2,$3*
1,1,$1+$1,$4,$5*
1,1,$1+$1,$6,$7*
1,1,$1+$1,$8,$9*
0 Add four rect primitives between the rounded corners*
20,1,$1+$1,$2,$3,$4,$5,0*
20,1,$1+$1,$4,$5,$6,$7,0*
20,1,$1+$1,$6,$7,$8,$9,0*
20,1,$1+$1,$8,$9,$2,$3,0*%
G04 Aperture macros list end*
%TA.AperFunction,ComponentPad*%
%ADD10C,5.600000*%
%TD*%
%TA.AperFunction,ComponentPad*%
%ADD11R,1.700000X1.700000*%
%TD*%
%TA.AperFunction,ComponentPad*%
%ADD12C,1.700000*%
%TD*%
%TA.AperFunction,ComponentPad*%
%ADD13RoundRect,0.250000X-0.600000X-0.750000X0.600000X-0.750000X0.600000X0.750000X-0.600000X0.750000X0*%
%TD*%
%TA.AperFunction,ComponentPad*%
%ADD14O,1.700000X2.000000*%
%TD*%
%TA.AperFunction,ComponentPad*%
%ADD15R,3.000000X3.000000*%
%TD*%
%TA.AperFunction,ComponentPad*%
%ADD16C,3.000000*%
%TD*%
%TA.AperFunction,ComponentPad*%
%ADD17R,2.600000X2.600000*%
%TD*%
%TA.AperFunction,ComponentPad*%
%ADD18C,2.600000*%
%TD*%
%TA.AperFunction,SMDPad,CuDef*%
%ADD19R,3.500000X1.800000*%
%TD*%
%TA.AperFunction,SMDPad,CuDef*%
%ADD20R,3.100000X1.600000*%
%TD*%
%TA.AperFunction,SMDPad,CuDef*%
%ADD21RoundRect,0.250000X0.262500X0.450000X-0.262500X0.450000X-0.262500X-0.450000X0.262500X-0.450000X0*%
%TD*%
%TA.AperFunction,ViaPad*%
%ADD22C,0.800000*%
%TD*%
%TA.AperFunction,Conductor*%
%ADD23C,0.400000*%
%TD*%
%TA.AperFunction,Conductor*%
%ADD24C,1.000000*%
%TD*%
G04 APERTURE END LIST*
D10*
%TO.P,REF\u002A\u002A,1*%
%TO.N,N/C*%
X195000000Y-113000000D03*
%TD*%
D11*
%TO.P,U6,1,PB12*%
%TO.N,unconnected-(U6-Pad1)*%
X139700000Y-55880000D03*
D12*
%TO.P,U6,2,PB13*%
%TO.N,LED_USB*%
X139700000Y-58420000D03*
%TO.P,U6,3,PB14*%
%TO.N,unconnected-(U6-Pad3)*%
X139700000Y-60960000D03*
%TO.P,U6,4,PB15*%
%TO.N,TRIAC_MODE*%
X139700000Y-63500000D03*
%TO.P,U6,5,PA8*%
%TO.N,unconnected-(U6-Pad5)*%
X139700000Y-66040000D03*
%TO.P,U6,6,PA9*%
%TO.N,unconnected-(U6-Pad6)*%
X139700000Y-68580000D03*
%TO.P,U6,7,PA10*%
%TO.N,unconnected-(U6-Pad7)*%
X139700000Y-71120000D03*
%TO.P,U6,8,PA11*%
%TO.N,unconnected-(U6-Pad8)*%
X139700000Y-73660000D03*
%TO.P,U6,9,PA12*%
%TO.N,unconnected-(U6-Pad9)*%
X139700000Y-76200000D03*
%TO.P,U6,10,PA15*%
%TO.N,unconnected-(U6-Pad10)*%
X139700000Y-78740000D03*
%TO.P,U6,11,PB3*%
%TO.N,unconnected-(U6-Pad11)*%
X139700000Y-81280000D03*
%TO.P,U6,12,PB4*%
%TO.N,unconnected-(U6-Pad12)*%
X139700000Y-83820000D03*
%TO.P,U6,13,PB5*%
%TO.N,unconnected-(U6-Pad13)*%
X139700000Y-86360000D03*
%TO.P,U6,14,PB6*%
%TO.N,ZCD_C*%
X139700000Y-88900000D03*
%TO.P,U6,15,PB7*%
%TO.N,GATE_C1*%
X139700000Y-91440000D03*
%TO.P,U6,16,PB8*%
%TO.N,GATE_C2*%
X139700000Y-93980000D03*
%TO.P,U6,17,PB9*%
%TO.N,unconnected-(U6-Pad17)*%
X139700000Y-96520000D03*
%TO.P,U6,18,5V*%
%TO.N,unconnected-(U6-Pad18)*%
X139700000Y-99060000D03*
%TO.P,U6,19,GND*%
%TO.N,GND*%
X139700000Y-101600000D03*
%TO.P,U6,20,3V3*%
%TO.N,+3.3V*%
X139700000Y-104140000D03*
%TO.P,U6,21,VBat*%
%TO.N,unconnected-(U6-Pad21)*%
X154940000Y-104140000D03*
%TO.P,U6,22,PC13*%
%TO.N,unconnected-(U6-Pad22)*%
X154940000Y-101600000D03*
%TO.P,U6,23,PC14*%
%TO.N,unconnected-(U6-Pad23)*%
X154940000Y-99060000D03*
%TO.P,U6,24,PC15*%
%TO.N,unconnected-(U6-Pad24)*%
X154940000Y-96520000D03*
%TO.P,U6,25,RES*%
%TO.N,unconnected-(U6-Pad25)*%
X154940000Y-93980000D03*
%TO.P,U6,26,PA0*%
%TO.N,ZCD_A*%
X154940000Y-91440000D03*
%TO.P,U6,27,PA1*%
%TO.N,GATE_A1*%
X154940000Y-88900000D03*
%TO.P,U6,28,PA2*%
%TO.N,GATE_A2*%
X154940000Y-86360000D03*
%TO.P,U6,29,PA3*%
%TO.N,unconnected-(U6-Pad29)*%
X154940000Y-83820000D03*
%TO.P,U6,30,PA4*%
%TO.N,unconnected-(U6-Pad30)*%
X154940000Y-81280000D03*
%TO.P,U6,31,PA5*%
%TO.N,unconnected-(U6-Pad31)*%
X154940000Y-78740000D03*
%TO.P,U6,32,PA6*%
%TO.N,ZCD_B*%
X154940000Y-76200000D03*
%TO.P,U6,33,PA7*%
%TO.N,GATE_B1*%
X154940000Y-73660000D03*
%TO.P,U6,34,PB0*%
%TO.N,GATE_B2*%
X154940000Y-71120000D03*
%TO.P,U6,35,PB1*%
%TO.N,unconnected-(U6-Pad35)*%
X154940000Y-68580000D03*
%TO.P,U6,36,PB2*%
%TO.N,unconnected-(U6-Pad36)*%
X154940000Y-66040000D03*
%TO.P,U6,37,PB10*%
%TO.N,unconnected-(U6-Pad37)*%
X154940000Y-63500000D03*
%TO.P,U6,38,3V3*%
%TO.N,+3.3V*%
X154940000Y-60960000D03*
%TO.P,U6,39,GND*%
%TO.N,GND*%
X154940000Y-58420000D03*
%TO.P,U6,40,5V*%
%TO.N,unconnected-(U6-Pad40)*%
X154940000Y-55880000D03*
%TD*%
D10*
%TO.P,REF\u002A\u002A,1*%
%TO.N,N/C*%
X80000000Y-51308000D03*
%TD*%
D13*
%TO.P,J5,1,Pin_1*%
%TO.N,Net-(J5-Pad1)*%
X180340000Y-114300000D03*
D14*
%TO.P,J5,2,Pin_2*%
%TO.N,GND*%
X182840000Y-114300000D03*
%TD*%
D10*
%TO.P,REF\u002A\u002A,1*%
%TO.N,N/C*%
X195000000Y-51000000D03*
%TD*%
D15*
%TO.P,J1,1,Pin_1*%
%TO.N,NEUT*%
X77500000Y-67500000D03*
D16*
%TO.P,J1,2,Pin_2*%
%TO.N,PHASE_A*%
X77500000Y-72580000D03*
%TD*%
D17*
%TO.P,J3,1,Pin_1*%
%TO.N,OUTC2_E*%
X207800000Y-110440000D03*
D18*
%TO.P,J3,2,Pin_2*%
%TO.N,OUTC2_C*%
X207800000Y-105360000D03*
%TO.P,J3,3,Pin_3*%
%TO.N,OUTC1_E*%
X207800000Y-100280000D03*
%TO.P,J3,4,Pin_4*%
%TO.N,OUTC1_C*%
X207800000Y-95200000D03*
%TO.P,J3,5,Pin_5*%
%TO.N,OUTB2_E*%
X207800000Y-90120000D03*
%TO.P,J3,6,Pin_6*%
%TO.N,OUTB2_C*%
X207800000Y-85040000D03*
%TO.P,J3,7,Pin_7*%
%TO.N,OUTB1_E*%
X207800000Y-79960000D03*
%TO.P,J3,8,Pin_8*%
%TO.N,OUTB1_C*%
X207800000Y-74880000D03*
%TO.P,J3,9,Pin_9*%
%TO.N,OUTA2_E*%
X207800000Y-69800000D03*
%TO.P,J3,10,Pin_10*%
%TO.N,OUTA2_C*%
X207800000Y-64720000D03*
%TO.P,J3,11,Pin_11*%
%TO.N,OUTA1_E*%
X207800000Y-59640000D03*
%TO.P,J3,12,Pin_12*%
%TO.N,OUTA1_C*%
X207800000Y-54560000D03*
%TD*%
D13*
%TO.P,J4,1,Pin_1*%
%TO.N,Net-(J4-Pad1)*%
X170180000Y-114300000D03*
D14*
%TO.P,J4,2,Pin_2*%
%TO.N,GND*%
X172680000Y-114300000D03*
%TD*%
D15*
%TO.P,J2,1,Pin_1*%
%TO.N,PHASE_B*%
X77500000Y-92500000D03*
D16*
%TO.P,J2,2,Pin_2*%
%TO.N,PHASE_C*%
X77500000Y-97580000D03*
%TD*%
D19*
%TO.P,D11,1,K*%
%TO.N,Net-(D11-Pad1)*%
X169378000Y-97917000D03*
%TO.P,D11,2,A*%
%TO.N,GATE_C2*%
X164378000Y-97917000D03*
%TD*%
D20*
%TO.P,U12,1*%
%TO.N,Net-(R27-Pad1)*%
X182880000Y-96774000D03*
%TO.P,U12,2*%
%TO.N,GND*%
X182880000Y-94234000D03*
%TO.P,U12,3,NC*%
%TO.N,unconnected-(U12-Pad3)*%
X182880000Y-91694000D03*
%TO.P,U12,4*%
%TO.N,OUTC2_E*%
X191770000Y-91694000D03*
%TO.P,U12,5*%
%TO.N,OUTC2_C*%
X191770000Y-94234000D03*
%TO.P,U12,6*%
%TO.N,unconnected-(U12-Pad6)*%
X191770000Y-96774000D03*
%TD*%
D19*
%TO.P,D9,1,K*%
%TO.N,Net-(D9-Pad1)*%
X168870000Y-65151000D03*
%TO.P,D9,2,A*%
%TO.N,GATE_A2*%
X163870000Y-65151000D03*
%TD*%
D20*
%TO.P,U10,1*%
%TO.N,Net-(R25-Pad1)*%
X182753000Y-64770000D03*
%TO.P,U10,2*%
%TO.N,GND*%
X182753000Y-62230000D03*
%TO.P,U10,3,NC*%
%TO.N,unconnected-(U10-Pad3)*%
X182753000Y-59690000D03*
%TO.P,U10,4*%
%TO.N,OUTA2_E*%
X191643000Y-59690000D03*
%TO.P,U10,5*%
%TO.N,OUTA2_C*%
X191643000Y-62230000D03*
%TO.P,U10,6*%
%TO.N,unconnected-(U10-Pad6)*%
X191643000Y-64770000D03*
%TD*%
D21*
%TO.P,R27,1*%
%TO.N,Net-(R27-Pad1)*%
X177720000Y-97536000D03*
%TO.P,R27,2*%
%TO.N,Net-(D11-Pad1)*%
X175895000Y-97536000D03*
%TD*%
%TO.P,R25,1*%
%TO.N,Net-(R25-Pad1)*%
X177442500Y-64770000D03*
%TO.P,R25,2*%
%TO.N,Net-(D9-Pad1)*%
X175617500Y-64770000D03*
%TD*%
D20*
%TO.P,U8,1*%
%TO.N,Net-(R23-Pad1)*%
X182626000Y-80772000D03*
%TO.P,U8,2*%
%TO.N,GND*%
X182626000Y-78232000D03*
%TO.P,U8,3,NC*%
%TO.N,unconnected-(U8-Pad3)*%
X182626000Y-75692000D03*
%TO.P,U8,4*%
%TO.N,OUTB2_E*%
X191516000Y-75692000D03*
%TO.P,U8,5*%
%TO.N,OUTB2_C*%
X191516000Y-78232000D03*
%TO.P,U8,6*%
%TO.N,unconnected-(U8-Pad6)*%
X191516000Y-80772000D03*
%TD*%
D21*
%TO.P,R23,1*%
%TO.N,Net-(R23-Pad1)*%
X177085000Y-81280000D03*
%TO.P,R23,2*%
%TO.N,Net-(D7-Pad1)*%
X175260000Y-81280000D03*
%TD*%
D19*
%TO.P,D7,1,K*%
%TO.N,Net-(D7-Pad1)*%
X169164000Y-81407000D03*
%TO.P,D7,2,A*%
%TO.N,GATE_B2*%
X164164000Y-81407000D03*
%TD*%
D22*
%TO.N,GNDS*%
X99000000Y-50000000D03*
X108102400Y-82854800D03*
X102500000Y-50000000D03*
X87000000Y-88000000D03*
X95000000Y-74000000D03*
X91000000Y-87000000D03*
X106000000Y-50000000D03*
X94488000Y-104140000D03*
X102500000Y-47500000D03*
X106000000Y-53000000D03*
X99000000Y-53000000D03*
X114808000Y-80924400D03*
X100000000Y-89000000D03*
X99000000Y-47500000D03*
X102500000Y-53000000D03*
X114960400Y-68173600D03*
X91084400Y-80416400D03*
X106000000Y-47500000D03*
X108102400Y-93624400D03*
X115316000Y-92862400D03*
X114046000Y-45466000D03*
X92710000Y-45720000D03*
%TO.N,GATE_B1*%
X163576000Y-73152000D03*
%TO.N,Net-(D7-Pad1)*%
X169164000Y-85344000D03*
%TO.N,Net-(D9-Pad1)*%
X167640000Y-68580000D03*
%TO.N,GATE_B2*%
X157988000Y-77724000D03*
%TO.N,GATE_A2*%
X159004000Y-83820000D03*
X158496000Y-68072000D03*
%TO.N,GATE_C1*%
X160528000Y-94488000D03*
%TO.N,Net-(D11-Pad1)*%
X169164000Y-101600000D03*
%TO.N,TRIAC_MODE*%
X171704000Y-71628000D03*
X166624000Y-94996000D03*
X172720000Y-54356000D03*
X166116000Y-88392000D03*
X172720000Y-62484000D03*
X171704000Y-78232000D03*
%TO.N,GND*%
X128270000Y-72390000D03*
X128270000Y-97790000D03*
X128270000Y-85090000D03*
%TO.N,ZCD_A*%
X135890000Y-97790000D03*
X135890000Y-80010000D03*
%TO.N,ZCD_B*%
X134620000Y-87630000D03*
X144780000Y-105410000D03*
%TO.N,LED_USB*%
X150368000Y-94488000D03*
%TO.N,OUTB2_C*%
X195072000Y-86868000D03*
%TO.N,OUTA2_C*%
X192532000Y-69596000D03*
%TO.N,OUTC2_C*%
X192532000Y-105156000D03*
%TD*%
D23*
%TO.N,GATE_B1*%
X154940000Y-73660000D02*
X163068000Y-73660000D01*
X163068000Y-73660000D02*
X163576000Y-73152000D01*
%TO.N,Net-(D7-Pad1)*%
X169164000Y-85344000D02*
X169164000Y-81407000D01*
X169164000Y-81407000D02*
X175133000Y-81407000D01*
X175133000Y-81407000D02*
X175260000Y-81280000D01*
%TO.N,Net-(D9-Pad1)*%
X167640000Y-68580000D02*
X167640000Y-66381000D01*
X167640000Y-66381000D02*
X168870000Y-65151000D01*
X168870000Y-65151000D02*
X174879000Y-65151000D01*
X174879000Y-65151000D02*
X175260000Y-64770000D01*
%TO.N,GATE_B2*%
X161671000Y-81407000D02*
X164164000Y-81407000D01*
X157988000Y-77724000D02*
X161671000Y-81407000D01*
%TO.N,GATE_A2*%
X158496000Y-66548000D02*
X159893000Y-65151000D01*
X159893000Y-65151000D02*
X163870000Y-65151000D01*
X158496000Y-68072000D02*
X158496000Y-66548000D01*
X154940000Y-86360000D02*
X156464000Y-86360000D01*
X156464000Y-86360000D02*
X159004000Y-83820000D01*
%TO.N,GATE_C1*%
X150191370Y-110960000D02*
X157148630Y-110960000D01*
X157148630Y-110960000D02*
X160528000Y-107580630D01*
X160528000Y-107580630D02*
X160528000Y-94488000D01*
X147377685Y-99117685D02*
X147377685Y-108146315D01*
X139700000Y-91440000D02*
X147377685Y-99117685D01*
X147377685Y-108146315D02*
X150191370Y-110960000D01*
%TO.N,Net-(D11-Pad1)*%
X169378000Y-97917000D02*
X175514000Y-97917000D01*
X169164000Y-101600000D02*
X169164000Y-98131000D01*
X169164000Y-98131000D02*
X169378000Y-97917000D01*
X175514000Y-97917000D02*
X175895000Y-97536000D01*
%TO.N,GATE_C2*%
X164378000Y-104862000D02*
X164378000Y-97917000D01*
X139700000Y-93980000D02*
X146304000Y-100584000D01*
X146304000Y-108204000D02*
X149860000Y-111760000D01*
X157480000Y-111760000D02*
X164378000Y-104862000D01*
X146304000Y-100584000D02*
X146304000Y-108204000D01*
X149860000Y-111760000D02*
X157480000Y-111760000D01*
%TO.N,TRIAC_MODE*%
X172720000Y-54356000D02*
X172720000Y-62484000D01*
X166116000Y-88392000D02*
X166116000Y-94488000D01*
X166116000Y-94488000D02*
X166624000Y-94996000D01*
X171704000Y-71628000D02*
X171704000Y-78232000D01*
%TO.N,ZCD_A*%
X135890000Y-80010000D02*
X135890000Y-97790000D01*
%TO.N,ZCD_B*%
X134620000Y-87630000D02*
X134620000Y-105410000D01*
X143510000Y-106680000D02*
X144780000Y-105410000D01*
X134620000Y-105410000D02*
X135890000Y-106680000D01*
X142240000Y-106680000D02*
X143510000Y-106680000D01*
X135890000Y-106680000D02*
X142240000Y-106680000D01*
%TO.N,Net-(R23-Pad1)*%
X177085000Y-81280000D02*
X177593000Y-80772000D01*
X177593000Y-80772000D02*
X182626000Y-80772000D01*
%TO.N,Net-(R25-Pad1)*%
X177442500Y-64770000D02*
X182753000Y-64770000D01*
%TO.N,Net-(R27-Pad1)*%
X177720000Y-97536000D02*
X178482000Y-96774000D01*
X178482000Y-96774000D02*
X182880000Y-96774000D01*
%TO.N,LED_USB*%
X150368000Y-94488000D02*
X150368000Y-65532000D01*
X150368000Y-65532000D02*
X143256000Y-58420000D01*
X143256000Y-58420000D02*
X139700000Y-58420000D01*
D24*
%TO.N,OUTB2_E*%
X194066000Y-75692000D02*
X201168000Y-82794000D01*
X191516000Y-75692000D02*
X194066000Y-75692000D01*
X201168000Y-87884000D02*
X203404000Y-90120000D01*
X203404000Y-90120000D02*
X207800000Y-90120000D01*
X201168000Y-82794000D02*
X201168000Y-87884000D01*
%TO.N,OUTB2_C*%
X188468000Y-85344000D02*
X188468000Y-78740000D01*
X188468000Y-78740000D02*
X188976000Y-78232000D01*
X189992000Y-86868000D02*
X188468000Y-85344000D01*
X188976000Y-78232000D02*
X191516000Y-78232000D01*
X195072000Y-86868000D02*
X189992000Y-86868000D01*
%TO.N,OUTA2_E*%
X195580000Y-68072000D02*
X197308000Y-69800000D01*
X191643000Y-59690000D02*
X194310000Y-59690000D01*
X195580000Y-60960000D02*
X195580000Y-68072000D01*
X194310000Y-59690000D02*
X195580000Y-60960000D01*
X197308000Y-69800000D02*
X207800000Y-69800000D01*
%TO.N,OUTA2_C*%
X188468000Y-62992000D02*
X188468000Y-67564000D01*
X189230000Y-62230000D02*
X188468000Y-62992000D01*
X188468000Y-67564000D02*
X190500000Y-69596000D01*
X191643000Y-62230000D02*
X189230000Y-62230000D01*
X190500000Y-69596000D02*
X192532000Y-69596000D01*
%TO.N,OUTC2_E*%
X198628000Y-93980000D02*
X198628000Y-103632000D01*
X205436000Y-110440000D02*
X207800000Y-110440000D01*
X196342000Y-91694000D02*
X198628000Y-93980000D01*
X191770000Y-91694000D02*
X196342000Y-91694000D01*
X198628000Y-103632000D02*
X205436000Y-110440000D01*
%TO.N,OUTC2_C*%
X190160000Y-94234000D02*
X188468000Y-95926000D01*
X191516000Y-105156000D02*
X192532000Y-105156000D01*
X188468000Y-102108000D02*
X191516000Y-105156000D01*
X188468000Y-95926000D02*
X188468000Y-102108000D01*
X191770000Y-94234000D02*
X190160000Y-94234000D01*
%TD*%
%TA.AperFunction,Conductor*%
%TO.N,GNDS*%
G36*
X120942121Y-43028502D02*
G01*
X120988614Y-43082158D01*
X121000000Y-43134500D01*
X121000000Y-119365500D01*
X120979998Y-119433621D01*
X120926342Y-119480114D01*
X120874000Y-119491500D01*
X80049367Y-119491500D01*
X80029982Y-119490000D01*
X80015148Y-119487690D01*
X80015145Y-119487690D01*
X80006276Y-119486309D01*
X79997373Y-119487473D01*
X79997371Y-119487473D01*
X79984121Y-119489205D01*
X79963291Y-119490188D01*
X79505725Y-119473846D01*
X79496754Y-119473204D01*
X79009482Y-119420818D01*
X79000578Y-119419538D01*
X78596362Y-119346609D01*
X78518275Y-119332520D01*
X78509489Y-119330609D01*
X78034622Y-119209407D01*
X78026002Y-119206875D01*
X77560980Y-119052102D01*
X77552576Y-119048967D01*
X77248148Y-118922869D01*
X77099779Y-118861412D01*
X77091597Y-118857675D01*
X76653360Y-118638310D01*
X76645466Y-118634000D01*
X76223981Y-118383920D01*
X76216414Y-118379057D01*
X75813845Y-118099549D01*
X75806645Y-118094159D01*
X75425049Y-117786650D01*
X75418251Y-117780760D01*
X75059557Y-117446803D01*
X75053197Y-117440443D01*
X74719240Y-117081749D01*
X74713350Y-117074951D01*
X74405841Y-116693355D01*
X74400451Y-116686155D01*
X74120943Y-116283586D01*
X74116080Y-116276019D01*
X73866000Y-115854534D01*
X73861690Y-115846640D01*
X73642325Y-115408403D01*
X73638588Y-115400221D01*
X73451037Y-114947435D01*
X73447894Y-114939008D01*
X73355674Y-114661928D01*
X73293125Y-114473998D01*
X73290592Y-114465373D01*
X73169391Y-113990511D01*
X73167479Y-113981722D01*
X73080462Y-113499422D01*
X73079182Y-113490518D01*
X73026796Y-113003246D01*
X73026154Y-112994275D01*
X73010216Y-112548025D01*
X73011881Y-112522632D01*
X73012768Y-112517355D01*
X73013576Y-112512552D01*
X73013729Y-112500000D01*
X73009773Y-112472376D01*
X73008500Y-112454514D01*
X73008500Y-97558918D01*
X75486917Y-97558918D01*
X75502682Y-97832320D01*
X75503507Y-97836525D01*
X75503508Y-97836533D01*
X75514127Y-97890657D01*
X75555405Y-98101053D01*
X75556792Y-98105103D01*
X75556793Y-98105108D01*
X75577605Y-98165895D01*
X75644112Y-98360144D01*
X75767160Y-98604799D01*
X75769586Y-98608328D01*
X75769589Y-98608334D01*
X75919843Y-98826953D01*
X75922274Y-98830490D01*
X76106582Y-99033043D01*
X76316675Y-99208707D01*
X76320316Y-99210991D01*
X76545024Y-99351951D01*
X76545028Y-99351953D01*
X76548664Y-99354234D01*
X76616544Y-99384883D01*
X76794345Y-99465164D01*
X76794349Y-99465166D01*
X76798257Y-99466930D01*
X76802377Y-99468150D01*
X76802376Y-99468150D01*
X77056723Y-99543491D01*
X77056727Y-99543492D01*
X77060836Y-99544709D01*
X77065070Y-99545357D01*
X77065075Y-99545358D01*
X77327298Y-99585483D01*
X77327300Y-99585483D01*
X77331540Y-99586132D01*
X77470912Y-99588322D01*
X77601071Y-99590367D01*
X77601077Y-99590367D01*
X77605362Y-99590434D01*
X77877235Y-99557534D01*
X78142127Y-99488041D01*
X78146087Y-99486401D01*
X78146092Y-99486399D01*
X78268632Y-99435641D01*
X78395136Y-99383241D01*
X78631582Y-99245073D01*
X78847089Y-99076094D01*
X78888809Y-99033043D01*
X79034686Y-98882509D01*
X79037669Y-98879431D01*
X79040202Y-98875983D01*
X79040206Y-98875978D01*
X79197257Y-98662178D01*
X79199795Y-98658723D01*
X79227154Y-98608334D01*
X79328418Y-98421830D01*
X79328419Y-98421828D01*
X79330468Y-98418054D01*
X79427269Y-98161877D01*
X79488407Y-97894933D01*
X79512751Y-97622161D01*
X79513193Y-97580000D01*
X79494567Y-97306778D01*
X79439032Y-97038612D01*
X79347617Y-96780465D01*
X79222013Y-96537112D01*
X79212040Y-96522921D01*
X79067008Y-96316562D01*
X79064545Y-96313057D01*
X78878125Y-96112445D01*
X78874810Y-96109731D01*
X78874806Y-96109728D01*
X78669523Y-95941706D01*
X78666205Y-95938990D01*
X78432704Y-95795901D01*
X78428768Y-95794173D01*
X78185873Y-95687549D01*
X78185869Y-95687548D01*
X78181945Y-95685825D01*
X77918566Y-95610800D01*
X77914324Y-95610196D01*
X77914318Y-95610195D01*
X77713834Y-95581662D01*
X77647443Y-95572213D01*
X77503589Y-95571460D01*
X77377877Y-95570802D01*
X77377871Y-95570802D01*
X77373591Y-95570780D01*
X77369347Y-95571339D01*
X77369343Y-95571339D01*
X77250302Y-95587011D01*
X77102078Y-95606525D01*
X77097938Y-95607658D01*
X77097936Y-95607658D01*
X77025008Y-95627609D01*
X76837928Y-95678788D01*
X76833980Y-95680472D01*
X76589982Y-95784546D01*
X76589978Y-95784548D01*
X76586030Y-95786232D01*
X76566125Y-95798145D01*
X76354725Y-95924664D01*
X76354721Y-95924667D01*
X76351043Y-95926868D01*
X76137318Y-96098094D01*
X75948808Y-96296742D01*
X75789002Y-96519136D01*
X75660857Y-96761161D01*
X75659385Y-96765184D01*
X75659383Y-96765188D01*
X75652314Y-96784506D01*
X75566743Y-97018337D01*
X75508404Y-97285907D01*
X75486917Y-97558918D01*
X73008500Y-97558918D01*
X73008500Y-94048134D01*
X75491500Y-94048134D01*
X75498255Y-94110316D01*
X75549385Y-94246705D01*
X75636739Y-94363261D01*
X75753295Y-94450615D01*
X75889684Y-94501745D01*
X75951866Y-94508500D01*
X79048134Y-94508500D01*
X79110316Y-94501745D01*
X79246705Y-94450615D01*
X79363261Y-94363261D01*
X79450615Y-94246705D01*
X79501745Y-94110316D01*
X79508500Y-94048134D01*
X79508500Y-90951866D01*
X79501745Y-90889684D01*
X79450615Y-90753295D01*
X79363261Y-90636739D01*
X79246705Y-90549385D01*
X79110316Y-90498255D01*
X79048134Y-90491500D01*
X75951866Y-90491500D01*
X75889684Y-90498255D01*
X75753295Y-90549385D01*
X75636739Y-90636739D01*
X75549385Y-90753295D01*
X75498255Y-90889684D01*
X75491500Y-90951866D01*
X75491500Y-94048134D01*
X73008500Y-94048134D01*
X73008500Y-72558918D01*
X75486917Y-72558918D01*
X75502682Y-72832320D01*
X75503507Y-72836525D01*
X75503508Y-72836533D01*
X75514127Y-72890657D01*
X75555405Y-73101053D01*
X75556792Y-73105103D01*
X75556793Y-73105108D01*
X75577605Y-73165895D01*
X75644112Y-73360144D01*
X75767160Y-73604799D01*
X75769586Y-73608328D01*
X75769589Y-73608334D01*
X75919843Y-73826953D01*
X75922274Y-73830490D01*
X76106582Y-74033043D01*
X76316675Y-74208707D01*
X76320316Y-74210991D01*
X76545024Y-74351951D01*
X76545028Y-74351953D01*
X76548664Y-74354234D01*
X76616544Y-74384883D01*
X76794345Y-74465164D01*
X76794349Y-74465166D01*
X76798257Y-74466930D01*
X76802377Y-74468150D01*
X76802376Y-74468150D01*
X77056723Y-74543491D01*
X77056727Y-74543492D01*
X77060836Y-74544709D01*
X77065070Y-74545357D01*
X77065075Y-74545358D01*
X77327298Y-74585483D01*
X77327300Y-74585483D01*
X77331540Y-74586132D01*
X77470912Y-74588322D01*
X77601071Y-74590367D01*
X77601077Y-74590367D01*
X77605362Y-74590434D01*
X77877235Y-74557534D01*
X78142127Y-74488041D01*
X78146087Y-74486401D01*
X78146092Y-74486399D01*
X78268632Y-74435641D01*
X78395136Y-74383241D01*
X78631582Y-74245073D01*
X78847089Y-74076094D01*
X78888809Y-74033043D01*
X79034686Y-73882509D01*
X79037669Y-73879431D01*
X79040202Y-73875983D01*
X79040206Y-73875978D01*
X79197257Y-73662178D01*
X79199795Y-73658723D01*
X79227154Y-73608334D01*
X79328418Y-73421830D01*
X79328419Y-73421828D01*
X79330468Y-73418054D01*
X79427269Y-73161877D01*
X79488407Y-72894933D01*
X79512751Y-72622161D01*
X79513193Y-72580000D01*
X79494567Y-72306778D01*
X79439032Y-72038612D01*
X79347617Y-71780465D01*
X79222013Y-71537112D01*
X79212040Y-71522921D01*
X79067008Y-71316562D01*
X79064545Y-71313057D01*
X78878125Y-71112445D01*
X78874810Y-71109731D01*
X78874806Y-71109728D01*
X78669523Y-70941706D01*
X78666205Y-70938990D01*
X78432704Y-70795901D01*
X78428768Y-70794173D01*
X78185873Y-70687549D01*
X78185869Y-70687548D01*
X78181945Y-70685825D01*
X77918566Y-70610800D01*
X77914324Y-70610196D01*
X77914318Y-70610195D01*
X77713834Y-70581662D01*
X77647443Y-70572213D01*
X77503589Y-70571460D01*
X77377877Y-70570802D01*
X77377871Y-70570802D01*
X77373591Y-70570780D01*
X77369347Y-70571339D01*
X77369343Y-70571339D01*
X77250302Y-70587011D01*
X77102078Y-70606525D01*
X77097938Y-70607658D01*
X77097936Y-70607658D01*
X77025008Y-70627609D01*
X76837928Y-70678788D01*
X76833980Y-70680472D01*
X76589982Y-70784546D01*
X76589978Y-70784548D01*
X76586030Y-70786232D01*
X76566125Y-70798145D01*
X76354725Y-70924664D01*
X76354721Y-70924667D01*
X76351043Y-70926868D01*
X76137318Y-71098094D01*
X75948808Y-71296742D01*
X75789002Y-71519136D01*
X75660857Y-71761161D01*
X75659385Y-71765184D01*
X75659383Y-71765188D01*
X75652314Y-71784506D01*
X75566743Y-72018337D01*
X75508404Y-72285907D01*
X75486917Y-72558918D01*
X73008500Y-72558918D01*
X73008500Y-69048134D01*
X75491500Y-69048134D01*
X75498255Y-69110316D01*
X75549385Y-69246705D01*
X75636739Y-69363261D01*
X75753295Y-69450615D01*
X75889684Y-69501745D01*
X75951866Y-69508500D01*
X79048134Y-69508500D01*
X79110316Y-69501745D01*
X79246705Y-69450615D01*
X79363261Y-69363261D01*
X79450615Y-69246705D01*
X79501745Y-69110316D01*
X79508500Y-69048134D01*
X79508500Y-65951866D01*
X79501745Y-65889684D01*
X79450615Y-65753295D01*
X79363261Y-65636739D01*
X79246705Y-65549385D01*
X79110316Y-65498255D01*
X79048134Y-65491500D01*
X75951866Y-65491500D01*
X75889684Y-65498255D01*
X75753295Y-65549385D01*
X75636739Y-65636739D01*
X75549385Y-65753295D01*
X75498255Y-65889684D01*
X75491500Y-65951866D01*
X75491500Y-69048134D01*
X73008500Y-69048134D01*
X73008500Y-52553250D01*
X73010246Y-52532345D01*
X73012770Y-52517344D01*
X73012770Y-52517341D01*
X73013576Y-52512552D01*
X73013729Y-52500000D01*
X73010995Y-52480912D01*
X73009785Y-52459099D01*
X73011961Y-52389877D01*
X73023852Y-52011484D01*
X73027105Y-51907982D01*
X73027602Y-51900082D01*
X73082970Y-51314343D01*
X73083962Y-51306490D01*
X73085555Y-51296434D01*
X76686661Y-51296434D01*
X76704792Y-51654340D01*
X76705329Y-51657695D01*
X76705330Y-51657701D01*
X76710316Y-51688828D01*
X76761470Y-52008195D01*
X76856033Y-52353859D01*
X76987374Y-52687288D01*
X77153957Y-53004582D01*
X77155858Y-53007411D01*
X77155864Y-53007421D01*
X77339569Y-53280800D01*
X77353834Y-53302029D01*
X77584665Y-53576150D01*
X77843751Y-53823738D01*
X78128061Y-54041897D01*
X78160056Y-54061350D01*
X78431355Y-54226303D01*
X78431360Y-54226306D01*
X78434270Y-54228075D01*
X78437358Y-54229521D01*
X78437357Y-54229521D01*
X78755710Y-54378649D01*
X78755720Y-54378653D01*
X78758794Y-54380093D01*
X78762012Y-54381195D01*
X78762015Y-54381196D01*
X79094615Y-54495071D01*
X79094623Y-54495073D01*
X79097838Y-54496174D01*
X79447435Y-54574959D01*
X79499728Y-54580917D01*
X79800114Y-54615142D01*
X79800122Y-54615142D01*
X79803497Y-54615527D01*
X79806901Y-54615545D01*
X79806904Y-54615545D01*
X80001227Y-54616562D01*
X80161857Y-54617403D01*
X80165243Y-54617053D01*
X80165245Y-54617053D01*
X80514932Y-54580917D01*
X80514941Y-54580916D01*
X80518324Y-54580566D01*
X80521657Y-54579852D01*
X80521660Y-54579851D01*
X80694186Y-54542864D01*
X80868727Y-54505446D01*
X81208968Y-54392922D01*
X81535066Y-54244311D01*
X81629052Y-54188506D01*
X81840262Y-54063099D01*
X81840267Y-54063096D01*
X81843207Y-54061350D01*
X82129786Y-53846180D01*
X82391451Y-53601319D01*
X82625140Y-53329630D01*
X82731750Y-53174512D01*
X82826190Y-53037101D01*
X82826195Y-53037094D01*
X82828120Y-53034292D01*
X82829732Y-53031298D01*
X82829737Y-53031290D01*
X82996395Y-52721772D01*
X82998017Y-52718760D01*
X83132842Y-52386724D01*
X83143142Y-52350568D01*
X83163527Y-52279006D01*
X83231020Y-52042070D01*
X83291401Y-51688828D01*
X83293511Y-51654340D01*
X83313168Y-51332928D01*
X83313278Y-51331131D01*
X83313359Y-51308000D01*
X83293979Y-50950159D01*
X83236066Y-50596505D01*
X83140297Y-50251173D01*
X83137243Y-50243497D01*
X83009052Y-49921369D01*
X83007793Y-49918205D01*
X82977768Y-49861498D01*
X82841702Y-49604513D01*
X82841698Y-49604506D01*
X82840103Y-49601494D01*
X82639190Y-49304746D01*
X82407403Y-49031432D01*
X82147454Y-48784750D01*
X81862384Y-48567585D01*
X81859472Y-48565828D01*
X81859467Y-48565825D01*
X81558443Y-48384236D01*
X81558437Y-48384233D01*
X81555528Y-48382478D01*
X81230475Y-48231593D01*
X81060752Y-48174145D01*
X80894255Y-48117789D01*
X80894250Y-48117788D01*
X80891028Y-48116697D01*
X80692681Y-48072724D01*
X80544493Y-48039871D01*
X80544487Y-48039870D01*
X80541158Y-48039132D01*
X80537769Y-48038758D01*
X80537764Y-48038757D01*
X80188338Y-48000180D01*
X80188333Y-48000180D01*
X80184957Y-47999807D01*
X80181558Y-47999801D01*
X80181557Y-47999801D01*
X80012080Y-47999505D01*
X79826592Y-47999182D01*
X79713413Y-48011277D01*
X79473639Y-48036901D01*
X79473631Y-48036902D01*
X79470256Y-48037263D01*
X79120117Y-48113606D01*
X78780271Y-48227317D01*
X78777178Y-48228739D01*
X78777177Y-48228740D01*
X78770974Y-48231593D01*
X78454694Y-48377066D01*
X78147193Y-48561101D01*
X78144467Y-48563163D01*
X78144465Y-48563164D01*
X78138620Y-48567585D01*
X77861367Y-48777270D01*
X77600559Y-49023043D01*
X77367819Y-49295546D01*
X77365900Y-49298358D01*
X77365897Y-49298363D01*
X77315487Y-49372262D01*
X77165871Y-49591591D01*
X76997077Y-49907714D01*
X76863411Y-50240218D01*
X76862491Y-50243492D01*
X76862489Y-50243497D01*
X76860332Y-50251173D01*
X76766437Y-50585213D01*
X76707290Y-50938663D01*
X76686661Y-51296434D01*
X73085555Y-51296434D01*
X73095640Y-51232762D01*
X73176002Y-50725376D01*
X73177485Y-50717608D01*
X73305832Y-50143418D01*
X73307800Y-50135751D01*
X73471942Y-49570767D01*
X73474388Y-49563239D01*
X73543144Y-49372262D01*
X73673690Y-49009656D01*
X73676592Y-49002328D01*
X73910267Y-48462337D01*
X73913623Y-48455205D01*
X74180737Y-47930964D01*
X74184550Y-47924028D01*
X74484047Y-47417606D01*
X74488289Y-47410923D01*
X74818996Y-46924302D01*
X74823649Y-46917898D01*
X75184243Y-46453024D01*
X75189288Y-46446925D01*
X75578380Y-46005586D01*
X75583799Y-45999816D01*
X75999816Y-45583799D01*
X76005586Y-45578380D01*
X76446925Y-45189288D01*
X76453024Y-45184243D01*
X76917898Y-44823649D01*
X76924302Y-44818996D01*
X77410923Y-44488289D01*
X77417606Y-44484047D01*
X77924028Y-44184550D01*
X77930964Y-44180737D01*
X78016432Y-44137189D01*
X78455205Y-43913623D01*
X78462337Y-43910267D01*
X79002328Y-43676592D01*
X79009656Y-43673690D01*
X79563252Y-43474384D01*
X79570755Y-43471946D01*
X79865108Y-43386429D01*
X80135751Y-43307800D01*
X80143418Y-43305832D01*
X80717608Y-43177485D01*
X80725376Y-43176002D01*
X81306499Y-43083961D01*
X81314334Y-43082971D01*
X81564484Y-43059325D01*
X81900082Y-43027602D01*
X81907982Y-43027105D01*
X82455300Y-43009905D01*
X82478642Y-43011343D01*
X82484850Y-43012310D01*
X82484855Y-43012310D01*
X82493724Y-43013691D01*
X82502626Y-43012527D01*
X82502628Y-43012527D01*
X82517677Y-43010559D01*
X82525286Y-43009564D01*
X82541621Y-43008500D01*
X120874000Y-43008500D01*
X120942121Y-43028502D01*
G37*
%TD.AperFunction*%
%TD*%
%TA.AperFunction,Conductor*%
%TO.N,GND*%
G36*
X187442121Y-43028502D02*
G01*
X187488614Y-43082158D01*
X187500000Y-43134500D01*
X187500000Y-62688554D01*
X187494102Y-62726653D01*
X187476765Y-62781306D01*
X187476171Y-62786602D01*
X187474613Y-62791698D01*
X187468098Y-62855840D01*
X187465218Y-62884187D01*
X187465089Y-62885393D01*
X187459500Y-62935227D01*
X187459500Y-62938754D01*
X187459445Y-62939739D01*
X187458998Y-62945419D01*
X187454626Y-62988462D01*
X187455206Y-62994593D01*
X187458941Y-63034109D01*
X187459500Y-63045967D01*
X187459500Y-67502157D01*
X187458763Y-67515764D01*
X187454676Y-67553388D01*
X187455213Y-67559523D01*
X187459050Y-67603388D01*
X187459379Y-67608214D01*
X187459500Y-67610686D01*
X187459500Y-67613769D01*
X187459801Y-67616837D01*
X187463690Y-67656506D01*
X187463812Y-67657819D01*
X187471913Y-67750413D01*
X187473400Y-67755532D01*
X187473920Y-67760833D01*
X187494624Y-67829409D01*
X187500000Y-67865820D01*
X187500000Y-78436554D01*
X187494102Y-78474653D01*
X187489590Y-78488876D01*
X187476765Y-78529306D01*
X187476171Y-78534602D01*
X187474613Y-78539698D01*
X187469220Y-78592794D01*
X187465218Y-78632187D01*
X187465089Y-78633393D01*
X187459500Y-78683227D01*
X187459500Y-78686754D01*
X187459445Y-78687739D01*
X187458998Y-78693419D01*
X187454626Y-78736462D01*
X187455206Y-78742593D01*
X187458941Y-78782109D01*
X187459500Y-78793967D01*
X187459500Y-85282157D01*
X187458763Y-85295764D01*
X187454676Y-85333388D01*
X187455637Y-85344369D01*
X187459050Y-85383388D01*
X187459379Y-85388214D01*
X187459500Y-85390686D01*
X187459500Y-85393769D01*
X187459801Y-85396837D01*
X187463690Y-85436506D01*
X187463812Y-85437819D01*
X187471913Y-85530413D01*
X187473400Y-85535532D01*
X187473920Y-85540833D01*
X187494624Y-85609409D01*
X187500000Y-85645820D01*
X187500000Y-95622554D01*
X187494102Y-95660653D01*
X187478628Y-95709433D01*
X187476765Y-95715306D01*
X187476171Y-95720602D01*
X187474613Y-95725698D01*
X187473990Y-95731834D01*
X187465218Y-95818187D01*
X187465089Y-95819393D01*
X187459500Y-95869227D01*
X187459500Y-95872754D01*
X187459445Y-95873739D01*
X187458998Y-95879419D01*
X187454626Y-95922462D01*
X187455206Y-95928593D01*
X187458941Y-95968109D01*
X187459500Y-95979967D01*
X187459500Y-102046157D01*
X187458763Y-102059764D01*
X187454676Y-102097388D01*
X187455213Y-102103523D01*
X187459050Y-102147388D01*
X187459379Y-102152214D01*
X187459500Y-102154686D01*
X187459500Y-102157769D01*
X187459801Y-102160837D01*
X187463690Y-102200506D01*
X187463812Y-102201819D01*
X187471913Y-102294413D01*
X187473400Y-102299532D01*
X187473920Y-102304833D01*
X187494624Y-102373409D01*
X187500000Y-102409820D01*
X187500000Y-119365500D01*
X187479998Y-119433621D01*
X187426342Y-119480114D01*
X187374000Y-119491500D01*
X124126000Y-119491500D01*
X124057879Y-119471498D01*
X124011386Y-119417842D01*
X124000000Y-119365500D01*
X124000000Y-115100400D01*
X168821500Y-115100400D01*
X168832474Y-115206166D01*
X168888450Y-115373946D01*
X168981522Y-115524348D01*
X169106697Y-115649305D01*
X169112927Y-115653145D01*
X169112928Y-115653146D01*
X169250090Y-115737694D01*
X169257262Y-115742115D01*
X169300701Y-115756523D01*
X169418611Y-115795632D01*
X169418613Y-115795632D01*
X169425139Y-115797797D01*
X169431975Y-115798497D01*
X169431978Y-115798498D01*
X169475031Y-115802909D01*
X169529600Y-115808500D01*
X170830400Y-115808500D01*
X170833646Y-115808163D01*
X170833650Y-115808163D01*
X170929308Y-115798238D01*
X170929312Y-115798237D01*
X170936166Y-115797526D01*
X170942702Y-115795345D01*
X170942704Y-115795345D01*
X171074806Y-115751272D01*
X171103946Y-115741550D01*
X171254348Y-115648478D01*
X171379305Y-115523303D01*
X171469353Y-115377220D01*
X171522124Y-115329727D01*
X171592196Y-115318303D01*
X171657320Y-115346577D01*
X171667782Y-115356364D01*
X171773234Y-115466906D01*
X171781186Y-115473941D01*
X171957525Y-115605141D01*
X171966562Y-115610745D01*
X172162484Y-115710357D01*
X172172335Y-115714357D01*
X172382240Y-115779534D01*
X172392624Y-115781817D01*
X172408043Y-115783861D01*
X172422207Y-115781665D01*
X172426000Y-115768478D01*
X172426000Y-115766192D01*
X172934000Y-115766192D01*
X172937973Y-115779723D01*
X172948580Y-115781248D01*
X173066421Y-115756523D01*
X173076617Y-115753463D01*
X173281029Y-115672737D01*
X173290561Y-115668006D01*
X173478462Y-115553984D01*
X173487052Y-115547720D01*
X173653052Y-115403673D01*
X173660472Y-115396042D01*
X173799826Y-115226089D01*
X173805850Y-115217322D01*
X173872406Y-115100400D01*
X178981500Y-115100400D01*
X178992474Y-115206166D01*
X179048450Y-115373946D01*
X179141522Y-115524348D01*
X179266697Y-115649305D01*
X179272927Y-115653145D01*
X179272928Y-115653146D01*
X179410090Y-115737694D01*
X179417262Y-115742115D01*
X179460701Y-115756523D01*
X179578611Y-115795632D01*
X179578613Y-115795632D01*
X179585139Y-115797797D01*
X179591975Y-115798497D01*
X179591978Y-115798498D01*
X179635031Y-115802909D01*
X179689600Y-115808500D01*
X180990400Y-115808500D01*
X180993646Y-115808163D01*
X180993650Y-115808163D01*
X181089308Y-115798238D01*
X181089312Y-115798237D01*
X181096166Y-115797526D01*
X181102702Y-115795345D01*
X181102704Y-115795345D01*
X181234806Y-115751272D01*
X181263946Y-115741550D01*
X181414348Y-115648478D01*
X181539305Y-115523303D01*
X181629353Y-115377220D01*
X181682124Y-115329727D01*
X181752196Y-115318303D01*
X181817320Y-115346577D01*
X181827782Y-115356364D01*
X181933234Y-115466906D01*
X181941186Y-115473941D01*
X182117525Y-115605141D01*
X182126562Y-115610745D01*
X182322484Y-115710357D01*
X182332335Y-115714357D01*
X182542240Y-115779534D01*
X182552624Y-115781817D01*
X182568043Y-115783861D01*
X182582207Y-115781665D01*
X182586000Y-115768478D01*
X182586000Y-115766192D01*
X183094000Y-115766192D01*
X183097973Y-115779723D01*
X183108580Y-115781248D01*
X183226421Y-115756523D01*
X183236617Y-115753463D01*
X183441029Y-115672737D01*
X183450561Y-115668006D01*
X183638462Y-115553984D01*
X183647052Y-115547720D01*
X183813052Y-115403673D01*
X183820472Y-115396042D01*
X183959826Y-115226089D01*
X183965850Y-115217322D01*
X184074576Y-115026318D01*
X184079041Y-115016654D01*
X184154031Y-114810059D01*
X184156802Y-114799792D01*
X184196123Y-114582345D01*
X184197056Y-114574116D01*
X184197268Y-114569624D01*
X184193525Y-114556876D01*
X184192135Y-114555671D01*
X184184452Y-114554000D01*
X183112115Y-114554000D01*
X183096876Y-114558475D01*
X183095671Y-114559865D01*
X183094000Y-114567548D01*
X183094000Y-115766192D01*
X182586000Y-115766192D01*
X182586000Y-114027885D01*
X183094000Y-114027885D01*
X183098475Y-114043124D01*
X183099865Y-114044329D01*
X183107548Y-114046000D01*
X184175970Y-114046000D01*
X184190648Y-114041690D01*
X184192711Y-114029807D01*
X184183876Y-113925675D01*
X184182086Y-113915203D01*
X184126870Y-113702465D01*
X184123335Y-113692425D01*
X184033063Y-113492030D01*
X184027894Y-113482744D01*
X183905150Y-113300425D01*
X183898481Y-113292130D01*
X183746772Y-113133100D01*
X183738814Y-113126059D01*
X183562475Y-112994859D01*
X183553438Y-112989255D01*
X183357516Y-112889643D01*
X183347665Y-112885643D01*
X183137760Y-112820466D01*
X183127376Y-112818183D01*
X183111957Y-112816139D01*
X183097793Y-112818335D01*
X183094000Y-112831522D01*
X183094000Y-114027885D01*
X182586000Y-114027885D01*
X182586000Y-112833808D01*
X182582027Y-112820277D01*
X182571420Y-112818752D01*
X182453579Y-112843477D01*
X182443383Y-112846537D01*
X182238971Y-112927263D01*
X182229439Y-112931994D01*
X182041538Y-113046016D01*
X182032948Y-113052280D01*
X181866948Y-113196327D01*
X181859530Y-113203956D01*
X181833609Y-113235569D01*
X181774949Y-113275564D01*
X181703979Y-113277496D01*
X181643230Y-113240752D01*
X181629030Y-113221982D01*
X181542332Y-113081880D01*
X181538478Y-113075652D01*
X181413303Y-112950695D01*
X181382965Y-112931994D01*
X181268968Y-112861725D01*
X181268966Y-112861724D01*
X181262738Y-112857885D01*
X181143498Y-112818335D01*
X181101389Y-112804368D01*
X181101387Y-112804368D01*
X181094861Y-112802203D01*
X181088025Y-112801503D01*
X181088022Y-112801502D01*
X181044969Y-112797091D01*
X180990400Y-112791500D01*
X179689600Y-112791500D01*
X179686354Y-112791837D01*
X179686350Y-112791837D01*
X179590692Y-112801762D01*
X179590688Y-112801763D01*
X179583834Y-112802474D01*
X179577298Y-112804655D01*
X179577296Y-112804655D01*
X179445194Y-112848728D01*
X179416054Y-112858450D01*
X179265652Y-112951522D01*
X179140695Y-113076697D01*
X179136855Y-113082927D01*
X179136854Y-113082928D01*
X179066954Y-113196327D01*
X179047885Y-113227262D01*
X178992203Y-113395139D01*
X178981500Y-113499600D01*
X178981500Y-115100400D01*
X173872406Y-115100400D01*
X173914576Y-115026318D01*
X173919041Y-115016654D01*
X173994031Y-114810059D01*
X173996802Y-114799792D01*
X174036123Y-114582345D01*
X174037056Y-114574116D01*
X174037268Y-114569624D01*
X174033525Y-114556876D01*
X174032135Y-114555671D01*
X174024452Y-114554000D01*
X172952115Y-114554000D01*
X172936876Y-114558475D01*
X172935671Y-114559865D01*
X172934000Y-114567548D01*
X172934000Y-115766192D01*
X172426000Y-115766192D01*
X172426000Y-114027885D01*
X172934000Y-114027885D01*
X172938475Y-114043124D01*
X172939865Y-114044329D01*
X172947548Y-114046000D01*
X174015970Y-114046000D01*
X174030648Y-114041690D01*
X174032711Y-114029807D01*
X174023876Y-113925675D01*
X174022086Y-113915203D01*
X173966870Y-113702465D01*
X173963335Y-113692425D01*
X173873063Y-113492030D01*
X173867894Y-113482744D01*
X173745150Y-113300425D01*
X173738481Y-113292130D01*
X173586772Y-113133100D01*
X173578814Y-113126059D01*
X173402475Y-112994859D01*
X173393438Y-112989255D01*
X173197516Y-112889643D01*
X173187665Y-112885643D01*
X172977760Y-112820466D01*
X172967376Y-112818183D01*
X172951957Y-112816139D01*
X172937793Y-112818335D01*
X172934000Y-112831522D01*
X172934000Y-114027885D01*
X172426000Y-114027885D01*
X172426000Y-112833808D01*
X172422027Y-112820277D01*
X172411420Y-112818752D01*
X172293579Y-112843477D01*
X172283383Y-112846537D01*
X172078971Y-112927263D01*
X172069439Y-112931994D01*
X171881538Y-113046016D01*
X171872948Y-113052280D01*
X171706948Y-113196327D01*
X171699530Y-113203956D01*
X171673609Y-113235569D01*
X171614949Y-113275564D01*
X171543979Y-113277496D01*
X171483230Y-113240752D01*
X171469030Y-113221982D01*
X171382332Y-113081880D01*
X171378478Y-113075652D01*
X171253303Y-112950695D01*
X171222965Y-112931994D01*
X171108968Y-112861725D01*
X171108966Y-112861724D01*
X171102738Y-112857885D01*
X170983498Y-112818335D01*
X170941389Y-112804368D01*
X170941387Y-112804368D01*
X170934861Y-112802203D01*
X170928025Y-112801503D01*
X170928022Y-112801502D01*
X170884969Y-112797091D01*
X170830400Y-112791500D01*
X169529600Y-112791500D01*
X169526354Y-112791837D01*
X169526350Y-112791837D01*
X169430692Y-112801762D01*
X169430688Y-112801763D01*
X169423834Y-112802474D01*
X169417298Y-112804655D01*
X169417296Y-112804655D01*
X169285194Y-112848728D01*
X169256054Y-112858450D01*
X169105652Y-112951522D01*
X168980695Y-113076697D01*
X168976855Y-113082927D01*
X168976854Y-113082928D01*
X168906954Y-113196327D01*
X168887885Y-113227262D01*
X168832203Y-113395139D01*
X168821500Y-113499600D01*
X168821500Y-115100400D01*
X124000000Y-115100400D01*
X124000000Y-87630000D01*
X133706496Y-87630000D01*
X133707186Y-87636565D01*
X133720381Y-87762104D01*
X133726458Y-87819928D01*
X133785473Y-88001556D01*
X133788776Y-88007278D01*
X133788777Y-88007279D01*
X133808903Y-88042138D01*
X133880960Y-88166944D01*
X133885379Y-88171852D01*
X133887436Y-88174683D01*
X133911295Y-88241551D01*
X133911500Y-88248744D01*
X133911500Y-105381088D01*
X133911208Y-105389658D01*
X133909878Y-105409174D01*
X133907275Y-105447352D01*
X133908580Y-105454829D01*
X133908580Y-105454830D01*
X133918261Y-105510299D01*
X133919223Y-105516821D01*
X133926898Y-105580242D01*
X133929581Y-105587343D01*
X133930222Y-105589952D01*
X133934685Y-105606262D01*
X133935450Y-105608798D01*
X133936757Y-105616284D01*
X133939811Y-105623241D01*
X133962442Y-105674795D01*
X133964933Y-105680899D01*
X133987513Y-105740656D01*
X133991817Y-105746919D01*
X133993054Y-105749285D01*
X134001299Y-105764097D01*
X134002632Y-105766351D01*
X134005685Y-105773305D01*
X134010307Y-105779328D01*
X134044579Y-105823991D01*
X134048459Y-105829332D01*
X134080339Y-105875720D01*
X134080344Y-105875725D01*
X134084643Y-105881981D01*
X134090313Y-105887032D01*
X134090314Y-105887034D01*
X134131170Y-105923435D01*
X134136446Y-105928416D01*
X135368557Y-107160528D01*
X135374411Y-107166793D01*
X135412439Y-107210385D01*
X135464729Y-107247136D01*
X135469971Y-107251028D01*
X135520282Y-107290476D01*
X135527201Y-107293600D01*
X135529493Y-107294988D01*
X135544165Y-107303357D01*
X135546525Y-107304622D01*
X135552739Y-107308990D01*
X135559818Y-107311750D01*
X135559820Y-107311751D01*
X135612275Y-107332202D01*
X135618344Y-107334753D01*
X135676573Y-107361045D01*
X135684046Y-107362430D01*
X135686612Y-107363234D01*
X135702835Y-107367855D01*
X135705427Y-107368520D01*
X135712509Y-107371282D01*
X135720044Y-107372274D01*
X135775861Y-107379622D01*
X135782377Y-107380654D01*
X135820770Y-107387770D01*
X135845186Y-107392295D01*
X135852766Y-107391858D01*
X135852767Y-107391858D01*
X135907380Y-107388709D01*
X135914633Y-107388500D01*
X143481088Y-107388500D01*
X143489658Y-107388792D01*
X143539776Y-107392209D01*
X143539780Y-107392209D01*
X143547352Y-107392725D01*
X143554829Y-107391420D01*
X143554830Y-107391420D01*
X143581308Y-107386799D01*
X143610303Y-107381738D01*
X143616821Y-107380777D01*
X143680242Y-107373102D01*
X143687343Y-107370419D01*
X143689952Y-107369778D01*
X143706262Y-107365315D01*
X143708798Y-107364550D01*
X143716284Y-107363243D01*
X143774800Y-107337556D01*
X143780904Y-107335065D01*
X143833548Y-107315173D01*
X143833549Y-107315172D01*
X143840656Y-107312487D01*
X143846919Y-107308183D01*
X143849285Y-107306946D01*
X143864097Y-107298701D01*
X143866351Y-107297368D01*
X143873305Y-107294315D01*
X143924002Y-107255413D01*
X143929332Y-107251541D01*
X143975720Y-107219661D01*
X143975725Y-107219656D01*
X143981981Y-107215357D01*
X144023427Y-107168839D01*
X144028408Y-107163562D01*
X144846536Y-106345435D01*
X144909433Y-106311284D01*
X145062288Y-106278794D01*
X145068319Y-106276109D01*
X145230722Y-106203803D01*
X145230724Y-106203802D01*
X145236752Y-106201118D01*
X145256139Y-106187033D01*
X145391253Y-106088866D01*
X145392126Y-106090068D01*
X145449199Y-106062679D01*
X145519652Y-106071444D01*
X145574183Y-106116908D01*
X145595500Y-106187033D01*
X145595500Y-108175088D01*
X145595208Y-108183658D01*
X145591275Y-108241352D01*
X145592580Y-108248829D01*
X145592580Y-108248830D01*
X145602261Y-108304299D01*
X145603223Y-108310821D01*
X145610898Y-108374242D01*
X145613581Y-108381343D01*
X145614222Y-108383952D01*
X145618685Y-108400262D01*
X145619450Y-108402798D01*
X145620757Y-108410284D01*
X145623811Y-108417241D01*
X145646442Y-108468795D01*
X145648933Y-108474899D01*
X145671513Y-108534656D01*
X145675817Y-108540919D01*
X145677054Y-108543285D01*
X145685299Y-108558097D01*
X145686632Y-108560351D01*
X145689685Y-108567305D01*
X145694307Y-108573328D01*
X145728579Y-108617991D01*
X145732459Y-108623332D01*
X145764339Y-108669720D01*
X145764344Y-108669725D01*
X145768643Y-108675981D01*
X145774313Y-108681032D01*
X145774314Y-108681034D01*
X145815170Y-108717435D01*
X145820446Y-108722416D01*
X149338557Y-112240528D01*
X149344411Y-112246793D01*
X149382439Y-112290385D01*
X149434729Y-112327136D01*
X149439971Y-112331028D01*
X149490282Y-112370476D01*
X149497201Y-112373600D01*
X149499493Y-112374988D01*
X149514165Y-112383357D01*
X149516525Y-112384622D01*
X149522739Y-112388990D01*
X149529818Y-112391750D01*
X149529820Y-112391751D01*
X149582275Y-112412202D01*
X149588344Y-112414753D01*
X149646573Y-112441045D01*
X149654046Y-112442430D01*
X149656612Y-112443234D01*
X149672835Y-112447855D01*
X149675427Y-112448520D01*
X149682509Y-112451282D01*
X149690044Y-112452274D01*
X149745861Y-112459622D01*
X149752377Y-112460654D01*
X149790770Y-112467770D01*
X149815186Y-112472295D01*
X149822766Y-112471858D01*
X149822767Y-112471858D01*
X149877380Y-112468709D01*
X149884633Y-112468500D01*
X157451088Y-112468500D01*
X157459658Y-112468792D01*
X157509776Y-112472209D01*
X157509780Y-112472209D01*
X157517352Y-112472725D01*
X157524829Y-112471420D01*
X157524830Y-112471420D01*
X157551308Y-112466799D01*
X157580303Y-112461738D01*
X157586821Y-112460777D01*
X157650242Y-112453102D01*
X157657343Y-112450419D01*
X157659952Y-112449778D01*
X157676262Y-112445315D01*
X157678798Y-112444550D01*
X157686284Y-112443243D01*
X157744800Y-112417556D01*
X157750904Y-112415065D01*
X157803548Y-112395173D01*
X157803549Y-112395172D01*
X157810656Y-112392487D01*
X157816919Y-112388183D01*
X157819285Y-112386946D01*
X157834097Y-112378701D01*
X157836351Y-112377368D01*
X157843305Y-112374315D01*
X157894002Y-112335413D01*
X157899332Y-112331541D01*
X157945720Y-112299661D01*
X157945725Y-112299656D01*
X157951981Y-112295357D01*
X157993436Y-112248829D01*
X157998416Y-112243554D01*
X164858528Y-105383443D01*
X164864793Y-105377589D01*
X164902664Y-105344552D01*
X164902665Y-105344551D01*
X164908385Y-105339561D01*
X164945136Y-105287271D01*
X164949028Y-105282029D01*
X164988476Y-105231718D01*
X164991600Y-105224799D01*
X164992988Y-105222507D01*
X165001357Y-105207835D01*
X165002622Y-105205475D01*
X165006990Y-105199261D01*
X165012874Y-105184171D01*
X165030202Y-105139725D01*
X165032759Y-105133642D01*
X165055918Y-105082352D01*
X165059045Y-105075427D01*
X165060430Y-105067954D01*
X165061234Y-105065388D01*
X165065855Y-105049165D01*
X165066520Y-105046573D01*
X165069282Y-105039491D01*
X165077622Y-104976139D01*
X165078654Y-104969623D01*
X165088911Y-104914281D01*
X165090295Y-104906814D01*
X165086709Y-104844620D01*
X165086500Y-104837367D01*
X165086500Y-99451500D01*
X165106502Y-99383379D01*
X165160158Y-99336886D01*
X165212500Y-99325500D01*
X166176134Y-99325500D01*
X166238316Y-99318745D01*
X166374705Y-99267615D01*
X166491261Y-99180261D01*
X166578615Y-99063705D01*
X166629745Y-98927316D01*
X166636500Y-98865134D01*
X167119500Y-98865134D01*
X167126255Y-98927316D01*
X167177385Y-99063705D01*
X167264739Y-99180261D01*
X167381295Y-99267615D01*
X167517684Y-99318745D01*
X167579866Y-99325500D01*
X168329500Y-99325500D01*
X168397621Y-99345502D01*
X168444114Y-99399158D01*
X168455500Y-99451500D01*
X168455500Y-100981256D01*
X168435498Y-101049377D01*
X168431436Y-101055317D01*
X168429379Y-101058148D01*
X168424960Y-101063056D01*
X168329473Y-101228444D01*
X168270458Y-101410072D01*
X168250496Y-101600000D01*
X168251186Y-101606565D01*
X168257844Y-101669908D01*
X168270458Y-101789928D01*
X168329473Y-101971556D01*
X168332776Y-101977278D01*
X168332777Y-101977279D01*
X168352982Y-102012275D01*
X168424960Y-102136944D01*
X168429378Y-102141851D01*
X168429379Y-102141852D01*
X168490382Y-102209603D01*
X168552747Y-102278866D01*
X168590120Y-102306019D01*
X168661422Y-102357823D01*
X168707248Y-102391118D01*
X168713276Y-102393802D01*
X168713278Y-102393803D01*
X168875681Y-102466109D01*
X168881712Y-102468794D01*
X168954831Y-102484336D01*
X169062056Y-102507128D01*
X169062061Y-102507128D01*
X169068513Y-102508500D01*
X169259487Y-102508500D01*
X169265939Y-102507128D01*
X169265944Y-102507128D01*
X169373169Y-102484336D01*
X169446288Y-102468794D01*
X169452319Y-102466109D01*
X169614722Y-102393803D01*
X169614724Y-102393802D01*
X169620752Y-102391118D01*
X169666579Y-102357823D01*
X169737880Y-102306019D01*
X169775253Y-102278866D01*
X169837618Y-102209603D01*
X169898621Y-102141852D01*
X169898622Y-102141851D01*
X169903040Y-102136944D01*
X169975018Y-102012275D01*
X169995223Y-101977279D01*
X169995224Y-101977278D01*
X169998527Y-101971556D01*
X170057542Y-101789928D01*
X170070157Y-101669908D01*
X170076814Y-101606565D01*
X170077504Y-101600000D01*
X170057542Y-101410072D01*
X169998527Y-101228444D01*
X169903040Y-101063056D01*
X169898621Y-101058148D01*
X169896564Y-101055317D01*
X169872705Y-100988449D01*
X169872500Y-100981256D01*
X169872500Y-99451500D01*
X169892502Y-99383379D01*
X169946158Y-99336886D01*
X169998500Y-99325500D01*
X171176134Y-99325500D01*
X171238316Y-99318745D01*
X171374705Y-99267615D01*
X171491261Y-99180261D01*
X171578615Y-99063705D01*
X171629745Y-98927316D01*
X171636500Y-98865134D01*
X171636500Y-98751500D01*
X171656502Y-98683379D01*
X171710158Y-98636886D01*
X171762500Y-98625500D01*
X175188691Y-98625500D01*
X175254807Y-98644240D01*
X175302590Y-98673694D01*
X175309762Y-98678115D01*
X175325633Y-98683379D01*
X175471111Y-98731632D01*
X175471113Y-98731632D01*
X175477639Y-98733797D01*
X175484475Y-98734497D01*
X175484478Y-98734498D01*
X175527531Y-98738909D01*
X175582100Y-98744500D01*
X176207900Y-98744500D01*
X176211146Y-98744163D01*
X176211150Y-98744163D01*
X176306808Y-98734238D01*
X176306812Y-98734237D01*
X176313666Y-98733526D01*
X176320202Y-98731345D01*
X176320204Y-98731345D01*
X176463974Y-98683379D01*
X176481446Y-98677550D01*
X176631848Y-98584478D01*
X176718284Y-98497891D01*
X176780566Y-98463812D01*
X176851386Y-98468815D01*
X176896476Y-98497736D01*
X176984197Y-98585305D01*
X176990427Y-98589145D01*
X176990428Y-98589146D01*
X177127590Y-98673694D01*
X177134762Y-98678115D01*
X177150633Y-98683379D01*
X177296111Y-98731632D01*
X177296113Y-98731632D01*
X177302639Y-98733797D01*
X177309475Y-98734497D01*
X177309478Y-98734498D01*
X177352531Y-98738909D01*
X177407100Y-98744500D01*
X178032900Y-98744500D01*
X178036146Y-98744163D01*
X178036150Y-98744163D01*
X178131808Y-98734238D01*
X178131812Y-98734237D01*
X178138666Y-98733526D01*
X178145202Y-98731345D01*
X178145204Y-98731345D01*
X178288974Y-98683379D01*
X178306446Y-98677550D01*
X178456848Y-98584478D01*
X178581805Y-98459303D01*
X178674615Y-98308738D01*
X178708555Y-98206411D01*
X178728132Y-98147389D01*
X178728132Y-98147387D01*
X178730297Y-98140861D01*
X178741000Y-98036400D01*
X178741000Y-97608500D01*
X178761002Y-97540379D01*
X178814658Y-97493886D01*
X178867000Y-97482500D01*
X180695500Y-97482500D01*
X180763621Y-97502502D01*
X180810114Y-97556158D01*
X180821500Y-97608500D01*
X180821500Y-97622134D01*
X180828255Y-97684316D01*
X180879385Y-97820705D01*
X180966739Y-97937261D01*
X181083295Y-98024615D01*
X181219684Y-98075745D01*
X181281866Y-98082500D01*
X184478134Y-98082500D01*
X184540316Y-98075745D01*
X184676705Y-98024615D01*
X184793261Y-97937261D01*
X184880615Y-97820705D01*
X184931745Y-97684316D01*
X184938500Y-97622134D01*
X184938500Y-95925866D01*
X184931745Y-95863684D01*
X184880615Y-95727295D01*
X184793261Y-95610739D01*
X184784955Y-95604514D01*
X184784119Y-95603396D01*
X184779731Y-95599008D01*
X184780364Y-95598375D01*
X184742440Y-95547655D01*
X184737414Y-95476836D01*
X184771474Y-95414543D01*
X184784950Y-95402865D01*
X184785725Y-95402284D01*
X184798285Y-95389724D01*
X184874786Y-95287649D01*
X184883324Y-95272054D01*
X184928478Y-95151606D01*
X184932105Y-95136351D01*
X184937631Y-95085486D01*
X184938000Y-95078672D01*
X184938000Y-94506115D01*
X184933525Y-94490876D01*
X184932135Y-94489671D01*
X184924452Y-94488000D01*
X180840116Y-94488000D01*
X180824877Y-94492475D01*
X180823672Y-94493865D01*
X180822001Y-94501548D01*
X180822001Y-95078669D01*
X180822371Y-95085490D01*
X180827895Y-95136352D01*
X180831521Y-95151604D01*
X180876676Y-95272054D01*
X180885214Y-95287649D01*
X180961715Y-95389724D01*
X180974275Y-95402284D01*
X180975050Y-95402865D01*
X180975625Y-95403634D01*
X180980626Y-95408635D01*
X180979904Y-95409357D01*
X181017562Y-95459726D01*
X181022584Y-95530545D01*
X180988522Y-95592837D01*
X180975045Y-95604514D01*
X180966739Y-95610739D01*
X180879385Y-95727295D01*
X180828255Y-95863684D01*
X180821500Y-95925866D01*
X180821500Y-95939500D01*
X180801498Y-96007621D01*
X180747842Y-96054114D01*
X180695500Y-96065500D01*
X178510927Y-96065500D01*
X178502358Y-96065208D01*
X178452225Y-96061790D01*
X178452221Y-96061790D01*
X178444648Y-96061274D01*
X178381681Y-96072264D01*
X178375169Y-96073224D01*
X178311758Y-96080898D01*
X178304657Y-96083581D01*
X178302048Y-96084222D01*
X178285715Y-96088691D01*
X178283195Y-96089452D01*
X178275717Y-96090757D01*
X178268765Y-96093809D01*
X178268764Y-96093809D01*
X178217204Y-96116441D01*
X178211099Y-96118932D01*
X178158456Y-96138825D01*
X178158452Y-96138827D01*
X178151344Y-96141513D01*
X178145083Y-96145816D01*
X178142717Y-96147053D01*
X178127937Y-96155280D01*
X178125652Y-96156631D01*
X178118695Y-96159685D01*
X178112675Y-96164305D01*
X178112669Y-96164308D01*
X178081542Y-96188194D01*
X178067998Y-96198587D01*
X178062668Y-96202459D01*
X178016280Y-96234339D01*
X178016275Y-96234344D01*
X178010019Y-96238643D01*
X178004968Y-96244313D01*
X178004966Y-96244314D01*
X177968565Y-96285170D01*
X177963584Y-96290446D01*
X177963435Y-96290595D01*
X177901123Y-96324621D01*
X177874340Y-96327500D01*
X177407100Y-96327500D01*
X177403854Y-96327837D01*
X177403850Y-96327837D01*
X177308192Y-96337762D01*
X177308188Y-96337763D01*
X177301334Y-96338474D01*
X177294798Y-96340655D01*
X177294796Y-96340655D01*
X177162694Y-96384728D01*
X177133554Y-96394450D01*
X176983152Y-96487522D01*
X176904427Y-96566385D01*
X176896716Y-96574109D01*
X176834434Y-96608188D01*
X176763614Y-96603185D01*
X176718525Y-96574264D01*
X176635983Y-96491866D01*
X176630803Y-96486695D01*
X176622476Y-96481562D01*
X176486468Y-96397725D01*
X176486466Y-96397724D01*
X176480238Y-96393885D01*
X176319754Y-96340655D01*
X176318889Y-96340368D01*
X176318887Y-96340368D01*
X176312361Y-96338203D01*
X176305525Y-96337503D01*
X176305522Y-96337502D01*
X176262469Y-96333091D01*
X176207900Y-96327500D01*
X175582100Y-96327500D01*
X175578854Y-96327837D01*
X175578850Y-96327837D01*
X175483192Y-96337762D01*
X175483188Y-96337763D01*
X175476334Y-96338474D01*
X175469798Y-96340655D01*
X175469796Y-96340655D01*
X175337694Y-96384728D01*
X175308554Y-96394450D01*
X175158152Y-96487522D01*
X175033195Y-96612697D01*
X175029355Y-96618927D01*
X175029354Y-96618928D01*
X174976578Y-96704547D01*
X174940385Y-96763262D01*
X174927225Y-96802939D01*
X174887537Y-96922596D01*
X174884703Y-96931139D01*
X174884003Y-96937975D01*
X174884002Y-96937978D01*
X174880487Y-96972283D01*
X174874000Y-97035600D01*
X174874000Y-97082500D01*
X174853998Y-97150621D01*
X174800342Y-97197114D01*
X174748000Y-97208500D01*
X171762500Y-97208500D01*
X171694379Y-97188498D01*
X171647886Y-97134842D01*
X171636500Y-97082500D01*
X171636500Y-96968866D01*
X171629745Y-96906684D01*
X171578615Y-96770295D01*
X171491261Y-96653739D01*
X171374705Y-96566385D01*
X171238316Y-96515255D01*
X171176134Y-96508500D01*
X167579866Y-96508500D01*
X167517684Y-96515255D01*
X167381295Y-96566385D01*
X167264739Y-96653739D01*
X167177385Y-96770295D01*
X167126255Y-96906684D01*
X167119500Y-96968866D01*
X167119500Y-98865134D01*
X166636500Y-98865134D01*
X166636500Y-96968866D01*
X166629745Y-96906684D01*
X166578615Y-96770295D01*
X166491261Y-96653739D01*
X166374705Y-96566385D01*
X166238316Y-96515255D01*
X166176134Y-96508500D01*
X162579866Y-96508500D01*
X162517684Y-96515255D01*
X162381295Y-96566385D01*
X162264739Y-96653739D01*
X162177385Y-96770295D01*
X162126255Y-96906684D01*
X162119500Y-96968866D01*
X162119500Y-98865134D01*
X162126255Y-98927316D01*
X162177385Y-99063705D01*
X162264739Y-99180261D01*
X162381295Y-99267615D01*
X162517684Y-99318745D01*
X162579866Y-99325500D01*
X163543500Y-99325500D01*
X163611621Y-99345502D01*
X163658114Y-99399158D01*
X163669500Y-99451500D01*
X163669500Y-104516340D01*
X163649498Y-104584461D01*
X163632595Y-104605435D01*
X161451595Y-106786435D01*
X161389283Y-106820461D01*
X161318468Y-106815396D01*
X161261632Y-106772849D01*
X161236821Y-106706329D01*
X161236500Y-106697340D01*
X161236500Y-95106744D01*
X161256502Y-95038623D01*
X161260564Y-95032683D01*
X161262621Y-95029852D01*
X161267040Y-95024944D01*
X161301629Y-94965034D01*
X161359223Y-94865279D01*
X161359224Y-94865278D01*
X161362527Y-94859556D01*
X161421542Y-94677928D01*
X161429836Y-94599020D01*
X161440814Y-94494565D01*
X161441504Y-94488000D01*
X161424062Y-94322045D01*
X161422232Y-94304635D01*
X161422232Y-94304633D01*
X161421542Y-94298072D01*
X161362527Y-94116444D01*
X161267040Y-93951056D01*
X161254724Y-93937377D01*
X161143675Y-93814045D01*
X161143674Y-93814044D01*
X161139253Y-93809134D01*
X160984752Y-93696882D01*
X160978724Y-93694198D01*
X160978722Y-93694197D01*
X160816319Y-93621891D01*
X160816318Y-93621891D01*
X160810288Y-93619206D01*
X160716887Y-93599353D01*
X160629944Y-93580872D01*
X160629939Y-93580872D01*
X160623487Y-93579500D01*
X160432513Y-93579500D01*
X160426061Y-93580872D01*
X160426056Y-93580872D01*
X160339113Y-93599353D01*
X160245712Y-93619206D01*
X160239682Y-93621891D01*
X160239681Y-93621891D01*
X160077278Y-93694197D01*
X160077276Y-93694198D01*
X160071248Y-93696882D01*
X159916747Y-93809134D01*
X159912326Y-93814044D01*
X159912325Y-93814045D01*
X159801277Y-93937377D01*
X159788960Y-93951056D01*
X159693473Y-94116444D01*
X159634458Y-94298072D01*
X159633768Y-94304633D01*
X159633768Y-94304635D01*
X159631938Y-94322045D01*
X159614496Y-94488000D01*
X159615186Y-94494565D01*
X159626165Y-94599020D01*
X159634458Y-94677928D01*
X159693473Y-94859556D01*
X159696776Y-94865278D01*
X159696777Y-94865279D01*
X159754371Y-94965034D01*
X159788960Y-95024944D01*
X159793379Y-95029852D01*
X159795436Y-95032683D01*
X159819295Y-95099551D01*
X159819500Y-95106744D01*
X159819500Y-107234970D01*
X159799498Y-107303091D01*
X159782595Y-107324065D01*
X156892065Y-110214595D01*
X156829753Y-110248621D01*
X156802970Y-110251500D01*
X150537030Y-110251500D01*
X150468909Y-110231498D01*
X150447935Y-110214595D01*
X148123090Y-107889750D01*
X148089064Y-107827438D01*
X148086185Y-107800655D01*
X148086185Y-104106695D01*
X153577251Y-104106695D01*
X153577548Y-104111848D01*
X153577548Y-104111851D01*
X153583011Y-104206590D01*
X153590110Y-104329715D01*
X153591247Y-104334761D01*
X153591248Y-104334767D01*
X153611119Y-104422939D01*
X153639222Y-104547639D01*
X153677461Y-104641811D01*
X153713219Y-104729872D01*
X153723266Y-104754616D01*
X153773976Y-104837367D01*
X153821109Y-104914281D01*
X153839987Y-104945088D01*
X153986250Y-105113938D01*
X154158126Y-105256632D01*
X154351000Y-105369338D01*
X154355825Y-105371180D01*
X154355826Y-105371181D01*
X154404213Y-105389658D01*
X154559692Y-105449030D01*
X154564760Y-105450061D01*
X154564763Y-105450062D01*
X154672017Y-105471883D01*
X154778597Y-105493567D01*
X154783772Y-105493757D01*
X154783774Y-105493757D01*
X154996673Y-105501564D01*
X154996677Y-105501564D01*
X155001837Y-105501753D01*
X155006957Y-105501097D01*
X155006959Y-105501097D01*
X155218288Y-105474025D01*
X155218289Y-105474025D01*
X155223416Y-105473368D01*
X155285206Y-105454830D01*
X155432429Y-105410661D01*
X155432434Y-105410659D01*
X155437384Y-105409174D01*
X155637994Y-105310896D01*
X155819860Y-105181173D01*
X155978096Y-105023489D01*
X156016803Y-104969623D01*
X156105435Y-104846277D01*
X156108453Y-104842077D01*
X156207430Y-104641811D01*
X156250060Y-104501500D01*
X156270865Y-104433023D01*
X156270865Y-104433021D01*
X156272370Y-104428069D01*
X156301529Y-104206590D01*
X156303156Y-104140000D01*
X156284852Y-103917361D01*
X156230431Y-103700702D01*
X156141354Y-103495840D01*
X156020014Y-103308277D01*
X155869670Y-103143051D01*
X155865619Y-103139852D01*
X155865615Y-103139848D01*
X155698414Y-103007800D01*
X155698410Y-103007798D01*
X155694359Y-103004598D01*
X155653053Y-102981796D01*
X155603084Y-102931364D01*
X155588312Y-102861921D01*
X155613428Y-102795516D01*
X155640780Y-102768909D01*
X155705110Y-102723023D01*
X155819860Y-102641173D01*
X155978096Y-102483489D01*
X155987670Y-102470166D01*
X156105435Y-102306277D01*
X156108453Y-102302077D01*
X156110874Y-102297180D01*
X156205136Y-102106453D01*
X156205137Y-102106451D01*
X156207430Y-102101811D01*
X156272370Y-101888069D01*
X156301529Y-101666590D01*
X156303156Y-101600000D01*
X156284852Y-101377361D01*
X156230431Y-101160702D01*
X156141354Y-100955840D01*
X156020014Y-100768277D01*
X155869670Y-100603051D01*
X155865619Y-100599852D01*
X155865615Y-100599848D01*
X155698414Y-100467800D01*
X155698410Y-100467798D01*
X155694359Y-100464598D01*
X155653053Y-100441796D01*
X155603084Y-100391364D01*
X155588312Y-100321921D01*
X155613428Y-100255516D01*
X155640780Y-100228909D01*
X155684603Y-100197650D01*
X155819860Y-100101173D01*
X155978096Y-99943489D01*
X156037594Y-99860689D01*
X156105435Y-99766277D01*
X156108453Y-99762077D01*
X156120230Y-99738249D01*
X156205136Y-99566453D01*
X156205137Y-99566451D01*
X156207430Y-99561811D01*
X156272370Y-99348069D01*
X156301529Y-99126590D01*
X156302890Y-99070891D01*
X156303074Y-99063365D01*
X156303074Y-99063361D01*
X156303156Y-99060000D01*
X156284852Y-98837361D01*
X156230431Y-98620702D01*
X156141354Y-98415840D01*
X156083845Y-98326944D01*
X156022822Y-98232617D01*
X156022820Y-98232614D01*
X156020014Y-98228277D01*
X155869670Y-98063051D01*
X155865619Y-98059852D01*
X155865615Y-98059848D01*
X155698414Y-97927800D01*
X155698410Y-97927798D01*
X155694359Y-97924598D01*
X155653053Y-97901796D01*
X155603084Y-97851364D01*
X155588312Y-97781921D01*
X155613428Y-97715516D01*
X155640780Y-97688909D01*
X155684603Y-97657650D01*
X155819860Y-97561173D01*
X155978096Y-97403489D01*
X156037594Y-97320689D01*
X156105435Y-97226277D01*
X156108453Y-97222077D01*
X156120791Y-97197114D01*
X156205136Y-97026453D01*
X156205137Y-97026451D01*
X156207430Y-97021811D01*
X156272370Y-96808069D01*
X156301529Y-96586590D01*
X156303156Y-96520000D01*
X156284852Y-96297361D01*
X156230431Y-96080702D01*
X156141354Y-95875840D01*
X156050695Y-95735703D01*
X156022822Y-95692617D01*
X156022820Y-95692614D01*
X156020014Y-95688277D01*
X155869670Y-95523051D01*
X155865619Y-95519852D01*
X155865615Y-95519848D01*
X155698414Y-95387800D01*
X155698410Y-95387798D01*
X155694359Y-95384598D01*
X155653053Y-95361796D01*
X155603084Y-95311364D01*
X155588312Y-95241921D01*
X155613428Y-95175516D01*
X155640780Y-95148909D01*
X155709977Y-95099551D01*
X155819860Y-95021173D01*
X155978096Y-94863489D01*
X156037594Y-94780689D01*
X156105435Y-94686277D01*
X156108453Y-94682077D01*
X156123960Y-94650702D01*
X156205136Y-94486453D01*
X156205137Y-94486451D01*
X156207430Y-94481811D01*
X156272370Y-94268069D01*
X156301529Y-94046590D01*
X156301611Y-94043240D01*
X156303074Y-93983365D01*
X156303074Y-93983361D01*
X156303156Y-93980000D01*
X156284852Y-93757361D01*
X156230431Y-93540702D01*
X156141354Y-93335840D01*
X156066851Y-93220676D01*
X156022822Y-93152617D01*
X156022820Y-93152614D01*
X156020014Y-93148277D01*
X155869670Y-92983051D01*
X155865619Y-92979852D01*
X155865615Y-92979848D01*
X155698414Y-92847800D01*
X155698410Y-92847798D01*
X155694359Y-92844598D01*
X155653053Y-92821796D01*
X155603084Y-92771364D01*
X155588312Y-92701921D01*
X155613428Y-92635516D01*
X155640780Y-92608909D01*
X155684603Y-92577650D01*
X155819860Y-92481173D01*
X155978096Y-92323489D01*
X156037594Y-92240689D01*
X156105435Y-92146277D01*
X156108453Y-92142077D01*
X156207430Y-91941811D01*
X156272370Y-91728069D01*
X156301529Y-91506590D01*
X156303156Y-91440000D01*
X156284852Y-91217361D01*
X156230431Y-91000702D01*
X156141354Y-90795840D01*
X156020014Y-90608277D01*
X155869670Y-90443051D01*
X155865619Y-90439852D01*
X155865615Y-90439848D01*
X155698414Y-90307800D01*
X155698410Y-90307798D01*
X155694359Y-90304598D01*
X155653053Y-90281796D01*
X155603084Y-90231364D01*
X155588312Y-90161921D01*
X155613428Y-90095516D01*
X155640780Y-90068909D01*
X155684603Y-90037650D01*
X155819860Y-89941173D01*
X155978096Y-89783489D01*
X156037594Y-89700689D01*
X156105435Y-89606277D01*
X156108453Y-89602077D01*
X156207430Y-89401811D01*
X156272370Y-89188069D01*
X156301529Y-88966590D01*
X156303156Y-88900000D01*
X156284852Y-88677361D01*
X156230431Y-88460702D01*
X156200558Y-88392000D01*
X165202496Y-88392000D01*
X165203186Y-88398565D01*
X165206942Y-88434297D01*
X165222458Y-88581928D01*
X165281473Y-88763556D01*
X165376960Y-88928944D01*
X165381379Y-88933852D01*
X165383436Y-88936683D01*
X165407295Y-89003551D01*
X165407500Y-89010744D01*
X165407500Y-94459088D01*
X165407208Y-94467658D01*
X165404898Y-94501548D01*
X165403275Y-94525352D01*
X165404580Y-94532829D01*
X165404580Y-94532830D01*
X165414261Y-94588299D01*
X165415223Y-94594821D01*
X165422898Y-94658242D01*
X165425581Y-94665343D01*
X165426222Y-94667952D01*
X165430685Y-94684262D01*
X165431450Y-94686798D01*
X165432757Y-94694284D01*
X165435811Y-94701241D01*
X165458442Y-94752795D01*
X165460933Y-94758899D01*
X165483513Y-94818656D01*
X165487817Y-94824919D01*
X165489054Y-94827285D01*
X165497299Y-94842097D01*
X165498632Y-94844351D01*
X165501685Y-94851305D01*
X165511035Y-94863489D01*
X165540579Y-94901991D01*
X165544459Y-94907332D01*
X165576339Y-94953720D01*
X165576344Y-94953725D01*
X165580643Y-94959981D01*
X165586313Y-94965032D01*
X165586314Y-94965034D01*
X165627170Y-95001435D01*
X165632446Y-95006416D01*
X165689335Y-95063305D01*
X165723361Y-95125617D01*
X165725550Y-95139228D01*
X165730458Y-95185928D01*
X165732498Y-95192205D01*
X165732498Y-95192207D01*
X165761590Y-95281743D01*
X165789473Y-95367556D01*
X165884960Y-95532944D01*
X165889378Y-95537851D01*
X165889379Y-95537852D01*
X166001287Y-95662138D01*
X166012747Y-95674866D01*
X166167248Y-95787118D01*
X166173276Y-95789802D01*
X166173278Y-95789803D01*
X166239977Y-95819499D01*
X166341712Y-95864794D01*
X166410649Y-95879447D01*
X166522056Y-95903128D01*
X166522061Y-95903128D01*
X166528513Y-95904500D01*
X166719487Y-95904500D01*
X166725939Y-95903128D01*
X166725944Y-95903128D01*
X166837351Y-95879447D01*
X166906288Y-95864794D01*
X167008023Y-95819499D01*
X167074722Y-95789803D01*
X167074724Y-95789802D01*
X167080752Y-95787118D01*
X167235253Y-95674866D01*
X167246713Y-95662138D01*
X167358621Y-95537852D01*
X167358622Y-95537851D01*
X167363040Y-95532944D01*
X167458527Y-95367556D01*
X167517542Y-95185928D01*
X167518637Y-95175516D01*
X167536814Y-95002565D01*
X167537504Y-94996000D01*
X167532673Y-94950031D01*
X167518232Y-94812635D01*
X167518232Y-94812633D01*
X167517542Y-94806072D01*
X167458527Y-94624444D01*
X167443849Y-94599020D01*
X167421314Y-94559990D01*
X167363040Y-94459056D01*
X167340752Y-94434302D01*
X167239675Y-94322045D01*
X167239674Y-94322044D01*
X167235253Y-94317134D01*
X167080752Y-94204882D01*
X167074724Y-94202198D01*
X167074722Y-94202197D01*
X166990158Y-94164547D01*
X166911195Y-94129391D01*
X166911194Y-94129390D01*
X166906288Y-94127206D01*
X166906687Y-94126309D01*
X166852963Y-94089578D01*
X166825322Y-94024183D01*
X166824500Y-94009813D01*
X166824500Y-92542134D01*
X180821500Y-92542134D01*
X180828255Y-92604316D01*
X180879385Y-92740705D01*
X180966739Y-92857261D01*
X180973919Y-92862642D01*
X180975045Y-92863486D01*
X180975881Y-92864604D01*
X180980269Y-92868992D01*
X180979636Y-92869625D01*
X181017560Y-92920345D01*
X181022586Y-92991164D01*
X180988526Y-93053457D01*
X180975050Y-93065135D01*
X180974275Y-93065716D01*
X180961715Y-93078276D01*
X180885214Y-93180351D01*
X180876676Y-93195946D01*
X180831522Y-93316394D01*
X180827895Y-93331649D01*
X180822369Y-93382514D01*
X180822000Y-93389328D01*
X180822000Y-93961885D01*
X180826475Y-93977124D01*
X180827865Y-93978329D01*
X180835548Y-93980000D01*
X184919884Y-93980000D01*
X184935123Y-93975525D01*
X184936328Y-93974135D01*
X184937999Y-93966452D01*
X184937999Y-93389331D01*
X184937629Y-93382510D01*
X184932105Y-93331648D01*
X184928479Y-93316396D01*
X184883324Y-93195946D01*
X184874786Y-93180351D01*
X184798285Y-93078276D01*
X184785725Y-93065716D01*
X184784950Y-93065135D01*
X184784375Y-93064366D01*
X184779374Y-93059365D01*
X184780096Y-93058643D01*
X184742438Y-93008274D01*
X184737416Y-92937455D01*
X184771478Y-92875163D01*
X184784955Y-92863486D01*
X184786081Y-92862642D01*
X184793261Y-92857261D01*
X184880615Y-92740705D01*
X184931745Y-92604316D01*
X184938500Y-92542134D01*
X184938500Y-90845866D01*
X184931745Y-90783684D01*
X184880615Y-90647295D01*
X184793261Y-90530739D01*
X184676705Y-90443385D01*
X184540316Y-90392255D01*
X184478134Y-90385500D01*
X181281866Y-90385500D01*
X181219684Y-90392255D01*
X181083295Y-90443385D01*
X180966739Y-90530739D01*
X180879385Y-90647295D01*
X180828255Y-90783684D01*
X180821500Y-90845866D01*
X180821500Y-92542134D01*
X166824500Y-92542134D01*
X166824500Y-89010744D01*
X166844502Y-88942623D01*
X166848564Y-88936683D01*
X166850621Y-88933852D01*
X166855040Y-88928944D01*
X166950527Y-88763556D01*
X167009542Y-88581928D01*
X167025059Y-88434297D01*
X167028814Y-88398565D01*
X167029504Y-88392000D01*
X167028814Y-88385435D01*
X167010232Y-88208635D01*
X167010232Y-88208633D01*
X167009542Y-88202072D01*
X166950527Y-88020444D01*
X166855040Y-87855056D01*
X166829064Y-87826206D01*
X166731675Y-87718045D01*
X166731674Y-87718044D01*
X166727253Y-87713134D01*
X166612829Y-87630000D01*
X166578094Y-87604763D01*
X166578093Y-87604762D01*
X166572752Y-87600882D01*
X166566724Y-87598198D01*
X166566722Y-87598197D01*
X166404319Y-87525891D01*
X166404318Y-87525891D01*
X166398288Y-87523206D01*
X166304887Y-87503353D01*
X166217944Y-87484872D01*
X166217939Y-87484872D01*
X166211487Y-87483500D01*
X166020513Y-87483500D01*
X166014061Y-87484872D01*
X166014056Y-87484872D01*
X165927113Y-87503353D01*
X165833712Y-87523206D01*
X165827682Y-87525891D01*
X165827681Y-87525891D01*
X165665278Y-87598197D01*
X165665276Y-87598198D01*
X165659248Y-87600882D01*
X165653907Y-87604762D01*
X165653906Y-87604763D01*
X165619171Y-87630000D01*
X165504747Y-87713134D01*
X165500326Y-87718044D01*
X165500325Y-87718045D01*
X165402937Y-87826206D01*
X165376960Y-87855056D01*
X165281473Y-88020444D01*
X165222458Y-88202072D01*
X165221768Y-88208633D01*
X165221768Y-88208635D01*
X165203186Y-88385435D01*
X165202496Y-88392000D01*
X156200558Y-88392000D01*
X156141354Y-88255840D01*
X156020014Y-88068277D01*
X155869670Y-87903051D01*
X155865619Y-87899852D01*
X155865615Y-87899848D01*
X155698414Y-87767800D01*
X155698410Y-87767798D01*
X155694359Y-87764598D01*
X155653053Y-87741796D01*
X155603084Y-87691364D01*
X155588312Y-87621921D01*
X155613428Y-87555516D01*
X155640780Y-87528909D01*
X155704441Y-87483500D01*
X155819860Y-87401173D01*
X155978096Y-87243489D01*
X156066132Y-87120974D01*
X156122127Y-87077326D01*
X156168455Y-87068500D01*
X156435088Y-87068500D01*
X156443658Y-87068792D01*
X156493776Y-87072209D01*
X156493780Y-87072209D01*
X156501352Y-87072725D01*
X156508829Y-87071420D01*
X156508830Y-87071420D01*
X156538298Y-87066277D01*
X156564303Y-87061738D01*
X156570821Y-87060777D01*
X156634242Y-87053102D01*
X156641343Y-87050419D01*
X156643952Y-87049778D01*
X156660262Y-87045315D01*
X156662798Y-87044550D01*
X156670284Y-87043243D01*
X156728800Y-87017556D01*
X156734904Y-87015065D01*
X156787548Y-86995173D01*
X156787549Y-86995172D01*
X156794656Y-86992487D01*
X156800919Y-86988183D01*
X156803285Y-86986946D01*
X156818097Y-86978701D01*
X156820351Y-86977368D01*
X156827305Y-86974315D01*
X156878002Y-86935413D01*
X156883332Y-86931541D01*
X156929720Y-86899661D01*
X156929725Y-86899656D01*
X156935981Y-86895357D01*
X156977436Y-86848829D01*
X156982416Y-86843554D01*
X159070534Y-84755437D01*
X159133432Y-84721285D01*
X159199991Y-84707137D01*
X159286288Y-84688794D01*
X159429375Y-84625088D01*
X159454722Y-84613803D01*
X159454724Y-84613802D01*
X159460752Y-84611118D01*
X159615253Y-84498866D01*
X159743040Y-84356944D01*
X159814931Y-84232425D01*
X159835223Y-84197279D01*
X159835224Y-84197278D01*
X159838527Y-84191556D01*
X159897542Y-84009928D01*
X159910157Y-83889908D01*
X159916814Y-83826565D01*
X159917504Y-83820000D01*
X159897542Y-83630072D01*
X159838527Y-83448444D01*
X159743040Y-83283056D01*
X159646503Y-83175840D01*
X159619675Y-83146045D01*
X159619674Y-83146044D01*
X159615253Y-83141134D01*
X159460752Y-83028882D01*
X159454724Y-83026198D01*
X159454722Y-83026197D01*
X159292319Y-82953891D01*
X159292318Y-82953891D01*
X159286288Y-82951206D01*
X159192888Y-82931353D01*
X159105944Y-82912872D01*
X159105939Y-82912872D01*
X159099487Y-82911500D01*
X158908513Y-82911500D01*
X158902061Y-82912872D01*
X158902056Y-82912872D01*
X158815112Y-82931353D01*
X158721712Y-82951206D01*
X158715682Y-82953891D01*
X158715681Y-82953891D01*
X158553278Y-83026197D01*
X158553276Y-83026198D01*
X158547248Y-83028882D01*
X158392747Y-83141134D01*
X158388326Y-83146044D01*
X158388325Y-83146045D01*
X158361498Y-83175840D01*
X158264960Y-83283056D01*
X158169473Y-83448444D01*
X158167431Y-83454729D01*
X158119410Y-83602522D01*
X158110458Y-83630072D01*
X158109768Y-83636635D01*
X158109768Y-83636637D01*
X158105550Y-83676770D01*
X158078537Y-83742427D01*
X158069335Y-83752695D01*
X156237761Y-85584269D01*
X156175449Y-85618295D01*
X156104634Y-85613230D01*
X156047798Y-85570683D01*
X156042887Y-85563633D01*
X156020014Y-85528277D01*
X155869670Y-85363051D01*
X155865619Y-85359852D01*
X155865615Y-85359848D01*
X155698414Y-85227800D01*
X155698410Y-85227798D01*
X155694359Y-85224598D01*
X155653053Y-85201796D01*
X155603084Y-85151364D01*
X155588312Y-85081921D01*
X155613428Y-85015516D01*
X155640780Y-84988909D01*
X155684603Y-84957650D01*
X155819860Y-84861173D01*
X155868428Y-84812775D01*
X155925966Y-84755437D01*
X155978096Y-84703489D01*
X155987670Y-84690166D01*
X156105435Y-84526277D01*
X156108453Y-84522077D01*
X156118006Y-84502749D01*
X156205136Y-84326453D01*
X156205137Y-84326451D01*
X156207430Y-84321811D01*
X156272370Y-84108069D01*
X156301529Y-83886590D01*
X156303156Y-83820000D01*
X156284852Y-83597361D01*
X156230431Y-83380702D01*
X156141354Y-83175840D01*
X156101906Y-83114862D01*
X156022822Y-82992617D01*
X156022820Y-82992614D01*
X156020014Y-82988277D01*
X155869670Y-82823051D01*
X155865619Y-82819852D01*
X155865615Y-82819848D01*
X155698414Y-82687800D01*
X155698410Y-82687798D01*
X155694359Y-82684598D01*
X155653053Y-82661796D01*
X155603084Y-82611364D01*
X155588312Y-82541921D01*
X155613428Y-82475516D01*
X155640780Y-82448909D01*
X155696085Y-82409460D01*
X155819860Y-82321173D01*
X155978096Y-82163489D01*
X156008574Y-82121075D01*
X156105435Y-81986277D01*
X156108453Y-81982077D01*
X156128382Y-81941755D01*
X156205136Y-81786453D01*
X156205137Y-81786451D01*
X156207430Y-81781811D01*
X156272370Y-81568069D01*
X156301529Y-81346590D01*
X156303156Y-81280000D01*
X156284852Y-81057361D01*
X156230431Y-80840702D01*
X156141354Y-80635840D01*
X156101906Y-80574862D01*
X156022822Y-80452617D01*
X156022820Y-80452614D01*
X156020014Y-80448277D01*
X155869670Y-80283051D01*
X155865619Y-80279852D01*
X155865615Y-80279848D01*
X155698414Y-80147800D01*
X155698410Y-80147798D01*
X155694359Y-80144598D01*
X155653053Y-80121796D01*
X155603084Y-80071364D01*
X155588312Y-80001921D01*
X155613428Y-79935516D01*
X155640780Y-79908909D01*
X155706987Y-79861684D01*
X155819860Y-79781173D01*
X155978096Y-79623489D01*
X155997125Y-79597008D01*
X156105435Y-79446277D01*
X156108453Y-79442077D01*
X156125970Y-79406635D01*
X156205136Y-79246453D01*
X156205137Y-79246451D01*
X156207430Y-79241811D01*
X156272370Y-79028069D01*
X156301529Y-78806590D01*
X156301794Y-78795739D01*
X156303074Y-78743365D01*
X156303074Y-78743361D01*
X156303156Y-78740000D01*
X156284852Y-78517361D01*
X156230431Y-78300702D01*
X156141354Y-78095840D01*
X156101906Y-78034862D01*
X156022822Y-77912617D01*
X156022820Y-77912614D01*
X156020014Y-77908277D01*
X155869670Y-77743051D01*
X155865619Y-77739852D01*
X155865615Y-77739848D01*
X155845548Y-77724000D01*
X157074496Y-77724000D01*
X157075186Y-77730565D01*
X157093463Y-77904457D01*
X157094458Y-77913928D01*
X157153473Y-78095556D01*
X157248960Y-78260944D01*
X157376747Y-78402866D01*
X157427928Y-78440051D01*
X157493471Y-78487671D01*
X157531248Y-78515118D01*
X157537276Y-78517802D01*
X157537278Y-78517803D01*
X157699681Y-78590109D01*
X157705712Y-78592794D01*
X157840466Y-78621437D01*
X157858569Y-78625285D01*
X157921467Y-78659437D01*
X161149550Y-81887520D01*
X161155404Y-81893785D01*
X161193439Y-81937385D01*
X161199657Y-81941755D01*
X161245697Y-81974112D01*
X161250993Y-81978045D01*
X161301282Y-82017477D01*
X161308204Y-82020602D01*
X161310452Y-82021964D01*
X161325185Y-82030368D01*
X161327524Y-82031622D01*
X161333739Y-82035990D01*
X161340815Y-82038749D01*
X161340819Y-82038751D01*
X161393274Y-82059202D01*
X161399352Y-82061757D01*
X161457574Y-82088045D01*
X161465045Y-82089429D01*
X161467599Y-82090230D01*
X161483878Y-82094867D01*
X161486433Y-82095523D01*
X161493509Y-82098282D01*
X161521962Y-82102028D01*
X161556851Y-82106621D01*
X161563367Y-82107653D01*
X161605706Y-82115500D01*
X161626187Y-82119296D01*
X161633767Y-82118859D01*
X161633768Y-82118859D01*
X161688398Y-82115709D01*
X161695651Y-82115500D01*
X161779500Y-82115500D01*
X161847621Y-82135502D01*
X161894114Y-82189158D01*
X161905500Y-82241500D01*
X161905500Y-82355134D01*
X161912255Y-82417316D01*
X161963385Y-82553705D01*
X162050739Y-82670261D01*
X162167295Y-82757615D01*
X162303684Y-82808745D01*
X162365866Y-82815500D01*
X165962134Y-82815500D01*
X166024316Y-82808745D01*
X166160705Y-82757615D01*
X166277261Y-82670261D01*
X166364615Y-82553705D01*
X166415745Y-82417316D01*
X166422500Y-82355134D01*
X166905500Y-82355134D01*
X166912255Y-82417316D01*
X166963385Y-82553705D01*
X167050739Y-82670261D01*
X167167295Y-82757615D01*
X167303684Y-82808745D01*
X167365866Y-82815500D01*
X168329500Y-82815500D01*
X168397621Y-82835502D01*
X168444114Y-82889158D01*
X168455500Y-82941500D01*
X168455500Y-84725256D01*
X168435498Y-84793377D01*
X168431436Y-84799317D01*
X168429379Y-84802148D01*
X168424960Y-84807056D01*
X168421659Y-84812774D01*
X168421658Y-84812775D01*
X168391985Y-84864171D01*
X168329473Y-84972444D01*
X168270458Y-85154072D01*
X168269768Y-85160633D01*
X168269768Y-85160635D01*
X168262709Y-85227800D01*
X168250496Y-85344000D01*
X168251186Y-85350565D01*
X168269463Y-85524457D01*
X168270458Y-85533928D01*
X168329473Y-85715556D01*
X168424960Y-85880944D01*
X168552747Y-86022866D01*
X168707248Y-86135118D01*
X168713276Y-86137802D01*
X168713278Y-86137803D01*
X168841806Y-86195027D01*
X168881712Y-86212794D01*
X168975113Y-86232647D01*
X169062056Y-86251128D01*
X169062061Y-86251128D01*
X169068513Y-86252500D01*
X169259487Y-86252500D01*
X169265939Y-86251128D01*
X169265944Y-86251128D01*
X169352887Y-86232647D01*
X169446288Y-86212794D01*
X169486194Y-86195027D01*
X169614722Y-86137803D01*
X169614724Y-86137802D01*
X169620752Y-86135118D01*
X169775253Y-86022866D01*
X169903040Y-85880944D01*
X169998527Y-85715556D01*
X170057542Y-85533928D01*
X170058538Y-85524457D01*
X170076814Y-85350565D01*
X170077504Y-85344000D01*
X170065291Y-85227800D01*
X170058232Y-85160635D01*
X170058232Y-85160633D01*
X170057542Y-85154072D01*
X169998527Y-84972444D01*
X169936016Y-84864171D01*
X169906342Y-84812775D01*
X169906341Y-84812774D01*
X169903040Y-84807056D01*
X169898621Y-84802148D01*
X169896564Y-84799317D01*
X169872705Y-84732449D01*
X169872500Y-84725256D01*
X169872500Y-82941500D01*
X169892502Y-82873379D01*
X169946158Y-82826886D01*
X169998500Y-82815500D01*
X170962134Y-82815500D01*
X171024316Y-82808745D01*
X171160705Y-82757615D01*
X171277261Y-82670261D01*
X171364615Y-82553705D01*
X171415745Y-82417316D01*
X171422500Y-82355134D01*
X171422500Y-82241500D01*
X171442502Y-82173379D01*
X171496158Y-82126886D01*
X171548500Y-82115500D01*
X174273839Y-82115500D01*
X174341960Y-82135502D01*
X174380982Y-82175196D01*
X174399022Y-82204348D01*
X174524197Y-82329305D01*
X174530427Y-82333145D01*
X174530428Y-82333146D01*
X174667590Y-82417694D01*
X174674762Y-82422115D01*
X174682601Y-82424715D01*
X174836111Y-82475632D01*
X174836113Y-82475632D01*
X174842639Y-82477797D01*
X174849475Y-82478497D01*
X174849478Y-82478498D01*
X174892531Y-82482909D01*
X174947100Y-82488500D01*
X175572900Y-82488500D01*
X175576146Y-82488163D01*
X175576150Y-82488163D01*
X175671808Y-82478238D01*
X175671812Y-82478237D01*
X175678666Y-82477526D01*
X175685202Y-82475345D01*
X175685204Y-82475345D01*
X175836959Y-82424715D01*
X175846446Y-82421550D01*
X175996848Y-82328478D01*
X176083284Y-82241891D01*
X176145566Y-82207812D01*
X176216386Y-82212815D01*
X176261475Y-82241736D01*
X176277006Y-82257240D01*
X176349197Y-82329305D01*
X176355427Y-82333145D01*
X176355428Y-82333146D01*
X176492590Y-82417694D01*
X176499762Y-82422115D01*
X176507601Y-82424715D01*
X176661111Y-82475632D01*
X176661113Y-82475632D01*
X176667639Y-82477797D01*
X176674475Y-82478497D01*
X176674478Y-82478498D01*
X176717531Y-82482909D01*
X176772100Y-82488500D01*
X177397900Y-82488500D01*
X177401146Y-82488163D01*
X177401150Y-82488163D01*
X177496808Y-82478238D01*
X177496812Y-82478237D01*
X177503666Y-82477526D01*
X177510202Y-82475345D01*
X177510204Y-82475345D01*
X177661959Y-82424715D01*
X177671446Y-82421550D01*
X177821848Y-82328478D01*
X177946805Y-82203303D01*
X177964129Y-82175198D01*
X178035775Y-82058968D01*
X178035776Y-82058966D01*
X178039615Y-82052738D01*
X178090601Y-81899020D01*
X178093132Y-81891389D01*
X178093132Y-81891387D01*
X178095297Y-81884861D01*
X178106000Y-81780400D01*
X178106000Y-81606500D01*
X178126002Y-81538379D01*
X178179658Y-81491886D01*
X178232000Y-81480500D01*
X180441500Y-81480500D01*
X180509621Y-81500502D01*
X180556114Y-81554158D01*
X180567500Y-81606500D01*
X180567500Y-81620134D01*
X180574255Y-81682316D01*
X180625385Y-81818705D01*
X180712739Y-81935261D01*
X180829295Y-82022615D01*
X180965684Y-82073745D01*
X181027866Y-82080500D01*
X184224134Y-82080500D01*
X184286316Y-82073745D01*
X184422705Y-82022615D01*
X184539261Y-81935261D01*
X184626615Y-81818705D01*
X184677745Y-81682316D01*
X184684500Y-81620134D01*
X184684500Y-79923866D01*
X184677745Y-79861684D01*
X184626615Y-79725295D01*
X184539261Y-79608739D01*
X184530955Y-79602514D01*
X184530119Y-79601396D01*
X184525731Y-79597008D01*
X184526364Y-79596375D01*
X184488440Y-79545655D01*
X184483414Y-79474836D01*
X184517474Y-79412543D01*
X184530950Y-79400865D01*
X184531725Y-79400284D01*
X184544285Y-79387724D01*
X184620786Y-79285649D01*
X184629324Y-79270054D01*
X184674478Y-79149606D01*
X184678105Y-79134351D01*
X184683631Y-79083486D01*
X184684000Y-79076672D01*
X184684000Y-78504115D01*
X184679525Y-78488876D01*
X184678135Y-78487671D01*
X184670452Y-78486000D01*
X180586116Y-78486000D01*
X180570877Y-78490475D01*
X180569672Y-78491865D01*
X180568001Y-78499548D01*
X180568001Y-79076669D01*
X180568371Y-79083490D01*
X180573895Y-79134352D01*
X180577521Y-79149604D01*
X180622676Y-79270054D01*
X180631214Y-79285649D01*
X180707715Y-79387724D01*
X180720275Y-79400284D01*
X180721050Y-79400865D01*
X180721625Y-79401634D01*
X180726626Y-79406635D01*
X180725904Y-79407357D01*
X180763562Y-79457726D01*
X180768584Y-79528545D01*
X180734522Y-79590837D01*
X180721045Y-79602514D01*
X180712739Y-79608739D01*
X180625385Y-79725295D01*
X180574255Y-79861684D01*
X180567500Y-79923866D01*
X180567500Y-79937500D01*
X180547498Y-80005621D01*
X180493842Y-80052114D01*
X180441500Y-80063500D01*
X177621911Y-80063500D01*
X177613342Y-80063208D01*
X177563223Y-80059791D01*
X177563219Y-80059791D01*
X177555647Y-80059275D01*
X177548170Y-80060580D01*
X177548168Y-80060580D01*
X177508884Y-80067436D01*
X177492702Y-80070261D01*
X177486210Y-80071219D01*
X177458438Y-80074580D01*
X177430465Y-80074836D01*
X177401103Y-80071828D01*
X177401100Y-80071828D01*
X177397900Y-80071500D01*
X176772100Y-80071500D01*
X176768854Y-80071837D01*
X176768850Y-80071837D01*
X176673192Y-80081762D01*
X176673188Y-80081763D01*
X176666334Y-80082474D01*
X176659798Y-80084655D01*
X176659796Y-80084655D01*
X176553774Y-80120027D01*
X176498554Y-80138450D01*
X176348152Y-80231522D01*
X176292901Y-80286870D01*
X176261716Y-80318109D01*
X176199434Y-80352188D01*
X176128614Y-80347185D01*
X176083525Y-80318264D01*
X176000983Y-80235866D01*
X175995803Y-80230695D01*
X175861323Y-80147800D01*
X175851468Y-80141725D01*
X175851466Y-80141724D01*
X175845238Y-80137885D01*
X175684754Y-80084655D01*
X175683889Y-80084368D01*
X175683887Y-80084368D01*
X175677361Y-80082203D01*
X175670525Y-80081503D01*
X175670522Y-80081502D01*
X175627469Y-80077091D01*
X175572900Y-80071500D01*
X174947100Y-80071500D01*
X174943854Y-80071837D01*
X174943850Y-80071837D01*
X174848192Y-80081762D01*
X174848188Y-80081763D01*
X174841334Y-80082474D01*
X174834798Y-80084655D01*
X174834796Y-80084655D01*
X174728774Y-80120027D01*
X174673554Y-80138450D01*
X174523152Y-80231522D01*
X174398195Y-80356697D01*
X174394355Y-80362927D01*
X174394354Y-80362928D01*
X174333111Y-80462283D01*
X174305385Y-80507262D01*
X174270853Y-80611375D01*
X174270590Y-80612167D01*
X174230160Y-80670527D01*
X174164596Y-80697764D01*
X174150997Y-80698500D01*
X171548500Y-80698500D01*
X171480379Y-80678498D01*
X171433886Y-80624842D01*
X171422500Y-80572500D01*
X171422500Y-80458866D01*
X171415745Y-80396684D01*
X171364615Y-80260295D01*
X171277261Y-80143739D01*
X171160705Y-80056385D01*
X171024316Y-80005255D01*
X170962134Y-79998500D01*
X167365866Y-79998500D01*
X167303684Y-80005255D01*
X167167295Y-80056385D01*
X167050739Y-80143739D01*
X166963385Y-80260295D01*
X166912255Y-80396684D01*
X166905500Y-80458866D01*
X166905500Y-82355134D01*
X166422500Y-82355134D01*
X166422500Y-80458866D01*
X166415745Y-80396684D01*
X166364615Y-80260295D01*
X166277261Y-80143739D01*
X166160705Y-80056385D01*
X166024316Y-80005255D01*
X165962134Y-79998500D01*
X162365866Y-79998500D01*
X162303684Y-80005255D01*
X162167295Y-80056385D01*
X162050739Y-80143739D01*
X161963385Y-80260295D01*
X161920283Y-80375271D01*
X161912894Y-80394980D01*
X161870253Y-80451745D01*
X161803691Y-80476445D01*
X161734343Y-80461238D01*
X161705817Y-80439846D01*
X159497970Y-78232000D01*
X170790496Y-78232000D01*
X170791186Y-78238565D01*
X170808863Y-78406749D01*
X170810458Y-78421928D01*
X170869473Y-78603556D01*
X170872776Y-78609278D01*
X170872777Y-78609279D01*
X170882018Y-78625285D01*
X170964960Y-78768944D01*
X170969378Y-78773851D01*
X170969379Y-78773852D01*
X171001844Y-78809908D01*
X171092747Y-78910866D01*
X171247248Y-79023118D01*
X171253276Y-79025802D01*
X171253278Y-79025803D01*
X171382837Y-79083486D01*
X171421712Y-79100794D01*
X171515113Y-79120647D01*
X171602056Y-79139128D01*
X171602061Y-79139128D01*
X171608513Y-79140500D01*
X171799487Y-79140500D01*
X171805939Y-79139128D01*
X171805944Y-79139128D01*
X171892887Y-79120647D01*
X171986288Y-79100794D01*
X172025163Y-79083486D01*
X172154722Y-79025803D01*
X172154724Y-79025802D01*
X172160752Y-79023118D01*
X172315253Y-78910866D01*
X172406156Y-78809908D01*
X172438621Y-78773852D01*
X172438622Y-78773851D01*
X172443040Y-78768944D01*
X172525982Y-78625285D01*
X172535223Y-78609279D01*
X172535224Y-78609278D01*
X172538527Y-78603556D01*
X172597542Y-78421928D01*
X172599138Y-78406749D01*
X172616814Y-78238565D01*
X172617504Y-78232000D01*
X172603765Y-78101279D01*
X172598232Y-78048635D01*
X172598232Y-78048633D01*
X172597542Y-78042072D01*
X172538527Y-77860444D01*
X172456016Y-77717530D01*
X172446342Y-77700775D01*
X172446341Y-77700774D01*
X172443040Y-77695056D01*
X172438621Y-77690148D01*
X172436564Y-77687317D01*
X172412705Y-77620449D01*
X172412500Y-77613256D01*
X172412500Y-76540134D01*
X180567500Y-76540134D01*
X180574255Y-76602316D01*
X180625385Y-76738705D01*
X180712739Y-76855261D01*
X180719919Y-76860642D01*
X180721045Y-76861486D01*
X180721881Y-76862604D01*
X180726269Y-76866992D01*
X180725636Y-76867625D01*
X180763560Y-76918345D01*
X180768586Y-76989164D01*
X180734526Y-77051457D01*
X180721050Y-77063135D01*
X180720275Y-77063716D01*
X180707715Y-77076276D01*
X180631214Y-77178351D01*
X180622676Y-77193946D01*
X180577522Y-77314394D01*
X180573895Y-77329649D01*
X180568369Y-77380514D01*
X180568000Y-77387328D01*
X180568000Y-77959885D01*
X180572475Y-77975124D01*
X180573865Y-77976329D01*
X180581548Y-77978000D01*
X184665884Y-77978000D01*
X184681123Y-77973525D01*
X184682328Y-77972135D01*
X184683999Y-77964452D01*
X184683999Y-77387331D01*
X184683629Y-77380510D01*
X184678105Y-77329648D01*
X184674479Y-77314396D01*
X184629324Y-77193946D01*
X184620786Y-77178351D01*
X184544285Y-77076276D01*
X184531725Y-77063716D01*
X184530950Y-77063135D01*
X184530375Y-77062366D01*
X184525374Y-77057365D01*
X184526096Y-77056643D01*
X184488438Y-77006274D01*
X184483416Y-76935455D01*
X184517478Y-76873163D01*
X184530955Y-76861486D01*
X184532081Y-76860642D01*
X184539261Y-76855261D01*
X184626615Y-76738705D01*
X184677745Y-76602316D01*
X184684500Y-76540134D01*
X184684500Y-74843866D01*
X184677745Y-74781684D01*
X184626615Y-74645295D01*
X184539261Y-74528739D01*
X184422705Y-74441385D01*
X184286316Y-74390255D01*
X184224134Y-74383500D01*
X181027866Y-74383500D01*
X180965684Y-74390255D01*
X180829295Y-74441385D01*
X180712739Y-74528739D01*
X180625385Y-74645295D01*
X180574255Y-74781684D01*
X180567500Y-74843866D01*
X180567500Y-76540134D01*
X172412500Y-76540134D01*
X172412500Y-72246744D01*
X172432502Y-72178623D01*
X172436564Y-72172683D01*
X172438621Y-72169852D01*
X172443040Y-72164944D01*
X172482129Y-72097240D01*
X172535223Y-72005279D01*
X172535224Y-72005278D01*
X172538527Y-71999556D01*
X172597542Y-71817928D01*
X172605836Y-71739020D01*
X172616814Y-71634565D01*
X172617504Y-71628000D01*
X172597542Y-71438072D01*
X172538527Y-71256444D01*
X172443040Y-71091056D01*
X172315253Y-70949134D01*
X172160752Y-70836882D01*
X172154724Y-70834198D01*
X172154722Y-70834197D01*
X171992319Y-70761891D01*
X171992318Y-70761891D01*
X171986288Y-70759206D01*
X171892888Y-70739353D01*
X171805944Y-70720872D01*
X171805939Y-70720872D01*
X171799487Y-70719500D01*
X171608513Y-70719500D01*
X171602061Y-70720872D01*
X171602056Y-70720872D01*
X171515112Y-70739353D01*
X171421712Y-70759206D01*
X171415682Y-70761891D01*
X171415681Y-70761891D01*
X171253278Y-70834197D01*
X171253276Y-70834198D01*
X171247248Y-70836882D01*
X171092747Y-70949134D01*
X170964960Y-71091056D01*
X170869473Y-71256444D01*
X170810458Y-71438072D01*
X170790496Y-71628000D01*
X170791186Y-71634565D01*
X170802165Y-71739020D01*
X170810458Y-71817928D01*
X170869473Y-71999556D01*
X170872776Y-72005278D01*
X170872777Y-72005279D01*
X170925871Y-72097240D01*
X170964960Y-72164944D01*
X170969379Y-72169852D01*
X170971436Y-72172683D01*
X170995295Y-72239551D01*
X170995500Y-72246744D01*
X170995500Y-77613256D01*
X170975498Y-77681377D01*
X170971436Y-77687317D01*
X170969379Y-77690148D01*
X170964960Y-77695056D01*
X170961659Y-77700774D01*
X170961658Y-77700775D01*
X170951985Y-77717530D01*
X170869473Y-77860444D01*
X170810458Y-78042072D01*
X170809768Y-78048633D01*
X170809768Y-78048635D01*
X170804235Y-78101279D01*
X170790496Y-78232000D01*
X159497970Y-78232000D01*
X158922665Y-77656695D01*
X158888639Y-77594383D01*
X158886450Y-77580770D01*
X158882232Y-77540637D01*
X158882232Y-77540635D01*
X158881542Y-77534072D01*
X158861308Y-77471797D01*
X158835982Y-77393854D01*
X158822527Y-77352444D01*
X158727040Y-77187056D01*
X158599253Y-77045134D01*
X158500157Y-76973136D01*
X158450094Y-76936763D01*
X158450093Y-76936762D01*
X158444752Y-76932882D01*
X158438724Y-76930198D01*
X158438722Y-76930197D01*
X158276319Y-76857891D01*
X158276318Y-76857891D01*
X158270288Y-76855206D01*
X158176888Y-76835353D01*
X158089944Y-76816872D01*
X158089939Y-76816872D01*
X158083487Y-76815500D01*
X157892513Y-76815500D01*
X157886061Y-76816872D01*
X157886056Y-76816872D01*
X157799112Y-76835353D01*
X157705712Y-76855206D01*
X157699682Y-76857891D01*
X157699681Y-76857891D01*
X157537278Y-76930197D01*
X157537276Y-76930198D01*
X157531248Y-76932882D01*
X157525907Y-76936762D01*
X157525906Y-76936763D01*
X157475843Y-76973136D01*
X157376747Y-77045134D01*
X157248960Y-77187056D01*
X157153473Y-77352444D01*
X157094458Y-77534072D01*
X157093768Y-77540633D01*
X157093768Y-77540635D01*
X157084886Y-77625144D01*
X157074496Y-77724000D01*
X155845548Y-77724000D01*
X155698414Y-77607800D01*
X155698410Y-77607798D01*
X155694359Y-77604598D01*
X155653053Y-77581796D01*
X155603084Y-77531364D01*
X155588312Y-77461921D01*
X155613428Y-77395516D01*
X155640780Y-77368909D01*
X155695822Y-77329648D01*
X155819860Y-77241173D01*
X155825139Y-77235913D01*
X155974435Y-77087137D01*
X155978096Y-77083489D01*
X156037594Y-77000689D01*
X156105435Y-76906277D01*
X156108453Y-76902077D01*
X156128932Y-76860642D01*
X156205136Y-76706453D01*
X156205137Y-76706451D01*
X156207430Y-76701811D01*
X156272370Y-76488069D01*
X156301529Y-76266590D01*
X156303156Y-76200000D01*
X156284852Y-75977361D01*
X156230431Y-75760702D01*
X156141354Y-75555840D01*
X156020014Y-75368277D01*
X155869670Y-75203051D01*
X155865619Y-75199852D01*
X155865615Y-75199848D01*
X155698414Y-75067800D01*
X155698410Y-75067798D01*
X155694359Y-75064598D01*
X155653053Y-75041796D01*
X155603084Y-74991364D01*
X155588312Y-74921921D01*
X155613428Y-74855516D01*
X155640780Y-74828909D01*
X155706987Y-74781684D01*
X155819860Y-74701173D01*
X155978096Y-74543489D01*
X156066132Y-74420974D01*
X156122127Y-74377326D01*
X156168455Y-74368500D01*
X163039088Y-74368500D01*
X163047658Y-74368792D01*
X163097776Y-74372209D01*
X163097780Y-74372209D01*
X163105352Y-74372725D01*
X163112829Y-74371420D01*
X163112830Y-74371420D01*
X163142298Y-74366277D01*
X163168303Y-74361738D01*
X163174821Y-74360777D01*
X163238242Y-74353102D01*
X163245343Y-74350419D01*
X163247952Y-74349778D01*
X163264262Y-74345315D01*
X163266798Y-74344550D01*
X163274284Y-74343243D01*
X163332800Y-74317556D01*
X163338904Y-74315065D01*
X163391548Y-74295173D01*
X163391549Y-74295172D01*
X163398656Y-74292487D01*
X163404919Y-74288183D01*
X163407285Y-74286946D01*
X163422097Y-74278701D01*
X163424351Y-74277368D01*
X163431305Y-74274315D01*
X163482002Y-74235413D01*
X163487332Y-74231541D01*
X163533720Y-74199661D01*
X163533725Y-74199656D01*
X163539981Y-74195357D01*
X163581436Y-74148829D01*
X163586416Y-74143554D01*
X163642533Y-74087437D01*
X163705431Y-74053285D01*
X163721589Y-74049850D01*
X163858288Y-74020794D01*
X163864319Y-74018109D01*
X164026722Y-73945803D01*
X164026724Y-73945802D01*
X164032752Y-73943118D01*
X164187253Y-73830866D01*
X164278156Y-73729908D01*
X164310621Y-73693852D01*
X164310622Y-73693851D01*
X164315040Y-73688944D01*
X164410527Y-73523556D01*
X164469542Y-73341928D01*
X164485059Y-73194297D01*
X164488814Y-73158565D01*
X164489504Y-73152000D01*
X164488814Y-73145435D01*
X164470232Y-72968635D01*
X164470232Y-72968633D01*
X164469542Y-72962072D01*
X164410527Y-72780444D01*
X164315040Y-72615056D01*
X164236475Y-72527800D01*
X164191675Y-72478045D01*
X164191674Y-72478044D01*
X164187253Y-72473134D01*
X164075303Y-72391797D01*
X164038094Y-72364763D01*
X164038093Y-72364762D01*
X164032752Y-72360882D01*
X164026724Y-72358198D01*
X164026722Y-72358197D01*
X163864319Y-72285891D01*
X163864318Y-72285891D01*
X163858288Y-72283206D01*
X163764887Y-72263353D01*
X163677944Y-72244872D01*
X163677939Y-72244872D01*
X163671487Y-72243500D01*
X163480513Y-72243500D01*
X163474061Y-72244872D01*
X163474056Y-72244872D01*
X163387113Y-72263353D01*
X163293712Y-72283206D01*
X163287682Y-72285891D01*
X163287681Y-72285891D01*
X163125278Y-72358197D01*
X163125276Y-72358198D01*
X163119248Y-72360882D01*
X163113907Y-72364762D01*
X163113906Y-72364763D01*
X163076697Y-72391797D01*
X162964747Y-72473134D01*
X162960326Y-72478044D01*
X162960325Y-72478045D01*
X162915526Y-72527800D01*
X162836960Y-72615056D01*
X162741473Y-72780444D01*
X162724523Y-72832612D01*
X162714182Y-72864437D01*
X162674108Y-72923042D01*
X162608711Y-72950679D01*
X162594349Y-72951500D01*
X156168286Y-72951500D01*
X156100165Y-72931498D01*
X156062494Y-72893941D01*
X156043407Y-72864437D01*
X156020014Y-72828277D01*
X155869670Y-72663051D01*
X155865619Y-72659852D01*
X155865615Y-72659848D01*
X155698414Y-72527800D01*
X155698410Y-72527798D01*
X155694359Y-72524598D01*
X155653053Y-72501796D01*
X155603084Y-72451364D01*
X155588312Y-72381921D01*
X155613428Y-72315516D01*
X155640780Y-72288909D01*
X155709977Y-72239551D01*
X155819860Y-72161173D01*
X155978096Y-72003489D01*
X156037594Y-71920689D01*
X156105435Y-71826277D01*
X156108453Y-71822077D01*
X156207430Y-71621811D01*
X156272370Y-71408069D01*
X156301529Y-71186590D01*
X156303156Y-71120000D01*
X156284852Y-70897361D01*
X156230431Y-70680702D01*
X156141354Y-70475840D01*
X156020014Y-70288277D01*
X155869670Y-70123051D01*
X155865619Y-70119852D01*
X155865615Y-70119848D01*
X155698414Y-69987800D01*
X155698410Y-69987798D01*
X155694359Y-69984598D01*
X155653053Y-69961796D01*
X155603084Y-69911364D01*
X155588312Y-69841921D01*
X155613428Y-69775516D01*
X155640780Y-69748909D01*
X155684603Y-69717650D01*
X155819860Y-69621173D01*
X155978096Y-69463489D01*
X155987670Y-69450166D01*
X156105435Y-69286277D01*
X156108453Y-69282077D01*
X156118006Y-69262749D01*
X156205136Y-69086453D01*
X156205137Y-69086451D01*
X156207430Y-69081811D01*
X156251090Y-68938109D01*
X156270865Y-68873023D01*
X156270865Y-68873021D01*
X156272370Y-68868069D01*
X156301529Y-68646590D01*
X156303156Y-68580000D01*
X156284852Y-68357361D01*
X156230431Y-68140702D01*
X156200558Y-68072000D01*
X157582496Y-68072000D01*
X157583186Y-68078565D01*
X157595670Y-68197339D01*
X157602458Y-68261928D01*
X157661473Y-68443556D01*
X157756960Y-68608944D01*
X157761378Y-68613851D01*
X157761379Y-68613852D01*
X157793844Y-68649908D01*
X157884747Y-68750866D01*
X158039248Y-68863118D01*
X158045276Y-68865802D01*
X158045278Y-68865803D01*
X158173806Y-68923027D01*
X158213712Y-68940794D01*
X158307112Y-68960647D01*
X158394056Y-68979128D01*
X158394061Y-68979128D01*
X158400513Y-68980500D01*
X158591487Y-68980500D01*
X158597939Y-68979128D01*
X158597944Y-68979128D01*
X158684888Y-68960647D01*
X158778288Y-68940794D01*
X158818194Y-68923027D01*
X158946722Y-68865803D01*
X158946724Y-68865802D01*
X158952752Y-68863118D01*
X159107253Y-68750866D01*
X159198156Y-68649908D01*
X159230621Y-68613852D01*
X159230622Y-68613851D01*
X159235040Y-68608944D01*
X159330527Y-68443556D01*
X159389542Y-68261928D01*
X159396331Y-68197339D01*
X159408814Y-68078565D01*
X159409504Y-68072000D01*
X159402897Y-68009138D01*
X159390232Y-67888635D01*
X159390232Y-67888633D01*
X159389542Y-67882072D01*
X159330527Y-67700444D01*
X159305918Y-67657819D01*
X159238342Y-67540775D01*
X159238341Y-67540774D01*
X159235040Y-67535056D01*
X159230621Y-67530148D01*
X159228564Y-67527317D01*
X159204705Y-67460449D01*
X159204500Y-67453256D01*
X159204500Y-66893660D01*
X159224502Y-66825539D01*
X159241401Y-66804569D01*
X160149568Y-65896403D01*
X160211878Y-65862379D01*
X160238661Y-65859500D01*
X161485500Y-65859500D01*
X161553621Y-65879502D01*
X161600114Y-65933158D01*
X161611500Y-65985500D01*
X161611500Y-66099134D01*
X161618255Y-66161316D01*
X161669385Y-66297705D01*
X161756739Y-66414261D01*
X161873295Y-66501615D01*
X162009684Y-66552745D01*
X162071866Y-66559500D01*
X165668134Y-66559500D01*
X165730316Y-66552745D01*
X165866705Y-66501615D01*
X165983261Y-66414261D01*
X166070615Y-66297705D01*
X166121745Y-66161316D01*
X166128500Y-66099134D01*
X166611500Y-66099134D01*
X166618255Y-66161316D01*
X166669385Y-66297705D01*
X166756739Y-66414261D01*
X166794546Y-66442596D01*
X166873295Y-66501615D01*
X166872498Y-66502678D01*
X166916155Y-66546433D01*
X166931500Y-66606695D01*
X166931500Y-67961256D01*
X166911498Y-68029377D01*
X166907436Y-68035317D01*
X166905379Y-68038148D01*
X166900960Y-68043056D01*
X166805473Y-68208444D01*
X166746458Y-68390072D01*
X166726496Y-68580000D01*
X166727186Y-68586565D01*
X166744863Y-68754749D01*
X166746458Y-68769928D01*
X166805473Y-68951556D01*
X166808776Y-68957278D01*
X166808777Y-68957279D01*
X166829069Y-68992425D01*
X166900960Y-69116944D01*
X167028747Y-69258866D01*
X167183248Y-69371118D01*
X167189276Y-69373802D01*
X167189278Y-69373803D01*
X167214625Y-69385088D01*
X167357712Y-69448794D01*
X167444009Y-69467137D01*
X167538056Y-69487128D01*
X167538061Y-69487128D01*
X167544513Y-69488500D01*
X167735487Y-69488500D01*
X167741939Y-69487128D01*
X167741944Y-69487128D01*
X167835991Y-69467137D01*
X167922288Y-69448794D01*
X168065375Y-69385088D01*
X168090722Y-69373803D01*
X168090724Y-69373802D01*
X168096752Y-69371118D01*
X168251253Y-69258866D01*
X168379040Y-69116944D01*
X168450931Y-68992425D01*
X168471223Y-68957279D01*
X168471224Y-68957278D01*
X168474527Y-68951556D01*
X168533542Y-68769928D01*
X168535138Y-68754749D01*
X168552814Y-68586565D01*
X168553504Y-68580000D01*
X168533542Y-68390072D01*
X168474527Y-68208444D01*
X168379040Y-68043056D01*
X168374621Y-68038148D01*
X168372564Y-68035317D01*
X168348705Y-67968449D01*
X168348500Y-67961256D01*
X168348500Y-66726660D01*
X168368502Y-66658539D01*
X168385405Y-66637565D01*
X168426565Y-66596405D01*
X168488877Y-66562379D01*
X168515660Y-66559500D01*
X170668134Y-66559500D01*
X170730316Y-66552745D01*
X170866705Y-66501615D01*
X170983261Y-66414261D01*
X171070615Y-66297705D01*
X171121745Y-66161316D01*
X171128500Y-66099134D01*
X171128500Y-65985500D01*
X171148502Y-65917379D01*
X171202158Y-65870886D01*
X171254500Y-65859500D01*
X174850088Y-65859500D01*
X174858659Y-65859792D01*
X174916352Y-65863725D01*
X174916287Y-65864685D01*
X174982920Y-65881700D01*
X175025090Y-65907694D01*
X175032262Y-65912115D01*
X175095705Y-65933158D01*
X175193611Y-65965632D01*
X175193613Y-65965632D01*
X175200139Y-65967797D01*
X175206975Y-65968497D01*
X175206978Y-65968498D01*
X175250031Y-65972909D01*
X175304600Y-65978500D01*
X175930400Y-65978500D01*
X175933646Y-65978163D01*
X175933650Y-65978163D01*
X176029308Y-65968238D01*
X176029312Y-65968237D01*
X176036166Y-65967526D01*
X176042702Y-65965345D01*
X176042704Y-65965345D01*
X176186474Y-65917379D01*
X176203946Y-65911550D01*
X176354348Y-65818478D01*
X176440784Y-65731891D01*
X176503066Y-65697812D01*
X176573886Y-65702815D01*
X176618976Y-65731736D01*
X176706697Y-65819305D01*
X176712927Y-65823145D01*
X176712928Y-65823146D01*
X176850090Y-65907694D01*
X176857262Y-65912115D01*
X176920705Y-65933158D01*
X177018611Y-65965632D01*
X177018613Y-65965632D01*
X177025139Y-65967797D01*
X177031975Y-65968497D01*
X177031978Y-65968498D01*
X177075031Y-65972909D01*
X177129600Y-65978500D01*
X177755400Y-65978500D01*
X177758646Y-65978163D01*
X177758650Y-65978163D01*
X177854308Y-65968238D01*
X177854312Y-65968237D01*
X177861166Y-65967526D01*
X177867702Y-65965345D01*
X177867704Y-65965345D01*
X178011474Y-65917379D01*
X178028946Y-65911550D01*
X178179348Y-65818478D01*
X178304305Y-65693303D01*
X178397115Y-65542738D01*
X178398795Y-65543774D01*
X178439121Y-65497969D01*
X178506405Y-65478500D01*
X180568500Y-65478500D01*
X180636621Y-65498502D01*
X180683114Y-65552158D01*
X180694500Y-65604500D01*
X180694500Y-65618134D01*
X180701255Y-65680316D01*
X180752385Y-65816705D01*
X180839739Y-65933261D01*
X180956295Y-66020615D01*
X181092684Y-66071745D01*
X181154866Y-66078500D01*
X184351134Y-66078500D01*
X184413316Y-66071745D01*
X184549705Y-66020615D01*
X184666261Y-65933261D01*
X184753615Y-65816705D01*
X184804745Y-65680316D01*
X184811500Y-65618134D01*
X184811500Y-63921866D01*
X184804745Y-63859684D01*
X184753615Y-63723295D01*
X184666261Y-63606739D01*
X184657955Y-63600514D01*
X184657119Y-63599396D01*
X184652731Y-63595008D01*
X184653364Y-63594375D01*
X184615440Y-63543655D01*
X184610414Y-63472836D01*
X184644474Y-63410543D01*
X184657950Y-63398865D01*
X184658725Y-63398284D01*
X184671285Y-63385724D01*
X184747786Y-63283649D01*
X184756324Y-63268054D01*
X184801478Y-63147606D01*
X184805105Y-63132351D01*
X184810631Y-63081486D01*
X184811000Y-63074672D01*
X184811000Y-62502115D01*
X184806525Y-62486876D01*
X184805135Y-62485671D01*
X184797452Y-62484000D01*
X180713116Y-62484000D01*
X180697877Y-62488475D01*
X180696672Y-62489865D01*
X180695001Y-62497548D01*
X180695001Y-63074669D01*
X180695371Y-63081490D01*
X180700895Y-63132352D01*
X180704521Y-63147604D01*
X180749676Y-63268054D01*
X180758214Y-63283649D01*
X180834715Y-63385724D01*
X180847275Y-63398284D01*
X180848050Y-63398865D01*
X180848625Y-63399634D01*
X180853626Y-63404635D01*
X180852904Y-63405357D01*
X180890562Y-63455726D01*
X180895584Y-63526545D01*
X180861522Y-63588837D01*
X180848045Y-63600514D01*
X180839739Y-63606739D01*
X180752385Y-63723295D01*
X180701255Y-63859684D01*
X180694500Y-63921866D01*
X180694500Y-63935500D01*
X180674498Y-64003621D01*
X180620842Y-64050114D01*
X180568500Y-64061500D01*
X178506387Y-64061500D01*
X178438266Y-64041498D01*
X178397816Y-63995270D01*
X178396550Y-63996054D01*
X178307332Y-63851880D01*
X178303478Y-63845652D01*
X178178303Y-63720695D01*
X178136240Y-63694767D01*
X178033968Y-63631725D01*
X178033966Y-63631724D01*
X178027738Y-63627885D01*
X177941846Y-63599396D01*
X177866389Y-63574368D01*
X177866387Y-63574368D01*
X177859861Y-63572203D01*
X177853025Y-63571503D01*
X177853022Y-63571502D01*
X177805078Y-63566590D01*
X177755400Y-63561500D01*
X177129600Y-63561500D01*
X177126354Y-63561837D01*
X177126350Y-63561837D01*
X177030692Y-63571762D01*
X177030688Y-63571763D01*
X177023834Y-63572474D01*
X177017298Y-63574655D01*
X177017296Y-63574655D01*
X176885194Y-63618728D01*
X176856054Y-63628450D01*
X176705652Y-63721522D01*
X176626927Y-63800385D01*
X176619216Y-63808109D01*
X176556934Y-63842188D01*
X176486114Y-63837185D01*
X176441025Y-63808264D01*
X176358483Y-63725866D01*
X176353303Y-63720695D01*
X176311240Y-63694767D01*
X176208968Y-63631725D01*
X176208966Y-63631724D01*
X176202738Y-63627885D01*
X176116846Y-63599396D01*
X176041389Y-63574368D01*
X176041387Y-63574368D01*
X176034861Y-63572203D01*
X176028025Y-63571503D01*
X176028022Y-63571502D01*
X175980078Y-63566590D01*
X175930400Y-63561500D01*
X175304600Y-63561500D01*
X175301354Y-63561837D01*
X175301350Y-63561837D01*
X175205692Y-63571762D01*
X175205688Y-63571763D01*
X175198834Y-63572474D01*
X175192298Y-63574655D01*
X175192296Y-63574655D01*
X175060194Y-63618728D01*
X175031054Y-63628450D01*
X174880652Y-63721522D01*
X174755695Y-63846697D01*
X174751855Y-63852927D01*
X174751854Y-63852928D01*
X174707254Y-63925283D01*
X174662885Y-63997262D01*
X174648213Y-64041498D01*
X174612709Y-64148540D01*
X174607203Y-64165139D01*
X174606503Y-64171975D01*
X174606502Y-64171978D01*
X174602988Y-64206277D01*
X174596500Y-64269600D01*
X174596500Y-64316500D01*
X174576498Y-64384621D01*
X174522842Y-64431114D01*
X174470500Y-64442500D01*
X171254500Y-64442500D01*
X171186379Y-64422498D01*
X171139886Y-64368842D01*
X171128500Y-64316500D01*
X171128500Y-64202866D01*
X171121745Y-64140684D01*
X171070615Y-64004295D01*
X170983261Y-63887739D01*
X170866705Y-63800385D01*
X170730316Y-63749255D01*
X170668134Y-63742500D01*
X167071866Y-63742500D01*
X167009684Y-63749255D01*
X166873295Y-63800385D01*
X166756739Y-63887739D01*
X166669385Y-64004295D01*
X166618255Y-64140684D01*
X166611500Y-64202866D01*
X166611500Y-66099134D01*
X166128500Y-66099134D01*
X166128500Y-64202866D01*
X166121745Y-64140684D01*
X166070615Y-64004295D01*
X165983261Y-63887739D01*
X165866705Y-63800385D01*
X165730316Y-63749255D01*
X165668134Y-63742500D01*
X162071866Y-63742500D01*
X162009684Y-63749255D01*
X161873295Y-63800385D01*
X161756739Y-63887739D01*
X161669385Y-64004295D01*
X161618255Y-64140684D01*
X161611500Y-64202866D01*
X161611500Y-64316500D01*
X161591498Y-64384621D01*
X161537842Y-64431114D01*
X161485500Y-64442500D01*
X159921912Y-64442500D01*
X159913342Y-64442208D01*
X159863224Y-64438791D01*
X159863220Y-64438791D01*
X159855648Y-64438275D01*
X159848171Y-64439580D01*
X159848170Y-64439580D01*
X159833113Y-64442208D01*
X159792703Y-64449261D01*
X159786186Y-64450222D01*
X159722758Y-64457898D01*
X159715650Y-64460584D01*
X159713056Y-64461221D01*
X159696750Y-64465682D01*
X159694199Y-64466452D01*
X159686716Y-64467758D01*
X159679764Y-64470810D01*
X159679763Y-64470810D01*
X159628212Y-64493439D01*
X159622105Y-64495931D01*
X159569452Y-64515827D01*
X159562344Y-64518513D01*
X159556083Y-64522816D01*
X159553717Y-64524053D01*
X159538937Y-64532280D01*
X159536652Y-64533631D01*
X159529695Y-64536685D01*
X159523675Y-64541305D01*
X159523669Y-64541308D01*
X159492542Y-64565194D01*
X159478998Y-64575587D01*
X159473668Y-64579459D01*
X159427280Y-64611339D01*
X159427275Y-64611344D01*
X159421019Y-64615643D01*
X159415968Y-64621313D01*
X159415966Y-64621314D01*
X159379565Y-64662170D01*
X159374584Y-64667446D01*
X158015480Y-66026550D01*
X158009215Y-66032404D01*
X157965615Y-66070439D01*
X157961248Y-66076653D01*
X157928872Y-66122719D01*
X157924939Y-66128014D01*
X157885524Y-66178282D01*
X157882401Y-66185198D01*
X157881017Y-66187484D01*
X157872643Y-66202165D01*
X157871378Y-66204525D01*
X157867010Y-66210739D01*
X157864250Y-66217818D01*
X157864249Y-66217820D01*
X157843798Y-66270275D01*
X157841247Y-66276344D01*
X157814955Y-66334573D01*
X157813571Y-66342040D01*
X157812770Y-66344595D01*
X157808141Y-66360848D01*
X157807478Y-66363428D01*
X157804718Y-66370509D01*
X157803727Y-66378040D01*
X157803726Y-66378042D01*
X157796379Y-66433852D01*
X157795348Y-66440359D01*
X157783704Y-66503186D01*
X157784141Y-66510766D01*
X157784141Y-66510767D01*
X157787291Y-66565392D01*
X157787500Y-66572646D01*
X157787500Y-67453256D01*
X157767498Y-67521377D01*
X157763436Y-67527317D01*
X157761379Y-67530148D01*
X157756960Y-67535056D01*
X157753659Y-67540774D01*
X157753658Y-67540775D01*
X157686083Y-67657819D01*
X157661473Y-67700444D01*
X157602458Y-67882072D01*
X157601768Y-67888633D01*
X157601768Y-67888635D01*
X157589103Y-68009138D01*
X157582496Y-68072000D01*
X156200558Y-68072000D01*
X156141354Y-67935840D01*
X156072497Y-67829403D01*
X156022822Y-67752617D01*
X156022820Y-67752614D01*
X156020014Y-67748277D01*
X155869670Y-67583051D01*
X155865619Y-67579852D01*
X155865615Y-67579848D01*
X155698414Y-67447800D01*
X155698410Y-67447798D01*
X155694359Y-67444598D01*
X155653053Y-67421796D01*
X155603084Y-67371364D01*
X155588312Y-67301921D01*
X155613428Y-67235516D01*
X155640780Y-67208909D01*
X155684603Y-67177650D01*
X155819860Y-67081173D01*
X155978096Y-66923489D01*
X156037594Y-66840689D01*
X156105435Y-66746277D01*
X156108453Y-66742077D01*
X156141867Y-66674470D01*
X156205136Y-66546453D01*
X156205137Y-66546451D01*
X156207430Y-66541811D01*
X156272370Y-66328069D01*
X156301529Y-66106590D01*
X156301795Y-66095717D01*
X156303074Y-66043365D01*
X156303074Y-66043361D01*
X156303156Y-66040000D01*
X156284852Y-65817361D01*
X156230431Y-65600702D01*
X156141354Y-65395840D01*
X156058136Y-65267204D01*
X156022822Y-65212617D01*
X156022820Y-65212614D01*
X156020014Y-65208277D01*
X155869670Y-65043051D01*
X155865619Y-65039852D01*
X155865615Y-65039848D01*
X155698414Y-64907800D01*
X155698410Y-64907798D01*
X155694359Y-64904598D01*
X155653053Y-64881796D01*
X155603084Y-64831364D01*
X155588312Y-64761921D01*
X155613428Y-64695516D01*
X155640780Y-64668909D01*
X155707506Y-64621314D01*
X155819860Y-64541173D01*
X155842600Y-64518513D01*
X155974435Y-64387137D01*
X155978096Y-64383489D01*
X156037594Y-64300689D01*
X156105435Y-64206277D01*
X156108453Y-64202077D01*
X156134913Y-64148540D01*
X156205136Y-64006453D01*
X156205137Y-64006451D01*
X156207430Y-64001811D01*
X156272370Y-63788069D01*
X156301529Y-63566590D01*
X156301645Y-63561837D01*
X156303074Y-63503365D01*
X156303074Y-63503361D01*
X156303156Y-63500000D01*
X156284852Y-63277361D01*
X156230431Y-63060702D01*
X156141354Y-62855840D01*
X156033132Y-62688554D01*
X156022822Y-62672617D01*
X156022820Y-62672614D01*
X156020014Y-62668277D01*
X155869670Y-62503051D01*
X155865619Y-62499852D01*
X155865615Y-62499848D01*
X155845548Y-62484000D01*
X171806496Y-62484000D01*
X171807186Y-62490565D01*
X171825463Y-62664457D01*
X171826458Y-62673928D01*
X171885473Y-62855556D01*
X171980960Y-63020944D01*
X172108747Y-63162866D01*
X172263248Y-63275118D01*
X172269276Y-63277802D01*
X172269278Y-63277803D01*
X172431681Y-63350109D01*
X172437712Y-63352794D01*
X172531112Y-63372647D01*
X172618056Y-63391128D01*
X172618061Y-63391128D01*
X172624513Y-63392500D01*
X172815487Y-63392500D01*
X172821939Y-63391128D01*
X172821944Y-63391128D01*
X172908888Y-63372647D01*
X173002288Y-63352794D01*
X173008319Y-63350109D01*
X173170722Y-63277803D01*
X173170724Y-63277802D01*
X173176752Y-63275118D01*
X173331253Y-63162866D01*
X173459040Y-63020944D01*
X173554527Y-62855556D01*
X173613542Y-62673928D01*
X173614538Y-62664457D01*
X173632814Y-62490565D01*
X173633504Y-62484000D01*
X173621291Y-62367800D01*
X173614232Y-62300635D01*
X173614232Y-62300633D01*
X173613542Y-62294072D01*
X173554527Y-62112444D01*
X173492016Y-62004171D01*
X173462342Y-61952775D01*
X173462341Y-61952774D01*
X173459040Y-61947056D01*
X173454621Y-61942148D01*
X173452564Y-61939317D01*
X173428705Y-61872449D01*
X173428500Y-61865256D01*
X173428500Y-60538134D01*
X180694500Y-60538134D01*
X180701255Y-60600316D01*
X180752385Y-60736705D01*
X180839739Y-60853261D01*
X180846919Y-60858642D01*
X180848045Y-60859486D01*
X180848881Y-60860604D01*
X180853269Y-60864992D01*
X180852636Y-60865625D01*
X180890560Y-60916345D01*
X180895586Y-60987164D01*
X180861526Y-61049457D01*
X180848050Y-61061135D01*
X180847275Y-61061716D01*
X180834715Y-61074276D01*
X180758214Y-61176351D01*
X180749676Y-61191946D01*
X180704522Y-61312394D01*
X180700895Y-61327649D01*
X180695369Y-61378514D01*
X180695000Y-61385328D01*
X180695000Y-61957885D01*
X180699475Y-61973124D01*
X180700865Y-61974329D01*
X180708548Y-61976000D01*
X184792884Y-61976000D01*
X184808123Y-61971525D01*
X184809328Y-61970135D01*
X184810999Y-61962452D01*
X184810999Y-61385331D01*
X184810629Y-61378510D01*
X184805105Y-61327648D01*
X184801479Y-61312396D01*
X184756324Y-61191946D01*
X184747786Y-61176351D01*
X184671285Y-61074276D01*
X184658725Y-61061716D01*
X184657950Y-61061135D01*
X184657375Y-61060366D01*
X184652374Y-61055365D01*
X184653096Y-61054643D01*
X184615438Y-61004274D01*
X184610416Y-60933455D01*
X184644478Y-60871163D01*
X184657955Y-60859486D01*
X184659081Y-60858642D01*
X184666261Y-60853261D01*
X184753615Y-60736705D01*
X184804745Y-60600316D01*
X184811500Y-60538134D01*
X184811500Y-58841866D01*
X184804745Y-58779684D01*
X184753615Y-58643295D01*
X184666261Y-58526739D01*
X184549705Y-58439385D01*
X184413316Y-58388255D01*
X184351134Y-58381500D01*
X181154866Y-58381500D01*
X181092684Y-58388255D01*
X180956295Y-58439385D01*
X180839739Y-58526739D01*
X180752385Y-58643295D01*
X180701255Y-58779684D01*
X180694500Y-58841866D01*
X180694500Y-60538134D01*
X173428500Y-60538134D01*
X173428500Y-54974744D01*
X173448502Y-54906623D01*
X173452564Y-54900683D01*
X173454621Y-54897852D01*
X173459040Y-54892944D01*
X173544688Y-54744598D01*
X173551223Y-54733279D01*
X173551224Y-54733278D01*
X173554527Y-54727556D01*
X173613542Y-54545928D01*
X173615400Y-54528255D01*
X173632814Y-54362565D01*
X173633504Y-54356000D01*
X173613542Y-54166072D01*
X173554527Y-53984444D01*
X173459040Y-53819056D01*
X173331253Y-53677134D01*
X173176752Y-53564882D01*
X173170724Y-53562198D01*
X173170722Y-53562197D01*
X173008319Y-53489891D01*
X173008318Y-53489891D01*
X173002288Y-53487206D01*
X172908888Y-53467353D01*
X172821944Y-53448872D01*
X172821939Y-53448872D01*
X172815487Y-53447500D01*
X172624513Y-53447500D01*
X172618061Y-53448872D01*
X172618056Y-53448872D01*
X172531113Y-53467353D01*
X172437712Y-53487206D01*
X172431682Y-53489891D01*
X172431681Y-53489891D01*
X172269278Y-53562197D01*
X172269276Y-53562198D01*
X172263248Y-53564882D01*
X172108747Y-53677134D01*
X171980960Y-53819056D01*
X171885473Y-53984444D01*
X171826458Y-54166072D01*
X171806496Y-54356000D01*
X171807186Y-54362565D01*
X171824601Y-54528255D01*
X171826458Y-54545928D01*
X171885473Y-54727556D01*
X171888776Y-54733278D01*
X171888777Y-54733279D01*
X171895312Y-54744598D01*
X171980960Y-54892944D01*
X171985379Y-54897852D01*
X171987436Y-54900683D01*
X172011295Y-54967551D01*
X172011500Y-54974744D01*
X172011500Y-61865256D01*
X171991498Y-61933377D01*
X171987436Y-61939317D01*
X171985379Y-61942148D01*
X171980960Y-61947056D01*
X171977659Y-61952774D01*
X171977658Y-61952775D01*
X171947985Y-62004171D01*
X171885473Y-62112444D01*
X171826458Y-62294072D01*
X171825768Y-62300633D01*
X171825768Y-62300635D01*
X171818709Y-62367800D01*
X171806496Y-62484000D01*
X155845548Y-62484000D01*
X155698414Y-62367800D01*
X155698410Y-62367798D01*
X155694359Y-62364598D01*
X155653053Y-62341796D01*
X155603084Y-62291364D01*
X155588312Y-62221921D01*
X155613428Y-62155516D01*
X155640780Y-62128909D01*
X155684603Y-62097650D01*
X155819860Y-62001173D01*
X155868428Y-61952775D01*
X155908203Y-61913138D01*
X155978096Y-61843489D01*
X156037594Y-61760689D01*
X156105435Y-61666277D01*
X156108453Y-61662077D01*
X156179437Y-61518452D01*
X156205136Y-61466453D01*
X156205137Y-61466451D01*
X156207430Y-61461811D01*
X156252827Y-61312394D01*
X156270865Y-61253023D01*
X156270865Y-61253021D01*
X156272370Y-61248069D01*
X156301529Y-61026590D01*
X156302074Y-61004274D01*
X156303074Y-60963365D01*
X156303074Y-60963361D01*
X156303156Y-60960000D01*
X156284852Y-60737361D01*
X156230431Y-60520702D01*
X156141354Y-60315840D01*
X156020014Y-60128277D01*
X155869670Y-59963051D01*
X155865619Y-59959852D01*
X155865615Y-59959848D01*
X155698414Y-59827800D01*
X155698410Y-59827798D01*
X155694359Y-59824598D01*
X155652569Y-59801529D01*
X155602598Y-59751097D01*
X155587826Y-59681654D01*
X155612942Y-59615248D01*
X155640293Y-59588642D01*
X155689247Y-59553723D01*
X155697648Y-59543023D01*
X155690660Y-59529870D01*
X154952812Y-58792022D01*
X154938868Y-58784408D01*
X154937035Y-58784539D01*
X154930420Y-58788790D01*
X154186737Y-59532473D01*
X154179977Y-59544853D01*
X154185258Y-59551907D01*
X154231969Y-59579203D01*
X154280693Y-59630841D01*
X154293764Y-59700624D01*
X154267033Y-59766396D01*
X154226584Y-59799752D01*
X154213607Y-59806507D01*
X154209474Y-59809610D01*
X154209471Y-59809612D01*
X154185247Y-59827800D01*
X154034965Y-59940635D01*
X153880629Y-60102138D01*
X153754743Y-60286680D01*
X153660688Y-60489305D01*
X153600989Y-60704570D01*
X153577251Y-60926695D01*
X153577548Y-60931848D01*
X153577548Y-60931851D01*
X153585036Y-61061716D01*
X153590110Y-61149715D01*
X153591247Y-61154761D01*
X153591248Y-61154767D01*
X153599627Y-61191946D01*
X153639222Y-61367639D01*
X153723266Y-61574616D01*
X153839987Y-61765088D01*
X153986250Y-61933938D01*
X154158126Y-62076632D01*
X154219411Y-62112444D01*
X154231445Y-62119476D01*
X154280169Y-62171114D01*
X154293240Y-62240897D01*
X154266509Y-62306669D01*
X154226055Y-62340027D01*
X154213607Y-62346507D01*
X154209474Y-62349610D01*
X154209471Y-62349612D01*
X154102002Y-62430302D01*
X154034965Y-62480635D01*
X153969346Y-62549301D01*
X153902323Y-62619437D01*
X153880629Y-62642138D01*
X153754743Y-62826680D01*
X153707716Y-62927992D01*
X153676801Y-62994593D01*
X153660688Y-63029305D01*
X153600989Y-63244570D01*
X153577251Y-63466695D01*
X153577548Y-63471848D01*
X153577548Y-63471851D01*
X153586766Y-63631725D01*
X153590110Y-63689715D01*
X153591247Y-63694761D01*
X153591248Y-63694767D01*
X153602089Y-63742869D01*
X153639222Y-63907639D01*
X153723266Y-64114616D01*
X153839987Y-64305088D01*
X153986250Y-64473938D01*
X154113351Y-64579459D01*
X154151751Y-64611339D01*
X154158126Y-64616632D01*
X154228595Y-64657811D01*
X154231445Y-64659476D01*
X154280169Y-64711114D01*
X154293240Y-64780897D01*
X154266509Y-64846669D01*
X154226055Y-64880027D01*
X154213607Y-64886507D01*
X154209474Y-64889610D01*
X154209471Y-64889612D01*
X154185247Y-64907800D01*
X154034965Y-65020635D01*
X154031393Y-65024373D01*
X153884644Y-65177937D01*
X153880629Y-65182138D01*
X153877715Y-65186410D01*
X153877714Y-65186411D01*
X153865404Y-65204457D01*
X153754743Y-65366680D01*
X153739003Y-65400590D01*
X153668555Y-65552358D01*
X153660688Y-65569305D01*
X153600989Y-65784570D01*
X153577251Y-66006695D01*
X153577548Y-66011848D01*
X153577548Y-66011851D01*
X153589016Y-66210739D01*
X153590110Y-66229715D01*
X153591247Y-66234761D01*
X153591248Y-66234767D01*
X153605432Y-66297705D01*
X153639222Y-66447639D01*
X153723266Y-66654616D01*
X153839987Y-66845088D01*
X153986250Y-67013938D01*
X154158126Y-67156632D01*
X154228595Y-67197811D01*
X154231445Y-67199476D01*
X154280169Y-67251114D01*
X154293240Y-67320897D01*
X154266509Y-67386669D01*
X154226055Y-67420027D01*
X154213607Y-67426507D01*
X154209474Y-67429610D01*
X154209471Y-67429612D01*
X154079340Y-67527317D01*
X154034965Y-67560635D01*
X153880629Y-67722138D01*
X153877715Y-67726410D01*
X153877714Y-67726411D01*
X153854386Y-67760609D01*
X153754743Y-67906680D01*
X153739003Y-67940590D01*
X153681052Y-68065435D01*
X153660688Y-68109305D01*
X153600989Y-68324570D01*
X153577251Y-68546695D01*
X153577548Y-68551848D01*
X153577548Y-68551851D01*
X153583011Y-68646590D01*
X153590110Y-68769715D01*
X153591247Y-68774761D01*
X153591248Y-68774767D01*
X153611765Y-68865803D01*
X153639222Y-68987639D01*
X153723266Y-69194616D01*
X153759629Y-69253955D01*
X153833072Y-69373803D01*
X153839987Y-69385088D01*
X153986250Y-69553938D01*
X154158126Y-69696632D01*
X154228595Y-69737811D01*
X154231445Y-69739476D01*
X154280169Y-69791114D01*
X154293240Y-69860897D01*
X154266509Y-69926669D01*
X154226055Y-69960027D01*
X154213607Y-69966507D01*
X154209474Y-69969610D01*
X154209471Y-69969612D01*
X154185247Y-69987800D01*
X154034965Y-70100635D01*
X153880629Y-70262138D01*
X153754743Y-70446680D01*
X153660688Y-70649305D01*
X153600989Y-70864570D01*
X153577251Y-71086695D01*
X153577548Y-71091848D01*
X153577548Y-71091851D01*
X153583011Y-71186590D01*
X153590110Y-71309715D01*
X153591247Y-71314761D01*
X153591248Y-71314767D01*
X153611119Y-71402939D01*
X153639222Y-71527639D01*
X153723266Y-71734616D01*
X153839987Y-71925088D01*
X153986250Y-72093938D01*
X154158126Y-72236632D01*
X154175431Y-72246744D01*
X154231445Y-72279476D01*
X154280169Y-72331114D01*
X154293240Y-72400897D01*
X154266509Y-72466669D01*
X154226055Y-72500027D01*
X154213607Y-72506507D01*
X154209474Y-72509610D01*
X154209471Y-72509612D01*
X154069033Y-72615056D01*
X154034965Y-72640635D01*
X153880629Y-72802138D01*
X153877715Y-72806410D01*
X153877714Y-72806411D01*
X153818005Y-72893941D01*
X153754743Y-72986680D01*
X153739003Y-73020590D01*
X153681052Y-73145435D01*
X153660688Y-73189305D01*
X153600989Y-73404570D01*
X153577251Y-73626695D01*
X153577548Y-73631848D01*
X153577548Y-73631851D01*
X153583011Y-73726590D01*
X153590110Y-73849715D01*
X153591247Y-73854761D01*
X153591248Y-73854767D01*
X153611765Y-73945803D01*
X153639222Y-74067639D01*
X153677461Y-74161811D01*
X153706535Y-74233411D01*
X153723266Y-74274616D01*
X153839987Y-74465088D01*
X153986250Y-74633938D01*
X154158126Y-74776632D01*
X154228595Y-74817811D01*
X154231445Y-74819476D01*
X154280169Y-74871114D01*
X154293240Y-74940897D01*
X154266509Y-75006669D01*
X154226055Y-75040027D01*
X154213607Y-75046507D01*
X154209474Y-75049610D01*
X154209471Y-75049612D01*
X154185247Y-75067800D01*
X154034965Y-75180635D01*
X153880629Y-75342138D01*
X153754743Y-75526680D01*
X153660688Y-75729305D01*
X153600989Y-75944570D01*
X153577251Y-76166695D01*
X153577548Y-76171848D01*
X153577548Y-76171851D01*
X153583011Y-76266590D01*
X153590110Y-76389715D01*
X153591247Y-76394761D01*
X153591248Y-76394767D01*
X153611119Y-76482939D01*
X153639222Y-76607639D01*
X153723266Y-76814616D01*
X153725965Y-76819020D01*
X153801704Y-76942615D01*
X153839987Y-77005088D01*
X153986250Y-77173938D01*
X154158126Y-77316632D01*
X154219411Y-77352444D01*
X154231445Y-77359476D01*
X154280169Y-77411114D01*
X154293240Y-77480897D01*
X154266509Y-77546669D01*
X154226055Y-77580027D01*
X154213607Y-77586507D01*
X154209474Y-77589610D01*
X154209471Y-77589612D01*
X154079340Y-77687317D01*
X154034965Y-77720635D01*
X153880629Y-77882138D01*
X153754743Y-78066680D01*
X153739003Y-78100590D01*
X153665598Y-78258728D01*
X153660688Y-78269305D01*
X153600989Y-78484570D01*
X153577251Y-78706695D01*
X153577548Y-78711848D01*
X153577548Y-78711851D01*
X153583011Y-78806590D01*
X153590110Y-78929715D01*
X153591247Y-78934761D01*
X153591248Y-78934767D01*
X153611765Y-79025803D01*
X153639222Y-79147639D01*
X153723266Y-79354616D01*
X153839987Y-79545088D01*
X153986250Y-79713938D01*
X154158126Y-79856632D01*
X154228595Y-79897811D01*
X154231445Y-79899476D01*
X154280169Y-79951114D01*
X154293240Y-80020897D01*
X154266509Y-80086669D01*
X154226055Y-80120027D01*
X154213607Y-80126507D01*
X154209474Y-80129610D01*
X154209471Y-80129612D01*
X154039100Y-80257530D01*
X154034965Y-80260635D01*
X153880629Y-80422138D01*
X153754743Y-80606680D01*
X153660688Y-80809305D01*
X153600989Y-81024570D01*
X153577251Y-81246695D01*
X153577548Y-81251848D01*
X153577548Y-81251851D01*
X153583011Y-81346590D01*
X153590110Y-81469715D01*
X153591247Y-81474761D01*
X153591248Y-81474767D01*
X153597048Y-81500502D01*
X153639222Y-81687639D01*
X153675582Y-81777183D01*
X153720385Y-81887520D01*
X153723266Y-81894616D01*
X153725965Y-81899020D01*
X153824858Y-82060399D01*
X153839987Y-82085088D01*
X153986250Y-82253938D01*
X154158126Y-82396632D01*
X154228595Y-82437811D01*
X154231445Y-82439476D01*
X154280169Y-82491114D01*
X154293240Y-82560897D01*
X154266509Y-82626669D01*
X154226055Y-82660027D01*
X154213607Y-82666507D01*
X154209474Y-82669610D01*
X154209471Y-82669612D01*
X154092262Y-82757615D01*
X154034965Y-82800635D01*
X153880629Y-82962138D01*
X153754743Y-83146680D01*
X153660688Y-83349305D01*
X153600989Y-83564570D01*
X153577251Y-83786695D01*
X153577548Y-83791848D01*
X153577548Y-83791851D01*
X153583011Y-83886590D01*
X153590110Y-84009715D01*
X153591247Y-84014761D01*
X153591248Y-84014767D01*
X153611119Y-84102939D01*
X153639222Y-84227639D01*
X153723266Y-84434616D01*
X153725965Y-84439020D01*
X153833072Y-84613803D01*
X153839987Y-84625088D01*
X153986250Y-84793938D01*
X154158126Y-84936632D01*
X154219411Y-84972444D01*
X154231445Y-84979476D01*
X154280169Y-85031114D01*
X154293240Y-85100897D01*
X154266509Y-85166669D01*
X154226055Y-85200027D01*
X154213607Y-85206507D01*
X154209474Y-85209610D01*
X154209471Y-85209612D01*
X154052776Y-85327262D01*
X154034965Y-85340635D01*
X153880629Y-85502138D01*
X153877715Y-85506410D01*
X153877714Y-85506411D01*
X153854661Y-85540206D01*
X153754743Y-85686680D01*
X153660688Y-85889305D01*
X153600989Y-86104570D01*
X153577251Y-86326695D01*
X153577548Y-86331848D01*
X153577548Y-86331851D01*
X153583011Y-86426590D01*
X153590110Y-86549715D01*
X153591247Y-86554761D01*
X153591248Y-86554767D01*
X153611119Y-86642939D01*
X153639222Y-86767639D01*
X153677461Y-86861811D01*
X153706535Y-86933411D01*
X153723266Y-86974616D01*
X153839987Y-87165088D01*
X153986250Y-87333938D01*
X154158126Y-87476632D01*
X154228595Y-87517811D01*
X154231445Y-87519476D01*
X154280169Y-87571114D01*
X154293240Y-87640897D01*
X154266509Y-87706669D01*
X154226055Y-87740027D01*
X154213607Y-87746507D01*
X154209474Y-87749610D01*
X154209471Y-87749612D01*
X154039100Y-87877530D01*
X154034965Y-87880635D01*
X153880629Y-88042138D01*
X153754743Y-88226680D01*
X153739003Y-88260590D01*
X153681052Y-88385435D01*
X153660688Y-88429305D01*
X153600989Y-88644570D01*
X153577251Y-88866695D01*
X153577548Y-88871848D01*
X153577548Y-88871851D01*
X153583011Y-88966590D01*
X153590110Y-89089715D01*
X153591247Y-89094761D01*
X153591248Y-89094767D01*
X153611119Y-89182939D01*
X153639222Y-89307639D01*
X153723266Y-89514616D01*
X153839987Y-89705088D01*
X153986250Y-89873938D01*
X154158126Y-90016632D01*
X154228595Y-90057811D01*
X154231445Y-90059476D01*
X154280169Y-90111114D01*
X154293240Y-90180897D01*
X154266509Y-90246669D01*
X154226055Y-90280027D01*
X154213607Y-90286507D01*
X154209474Y-90289610D01*
X154209471Y-90289612D01*
X154069069Y-90395029D01*
X154034965Y-90420635D01*
X153880629Y-90582138D01*
X153754743Y-90766680D01*
X153660688Y-90969305D01*
X153600989Y-91184570D01*
X153577251Y-91406695D01*
X153577548Y-91411848D01*
X153577548Y-91411851D01*
X153583011Y-91506590D01*
X153590110Y-91629715D01*
X153591247Y-91634761D01*
X153591248Y-91634767D01*
X153606822Y-91703871D01*
X153639222Y-91847639D01*
X153723266Y-92054616D01*
X153839987Y-92245088D01*
X153986250Y-92413938D01*
X154158126Y-92556632D01*
X154226284Y-92596460D01*
X154231445Y-92599476D01*
X154280169Y-92651114D01*
X154293240Y-92720897D01*
X154266509Y-92786669D01*
X154226055Y-92820027D01*
X154213607Y-92826507D01*
X154209474Y-92829610D01*
X154209471Y-92829612D01*
X154039100Y-92957530D01*
X154034965Y-92960635D01*
X154031393Y-92964373D01*
X153922545Y-93078276D01*
X153880629Y-93122138D01*
X153754743Y-93306680D01*
X153660688Y-93509305D01*
X153600989Y-93724570D01*
X153577251Y-93946695D01*
X153577548Y-93951848D01*
X153577548Y-93951851D01*
X153583011Y-94046590D01*
X153590110Y-94169715D01*
X153591247Y-94174761D01*
X153591248Y-94174767D01*
X153597430Y-94202197D01*
X153639222Y-94387639D01*
X153723266Y-94594616D01*
X153839987Y-94785088D01*
X153986250Y-94953938D01*
X154158126Y-95096632D01*
X154175431Y-95106744D01*
X154231445Y-95139476D01*
X154280169Y-95191114D01*
X154293240Y-95260897D01*
X154266509Y-95326669D01*
X154226055Y-95360027D01*
X154213607Y-95366507D01*
X154209474Y-95369610D01*
X154209471Y-95369612D01*
X154066662Y-95476836D01*
X154034965Y-95500635D01*
X154031393Y-95504373D01*
X153915115Y-95626051D01*
X153880629Y-95662138D01*
X153877715Y-95666410D01*
X153877714Y-95666411D01*
X153837273Y-95725696D01*
X153754743Y-95846680D01*
X153660688Y-96049305D01*
X153600989Y-96264570D01*
X153577251Y-96486695D01*
X153577548Y-96491848D01*
X153577548Y-96491851D01*
X153587296Y-96660919D01*
X153590110Y-96709715D01*
X153591247Y-96714761D01*
X153591248Y-96714767D01*
X153603743Y-96770209D01*
X153639222Y-96927639D01*
X153723266Y-97134616D01*
X153839987Y-97325088D01*
X153986250Y-97493938D01*
X154158126Y-97636632D01*
X154226284Y-97676460D01*
X154231445Y-97679476D01*
X154280169Y-97731114D01*
X154293240Y-97800897D01*
X154266509Y-97866669D01*
X154226055Y-97900027D01*
X154213607Y-97906507D01*
X154209474Y-97909610D01*
X154209471Y-97909612D01*
X154044890Y-98033183D01*
X154034965Y-98040635D01*
X153880629Y-98202138D01*
X153754743Y-98386680D01*
X153739003Y-98420590D01*
X153662929Y-98584478D01*
X153660688Y-98589305D01*
X153600989Y-98804570D01*
X153577251Y-99026695D01*
X153577548Y-99031848D01*
X153577548Y-99031851D01*
X153583011Y-99126590D01*
X153590110Y-99249715D01*
X153591247Y-99254761D01*
X153591248Y-99254767D01*
X153605667Y-99318745D01*
X153639222Y-99467639D01*
X153723266Y-99674616D01*
X153839987Y-99865088D01*
X153986250Y-100033938D01*
X154158126Y-100176632D01*
X154228595Y-100217811D01*
X154231445Y-100219476D01*
X154280169Y-100271114D01*
X154293240Y-100340897D01*
X154266509Y-100406669D01*
X154226055Y-100440027D01*
X154213607Y-100446507D01*
X154209474Y-100449610D01*
X154209471Y-100449612D01*
X154039100Y-100577530D01*
X154034965Y-100580635D01*
X153880629Y-100742138D01*
X153754743Y-100926680D01*
X153660688Y-101129305D01*
X153600989Y-101344570D01*
X153577251Y-101566695D01*
X153577548Y-101571848D01*
X153577548Y-101571851D01*
X153583011Y-101666590D01*
X153590110Y-101789715D01*
X153591247Y-101794761D01*
X153591248Y-101794767D01*
X153611119Y-101882939D01*
X153639222Y-102007639D01*
X153679346Y-102106453D01*
X153717537Y-102200506D01*
X153723266Y-102214616D01*
X153725965Y-102219020D01*
X153833445Y-102394412D01*
X153839987Y-102405088D01*
X153986250Y-102573938D01*
X154158126Y-102716632D01*
X154169063Y-102723023D01*
X154231445Y-102759476D01*
X154280169Y-102811114D01*
X154293240Y-102880897D01*
X154266509Y-102946669D01*
X154226055Y-102980027D01*
X154213607Y-102986507D01*
X154209474Y-102989610D01*
X154209471Y-102989612D01*
X154185247Y-103007800D01*
X154034965Y-103120635D01*
X153880629Y-103282138D01*
X153754743Y-103466680D01*
X153660688Y-103669305D01*
X153600989Y-103884570D01*
X153577251Y-104106695D01*
X148086185Y-104106695D01*
X148086185Y-99146597D01*
X148086477Y-99138027D01*
X148089894Y-99087909D01*
X148089894Y-99087905D01*
X148090410Y-99080333D01*
X148086041Y-99055297D01*
X148079425Y-99017393D01*
X148078462Y-99010867D01*
X148071700Y-98954989D01*
X148070787Y-98947443D01*
X148068101Y-98940335D01*
X148067464Y-98937741D01*
X148063003Y-98921435D01*
X148062233Y-98918884D01*
X148060927Y-98911401D01*
X148042109Y-98868531D01*
X148035246Y-98852897D01*
X148032754Y-98846790D01*
X148012858Y-98794137D01*
X148012858Y-98794136D01*
X148010172Y-98787029D01*
X148005869Y-98780768D01*
X148004632Y-98778402D01*
X147996405Y-98763622D01*
X147995054Y-98761337D01*
X147992000Y-98754380D01*
X147987380Y-98748360D01*
X147987377Y-98748354D01*
X147953106Y-98703694D01*
X147949226Y-98698353D01*
X147917346Y-98651965D01*
X147917341Y-98651960D01*
X147913042Y-98645704D01*
X147890613Y-98625720D01*
X147866515Y-98604250D01*
X147861239Y-98599269D01*
X141071383Y-91809413D01*
X141037357Y-91747101D01*
X141035556Y-91703871D01*
X141061092Y-91509908D01*
X141061529Y-91506590D01*
X141063156Y-91440000D01*
X141044852Y-91217361D01*
X140990431Y-91000702D01*
X140901354Y-90795840D01*
X140780014Y-90608277D01*
X140629670Y-90443051D01*
X140625619Y-90439852D01*
X140625615Y-90439848D01*
X140458414Y-90307800D01*
X140458410Y-90307798D01*
X140454359Y-90304598D01*
X140413053Y-90281796D01*
X140363084Y-90231364D01*
X140348312Y-90161921D01*
X140373428Y-90095516D01*
X140400780Y-90068909D01*
X140444603Y-90037650D01*
X140579860Y-89941173D01*
X140738096Y-89783489D01*
X140797594Y-89700689D01*
X140865435Y-89606277D01*
X140868453Y-89602077D01*
X140967430Y-89401811D01*
X141032370Y-89188069D01*
X141061529Y-88966590D01*
X141063156Y-88900000D01*
X141044852Y-88677361D01*
X140990431Y-88460702D01*
X140901354Y-88255840D01*
X140780014Y-88068277D01*
X140629670Y-87903051D01*
X140625619Y-87899852D01*
X140625615Y-87899848D01*
X140458414Y-87767800D01*
X140458410Y-87767798D01*
X140454359Y-87764598D01*
X140413053Y-87741796D01*
X140363084Y-87691364D01*
X140348312Y-87621921D01*
X140373428Y-87555516D01*
X140400780Y-87528909D01*
X140464441Y-87483500D01*
X140579860Y-87401173D01*
X140738096Y-87243489D01*
X140797594Y-87160689D01*
X140865435Y-87066277D01*
X140868453Y-87062077D01*
X140876167Y-87046470D01*
X140965136Y-86866453D01*
X140965137Y-86866451D01*
X140967430Y-86861811D01*
X141019176Y-86691496D01*
X141030865Y-86653023D01*
X141030865Y-86653021D01*
X141032370Y-86648069D01*
X141061529Y-86426590D01*
X141063156Y-86360000D01*
X141044852Y-86137361D01*
X140990431Y-85920702D01*
X140901354Y-85715840D01*
X140802874Y-85563613D01*
X140782822Y-85532617D01*
X140782820Y-85532614D01*
X140780014Y-85528277D01*
X140629670Y-85363051D01*
X140625619Y-85359852D01*
X140625615Y-85359848D01*
X140458414Y-85227800D01*
X140458410Y-85227798D01*
X140454359Y-85224598D01*
X140413053Y-85201796D01*
X140363084Y-85151364D01*
X140348312Y-85081921D01*
X140373428Y-85015516D01*
X140400780Y-84988909D01*
X140444603Y-84957650D01*
X140579860Y-84861173D01*
X140628428Y-84812775D01*
X140685966Y-84755437D01*
X140738096Y-84703489D01*
X140747670Y-84690166D01*
X140865435Y-84526277D01*
X140868453Y-84522077D01*
X140878006Y-84502749D01*
X140965136Y-84326453D01*
X140965137Y-84326451D01*
X140967430Y-84321811D01*
X141032370Y-84108069D01*
X141061529Y-83886590D01*
X141063156Y-83820000D01*
X141044852Y-83597361D01*
X140990431Y-83380702D01*
X140901354Y-83175840D01*
X140861906Y-83114862D01*
X140782822Y-82992617D01*
X140782820Y-82992614D01*
X140780014Y-82988277D01*
X140629670Y-82823051D01*
X140625619Y-82819852D01*
X140625615Y-82819848D01*
X140458414Y-82687800D01*
X140458410Y-82687798D01*
X140454359Y-82684598D01*
X140413053Y-82661796D01*
X140363084Y-82611364D01*
X140348312Y-82541921D01*
X140373428Y-82475516D01*
X140400780Y-82448909D01*
X140456085Y-82409460D01*
X140579860Y-82321173D01*
X140738096Y-82163489D01*
X140768574Y-82121075D01*
X140865435Y-81986277D01*
X140868453Y-81982077D01*
X140888382Y-81941755D01*
X140965136Y-81786453D01*
X140965137Y-81786451D01*
X140967430Y-81781811D01*
X141032370Y-81568069D01*
X141061529Y-81346590D01*
X141063156Y-81280000D01*
X141044852Y-81057361D01*
X140990431Y-80840702D01*
X140901354Y-80635840D01*
X140861906Y-80574862D01*
X140782822Y-80452617D01*
X140782820Y-80452614D01*
X140780014Y-80448277D01*
X140629670Y-80283051D01*
X140625619Y-80279852D01*
X140625615Y-80279848D01*
X140458414Y-80147800D01*
X140458410Y-80147798D01*
X140454359Y-80144598D01*
X140413053Y-80121796D01*
X140363084Y-80071364D01*
X140348312Y-80001921D01*
X140373428Y-79935516D01*
X140400780Y-79908909D01*
X140466987Y-79861684D01*
X140579860Y-79781173D01*
X140738096Y-79623489D01*
X140757125Y-79597008D01*
X140865435Y-79446277D01*
X140868453Y-79442077D01*
X140885970Y-79406635D01*
X140965136Y-79246453D01*
X140965137Y-79246451D01*
X140967430Y-79241811D01*
X141032370Y-79028069D01*
X141061529Y-78806590D01*
X141061794Y-78795739D01*
X141063074Y-78743365D01*
X141063074Y-78743361D01*
X141063156Y-78740000D01*
X141044852Y-78517361D01*
X140990431Y-78300702D01*
X140901354Y-78095840D01*
X140861906Y-78034862D01*
X140782822Y-77912617D01*
X140782820Y-77912614D01*
X140780014Y-77908277D01*
X140629670Y-77743051D01*
X140625619Y-77739852D01*
X140625615Y-77739848D01*
X140458414Y-77607800D01*
X140458410Y-77607798D01*
X140454359Y-77604598D01*
X140413053Y-77581796D01*
X140363084Y-77531364D01*
X140348312Y-77461921D01*
X140373428Y-77395516D01*
X140400780Y-77368909D01*
X140455822Y-77329648D01*
X140579860Y-77241173D01*
X140585139Y-77235913D01*
X140734435Y-77087137D01*
X140738096Y-77083489D01*
X140797594Y-77000689D01*
X140865435Y-76906277D01*
X140868453Y-76902077D01*
X140888932Y-76860642D01*
X140965136Y-76706453D01*
X140965137Y-76706451D01*
X140967430Y-76701811D01*
X141032370Y-76488069D01*
X141061529Y-76266590D01*
X141063156Y-76200000D01*
X141044852Y-75977361D01*
X140990431Y-75760702D01*
X140901354Y-75555840D01*
X140780014Y-75368277D01*
X140629670Y-75203051D01*
X140625619Y-75199852D01*
X140625615Y-75199848D01*
X140458414Y-75067800D01*
X140458410Y-75067798D01*
X140454359Y-75064598D01*
X140413053Y-75041796D01*
X140363084Y-74991364D01*
X140348312Y-74921921D01*
X140373428Y-74855516D01*
X140400780Y-74828909D01*
X140466987Y-74781684D01*
X140579860Y-74701173D01*
X140738096Y-74543489D01*
X140797594Y-74460689D01*
X140865435Y-74366277D01*
X140868453Y-74362077D01*
X140876167Y-74346470D01*
X140965136Y-74166453D01*
X140965137Y-74166451D01*
X140967430Y-74161811D01*
X141032370Y-73948069D01*
X141061529Y-73726590D01*
X141063156Y-73660000D01*
X141044852Y-73437361D01*
X140990431Y-73220702D01*
X140901354Y-73015840D01*
X140780014Y-72828277D01*
X140629670Y-72663051D01*
X140625619Y-72659852D01*
X140625615Y-72659848D01*
X140458414Y-72527800D01*
X140458410Y-72527798D01*
X140454359Y-72524598D01*
X140413053Y-72501796D01*
X140363084Y-72451364D01*
X140348312Y-72381921D01*
X140373428Y-72315516D01*
X140400780Y-72288909D01*
X140469977Y-72239551D01*
X140579860Y-72161173D01*
X140738096Y-72003489D01*
X140797594Y-71920689D01*
X140865435Y-71826277D01*
X140868453Y-71822077D01*
X140967430Y-71621811D01*
X141032370Y-71408069D01*
X141061529Y-71186590D01*
X141063156Y-71120000D01*
X141044852Y-70897361D01*
X140990431Y-70680702D01*
X140901354Y-70475840D01*
X140780014Y-70288277D01*
X140629670Y-70123051D01*
X140625619Y-70119852D01*
X140625615Y-70119848D01*
X140458414Y-69987800D01*
X140458410Y-69987798D01*
X140454359Y-69984598D01*
X140413053Y-69961796D01*
X140363084Y-69911364D01*
X140348312Y-69841921D01*
X140373428Y-69775516D01*
X140400780Y-69748909D01*
X140444603Y-69717650D01*
X140579860Y-69621173D01*
X140738096Y-69463489D01*
X140747670Y-69450166D01*
X140865435Y-69286277D01*
X140868453Y-69282077D01*
X140878006Y-69262749D01*
X140965136Y-69086453D01*
X140965137Y-69086451D01*
X140967430Y-69081811D01*
X141011090Y-68938109D01*
X141030865Y-68873023D01*
X141030865Y-68873021D01*
X141032370Y-68868069D01*
X141061529Y-68646590D01*
X141063156Y-68580000D01*
X141044852Y-68357361D01*
X140990431Y-68140702D01*
X140901354Y-67935840D01*
X140832497Y-67829403D01*
X140782822Y-67752617D01*
X140782820Y-67752614D01*
X140780014Y-67748277D01*
X140629670Y-67583051D01*
X140625619Y-67579852D01*
X140625615Y-67579848D01*
X140458414Y-67447800D01*
X140458410Y-67447798D01*
X140454359Y-67444598D01*
X140413053Y-67421796D01*
X140363084Y-67371364D01*
X140348312Y-67301921D01*
X140373428Y-67235516D01*
X140400780Y-67208909D01*
X140444603Y-67177650D01*
X140579860Y-67081173D01*
X140738096Y-66923489D01*
X140797594Y-66840689D01*
X140865435Y-66746277D01*
X140868453Y-66742077D01*
X140901867Y-66674470D01*
X140965136Y-66546453D01*
X140965137Y-66546451D01*
X140967430Y-66541811D01*
X141032370Y-66328069D01*
X141061529Y-66106590D01*
X141061795Y-66095717D01*
X141063074Y-66043365D01*
X141063074Y-66043361D01*
X141063156Y-66040000D01*
X141044852Y-65817361D01*
X140990431Y-65600702D01*
X140901354Y-65395840D01*
X140818136Y-65267204D01*
X140782822Y-65212617D01*
X140782820Y-65212614D01*
X140780014Y-65208277D01*
X140629670Y-65043051D01*
X140625619Y-65039852D01*
X140625615Y-65039848D01*
X140458414Y-64907800D01*
X140458410Y-64907798D01*
X140454359Y-64904598D01*
X140413053Y-64881796D01*
X140363084Y-64831364D01*
X140348312Y-64761921D01*
X140373428Y-64695516D01*
X140400780Y-64668909D01*
X140467506Y-64621314D01*
X140579860Y-64541173D01*
X140602600Y-64518513D01*
X140734435Y-64387137D01*
X140738096Y-64383489D01*
X140797594Y-64300689D01*
X140865435Y-64206277D01*
X140868453Y-64202077D01*
X140894913Y-64148540D01*
X140965136Y-64006453D01*
X140965137Y-64006451D01*
X140967430Y-64001811D01*
X141032370Y-63788069D01*
X141061529Y-63566590D01*
X141061645Y-63561837D01*
X141063074Y-63503365D01*
X141063074Y-63503361D01*
X141063156Y-63500000D01*
X141044852Y-63277361D01*
X140990431Y-63060702D01*
X140901354Y-62855840D01*
X140793132Y-62688554D01*
X140782822Y-62672617D01*
X140782820Y-62672614D01*
X140780014Y-62668277D01*
X140629670Y-62503051D01*
X140625619Y-62499852D01*
X140625615Y-62499848D01*
X140458414Y-62367800D01*
X140458410Y-62367798D01*
X140454359Y-62364598D01*
X140413053Y-62341796D01*
X140363084Y-62291364D01*
X140348312Y-62221921D01*
X140373428Y-62155516D01*
X140400780Y-62128909D01*
X140444603Y-62097650D01*
X140579860Y-62001173D01*
X140628428Y-61952775D01*
X140668203Y-61913138D01*
X140738096Y-61843489D01*
X140797594Y-61760689D01*
X140865435Y-61666277D01*
X140868453Y-61662077D01*
X140939437Y-61518452D01*
X140965136Y-61466453D01*
X140965137Y-61466451D01*
X140967430Y-61461811D01*
X141012827Y-61312394D01*
X141030865Y-61253023D01*
X141030865Y-61253021D01*
X141032370Y-61248069D01*
X141061529Y-61026590D01*
X141062074Y-61004274D01*
X141063074Y-60963365D01*
X141063074Y-60963361D01*
X141063156Y-60960000D01*
X141044852Y-60737361D01*
X140990431Y-60520702D01*
X140901354Y-60315840D01*
X140780014Y-60128277D01*
X140629670Y-59963051D01*
X140625619Y-59959852D01*
X140625615Y-59959848D01*
X140458414Y-59827800D01*
X140458410Y-59827798D01*
X140454359Y-59824598D01*
X140413053Y-59801796D01*
X140363084Y-59751364D01*
X140348312Y-59681921D01*
X140373428Y-59615516D01*
X140400780Y-59588909D01*
X140465110Y-59543023D01*
X140579860Y-59461173D01*
X140738096Y-59303489D01*
X140826132Y-59180974D01*
X140882127Y-59137326D01*
X140928455Y-59128500D01*
X142910340Y-59128500D01*
X142978461Y-59148502D01*
X142999435Y-59165405D01*
X149622595Y-65788565D01*
X149656621Y-65850877D01*
X149659500Y-65877660D01*
X149659500Y-93869256D01*
X149639498Y-93937377D01*
X149635436Y-93943317D01*
X149633379Y-93946148D01*
X149628960Y-93951056D01*
X149625659Y-93956774D01*
X149625658Y-93956775D01*
X149571888Y-94049908D01*
X149533473Y-94116444D01*
X149474458Y-94298072D01*
X149473768Y-94304633D01*
X149473768Y-94304635D01*
X149471938Y-94322045D01*
X149454496Y-94488000D01*
X149455186Y-94494565D01*
X149466165Y-94599020D01*
X149474458Y-94677928D01*
X149533473Y-94859556D01*
X149536776Y-94865278D01*
X149536777Y-94865279D01*
X149563708Y-94911925D01*
X149628960Y-95024944D01*
X149633378Y-95029851D01*
X149633379Y-95029852D01*
X149743005Y-95151604D01*
X149756747Y-95166866D01*
X149911248Y-95279118D01*
X149917276Y-95281802D01*
X149917278Y-95281803D01*
X150078255Y-95353474D01*
X150085712Y-95356794D01*
X150179113Y-95376647D01*
X150266056Y-95395128D01*
X150266061Y-95395128D01*
X150272513Y-95396500D01*
X150463487Y-95396500D01*
X150469939Y-95395128D01*
X150469944Y-95395128D01*
X150556887Y-95376647D01*
X150650288Y-95356794D01*
X150657745Y-95353474D01*
X150818722Y-95281803D01*
X150818724Y-95281802D01*
X150824752Y-95279118D01*
X150979253Y-95166866D01*
X150992995Y-95151604D01*
X151102621Y-95029852D01*
X151102622Y-95029851D01*
X151107040Y-95024944D01*
X151172292Y-94911925D01*
X151199223Y-94865279D01*
X151199224Y-94865278D01*
X151202527Y-94859556D01*
X151261542Y-94677928D01*
X151269836Y-94599020D01*
X151280814Y-94494565D01*
X151281504Y-94488000D01*
X151264062Y-94322045D01*
X151262232Y-94304635D01*
X151262232Y-94304633D01*
X151261542Y-94298072D01*
X151202527Y-94116444D01*
X151164113Y-94049908D01*
X151110342Y-93956775D01*
X151110341Y-93956774D01*
X151107040Y-93951056D01*
X151102621Y-93946148D01*
X151100564Y-93943317D01*
X151076705Y-93876449D01*
X151076500Y-93869256D01*
X151076500Y-65560927D01*
X151076792Y-65552358D01*
X151080210Y-65502225D01*
X151080210Y-65502221D01*
X151080726Y-65494648D01*
X151069736Y-65431681D01*
X151068775Y-65425165D01*
X151064700Y-65391492D01*
X151061102Y-65361758D01*
X151058419Y-65354657D01*
X151057778Y-65352048D01*
X151053309Y-65335715D01*
X151052548Y-65333195D01*
X151051243Y-65325717D01*
X151048191Y-65318764D01*
X151025559Y-65267204D01*
X151023068Y-65261099D01*
X151003175Y-65208456D01*
X151003173Y-65208452D01*
X151000487Y-65201344D01*
X150996184Y-65195083D01*
X150994947Y-65192717D01*
X150986720Y-65177937D01*
X150985369Y-65175652D01*
X150982315Y-65168695D01*
X150977695Y-65162675D01*
X150977692Y-65162669D01*
X150943421Y-65118009D01*
X150939541Y-65112668D01*
X150907661Y-65066280D01*
X150907656Y-65066275D01*
X150903357Y-65060019D01*
X150856829Y-65018564D01*
X150851554Y-65013584D01*
X144229833Y-58391863D01*
X153578050Y-58391863D01*
X153590309Y-58604477D01*
X153591745Y-58614697D01*
X153638565Y-58822446D01*
X153641645Y-58832275D01*
X153721770Y-59029603D01*
X153726413Y-59038794D01*
X153806460Y-59169420D01*
X153816916Y-59178880D01*
X153825694Y-59175096D01*
X154567978Y-58432812D01*
X154574356Y-58421132D01*
X155304408Y-58421132D01*
X155304539Y-58422965D01*
X155308790Y-58429580D01*
X156050474Y-59171264D01*
X156062484Y-59177823D01*
X156074223Y-59168855D01*
X156105004Y-59126019D01*
X156110315Y-59117180D01*
X156204670Y-58926267D01*
X156208469Y-58916672D01*
X156270376Y-58712915D01*
X156272555Y-58702834D01*
X156300590Y-58489887D01*
X156301109Y-58483212D01*
X156302572Y-58423364D01*
X156302378Y-58416646D01*
X156284781Y-58202604D01*
X156283096Y-58192424D01*
X156231214Y-57985875D01*
X156227894Y-57976124D01*
X156142972Y-57780814D01*
X156138105Y-57771739D01*
X156073063Y-57671197D01*
X156062377Y-57661995D01*
X156052812Y-57666398D01*
X155312022Y-58407188D01*
X155304408Y-58421132D01*
X154574356Y-58421132D01*
X154575592Y-58418868D01*
X154575461Y-58417035D01*
X154571210Y-58410420D01*
X153829849Y-57669059D01*
X153818313Y-57662759D01*
X153806031Y-57672382D01*
X153758089Y-57742662D01*
X153753004Y-57751613D01*
X153663338Y-57944783D01*
X153659775Y-57954470D01*
X153602864Y-58159681D01*
X153600933Y-58169800D01*
X153578302Y-58381574D01*
X153578050Y-58391863D01*
X144229833Y-58391863D01*
X143777450Y-57939480D01*
X143771596Y-57933215D01*
X143771201Y-57932762D01*
X143733561Y-57889615D01*
X143681280Y-57852871D01*
X143675986Y-57848939D01*
X143631693Y-57814209D01*
X143625718Y-57809524D01*
X143618802Y-57806401D01*
X143616516Y-57805017D01*
X143601835Y-57796643D01*
X143599475Y-57795378D01*
X143593261Y-57791010D01*
X143586182Y-57788250D01*
X143586180Y-57788249D01*
X143533725Y-57767798D01*
X143527656Y-57765247D01*
X143469427Y-57738955D01*
X143461960Y-57737571D01*
X143459405Y-57736770D01*
X143443152Y-57732141D01*
X143440572Y-57731478D01*
X143433491Y-57728718D01*
X143425960Y-57727727D01*
X143425958Y-57727726D01*
X143396339Y-57723827D01*
X143370139Y-57720378D01*
X143363641Y-57719348D01*
X143300814Y-57707704D01*
X143293234Y-57708141D01*
X143293233Y-57708141D01*
X143238608Y-57711291D01*
X143231354Y-57711500D01*
X140928286Y-57711500D01*
X140860165Y-57691498D01*
X140822494Y-57653941D01*
X140782818Y-57592612D01*
X140780014Y-57588277D01*
X140776532Y-57584450D01*
X140632798Y-57426488D01*
X140601746Y-57362642D01*
X140610141Y-57292143D01*
X140655317Y-57237375D01*
X140681761Y-57223706D01*
X140788297Y-57183767D01*
X140796705Y-57180615D01*
X140913261Y-57093261D01*
X141000615Y-56976705D01*
X141051745Y-56840316D01*
X141058500Y-56778134D01*
X141058500Y-55846695D01*
X153577251Y-55846695D01*
X153577548Y-55851848D01*
X153577548Y-55851851D01*
X153583011Y-55946590D01*
X153590110Y-56069715D01*
X153591247Y-56074761D01*
X153591248Y-56074767D01*
X153611119Y-56162939D01*
X153639222Y-56287639D01*
X153723266Y-56494616D01*
X153839987Y-56685088D01*
X153986250Y-56853938D01*
X154158126Y-56996632D01*
X154231955Y-57039774D01*
X154280679Y-57091412D01*
X154293750Y-57161195D01*
X154267019Y-57226967D01*
X154226562Y-57260327D01*
X154218460Y-57264544D01*
X154209734Y-57270039D01*
X154189677Y-57285099D01*
X154181223Y-57296427D01*
X154187968Y-57308758D01*
X154927188Y-58047978D01*
X154941132Y-58055592D01*
X154942965Y-58055461D01*
X154949580Y-58051210D01*
X155693389Y-57307401D01*
X155700410Y-57294544D01*
X155693611Y-57285213D01*
X155689559Y-57282521D01*
X155652602Y-57262120D01*
X155602631Y-57211687D01*
X155587859Y-57142245D01*
X155612975Y-57075839D01*
X155640327Y-57049232D01*
X155663797Y-57032491D01*
X155819860Y-56921173D01*
X155978096Y-56763489D01*
X156037594Y-56680689D01*
X156105435Y-56586277D01*
X156108453Y-56582077D01*
X156207430Y-56381811D01*
X156272370Y-56168069D01*
X156301529Y-55946590D01*
X156303156Y-55880000D01*
X156284852Y-55657361D01*
X156230431Y-55440702D01*
X156141354Y-55235840D01*
X156020014Y-55048277D01*
X155869670Y-54883051D01*
X155865619Y-54879852D01*
X155865615Y-54879848D01*
X155698414Y-54747800D01*
X155698410Y-54747798D01*
X155694359Y-54744598D01*
X155498789Y-54636638D01*
X155493920Y-54634914D01*
X155493916Y-54634912D01*
X155293087Y-54563795D01*
X155293083Y-54563794D01*
X155288212Y-54562069D01*
X155283119Y-54561162D01*
X155283116Y-54561161D01*
X155073373Y-54523800D01*
X155073367Y-54523799D01*
X155068284Y-54522894D01*
X154994452Y-54521992D01*
X154850081Y-54520228D01*
X154850079Y-54520228D01*
X154844911Y-54520165D01*
X154624091Y-54553955D01*
X154411756Y-54623357D01*
X154213607Y-54726507D01*
X154209474Y-54729610D01*
X154209471Y-54729612D01*
X154039100Y-54857530D01*
X154034965Y-54860635D01*
X153880629Y-55022138D01*
X153754743Y-55206680D01*
X153660688Y-55409305D01*
X153600989Y-55624570D01*
X153577251Y-55846695D01*
X141058500Y-55846695D01*
X141058500Y-54981866D01*
X141051745Y-54919684D01*
X141000615Y-54783295D01*
X140913261Y-54666739D01*
X140796705Y-54579385D01*
X140660316Y-54528255D01*
X140598134Y-54521500D01*
X138801866Y-54521500D01*
X138739684Y-54528255D01*
X138603295Y-54579385D01*
X138486739Y-54666739D01*
X138399385Y-54783295D01*
X138348255Y-54919684D01*
X138341500Y-54981866D01*
X138341500Y-56778134D01*
X138348255Y-56840316D01*
X138399385Y-56976705D01*
X138486739Y-57093261D01*
X138603295Y-57180615D01*
X138611704Y-57183767D01*
X138611705Y-57183768D01*
X138720451Y-57224535D01*
X138777216Y-57267176D01*
X138801916Y-57333738D01*
X138786709Y-57403087D01*
X138767316Y-57429568D01*
X138640629Y-57562138D01*
X138514743Y-57746680D01*
X138494166Y-57791010D01*
X138425249Y-57939480D01*
X138420688Y-57949305D01*
X138360989Y-58164570D01*
X138337251Y-58386695D01*
X138337548Y-58391848D01*
X138337548Y-58391851D01*
X138342816Y-58483212D01*
X138350110Y-58609715D01*
X138351247Y-58614761D01*
X138351248Y-58614767D01*
X138373367Y-58712915D01*
X138399222Y-58827639D01*
X138483266Y-59034616D01*
X138599987Y-59225088D01*
X138746250Y-59393938D01*
X138918126Y-59536632D01*
X138929063Y-59543023D01*
X138991445Y-59579476D01*
X139040169Y-59631114D01*
X139053240Y-59700897D01*
X139026509Y-59766669D01*
X138986055Y-59800027D01*
X138973607Y-59806507D01*
X138969474Y-59809610D01*
X138969471Y-59809612D01*
X138945247Y-59827800D01*
X138794965Y-59940635D01*
X138640629Y-60102138D01*
X138514743Y-60286680D01*
X138420688Y-60489305D01*
X138360989Y-60704570D01*
X138337251Y-60926695D01*
X138337548Y-60931848D01*
X138337548Y-60931851D01*
X138345036Y-61061716D01*
X138350110Y-61149715D01*
X138351247Y-61154761D01*
X138351248Y-61154767D01*
X138359627Y-61191946D01*
X138399222Y-61367639D01*
X138483266Y-61574616D01*
X138599987Y-61765088D01*
X138746250Y-61933938D01*
X138918126Y-62076632D01*
X138979411Y-62112444D01*
X138991445Y-62119476D01*
X139040169Y-62171114D01*
X139053240Y-62240897D01*
X139026509Y-62306669D01*
X138986055Y-62340027D01*
X138973607Y-62346507D01*
X138969474Y-62349610D01*
X138969471Y-62349612D01*
X138862002Y-62430302D01*
X138794965Y-62480635D01*
X138729346Y-62549301D01*
X138662323Y-62619437D01*
X138640629Y-62642138D01*
X138514743Y-62826680D01*
X138467716Y-62927992D01*
X138436801Y-62994593D01*
X138420688Y-63029305D01*
X138360989Y-63244570D01*
X138337251Y-63466695D01*
X138337548Y-63471848D01*
X138337548Y-63471851D01*
X138346766Y-63631725D01*
X138350110Y-63689715D01*
X138351247Y-63694761D01*
X138351248Y-63694767D01*
X138362089Y-63742869D01*
X138399222Y-63907639D01*
X138483266Y-64114616D01*
X138599987Y-64305088D01*
X138746250Y-64473938D01*
X138873351Y-64579459D01*
X138911751Y-64611339D01*
X138918126Y-64616632D01*
X138988595Y-64657811D01*
X138991445Y-64659476D01*
X139040169Y-64711114D01*
X139053240Y-64780897D01*
X139026509Y-64846669D01*
X138986055Y-64880027D01*
X138973607Y-64886507D01*
X138969474Y-64889610D01*
X138969471Y-64889612D01*
X138945247Y-64907800D01*
X138794965Y-65020635D01*
X138791393Y-65024373D01*
X138644644Y-65177937D01*
X138640629Y-65182138D01*
X138637715Y-65186410D01*
X138637714Y-65186411D01*
X138625404Y-65204457D01*
X138514743Y-65366680D01*
X138499003Y-65400590D01*
X138428555Y-65552358D01*
X138420688Y-65569305D01*
X138360989Y-65784570D01*
X138337251Y-66006695D01*
X138337548Y-66011848D01*
X138337548Y-66011851D01*
X138349016Y-66210739D01*
X138350110Y-66229715D01*
X138351247Y-66234761D01*
X138351248Y-66234767D01*
X138365432Y-66297705D01*
X138399222Y-66447639D01*
X138483266Y-66654616D01*
X138599987Y-66845088D01*
X138746250Y-67013938D01*
X138918126Y-67156632D01*
X138988595Y-67197811D01*
X138991445Y-67199476D01*
X139040169Y-67251114D01*
X139053240Y-67320897D01*
X139026509Y-67386669D01*
X138986055Y-67420027D01*
X138973607Y-67426507D01*
X138969474Y-67429610D01*
X138969471Y-67429612D01*
X138839340Y-67527317D01*
X138794965Y-67560635D01*
X138640629Y-67722138D01*
X138637715Y-67726410D01*
X138637714Y-67726411D01*
X138614386Y-67760609D01*
X138514743Y-67906680D01*
X138499003Y-67940590D01*
X138441052Y-68065435D01*
X138420688Y-68109305D01*
X138360989Y-68324570D01*
X138337251Y-68546695D01*
X138337548Y-68551848D01*
X138337548Y-68551851D01*
X138343011Y-68646590D01*
X138350110Y-68769715D01*
X138351247Y-68774761D01*
X138351248Y-68774767D01*
X138371765Y-68865803D01*
X138399222Y-68987639D01*
X138483266Y-69194616D01*
X138519629Y-69253955D01*
X138593072Y-69373803D01*
X138599987Y-69385088D01*
X138746250Y-69553938D01*
X138918126Y-69696632D01*
X138988595Y-69737811D01*
X138991445Y-69739476D01*
X139040169Y-69791114D01*
X139053240Y-69860897D01*
X139026509Y-69926669D01*
X138986055Y-69960027D01*
X138973607Y-69966507D01*
X138969474Y-69969610D01*
X138969471Y-69969612D01*
X138945247Y-69987800D01*
X138794965Y-70100635D01*
X138640629Y-70262138D01*
X138514743Y-70446680D01*
X138420688Y-70649305D01*
X138360989Y-70864570D01*
X138337251Y-71086695D01*
X138337548Y-71091848D01*
X138337548Y-71091851D01*
X138343011Y-71186590D01*
X138350110Y-71309715D01*
X138351247Y-71314761D01*
X138351248Y-71314767D01*
X138371119Y-71402939D01*
X138399222Y-71527639D01*
X138483266Y-71734616D01*
X138599987Y-71925088D01*
X138746250Y-72093938D01*
X138918126Y-72236632D01*
X138935431Y-72246744D01*
X138991445Y-72279476D01*
X139040169Y-72331114D01*
X139053240Y-72400897D01*
X139026509Y-72466669D01*
X138986055Y-72500027D01*
X138973607Y-72506507D01*
X138969474Y-72509610D01*
X138969471Y-72509612D01*
X138829033Y-72615056D01*
X138794965Y-72640635D01*
X138640629Y-72802138D01*
X138637715Y-72806410D01*
X138637714Y-72806411D01*
X138578005Y-72893941D01*
X138514743Y-72986680D01*
X138499003Y-73020590D01*
X138441052Y-73145435D01*
X138420688Y-73189305D01*
X138360989Y-73404570D01*
X138337251Y-73626695D01*
X138337548Y-73631848D01*
X138337548Y-73631851D01*
X138343011Y-73726590D01*
X138350110Y-73849715D01*
X138351247Y-73854761D01*
X138351248Y-73854767D01*
X138371765Y-73945803D01*
X138399222Y-74067639D01*
X138437461Y-74161811D01*
X138466535Y-74233411D01*
X138483266Y-74274616D01*
X138599987Y-74465088D01*
X138746250Y-74633938D01*
X138918126Y-74776632D01*
X138988595Y-74817811D01*
X138991445Y-74819476D01*
X139040169Y-74871114D01*
X139053240Y-74940897D01*
X139026509Y-75006669D01*
X138986055Y-75040027D01*
X138973607Y-75046507D01*
X138969474Y-75049610D01*
X138969471Y-75049612D01*
X138945247Y-75067800D01*
X138794965Y-75180635D01*
X138640629Y-75342138D01*
X138514743Y-75526680D01*
X138420688Y-75729305D01*
X138360989Y-75944570D01*
X138337251Y-76166695D01*
X138337548Y-76171848D01*
X138337548Y-76171851D01*
X138343011Y-76266590D01*
X138350110Y-76389715D01*
X138351247Y-76394761D01*
X138351248Y-76394767D01*
X138371119Y-76482939D01*
X138399222Y-76607639D01*
X138483266Y-76814616D01*
X138485965Y-76819020D01*
X138561704Y-76942615D01*
X138599987Y-77005088D01*
X138746250Y-77173938D01*
X138918126Y-77316632D01*
X138979411Y-77352444D01*
X138991445Y-77359476D01*
X139040169Y-77411114D01*
X139053240Y-77480897D01*
X139026509Y-77546669D01*
X138986055Y-77580027D01*
X138973607Y-77586507D01*
X138969474Y-77589610D01*
X138969471Y-77589612D01*
X138839340Y-77687317D01*
X138794965Y-77720635D01*
X138640629Y-77882138D01*
X138514743Y-78066680D01*
X138499003Y-78100590D01*
X138425598Y-78258728D01*
X138420688Y-78269305D01*
X138360989Y-78484570D01*
X138337251Y-78706695D01*
X138337548Y-78711848D01*
X138337548Y-78711851D01*
X138343011Y-78806590D01*
X138350110Y-78929715D01*
X138351247Y-78934761D01*
X138351248Y-78934767D01*
X138371765Y-79025803D01*
X138399222Y-79147639D01*
X138483266Y-79354616D01*
X138599987Y-79545088D01*
X138746250Y-79713938D01*
X138918126Y-79856632D01*
X138988595Y-79897811D01*
X138991445Y-79899476D01*
X139040169Y-79951114D01*
X139053240Y-80020897D01*
X139026509Y-80086669D01*
X138986055Y-80120027D01*
X138973607Y-80126507D01*
X138969474Y-80129610D01*
X138969471Y-80129612D01*
X138799100Y-80257530D01*
X138794965Y-80260635D01*
X138640629Y-80422138D01*
X138514743Y-80606680D01*
X138420688Y-80809305D01*
X138360989Y-81024570D01*
X138337251Y-81246695D01*
X138337548Y-81251848D01*
X138337548Y-81251851D01*
X138343011Y-81346590D01*
X138350110Y-81469715D01*
X138351247Y-81474761D01*
X138351248Y-81474767D01*
X138357048Y-81500502D01*
X138399222Y-81687639D01*
X138435582Y-81777183D01*
X138480385Y-81887520D01*
X138483266Y-81894616D01*
X138485965Y-81899020D01*
X138584858Y-82060399D01*
X138599987Y-82085088D01*
X138746250Y-82253938D01*
X138918126Y-82396632D01*
X138988595Y-82437811D01*
X138991445Y-82439476D01*
X139040169Y-82491114D01*
X139053240Y-82560897D01*
X139026509Y-82626669D01*
X138986055Y-82660027D01*
X138973607Y-82666507D01*
X138969474Y-82669610D01*
X138969471Y-82669612D01*
X138852262Y-82757615D01*
X138794965Y-82800635D01*
X138640629Y-82962138D01*
X138514743Y-83146680D01*
X138420688Y-83349305D01*
X138360989Y-83564570D01*
X138337251Y-83786695D01*
X138337548Y-83791848D01*
X138337548Y-83791851D01*
X138343011Y-83886590D01*
X138350110Y-84009715D01*
X138351247Y-84014761D01*
X138351248Y-84014767D01*
X138371119Y-84102939D01*
X138399222Y-84227639D01*
X138483266Y-84434616D01*
X138485965Y-84439020D01*
X138593072Y-84613803D01*
X138599987Y-84625088D01*
X138746250Y-84793938D01*
X138918126Y-84936632D01*
X138979411Y-84972444D01*
X138991445Y-84979476D01*
X139040169Y-85031114D01*
X139053240Y-85100897D01*
X139026509Y-85166669D01*
X138986055Y-85200027D01*
X138973607Y-85206507D01*
X138969474Y-85209610D01*
X138969471Y-85209612D01*
X138812776Y-85327262D01*
X138794965Y-85340635D01*
X138640629Y-85502138D01*
X138637715Y-85506410D01*
X138637714Y-85506411D01*
X138614661Y-85540206D01*
X138514743Y-85686680D01*
X138420688Y-85889305D01*
X138360989Y-86104570D01*
X138337251Y-86326695D01*
X138337548Y-86331848D01*
X138337548Y-86331851D01*
X138343011Y-86426590D01*
X138350110Y-86549715D01*
X138351247Y-86554761D01*
X138351248Y-86554767D01*
X138371119Y-86642939D01*
X138399222Y-86767639D01*
X138437461Y-86861811D01*
X138466535Y-86933411D01*
X138483266Y-86974616D01*
X138599987Y-87165088D01*
X138746250Y-87333938D01*
X138918126Y-87476632D01*
X138988595Y-87517811D01*
X138991445Y-87519476D01*
X139040169Y-87571114D01*
X139053240Y-87640897D01*
X139026509Y-87706669D01*
X138986055Y-87740027D01*
X138973607Y-87746507D01*
X138969474Y-87749610D01*
X138969471Y-87749612D01*
X138799100Y-87877530D01*
X138794965Y-87880635D01*
X138640629Y-88042138D01*
X138514743Y-88226680D01*
X138499003Y-88260590D01*
X138441052Y-88385435D01*
X138420688Y-88429305D01*
X138360989Y-88644570D01*
X138337251Y-88866695D01*
X138337548Y-88871848D01*
X138337548Y-88871851D01*
X138343011Y-88966590D01*
X138350110Y-89089715D01*
X138351247Y-89094761D01*
X138351248Y-89094767D01*
X138371119Y-89182939D01*
X138399222Y-89307639D01*
X138483266Y-89514616D01*
X138599987Y-89705088D01*
X138746250Y-89873938D01*
X138918126Y-90016632D01*
X138988595Y-90057811D01*
X138991445Y-90059476D01*
X139040169Y-90111114D01*
X139053240Y-90180897D01*
X139026509Y-90246669D01*
X138986055Y-90280027D01*
X138973607Y-90286507D01*
X138969474Y-90289610D01*
X138969471Y-90289612D01*
X138829069Y-90395029D01*
X138794965Y-90420635D01*
X138640629Y-90582138D01*
X138514743Y-90766680D01*
X138420688Y-90969305D01*
X138360989Y-91184570D01*
X138337251Y-91406695D01*
X138337548Y-91411848D01*
X138337548Y-91411851D01*
X138343011Y-91506590D01*
X138350110Y-91629715D01*
X138351247Y-91634761D01*
X138351248Y-91634767D01*
X138366822Y-91703871D01*
X138399222Y-91847639D01*
X138483266Y-92054616D01*
X138599987Y-92245088D01*
X138746250Y-92413938D01*
X138918126Y-92556632D01*
X138986284Y-92596460D01*
X138991445Y-92599476D01*
X139040169Y-92651114D01*
X139053240Y-92720897D01*
X139026509Y-92786669D01*
X138986055Y-92820027D01*
X138973607Y-92826507D01*
X138969474Y-92829610D01*
X138969471Y-92829612D01*
X138799100Y-92957530D01*
X138794965Y-92960635D01*
X138791393Y-92964373D01*
X138682545Y-93078276D01*
X138640629Y-93122138D01*
X138514743Y-93306680D01*
X138420688Y-93509305D01*
X138360989Y-93724570D01*
X138337251Y-93946695D01*
X138337548Y-93951848D01*
X138337548Y-93951851D01*
X138343011Y-94046590D01*
X138350110Y-94169715D01*
X138351247Y-94174761D01*
X138351248Y-94174767D01*
X138357430Y-94202197D01*
X138399222Y-94387639D01*
X138483266Y-94594616D01*
X138599987Y-94785088D01*
X138746250Y-94953938D01*
X138918126Y-95096632D01*
X138935431Y-95106744D01*
X138991445Y-95139476D01*
X139040169Y-95191114D01*
X139053240Y-95260897D01*
X139026509Y-95326669D01*
X138986055Y-95360027D01*
X138973607Y-95366507D01*
X138969474Y-95369610D01*
X138969471Y-95369612D01*
X138826662Y-95476836D01*
X138794965Y-95500635D01*
X138791393Y-95504373D01*
X138675115Y-95626051D01*
X138640629Y-95662138D01*
X138637715Y-95666410D01*
X138637714Y-95666411D01*
X138597273Y-95725696D01*
X138514743Y-95846680D01*
X138420688Y-96049305D01*
X138360989Y-96264570D01*
X138337251Y-96486695D01*
X138337548Y-96491848D01*
X138337548Y-96491851D01*
X138347296Y-96660919D01*
X138350110Y-96709715D01*
X138351247Y-96714761D01*
X138351248Y-96714767D01*
X138363743Y-96770209D01*
X138399222Y-96927639D01*
X138483266Y-97134616D01*
X138599987Y-97325088D01*
X138746250Y-97493938D01*
X138918126Y-97636632D01*
X138986284Y-97676460D01*
X138991445Y-97679476D01*
X139040169Y-97731114D01*
X139053240Y-97800897D01*
X139026509Y-97866669D01*
X138986055Y-97900027D01*
X138973607Y-97906507D01*
X138969474Y-97909610D01*
X138969471Y-97909612D01*
X138804890Y-98033183D01*
X138794965Y-98040635D01*
X138640629Y-98202138D01*
X138514743Y-98386680D01*
X138499003Y-98420590D01*
X138422929Y-98584478D01*
X138420688Y-98589305D01*
X138360989Y-98804570D01*
X138337251Y-99026695D01*
X138337548Y-99031848D01*
X138337548Y-99031851D01*
X138343011Y-99126590D01*
X138350110Y-99249715D01*
X138351247Y-99254761D01*
X138351248Y-99254767D01*
X138365667Y-99318745D01*
X138399222Y-99467639D01*
X138483266Y-99674616D01*
X138599987Y-99865088D01*
X138746250Y-100033938D01*
X138918126Y-100176632D01*
X138991445Y-100219476D01*
X138991955Y-100219774D01*
X139040679Y-100271412D01*
X139053750Y-100341195D01*
X139027019Y-100406967D01*
X138986562Y-100440327D01*
X138978460Y-100444544D01*
X138969734Y-100450039D01*
X138949677Y-100465099D01*
X138941223Y-100476427D01*
X138947968Y-100488758D01*
X139687188Y-101227978D01*
X139701132Y-101235592D01*
X139702965Y-101235461D01*
X139709580Y-101231210D01*
X140453389Y-100487401D01*
X140460410Y-100474544D01*
X140453611Y-100465213D01*
X140449559Y-100462521D01*
X140412602Y-100442120D01*
X140362631Y-100391687D01*
X140347859Y-100322245D01*
X140372975Y-100255839D01*
X140400327Y-100229232D01*
X140423797Y-100212491D01*
X140579860Y-100101173D01*
X140738096Y-99943489D01*
X140797594Y-99860689D01*
X140865435Y-99766277D01*
X140868453Y-99762077D01*
X140880230Y-99738249D01*
X140965136Y-99566453D01*
X140965137Y-99566451D01*
X140967430Y-99561811D01*
X141032370Y-99348069D01*
X141061529Y-99126590D01*
X141062890Y-99070891D01*
X141063074Y-99063365D01*
X141063074Y-99063361D01*
X141063156Y-99060000D01*
X141044852Y-98837361D01*
X140990431Y-98620702D01*
X140901354Y-98415840D01*
X140843845Y-98326944D01*
X140782822Y-98232617D01*
X140782820Y-98232614D01*
X140780014Y-98228277D01*
X140629670Y-98063051D01*
X140625619Y-98059852D01*
X140625615Y-98059848D01*
X140458414Y-97927800D01*
X140458410Y-97927798D01*
X140454359Y-97924598D01*
X140413053Y-97901796D01*
X140363084Y-97851364D01*
X140348312Y-97781921D01*
X140373428Y-97715516D01*
X140400780Y-97688909D01*
X140444603Y-97657650D01*
X140579860Y-97561173D01*
X140738096Y-97403489D01*
X140797594Y-97320689D01*
X140865435Y-97226277D01*
X140868453Y-97222077D01*
X140880791Y-97197114D01*
X140965136Y-97026453D01*
X140965137Y-97026451D01*
X140967430Y-97021811D01*
X141032370Y-96808069D01*
X141051743Y-96660919D01*
X141056460Y-96625095D01*
X141085183Y-96560168D01*
X141144448Y-96521077D01*
X141215440Y-96520232D01*
X141270477Y-96552447D01*
X143415157Y-98697128D01*
X145558595Y-100840566D01*
X145592621Y-100902878D01*
X145595500Y-100929661D01*
X145595500Y-104632967D01*
X145575498Y-104701088D01*
X145521842Y-104747581D01*
X145451568Y-104757685D01*
X145392170Y-104729872D01*
X145391253Y-104731134D01*
X145242094Y-104622763D01*
X145242093Y-104622762D01*
X145236752Y-104618882D01*
X145230724Y-104616198D01*
X145230722Y-104616197D01*
X145068319Y-104543891D01*
X145068318Y-104543891D01*
X145062288Y-104541206D01*
X144968887Y-104521353D01*
X144881944Y-104502872D01*
X144881939Y-104502872D01*
X144875487Y-104501500D01*
X144684513Y-104501500D01*
X144678061Y-104502872D01*
X144678056Y-104502872D01*
X144591112Y-104521353D01*
X144497712Y-104541206D01*
X144491682Y-104543891D01*
X144491681Y-104543891D01*
X144329278Y-104616197D01*
X144329276Y-104616198D01*
X144323248Y-104618882D01*
X144317907Y-104622762D01*
X144317906Y-104622763D01*
X144291689Y-104641811D01*
X144168747Y-104731134D01*
X144164326Y-104736044D01*
X144164325Y-104736045D01*
X144068854Y-104842077D01*
X144040960Y-104873056D01*
X143945473Y-105038444D01*
X143943431Y-105044729D01*
X143912565Y-105139725D01*
X143886458Y-105220072D01*
X143882616Y-105256632D01*
X143881550Y-105266770D01*
X143854537Y-105332427D01*
X143845335Y-105342695D01*
X143253435Y-105934595D01*
X143191123Y-105968621D01*
X143164340Y-105971500D01*
X136235660Y-105971500D01*
X136167539Y-105951498D01*
X136146565Y-105934595D01*
X135365405Y-105153435D01*
X135331379Y-105091123D01*
X135328500Y-105064340D01*
X135328500Y-104106695D01*
X138337251Y-104106695D01*
X138337548Y-104111848D01*
X138337548Y-104111851D01*
X138343011Y-104206590D01*
X138350110Y-104329715D01*
X138351247Y-104334761D01*
X138351248Y-104334767D01*
X138371119Y-104422939D01*
X138399222Y-104547639D01*
X138437461Y-104641811D01*
X138473219Y-104729872D01*
X138483266Y-104754616D01*
X138533976Y-104837367D01*
X138581109Y-104914281D01*
X138599987Y-104945088D01*
X138746250Y-105113938D01*
X138918126Y-105256632D01*
X139111000Y-105369338D01*
X139115825Y-105371180D01*
X139115826Y-105371181D01*
X139164213Y-105389658D01*
X139319692Y-105449030D01*
X139324760Y-105450061D01*
X139324763Y-105450062D01*
X139432017Y-105471883D01*
X139538597Y-105493567D01*
X139543772Y-105493757D01*
X139543774Y-105493757D01*
X139756673Y-105501564D01*
X139756677Y-105501564D01*
X139761837Y-105501753D01*
X139766957Y-105501097D01*
X139766959Y-105501097D01*
X139978288Y-105474025D01*
X139978289Y-105474025D01*
X139983416Y-105473368D01*
X140045206Y-105454830D01*
X140192429Y-105410661D01*
X140192434Y-105410659D01*
X140197384Y-105409174D01*
X140397994Y-105310896D01*
X140579860Y-105181173D01*
X140738096Y-105023489D01*
X140776803Y-104969623D01*
X140865435Y-104846277D01*
X140868453Y-104842077D01*
X140967430Y-104641811D01*
X141010060Y-104501500D01*
X141030865Y-104433023D01*
X141030865Y-104433021D01*
X141032370Y-104428069D01*
X141061529Y-104206590D01*
X141063156Y-104140000D01*
X141044852Y-103917361D01*
X140990431Y-103700702D01*
X140901354Y-103495840D01*
X140780014Y-103308277D01*
X140629670Y-103143051D01*
X140625619Y-103139852D01*
X140625615Y-103139848D01*
X140458414Y-103007800D01*
X140458410Y-103007798D01*
X140454359Y-103004598D01*
X140412569Y-102981529D01*
X140362598Y-102931097D01*
X140347826Y-102861654D01*
X140372942Y-102795248D01*
X140400293Y-102768642D01*
X140449247Y-102733723D01*
X140457648Y-102723023D01*
X140450660Y-102709870D01*
X139712812Y-101972022D01*
X139698868Y-101964408D01*
X139697035Y-101964539D01*
X139690420Y-101968790D01*
X138946737Y-102712473D01*
X138939977Y-102724853D01*
X138945258Y-102731907D01*
X138991969Y-102759203D01*
X139040693Y-102810841D01*
X139053764Y-102880624D01*
X139027033Y-102946396D01*
X138986584Y-102979752D01*
X138973607Y-102986507D01*
X138969474Y-102989610D01*
X138969471Y-102989612D01*
X138945247Y-103007800D01*
X138794965Y-103120635D01*
X138640629Y-103282138D01*
X138514743Y-103466680D01*
X138420688Y-103669305D01*
X138360989Y-103884570D01*
X138337251Y-104106695D01*
X135328500Y-104106695D01*
X135328500Y-101571863D01*
X138338050Y-101571863D01*
X138350309Y-101784477D01*
X138351745Y-101794697D01*
X138398565Y-102002446D01*
X138401645Y-102012275D01*
X138481770Y-102209603D01*
X138486413Y-102218794D01*
X138566460Y-102349420D01*
X138576916Y-102358880D01*
X138585694Y-102355096D01*
X139327978Y-101612812D01*
X139334356Y-101601132D01*
X140064408Y-101601132D01*
X140064539Y-101602965D01*
X140068790Y-101609580D01*
X140810474Y-102351264D01*
X140822484Y-102357823D01*
X140834223Y-102348855D01*
X140865004Y-102306019D01*
X140870315Y-102297180D01*
X140964670Y-102106267D01*
X140968469Y-102096672D01*
X141030376Y-101892915D01*
X141032555Y-101882834D01*
X141060590Y-101669887D01*
X141061109Y-101663212D01*
X141062572Y-101603364D01*
X141062378Y-101596646D01*
X141044781Y-101382604D01*
X141043096Y-101372424D01*
X140991214Y-101165875D01*
X140987894Y-101156124D01*
X140902972Y-100960814D01*
X140898105Y-100951739D01*
X140833063Y-100851197D01*
X140822377Y-100841995D01*
X140812812Y-100846398D01*
X140072022Y-101587188D01*
X140064408Y-101601132D01*
X139334356Y-101601132D01*
X139335592Y-101598868D01*
X139335461Y-101597035D01*
X139331210Y-101590420D01*
X138589849Y-100849059D01*
X138578313Y-100842759D01*
X138566031Y-100852382D01*
X138518089Y-100922662D01*
X138513004Y-100931613D01*
X138423338Y-101124783D01*
X138419775Y-101134470D01*
X138362864Y-101339681D01*
X138360933Y-101349800D01*
X138338302Y-101561574D01*
X138338050Y-101571863D01*
X135328500Y-101571863D01*
X135328500Y-98728504D01*
X135348502Y-98660383D01*
X135402158Y-98613890D01*
X135472432Y-98603786D01*
X135505747Y-98613396D01*
X135558506Y-98636886D01*
X135592374Y-98651965D01*
X135607712Y-98658794D01*
X135695952Y-98677550D01*
X135788056Y-98697128D01*
X135788061Y-98697128D01*
X135794513Y-98698500D01*
X135985487Y-98698500D01*
X135991939Y-98697128D01*
X135991944Y-98697128D01*
X136084048Y-98677550D01*
X136172288Y-98658794D01*
X136178319Y-98656109D01*
X136340722Y-98583803D01*
X136340724Y-98583802D01*
X136346752Y-98581118D01*
X136501253Y-98468866D01*
X136575254Y-98386680D01*
X136624621Y-98331852D01*
X136624622Y-98331851D01*
X136629040Y-98326944D01*
X136701097Y-98202138D01*
X136721223Y-98167279D01*
X136721224Y-98167278D01*
X136724527Y-98161556D01*
X136783542Y-97979928D01*
X136788027Y-97937261D01*
X136802814Y-97796565D01*
X136803504Y-97790000D01*
X136783542Y-97600072D01*
X136724527Y-97418444D01*
X136629040Y-97253056D01*
X136624621Y-97248148D01*
X136622564Y-97245317D01*
X136598705Y-97178449D01*
X136598500Y-97171256D01*
X136598500Y-80628744D01*
X136618502Y-80560623D01*
X136622564Y-80554683D01*
X136624621Y-80551852D01*
X136629040Y-80546944D01*
X136647940Y-80514209D01*
X136721223Y-80387279D01*
X136721224Y-80387278D01*
X136724527Y-80381556D01*
X136783542Y-80199928D01*
X136789620Y-80142104D01*
X136802814Y-80016565D01*
X136803504Y-80010000D01*
X136783542Y-79820072D01*
X136724527Y-79638444D01*
X136629040Y-79473056D01*
X136601147Y-79442077D01*
X136505675Y-79336045D01*
X136505674Y-79336044D01*
X136501253Y-79331134D01*
X136378311Y-79241811D01*
X136352094Y-79222763D01*
X136352093Y-79222762D01*
X136346752Y-79218882D01*
X136340724Y-79216198D01*
X136340722Y-79216197D01*
X136178319Y-79143891D01*
X136178318Y-79143891D01*
X136172288Y-79141206D01*
X136078887Y-79121353D01*
X135991944Y-79102872D01*
X135991939Y-79102872D01*
X135985487Y-79101500D01*
X135794513Y-79101500D01*
X135788061Y-79102872D01*
X135788056Y-79102872D01*
X135701113Y-79121353D01*
X135607712Y-79141206D01*
X135601682Y-79143891D01*
X135601681Y-79143891D01*
X135439278Y-79216197D01*
X135439276Y-79216198D01*
X135433248Y-79218882D01*
X135427907Y-79222762D01*
X135427906Y-79222763D01*
X135401689Y-79241811D01*
X135278747Y-79331134D01*
X135274326Y-79336044D01*
X135274325Y-79336045D01*
X135178854Y-79442077D01*
X135150960Y-79473056D01*
X135055473Y-79638444D01*
X134996458Y-79820072D01*
X134976496Y-80010000D01*
X134977186Y-80016565D01*
X134990381Y-80142104D01*
X134996458Y-80199928D01*
X135055473Y-80381556D01*
X135058776Y-80387278D01*
X135058777Y-80387279D01*
X135132060Y-80514209D01*
X135150960Y-80546944D01*
X135155379Y-80551852D01*
X135157436Y-80554683D01*
X135181295Y-80621551D01*
X135181500Y-80628744D01*
X135181500Y-86691496D01*
X135161498Y-86759617D01*
X135107842Y-86806110D01*
X135037568Y-86816214D01*
X135004253Y-86806604D01*
X134937530Y-86776897D01*
X134908319Y-86763891D01*
X134908318Y-86763891D01*
X134902288Y-86761206D01*
X134808887Y-86741353D01*
X134721944Y-86722872D01*
X134721939Y-86722872D01*
X134715487Y-86721500D01*
X134524513Y-86721500D01*
X134518061Y-86722872D01*
X134518056Y-86722872D01*
X134431113Y-86741353D01*
X134337712Y-86761206D01*
X134331682Y-86763891D01*
X134331681Y-86763891D01*
X134169278Y-86836197D01*
X134169276Y-86836198D01*
X134163248Y-86838882D01*
X134157907Y-86842762D01*
X134157906Y-86842763D01*
X134131689Y-86861811D01*
X134008747Y-86951134D01*
X134004326Y-86956044D01*
X134004325Y-86956045D01*
X133908854Y-87062077D01*
X133880960Y-87093056D01*
X133785473Y-87258444D01*
X133726458Y-87440072D01*
X133725768Y-87446633D01*
X133725768Y-87446635D01*
X133717720Y-87523206D01*
X133706496Y-87630000D01*
X124000000Y-87630000D01*
X124000000Y-43134500D01*
X124020002Y-43066379D01*
X124073658Y-43019886D01*
X124126000Y-43008500D01*
X187374000Y-43008500D01*
X187442121Y-43028502D01*
G37*
%TD.AperFunction*%
%TD*%
M02*
