M48
; DRILL file {KiCad (6.0.9)} date Wed Dec 21 20:26:05 2022
; FORMAT={-:-/ absolute / inch / decimal}
; #@! TF.CreationDate,2022-12-21T20:26:05+07:00
; #@! TF.GenerationSoftware,Kicad,Pcbnew,(6.0.9)
; #@! TF.FileFunction,Plated,1,2,PTH
FMAT,2
INCH
; #@! TA.AperFunction,Plated,PTH,ViaDrill
T1C0.0157
; #@! TA.AperFunction,Plated,PTH,ViaDrill
T2C0.0236
; #@! TA.AperFunction,Plated,PTH,ComponentDrill
T3C0.0394
; #@! TA.AperFunction,Plated,PTH,ComponentDrill
T4C0.0512
; #@! TA.AperFunction,Plated,PTH,ComponentDrill
T5C0.0598
; #@! TA.AperFunction,Plated,PTH,ComponentDrill
T6C0.1260
%
G90
G05
T1
X3.4252Y-3.4646
X3.5827Y-3.4252
X3.586Y-3.166
X3.65Y-1.8
X3.72Y-4.1
X3.7402Y-2.9134
X3.8976Y-1.8701
X3.8976Y-1.9685
X3.8976Y-2.0866
X3.937Y-3.5039
X4.0354Y-1.8701
X4.0354Y-1.9685
X4.0354Y-2.0866
X4.1732Y-1.8701
X4.1732Y-1.9685
X4.1732Y-2.0866
X4.256Y-3.262
X4.256Y-3.686
X4.49Y-1.79
X4.52Y-3.186
X4.526Y-2.684
X4.54Y-3.656
T2
X5.05Y-2.85
X5.05Y-3.35
X5.05Y-3.85
X5.3Y-3.45
X5.35Y-3.15
X5.35Y-3.85
X5.7Y-4.15
X5.92Y-3.72
X6.22Y-3.06
X6.24Y-2.68
X6.26Y-3.3
X6.32Y-3.72
X6.44Y-2.88
X6.54Y-3.48
X6.56Y-3.74
X6.6Y-2.7
X6.66Y-3.36
X6.66Y-4.0
X6.76Y-2.82
X6.76Y-3.08
X6.8Y-2.14
X6.8Y-2.46
X7.58Y-2.74
X7.58Y-4.14
X7.68Y-3.42
T3
X5.5Y-2.2
X5.5Y-2.3
X5.5Y-2.4
X5.5Y-2.5
X5.5Y-2.6
X5.5Y-2.7
X5.5Y-2.8
X5.5Y-2.9
X5.5Y-3.0
X5.5Y-3.1
X5.5Y-3.2
X5.5Y-3.3
X5.5Y-3.4
X5.5Y-3.5
X5.5Y-3.6
X5.5Y-3.7
X5.5Y-3.8
X5.5Y-3.9
X5.5Y-4.0
X5.5Y-4.1
X6.1Y-2.2
X6.1Y-2.3
X6.1Y-2.4
X6.1Y-2.5
X6.1Y-2.6
X6.1Y-2.7
X6.1Y-2.8
X6.1Y-2.9
X6.1Y-3.0
X6.1Y-3.1
X6.1Y-3.2
X6.1Y-3.3
X6.1Y-3.4
X6.1Y-3.5
X6.1Y-3.6
X6.1Y-3.7
X6.1Y-3.8
X6.1Y-3.9
X6.1Y-4.0
X6.1Y-4.1
X6.7Y-4.5
X6.7984Y-4.5
X7.1Y-4.5
X7.1984Y-4.5
T4
X8.1811Y-2.148
X8.1811Y-2.348
X8.1811Y-2.548
X8.1811Y-2.748
X8.1811Y-2.948
X8.1811Y-3.148
X8.1811Y-3.348
X8.1811Y-3.548
X8.1811Y-3.748
X8.1811Y-3.948
X8.1811Y-4.148
X8.1811Y-4.348
T5
X3.0512Y-2.6575
X3.0512Y-2.8575
X3.0512Y-3.6417
X3.0512Y-3.8417
T6
X3.1496Y-2.02
X7.6772Y-2.0079
X7.6772Y-4.4488
T0
M30
