%TF.GenerationSoftware,KiCad,Pcbnew,(6.0.9)*%
%TF.CreationDate,2022-12-21T20:26:07+07:00*%
%TF.ProjectId,3_phase_firing,335f7068-6173-4655-9f66-6972696e672e,rev?*%
%TF.SameCoordinates,Original*%
%TF.FileFunction,Legend,Bot*%
%TF.FilePolarity,Positive*%
%FSLAX46Y46*%
G04 Gerber Fmt 4.6, Leading zero omitted, Abs format (unit mm)*
G04 Created by KiCad (PCBNEW (6.0.9)) date 2022-12-21 20:26:07*
%MOMM*%
%LPD*%
G01*
G04 APERTURE LIST*
%ADD10C,0.150000*%
%ADD11C,0.120000*%
G04 APERTURE END LIST*
D10*
%TO.C,D11*%
X168092285Y-95869380D02*
X168092285Y-94869380D01*
X167854190Y-94869380D01*
X167711333Y-94917000D01*
X167616095Y-95012238D01*
X167568476Y-95107476D01*
X167520857Y-95297952D01*
X167520857Y-95440809D01*
X167568476Y-95631285D01*
X167616095Y-95726523D01*
X167711333Y-95821761D01*
X167854190Y-95869380D01*
X168092285Y-95869380D01*
X166568476Y-95869380D02*
X167139904Y-95869380D01*
X166854190Y-95869380D02*
X166854190Y-94869380D01*
X166949428Y-95012238D01*
X167044666Y-95107476D01*
X167139904Y-95155095D01*
X165616095Y-95869380D02*
X166187523Y-95869380D01*
X165901809Y-95869380D02*
X165901809Y-94869380D01*
X165997047Y-95012238D01*
X166092285Y-95107476D01*
X166187523Y-95155095D01*
%TO.C,U12*%
X188563095Y-98556380D02*
X188563095Y-99365904D01*
X188515476Y-99461142D01*
X188467857Y-99508761D01*
X188372619Y-99556380D01*
X188182142Y-99556380D01*
X188086904Y-99508761D01*
X188039285Y-99461142D01*
X187991666Y-99365904D01*
X187991666Y-98556380D01*
X186991666Y-99556380D02*
X187563095Y-99556380D01*
X187277380Y-99556380D02*
X187277380Y-98556380D01*
X187372619Y-98699238D01*
X187467857Y-98794476D01*
X187563095Y-98842095D01*
X186610714Y-98651619D02*
X186563095Y-98604000D01*
X186467857Y-98556380D01*
X186229761Y-98556380D01*
X186134523Y-98604000D01*
X186086904Y-98651619D01*
X186039285Y-98746857D01*
X186039285Y-98842095D01*
X186086904Y-98984952D01*
X186658333Y-99556380D01*
X186039285Y-99556380D01*
%TO.C,D9*%
X167108095Y-63103380D02*
X167108095Y-62103380D01*
X166870000Y-62103380D01*
X166727142Y-62151000D01*
X166631904Y-62246238D01*
X166584285Y-62341476D01*
X166536666Y-62531952D01*
X166536666Y-62674809D01*
X166584285Y-62865285D01*
X166631904Y-62960523D01*
X166727142Y-63055761D01*
X166870000Y-63103380D01*
X167108095Y-63103380D01*
X166060476Y-63103380D02*
X165870000Y-63103380D01*
X165774761Y-63055761D01*
X165727142Y-63008142D01*
X165631904Y-62865285D01*
X165584285Y-62674809D01*
X165584285Y-62293857D01*
X165631904Y-62198619D01*
X165679523Y-62151000D01*
X165774761Y-62103380D01*
X165965238Y-62103380D01*
X166060476Y-62151000D01*
X166108095Y-62198619D01*
X166155714Y-62293857D01*
X166155714Y-62531952D01*
X166108095Y-62627190D01*
X166060476Y-62674809D01*
X165965238Y-62722428D01*
X165774761Y-62722428D01*
X165679523Y-62674809D01*
X165631904Y-62627190D01*
X165584285Y-62531952D01*
%TO.C,U10*%
X188436095Y-66552380D02*
X188436095Y-67361904D01*
X188388476Y-67457142D01*
X188340857Y-67504761D01*
X188245619Y-67552380D01*
X188055142Y-67552380D01*
X187959904Y-67504761D01*
X187912285Y-67457142D01*
X187864666Y-67361904D01*
X187864666Y-66552380D01*
X186864666Y-67552380D02*
X187436095Y-67552380D01*
X187150380Y-67552380D02*
X187150380Y-66552380D01*
X187245619Y-66695238D01*
X187340857Y-66790476D01*
X187436095Y-66838095D01*
X186245619Y-66552380D02*
X186150380Y-66552380D01*
X186055142Y-66600000D01*
X186007523Y-66647619D01*
X185959904Y-66742857D01*
X185912285Y-66933333D01*
X185912285Y-67171428D01*
X185959904Y-67361904D01*
X186007523Y-67457142D01*
X186055142Y-67504761D01*
X186150380Y-67552380D01*
X186245619Y-67552380D01*
X186340857Y-67504761D01*
X186388476Y-67457142D01*
X186436095Y-67361904D01*
X186483714Y-67171428D01*
X186483714Y-66933333D01*
X186436095Y-66742857D01*
X186388476Y-66647619D01*
X186340857Y-66600000D01*
X186245619Y-66552380D01*
%TO.C,R27*%
X177450357Y-96338380D02*
X177783690Y-95862190D01*
X178021785Y-96338380D02*
X178021785Y-95338380D01*
X177640833Y-95338380D01*
X177545595Y-95386000D01*
X177497976Y-95433619D01*
X177450357Y-95528857D01*
X177450357Y-95671714D01*
X177497976Y-95766952D01*
X177545595Y-95814571D01*
X177640833Y-95862190D01*
X178021785Y-95862190D01*
X177069404Y-95433619D02*
X177021785Y-95386000D01*
X176926547Y-95338380D01*
X176688452Y-95338380D01*
X176593214Y-95386000D01*
X176545595Y-95433619D01*
X176497976Y-95528857D01*
X176497976Y-95624095D01*
X176545595Y-95766952D01*
X177117023Y-96338380D01*
X176497976Y-96338380D01*
X176164642Y-95338380D02*
X175497976Y-95338380D01*
X175926547Y-96338380D01*
%TO.C,R25*%
X177172857Y-63572380D02*
X177506190Y-63096190D01*
X177744285Y-63572380D02*
X177744285Y-62572380D01*
X177363333Y-62572380D01*
X177268095Y-62620000D01*
X177220476Y-62667619D01*
X177172857Y-62762857D01*
X177172857Y-62905714D01*
X177220476Y-63000952D01*
X177268095Y-63048571D01*
X177363333Y-63096190D01*
X177744285Y-63096190D01*
X176791904Y-62667619D02*
X176744285Y-62620000D01*
X176649047Y-62572380D01*
X176410952Y-62572380D01*
X176315714Y-62620000D01*
X176268095Y-62667619D01*
X176220476Y-62762857D01*
X176220476Y-62858095D01*
X176268095Y-63000952D01*
X176839523Y-63572380D01*
X176220476Y-63572380D01*
X175315714Y-62572380D02*
X175791904Y-62572380D01*
X175839523Y-63048571D01*
X175791904Y-63000952D01*
X175696666Y-62953333D01*
X175458571Y-62953333D01*
X175363333Y-63000952D01*
X175315714Y-63048571D01*
X175268095Y-63143809D01*
X175268095Y-63381904D01*
X175315714Y-63477142D01*
X175363333Y-63524761D01*
X175458571Y-63572380D01*
X175696666Y-63572380D01*
X175791904Y-63524761D01*
X175839523Y-63477142D01*
%TO.C,U8*%
X187832904Y-82554380D02*
X187832904Y-83363904D01*
X187785285Y-83459142D01*
X187737666Y-83506761D01*
X187642428Y-83554380D01*
X187451952Y-83554380D01*
X187356714Y-83506761D01*
X187309095Y-83459142D01*
X187261476Y-83363904D01*
X187261476Y-82554380D01*
X186642428Y-82982952D02*
X186737666Y-82935333D01*
X186785285Y-82887714D01*
X186832904Y-82792476D01*
X186832904Y-82744857D01*
X186785285Y-82649619D01*
X186737666Y-82602000D01*
X186642428Y-82554380D01*
X186451952Y-82554380D01*
X186356714Y-82602000D01*
X186309095Y-82649619D01*
X186261476Y-82744857D01*
X186261476Y-82792476D01*
X186309095Y-82887714D01*
X186356714Y-82935333D01*
X186451952Y-82982952D01*
X186642428Y-82982952D01*
X186737666Y-83030571D01*
X186785285Y-83078190D01*
X186832904Y-83173428D01*
X186832904Y-83363904D01*
X186785285Y-83459142D01*
X186737666Y-83506761D01*
X186642428Y-83554380D01*
X186451952Y-83554380D01*
X186356714Y-83506761D01*
X186309095Y-83459142D01*
X186261476Y-83363904D01*
X186261476Y-83173428D01*
X186309095Y-83078190D01*
X186356714Y-83030571D01*
X186451952Y-82982952D01*
%TO.C,R23*%
X176815357Y-80082380D02*
X177148690Y-79606190D01*
X177386785Y-80082380D02*
X177386785Y-79082380D01*
X177005833Y-79082380D01*
X176910595Y-79130000D01*
X176862976Y-79177619D01*
X176815357Y-79272857D01*
X176815357Y-79415714D01*
X176862976Y-79510952D01*
X176910595Y-79558571D01*
X177005833Y-79606190D01*
X177386785Y-79606190D01*
X176434404Y-79177619D02*
X176386785Y-79130000D01*
X176291547Y-79082380D01*
X176053452Y-79082380D01*
X175958214Y-79130000D01*
X175910595Y-79177619D01*
X175862976Y-79272857D01*
X175862976Y-79368095D01*
X175910595Y-79510952D01*
X176482023Y-80082380D01*
X175862976Y-80082380D01*
X175529642Y-79082380D02*
X174910595Y-79082380D01*
X175243928Y-79463333D01*
X175101071Y-79463333D01*
X175005833Y-79510952D01*
X174958214Y-79558571D01*
X174910595Y-79653809D01*
X174910595Y-79891904D01*
X174958214Y-79987142D01*
X175005833Y-80034761D01*
X175101071Y-80082380D01*
X175386785Y-80082380D01*
X175482023Y-80034761D01*
X175529642Y-79987142D01*
%TO.C,D7*%
X167402095Y-79359380D02*
X167402095Y-78359380D01*
X167164000Y-78359380D01*
X167021142Y-78407000D01*
X166925904Y-78502238D01*
X166878285Y-78597476D01*
X166830666Y-78787952D01*
X166830666Y-78930809D01*
X166878285Y-79121285D01*
X166925904Y-79216523D01*
X167021142Y-79311761D01*
X167164000Y-79359380D01*
X167402095Y-79359380D01*
X166497333Y-78359380D02*
X165830666Y-78359380D01*
X166259238Y-79359380D01*
D11*
%TO.C,D11*%
X171278000Y-99567000D02*
X164378000Y-99567000D01*
X171278000Y-96267000D02*
X164378000Y-96267000D01*
X171278000Y-96267000D02*
X171278000Y-99567000D01*
%TO.C,U12*%
X189860000Y-98104000D02*
X188325000Y-98104000D01*
X184790000Y-98104000D02*
X184790000Y-90364000D01*
X184790000Y-90364000D02*
X189860000Y-90364000D01*
X193560000Y-98164000D02*
X181090000Y-98164000D01*
X189860000Y-90364000D02*
X189860000Y-98104000D01*
X181090000Y-90304000D02*
X193560000Y-90304000D01*
X193560000Y-90304000D02*
X193560000Y-98164000D01*
X181090000Y-98164000D02*
X181090000Y-90304000D01*
X186325000Y-98104000D02*
X184790000Y-98104000D01*
X188325000Y-98104000D02*
G75*
G03*
X186325000Y-98104000I-1000000J0D01*
G01*
%TO.C,D9*%
X170770000Y-63501000D02*
X170770000Y-66801000D01*
X170770000Y-63501000D02*
X163870000Y-63501000D01*
X170770000Y-66801000D02*
X163870000Y-66801000D01*
%TO.C,U10*%
X189733000Y-66100000D02*
X188198000Y-66100000D01*
X193433000Y-58300000D02*
X193433000Y-66160000D01*
X189733000Y-58360000D02*
X189733000Y-66100000D01*
X193433000Y-66160000D02*
X180963000Y-66160000D01*
X184663000Y-66100000D02*
X184663000Y-58360000D01*
X180963000Y-66160000D02*
X180963000Y-58300000D01*
X186198000Y-66100000D02*
X184663000Y-66100000D01*
X180963000Y-58300000D02*
X193433000Y-58300000D01*
X184663000Y-58360000D02*
X189733000Y-58360000D01*
X188198000Y-66100000D02*
G75*
G03*
X186198000Y-66100000I-1000000J0D01*
G01*
%TO.C,R27*%
X177034564Y-98271000D02*
X176580436Y-98271000D01*
X177034564Y-96801000D02*
X176580436Y-96801000D01*
%TO.C,R25*%
X176757064Y-65505000D02*
X176302936Y-65505000D01*
X176757064Y-64035000D02*
X176302936Y-64035000D01*
%TO.C,U8*%
X184536000Y-82102000D02*
X184536000Y-74362000D01*
X180836000Y-82162000D02*
X180836000Y-74302000D01*
X193306000Y-74302000D02*
X193306000Y-82162000D01*
X186071000Y-82102000D02*
X184536000Y-82102000D01*
X193306000Y-82162000D02*
X180836000Y-82162000D01*
X189606000Y-82102000D02*
X188071000Y-82102000D01*
X189606000Y-74362000D02*
X189606000Y-82102000D01*
X184536000Y-74362000D02*
X189606000Y-74362000D01*
X180836000Y-74302000D02*
X193306000Y-74302000D01*
X188071000Y-82102000D02*
G75*
G03*
X186071000Y-82102000I-1000000J0D01*
G01*
%TO.C,R23*%
X176399564Y-82015000D02*
X175945436Y-82015000D01*
X176399564Y-80545000D02*
X175945436Y-80545000D01*
%TO.C,D7*%
X171064000Y-79757000D02*
X164164000Y-79757000D01*
X171064000Y-79757000D02*
X171064000Y-83057000D01*
X171064000Y-83057000D02*
X164164000Y-83057000D01*
%TD*%
M02*
